999
dxfrw 0.6.3
  0
SECTION
  2
HEADER
  9
$ACADVER
  1
AC1021
  9
$DWGCODEPAGE
  3
ANSI_1252
  9
$INSBASE
 10
0
 20
0
 30
0
  9
$EXTMIN
 10
206.8773841961853
 20
39.52797202797203
 30
0
  9
$EXTMAX
 10
330.1798365122615
 20
251.4335664335664
 30
0
  9
$LIMMIN
 10
0
 20
0
  9
$LIMMAX
 10
420
 20
297
  9
$ORTHOMODE
 70
    0
  9
$REGENMODE
 70
    1
  9
$FILLMODE
 70
    1
  9
$QTEXTMODE
 70
    0
  9
$MIRRTEXT
 70
    1
  9
$LTSCALE
 40
1
  9
$ATTMODE
 70
    1
  9
$TEXTSIZE
 40
2.5
  9
$TRACEWID
 40
1
  9
$TEXTSTYLE
  7
Standard
  9
$CLAYER
  8
0
  9
$CELTYPE
  6
ByLayer
  9
$CECOLOR
 62
  256
  9
$CELTSCALE
 40
1
  9
$DISPSILH
 70
    0
  9
$DIMSCALE
 40
1
  9
$DIMASZ
 40
2.5
  9
$DIMEXO
 40
0.625
  9
$DIMDLI
 40
3.75
  9
$DIMRND
 40
0
  9
$DIMDLE
 40
0
  9
$DIMEXE
 40
1.25
  9
$DIMTP
 40
0
  9
$DIMTM
 40
0
  9
$DIMTXT
 40
2.5
  9
$DIMCEN
 40
2.5
  9
$DIMTSZ
 40
0
  9
$DIMTOL
 70
    0
  9
$DIMLIM
 70
    0
  9
$DIMTIH
 70
    0
  9
$DIMTOH
 70
    0
  9
$DIMSE1
 70
    0
  9
$DIMSE2
 70
    0
  9
$DIMTAD
 70
    1
  9
$DIMZIN
 70
    8
  9
$DIMBLK
  1

  9
$DIMASO
 70
    1
  9
$DIMSHO
 70
    1
  9
$DIMPOST
  1

  9
$DIMAPOST
  1

  9
$DIMALT
 70
    0
  9
$DIMALTD
 70
    3
  9
$DIMALTF
 40
0.03937007874
  9
$DIMLFAC
 40
1
  9
$DIMTOFL
 70
    1
  9
$DIMTVP
 40
0
  9
$DIMTIX
 70
    0
  9
$DIMSOXD
 70
    0
  9
$DIMSAH
 70
    0
  9
$DIMBLK1
  1

  9
$DIMBLK2
  1

  9
$DIMSTYLE
  2
ISO-25
  9
$DIMCLRD
 70
    0
  9
$DIMCLRE
 70
    0
  9
$DIMCLRT
 70
    0
  9
$DIMTFAC
 40
1
  9
$DIMGAP
 40
0.625
  9
$DIMJUST
 70
    0
  9
$DIMSD1
 70
    0
  9
$DIMSD2
 70
    0
  9
$DIMTOLJ
 70
    0
  9
$DIMTZIN
 70
    8
  9
$DIMALTZ
 70
    0
  9
$DIMALTTZ
 70
    0
  9
$DIMUPT
 70
    0
  9
$DIMDEC
 70
    2
  9
$DIMTDEC
 70
    2
  9
$DIMALTU
 70
    2
  9
$DIMALTTD
 70
    3
  9
$DIMTXSTY
  7
Standard
  9
$DIMAUNIT
 70
    0
  9
$DIMADEC
 70
    0
  9
$DIMALTRND
 40
0
  9
$DIMAZIN
 70
    0
  9
$DIMDSEP
 70
   44
  9
$DIMATFIT
 70
    3
  9
$DIMFRAC
 70
    0
  9
$DIMLDRBLK
  1

  9
$DIMLUNIT
 70
    2
  9
$DIMLWD
 70
   -2
  9
$DIMLWE
 70
   -2
  9
$DIMTMOVE
 70
    0
  9
$DIMFXL
 40
1
  9
$DIMFXLON
 70
    0
  9
$DIMJOGANG
 40
0.785398163397
  9
$DIMTFILL
 70
    0
  9
$DIMTFILLCLR
 70
    0
  9
$DIMARCSYM
 70
    0
  9
$DIMLTYPE
  6

  9
$DIMLTEX1
  6

  9
$DIMLTEX2
  6

  9
$LUNITS
 70
    2
  9
$LUPREC
 70
    4
  9
$SKETCHINC
 40
1
  9
$FILLETRAD
 40
10
  9
$AUNITS
 70
    0
  9
$AUPREC
 70
    2
  9
$MENU
  1
.
  9
$ELEVATION
 40
0
  9
$PELEVATION
 40
0
  9
$THICKNESS
 40
0
  9
$LIMCHECK
 70
    0
  9
$CHAMFERA
 40
0
  9
$CHAMFERB
 40
0
  9
$CHAMFERC
 40
0
  9
$CHAMFERD
 40
0
  9
$SKPOLY
 70
    0
  9
$USRTIMER
 70
    1
  9
$ANGBASE
 50
0
  9
$ANGDIR
 70
    0
  9
$PDMODE
 70
    0
  9
$PDSIZE
 40
0
  9
$PLINEWID
 40
0
  9
$SPLFRAME
 70
    0
  9
$SPLINETYPE
 70
    6
  9
$SPLINESEGS
 70
    8
  9
$HANDSEED
  5
20000
  9
$SURFTAB1
 70
    6
  9
$SURFTAB2
 70
    6
  9
$SURFTYPE
 70
    6
  9
$SURFU
 70
    6
  9
$SURFV
 70
    6
  9
$UCSBASE
  2

  9
$UCSNAME
  2

  9
$UCSORG
 10
0
 20
0
 30
0
  9
$UCSXDIR
 10
1
 20
0
 30
0
  9
$UCSYDIR
 10
0
 20
1
 30
0
  9
$UCSORTHOREF
  2

  9
$UCSORTHOVIEW
 70
    0
  9
$UCSORGTOP
 10
0
 20
0
 30
0
  9
$UCSORGBOTTOM
 10
0
 20
0
 30
0
  9
$UCSORGLEFT
 10
0
 20
0
 30
0
  9
$UCSORGRIGHT
 10
0
 20
0
 30
0
  9
$UCSORGFRONT
 10
0
 20
0
 30
0
  9
$UCSORGBACK
 10
0
 20
0
 30
0
  9
$PUCSBASE
  2

  9
$PUCSNAME
  2

  9
$PUCSORG
 10
0
 20
0
 30
0
  9
$PUCSXDIR
 10
1
 20
0
 30
0
  9
$PUCSYDIR
 10
0
 20
1
 30
0
  9
$PUCSORTHOREF
  2

  9
$PUCSORTHOVIEW
 70
    0
  9
$PUCSORGTOP
 10
0
 20
0
 30
0
  9
$PUCSORGBOTTOM
 10
0
 20
0
 30
0
  9
$PUCSORGLEFT
 10
0
 20
0
 30
0
  9
$PUCSORGRIGHT
 10
0
 20
0
 30
0
  9
$PUCSORGFRONT
 10
0
 20
0
 30
0
  9
$PUCSORGBACK
 10
0
 20
0
 30
0
  9
$USERI1
 70
    0
  9
$USERI2
 70
    0
  9
$USERI3
 70
    0
  9
$USERI4
 70
    0
  9
$USERI5
 70
    0
  9
$USERR1
 40
0
  9
$USERR2
 40
0
  9
$USERR3
 40
0
  9
$USERR4
 40
0
  9
$USERR5
 40
0
  9
$WORLDVIEW
 70
    1
  9
$SHADEDGE
 70
    3
  9
$SHADEDIF
 70
   70
  9
$TILEMODE
 70
    1
  9
$MAXACTVP
 70
   64
  9
$PINSBASE
 10
0
 20
0
 30
0
  9
$PLIMCHECK
 70
    0
  9
$PEXTMIN
 10
1e+20
 20
1e+20
 30
1e+20
  9
$PEXTMAX
 10
-1e+20
 20
-1e+20
 30
-1e+20
  9
$GRIDMODE
 70
    0
  9
$SNAPSTYLE
 70
    0
  9
$PLIMMIN
 10
0
 20
0
  9
$PLIMMAX
 10
420
 20
297
  9
$UNITMODE
 70
    0
  9
$VISRETAIN
 70
    1
  9
$PLINEGEN
 70
    0
  9
$PSLTSCALE
 70
    1
  9
$TREEDEPTH
 70
 3020
  9
$CMLSTYLE
  2
Standard
  9
$CMLJUST
 70
    0
  9
$CMLSCALE
 40
20
  9
$PROXYGRAPHICS
 70
    1
  9
$MEASUREMENT
 70
    1
  9
$CELWEIGHT
370
   -1
  9
$ENDCAPS
280
    0
  9
$JOINSTYLE
280
    0
  9
$LWDISPLAY
290
    0
  9
$INSUNITS
 70
    6
  9
$HYPERLINKBASE
  1

  9
$STYLESHEET
  1

  9
$XEDIT
290
    1
  9
$CEPSNTYPE
380
    0
  9
$PSTYLEMODE
290
    1
  9
$EXTNAMES
290
    1
  9
$PSVPSCALE
 40
0
  9
$OLESTARTUP
290
    0
  9
$SORTENTS
280
  127
  9
$INDEXCTL
280
    0
  9
$HIDETEXT
280
    1
  9
$XCLIPFRAME
290
    1
  9
$HALOGAP
280
    0
  9
$OBSCOLOR
 70
  257
  9
$OBSLTYPE
280
    0
  9
$INTERSECTIONDISPLAY
280
    0
  9
$INTERSECTIONCOLOR
 70
  257
  9
$DIMASSOC
280
    2
  9
$PROJECTNAME
  1

  9
$CAMERADISPLAY
290
    0
  9
$LENSLENGTH
 40
50
  9
$CAMERAHEIGHT
 40
0
  9
$STEPSPERSEC
 40
24
  9
$STEPSIZE
 40
100
  9
$3DDWFPREC
 40
2
  9
$PSOLWIDTH
 40
0.005
  9
$PSOLHEIGHT
 40
0.08
  9
$LOFTANG1
 40
1.570796326795
  9
$LOFTANG2
 40
1.570796326795
  9
$LOFTMAG1
 40
0
  9
$LOFTMAG2
 40
0
  9
$LOFTPARAM
 70
    7
  9
$LOFTNORMALS
280
    1
  9
$LATITUDE
 40
37.795
  9
$LONGITUDE
 40
-122.394
  9
$NORTHDIRECTION
 40
0
  9
$TIMEZONE
 70
-8000
  9
$LIGHTGLYPHDISPLAY
280
    1
  9
$TILEMODELIGHTSYNCH
280
    1
  9
$SOLIDHIST
280
    0
  9
$SHOWHIST
280
    1
  9
$DWFFRAME
280
    2
  9
$DGNFRAME
280
    2
  9
$REALWORLDSCALE
290
    1
  9
$INTERFERECOLOR
 62
  256
  9
$CSHADOW
280
    0
  9
$SHADOWPLANELOCATION
 40
0
  0
ENDSEC
  0
SECTION
  2
CLASSES
  0
ENDSEC
  0
SECTION
  2
TABLES
  0
TABLE
  2
VPORT
  5
8
330
0
100
AcDbSymbolTable
 70
    1
  0
VPORT
  5
31
330
2
100
AcDbSymbolTableRecord
100
AcDbViewportTableRecord
  2
*ACTIVE
 70
    0
 10
0
 20
0
 11
1
 21
1
 12
24973.27214906247
 22
24251.1534363185
 13
0
 23
0
 14
10
 24
10
 15
10
 25
10
 16
0
 26
0
 36
1
 17
0
 27
0
 37
0
 40
100133.7948338312
 41
1.032451923076923
 42
50
 43
0
 44
0
 50
0
 51
0
 71
    0
 72
  100
 73
    1
 74
    3
 75
    0
 76
    0
 77
    0
 78
    0
281
    0
 65
    1
110
0
120
0
130
0
111
1
121
0
131
0
112
0
122
1
132
0
 79
    0
146
0
348
10020
 60
    7
 61
    5
292
1
282
    1
141
0
142
0
 63
  250
421
3358443
  0
ENDTAB
  0
TABLE
  2
LTYPE
  5
5
330
0
100
AcDbSymbolTable
 70
    4
  0
LTYPE
  5
14
330
5
100
AcDbSymbolTableRecord
100
AcDbLinetypeTableRecord
  2
ByBlock
 70
    0
  3

 72
   65
 73
    0
 40
0
  0
LTYPE
  5
15
330
5
100
AcDbSymbolTableRecord
100
AcDbLinetypeTableRecord
  2
ByLayer
 70
    0
  3

 72
   65
 73
    0
 40
0
  0
LTYPE
  5
16
330
5
100
AcDbSymbolTableRecord
100
AcDbLinetypeTableRecord
  2
Continuous
 70
    0
  3
Solid line
 72
   65
 73
    0
 40
0
  0
LTYPE
  5
32
330
5
100
AcDbSymbolTableRecord
100
AcDbLinetypeTableRecord
  2
DOT
 70
    0
  3
Dot . . . . . . . . . . . . . . . . . . . . . .
 72
   65
 73
    2
 40
6.35
 49
0
 74
    0
 49
-6.35
 74
    0
  0
LTYPE
  5
33
330
5
100
AcDbSymbolTableRecord
100
AcDbLinetypeTableRecord
  2
DOTTINY
 70
    0
  3
Dot (.15x) .....................................
 72
   65
 73
    2
 40
0.9525
 49
0
 74
    0
 49
-0.9525
 74
    0
  0
LTYPE
  5
34
330
5
100
AcDbSymbolTableRecord
100
AcDbLinetypeTableRecord
  2
DOT2
 70
    0
  3
Dot (.5x) .....................................
 72
   65
 73
    2
 40
3.175
 49
0
 74
    0
 49
-3.175
 74
    0
  0
LTYPE
  5
35
330
5
100
AcDbSymbolTableRecord
100
AcDbLinetypeTableRecord
  2
DOTX2
 70
    0
  3
Dot (2x) .  .  .  .  .  .  .  .  .  .  .  .  .
 72
   65
 73
    2
 40
12.7
 49
0
 74
    0
 49
-12.7
 74
    0
  0
LTYPE
  5
36
330
5
100
AcDbSymbolTableRecord
100
AcDbLinetypeTableRecord
  2
DASHED
 70
    0
  3
Dashed _ _ _ _ _ _ _ _ _ _ _ _ _ _ _ _ _
 72
   65
 73
    2
 40
19.05
 49
12.7
 74
    0
 49
-6.35
 74
    0
  0
LTYPE
  5
37
330
5
100
AcDbSymbolTableRecord
100
AcDbLinetypeTableRecord
  2
DASHEDTINY
 70
    0
  3
Dashed (.15x) _ _ _ _ _ _ _ _ _ _ _ _ _ _ _ _ _
 72
   65
 73
    2
 40
2.8575
 49
1.905
 74
    0
 49
-0.9525
 74
    0
  0
LTYPE
  5
38
330
5
100
AcDbSymbolTableRecord
100
AcDbLinetypeTableRecord
  2
DASHED2
 70
    0
  3
Dashed (.5x) _ _ _ _ _ _ _ _ _ _ _ _ _ _ _ _ _
 72
   65
 73
    2
 40
9.524999999999999
 49
6.35
 74
    0
 49
-3.175
 74
    0
  0
LTYPE
  5
39
330
5
100
AcDbSymbolTableRecord
100
AcDbLinetypeTableRecord
  2
DASHEDX2
 70
    0
  3
Dashed (2x) ____  ____  ____  ____  ____  ___
 72
   65
 73
    2
 40
38.09999999999999
 49
25.4
 74
    0
 49
-12.7
 74
    0
  0
LTYPE
  5
3A
330
5
100
AcDbSymbolTableRecord
100
AcDbLinetypeTableRecord
  2
DASHDOT
 70
    0
  3
Dash dot __ . __ . __ . __ . __ . __ . __ . __
 72
   65
 73
    4
 40
25.4
 49
12.7
 74
    0
 49
-6.35
 74
    0
 49
0
 74
    0
 49
-6.35
 74
    0
  0
LTYPE
  5
3B
330
5
100
AcDbSymbolTableRecord
100
AcDbLinetypeTableRecord
  2
DASHDOTTINY
 70
    0
  3
Dash dot (.15x) _._._._._._._._._._._._._._._.
 72
   65
 73
    4
 40
3.81
 49
1.905
 74
    0
 49
-0.9525
 74
    0
 49
0
 74
    0
 49
-0.9525
 74
    0
  0
LTYPE
  5
3C
330
5
100
AcDbSymbolTableRecord
100
AcDbLinetypeTableRecord
  2
DASHDOT2
 70
    0
  3
Dash dot (.5x) _._._._._._._._._._._._._._._.
 72
   65
 73
    4
 40
12.7
 49
6.35
 74
    0
 49
-3.175
 74
    0
 49
0
 74
    0
 49
-3.175
 74
    0
  0
LTYPE
  5
3D
330
5
100
AcDbSymbolTableRecord
100
AcDbLinetypeTableRecord
  2
DASHDOTX2
 70
    0
  3
Dash dot (2x) ____  .  ____  .  ____  .  ___
 72
   65
 73
    4
 40
50.8
 49
25.4
 74
    0
 49
-12.7
 74
    0
 49
0
 74
    0
 49
-12.7
 74
    0
  0
LTYPE
  5
3E
330
5
100
AcDbSymbolTableRecord
100
AcDbLinetypeTableRecord
  2
DIVIDE
 70
    0
  3
Divide ____ . . ____ . . ____ . . ____ . . ____
 72
   65
 73
    6
 40
31.75
 49
12.7
 74
    0
 49
-6.35
 74
    0
 49
0
 74
    0
 49
-6.35
 74
    0
 49
0
 74
    0
 49
-6.35
 74
    0
  0
LTYPE
  5
3F
330
5
100
AcDbSymbolTableRecord
100
AcDbLinetypeTableRecord
  2
DIVIDETINY
 70
    0
  3
Divide (.15x) __..__..__..__..__..__..__..__.._
 72
   65
 73
    6
 40
4.7625
 49
1.905
 74
    0
 49
-0.9525
 74
    0
 49
0
 74
    0
 49
-0.9525
 74
    0
 49
0
 74
    0
 49
-0.9525
 74
    0
  0
LTYPE
  5
40
330
5
100
AcDbSymbolTableRecord
100
AcDbLinetypeTableRecord
  2
DIVIDE2
 70
    0
  3
Divide (.5x) __..__..__..__..__..__..__..__.._
 72
   65
 73
    6
 40
15.875
 49
6.35
 74
    0
 49
-3.175
 74
    0
 49
0
 74
    0
 49
-3.175
 74
    0
 49
0
 74
    0
 49
-3.175
 74
    0
  0
LTYPE
  5
41
330
5
100
AcDbSymbolTableRecord
100
AcDbLinetypeTableRecord
  2
DIVIDEX2
 70
    0
  3
Divide (2x) ________  .  .  ________  .  .  _
 72
   65
 73
    6
 40
63.5
 49
25.4
 74
    0
 49
-12.7
 74
    0
 49
0
 74
    0
 49
-12.7
 74
    0
 49
0
 74
    0
 49
-12.7
 74
    0
  0
LTYPE
  5
42
330
5
100
AcDbSymbolTableRecord
100
AcDbLinetypeTableRecord
  2
BORDER
 70
    0
  3
Border __ __ . __ __ . __ __ . __ __ . __ __ .
 72
   65
 73
    6
 40
44.45
 49
12.7
 74
    0
 49
-6.35
 74
    0
 49
12.7
 74
    0
 49
-6.35
 74
    0
 49
0
 74
    0
 49
-6.35
 74
    0
  0
LTYPE
  5
43
330
5
100
AcDbSymbolTableRecord
100
AcDbLinetypeTableRecord
  2
BORDERTINY
 70
    0
  3
Border (.15x) __.__.__.__.__.__.__.__.__.__.__.
 72
   65
 73
    6
 40
6.6675
 49
1.905
 74
    0
 49
-0.9525
 74
    0
 49
1.905
 74
    0
 49
-0.9525
 74
    0
 49
0
 74
    0
 49
-0.9525
 74
    0
  0
LTYPE
  5
44
330
5
100
AcDbSymbolTableRecord
100
AcDbLinetypeTableRecord
  2
BORDER2
 70
    0
  3
Border (.5x) __.__.__.__.__.__.__.__.__.__.__.
 72
   65
 73
    6
 40
22.225
 49
6.35
 74
    0
 49
-3.175
 74
    0
 49
6.35
 74
    0
 49
-3.175
 74
    0
 49
0
 74
    0
 49
-3.175
 74
    0
  0
LTYPE
  5
45
330
5
100
AcDbSymbolTableRecord
100
AcDbLinetypeTableRecord
  2
BORDERX2
 70
    0
  3
Border (2x) ____  ____  .  ____  ____  .  ___
 72
   65
 73
    6
 40
88.89999999999999
 49
25.4
 74
    0
 49
-12.7
 74
    0
 49
25.4
 74
    0
 49
-12.7
 74
    0
 49
0
 74
    0
 49
-12.7
 74
    0
  0
LTYPE
  5
46
330
5
100
AcDbSymbolTableRecord
100
AcDbLinetypeTableRecord
  2
CENTER
 70
    0
  3
Center ____ _ ____ _ ____ _ ____ _ ____ _ ____
 72
   65
 73
    4
 40
50.8
 49
31.75
 74
    0
 49
-6.35
 74
    0
 49
6.35
 74
    0
 49
-6.35
 74
    0
  0
LTYPE
  5
47
330
5
100
AcDbSymbolTableRecord
100
AcDbLinetypeTableRecord
  2
CENTERTINY
 70
    0
  3
Center (.15x) ___ _ ___ _ ___ _ ___ _ ___ _ ___
 72
   65
 73
    4
 40
7.619999999999999
 49
4.7625
 74
    0
 49
-0.9525
 74
    0
 49
0.9525
 74
    0
 49
-0.9525
 74
    0
  0
LTYPE
  5
48
330
5
100
AcDbSymbolTableRecord
100
AcDbLinetypeTableRecord
  2
CENTER2
 70
    0
  3
Center (.5x) ___ _ ___ _ ___ _ ___ _ ___ _ ___
 72
   65
 73
    4
 40
28.575
 49
19.05
 74
    0
 49
-3.175
 74
    0
 49
3.175
 74
    0
 49
-3.175
 74
    0
  0
LTYPE
  5
49
330
5
100
AcDbSymbolTableRecord
100
AcDbLinetypeTableRecord
  2
CENTERX2
 70
    0
  3
Center (2x) ________  __  ________  __  _____
 72
   65
 73
    4
 40
101.6
 49
63.5
 74
    0
 49
-12.7
 74
    0
 49
12.7
 74
    0
 49
-12.7
 74
    0
  0
ENDTAB
  0
TABLE
  2
LAYER
  5
2
330
0
100
AcDbSymbolTable
 70
    1
  0
LAYER
  5
10
330
2
100
AcDbSymbolTableRecord
100
AcDbLayerTableRecord
  2
0
 70
    0
 62
    7
  6
CONTINUOUS
370
   -3
390
F
  0
LAYER
  5
4A
330
2
100
AcDbSymbolTableRecord
100
AcDbLayerTableRecord
  2
CONTOURS
 70
    0
 62
    7
  6
CONTINUOUS
370
   -3
390
F
  0
LAYER
  5
4B
330
2
100
AcDbSymbolTableRecord
100
AcDbLayerTableRecord
  2
DIMENSIONS
 70
    1
 62
    7
  6
CONTINUOUS
370
   -3
390
F
  0
LAYER
  5
4C
330
2
100
AcDbSymbolTableRecord
100
AcDbLayerTableRecord
  2
Defpoints
 70
    1
 62
    7
  6
CONTINUOUS
290
0
370
   -3
390
F
  0
LAYER
  5
4D
330
2
100
AcDbSymbolTableRecord
100
AcDbLayerTableRecord
  2
TEXT
 70
    1
 62
    7
  6
CONTINUOUS
370
   -3
390
F
  0
ENDTAB
  0
TABLE
  2
STYLE
  5
3
330
0
100
AcDbSymbolTable
 70
    3
  0
STYLE
  5
4E
330
2
100
AcDbSymbolTableRecord
100
AcDbTextStyleTableRecord
  2
STANDARD
 70
    0
 40
0
 41
1
 50
0
 71
    0
 42
1
  3
STANDARD
  4

  0
ENDTAB
  0
TABLE
  2
VIEW
  5
6
330
0
100
AcDbSymbolTable
 70
    0
  0
ENDTAB
  0
TABLE
  2
UCS
  5
7
330
0
100
AcDbSymbolTable
 70
    0
  0
ENDTAB
  0
TABLE
  2
APPID
  5
9
330
0
100
AcDbSymbolTable
 70
    1
  0
APPID
  5
12
330
9
100
AcDbSymbolTableRecord
100
AcDbRegAppTableRecord
  2
ACAD
 70
    0
  0
APPID
  5
4F
330
9
100
AcDbSymbolTableRecord
100
AcDbRegAppTableRecord
  2
LibreCad
 70
    0
  0
ENDTAB
  0
TABLE
  2
DIMSTYLE
  5
A
330
0
100
AcDbSymbolTable
 70
    1
100
AcDbDimStyleTable
 71
    1
  0
DIMSTYLE
105
50
330
A
100
AcDbSymbolTableRecord
100
AcDbDimStyleTableRecord
  2
Standard
 70
    0
 40
1
 41
2.5
 42
0.625
 43
0.38
 44
1.25
 45
0
 46
0
 47
0
 48
0
 49
1
140
2.5
141
0.09
142
0
143
25.4
144
1
145
0
146
1
147
0.625
148
0
 71
    0
 72
    0
 73
    0
 74
    1
 75
    0
 76
    0
 77
    0
 78
    8
 79
    0
170
    0
171
    2
172
    0
173
    0
174
    0
175
    0
176
    0
177
    0
178
    0
179
    0
271
    2
272
    4
273
    2
274
    2
275
    0
276
    0
277
    2
278
   44
279
    0
280
    0
281
    0
282
    0
283
    1
284
    0
285
    0
286
    0
288
    0
289
    3
340
4E
  0
ENDTAB
  0
TABLE
  2
BLOCK_RECORD
  5
1
330
0
100
AcDbSymbolTable
 70
    2
  0
BLOCK_RECORD
  5
1F
330
1
100
AcDbSymbolTableRecord
100
AcDbBlockTableRecord
  2
*Model_Space
 70
    0
280
    1
281
    0
  0
BLOCK_RECORD
  5
1E
330
1
100
AcDbSymbolTableRecord
100
AcDbBlockTableRecord
  2
*Paper_Space
 70
    0
280
    1
281
    0
  0
ENDTAB
  0
ENDSEC
  0
SECTION
  2
BLOCKS
  0
BLOCK
  5
20
330
1F
100
AcDbEntity
  8
0
100
AcDbBlockBegin
  2
*Model_Space
 70
    0
 10
0
 20
0
 30
0
  3
*Model_Space
  1

  0
ENDBLK
  5
21
330
1F
100
AcDbEntity
  8
0
100
AcDbBlockEnd
  0
BLOCK
  5
1C
330
1B
100
AcDbEntity
  8
0
100
AcDbBlockBegin
  2
*Paper_Space
 70
    0
 10
0
 20
0
 30
0
  3
*Paper_Space
  1

  0
ENDBLK
  5
1D
330
1F
100
AcDbEntity
  8
0
100
AcDbBlockEnd
  0
ENDSEC
  0
SECTION
  2
ENTITIES
  0
LWPOLYLINE
  5
51
100
AcDbEntity
  8
CONTOURS
  6
ByLayer
 62
  256
370
   -1
100
AcDbPolyline
 90
  860
 70
    1
 43
0
 10
249.2534059945504
 20
39.52797202797203
 10
248.9591280653951
 20
39.82517482517483
 10
248.0762942779292
 20
39.82517482517483
 10
247.7820163487738
 20
40.12237762237762
 10
247.1934604904632
 20
40.12237762237762
 10
246.8991825613079
 20
40.41958041958042
 10
246.3106267029973
 20
40.41958041958042
 10
245.7220708446866
 20
41.01398601398601
 10
245.4277929155313
 20
41.01398601398601
 10
243.3678474114441
 20
43.09440559440559
 10
242.7792915531335
 20
43.09440559440559
 10
241.0136239782016
 20
44.87762237762238
 10
241.0136239782016
 20
45.17482517482517
 10
240.7193460490463
 20
45.47202797202797
 10
240.7193460490463
 20
45.76923076923077
 10
240.1307901907357
 20
46.36363636363636
 10
240.1307901907357
 20
46.95804195804196
 10
239.542234332425
 20
47.55244755244755
 10
239.542234332425
 20
47.84965034965035
 10
238.0708446866485
 20
49.33566433566433
 10
238.0708446866485
 20
50.52447552447553
 10
238.3651226158038
 20
50.82167832167832
 10
238.3651226158038
 20
51.11888111888112
 10
238.6594005449591
 20
51.41608391608391
 10
238.6594005449591
 20
52.01048951048951
 10
238.9536784741144
 20
52.30769230769231
 10
238.9536784741144
 20
52.60489510489511
 10
239.542234332425
 20
53.1993006993007
 10
239.542234332425
 20
53.49650349650349
 10
239.8365122615804
 20
53.79370629370629
 10
239.8365122615804
 20
54.09090909090909
 10
240.425068119891
 20
54.68531468531469
 10
240.425068119891
 20
54.98251748251748
 10
241.0136239782016
 20
55.57692307692307
 10
241.0136239782016
 20
55.87412587412587
 10
241.8964577656675
 20
56.76573426573427
 10
241.8964577656675
 20
57.06293706293706
 10
243.6621253405994
 20
58.84615384615385
 10
243.6621253405994
 20
59.14335664335664
 10
243.9564032697548
 20
59.44055944055944
 10
244.2506811989101
 20
59.44055944055944
 10
245.7220708446866
 20
60.92657342657343
 10
245.7220708446866
 20
61.22377622377622
 10
246.8991825613079
 20
62.41258741258741
 10
246.8991825613079
 20
62.70979020979021
 10
247.4877384196185
 20
63.30419580419581
 10
247.4877384196185
 20
63.6013986013986
 10
248.0762942779292
 20
64.1958041958042
 10
248.0762942779292
 20
64.49300699300699
 10
248.6648501362398
 20
65.08741258741259
 10
248.6648501362398
 20
65.38461538461539
 10
248.9591280653951
 20
65.68181818181819
 10
248.9591280653951
 20
65.97902097902097
 10
249.2534059945504
 20
66.27622377622377
 10
249.2534059945504
 20
66.57342657342657
 10
249.841961852861
 20
67.16783216783217
 10
249.841961852861
 20
67.46503496503496
 10
250.4305177111717
 20
68.05944055944056
 10
250.4305177111717
 20
68.35664335664336
 10
251.0190735694823
 20
68.95104895104895
 10
251.0190735694823
 20
69.24825174825175
 10
251.3133514986376
 20
69.54545454545455
 10
251.3133514986376
 20
69.84265734265735
 10
251.9019073569482
 20
70.43706293706293
 10
251.9019073569482
 20
70.73426573426573
 10
252.4904632152588
 20
71.32867132867133
 10
252.4904632152588
 20
71.62587412587412
 10
253.6675749318801
 20
72.81468531468532
 10
253.6675749318801
 20
73.11188811188811
 10
254.2561307901907
 20
73.70629370629371
 10
254.2561307901907
 20
74.00349650349651
 10
255.7275204359673
 20
75.48951048951049
 10
255.7275204359673
 20
75.78671328671328
 10
256.6103542234332
 20
76.67832167832168
 10
256.6103542234332
 20
76.97552447552448
 10
258.0817438692098
 20
78.46153846153847
 10
258.0817438692098
 20
78.75874125874125
 10
259.5531335149864
 20
80.24475524475524
 10
259.5531335149864
 20
80.54195804195804
 10
263.3787465940054
 20
84.4055944055944
 10
263.3787465940054
 20
84.7027972027972
 10
266.9100817438692
 20
88.26923076923077
 10
266.9100817438692
 20
88.56643356643356
 10
269.8528610354223
 20
91.53846153846153
 10
269.8528610354223
 20
91.83566433566433
 10
271.0299727520436
 20
93.02447552447552
 10
271.0299727520436
 20
93.32167832167832
 10
271.9128065395095
 20
94.21328671328671
 10
271.9128065395095
 20
94.51048951048951
 10
272.7956403269754
 20
95.40209790209791
 10
272.7956403269754
 20
95.69930069930069
 10
273.6784741144414
 20
96.59090909090909
 10
273.6784741144414
 20
96.88811188811189
 10
274.267029972752
 20
97.48251748251748
 10
274.267029972752
 20
97.77972027972028
 10
274.8555858310626
 20
98.37412587412587
 10
274.8555858310626
 20
98.67132867132867
 10
275.4441416893733
 20
99.26573426573427
 10
275.4441416893733
 20
99.56293706293707
 10
275.7384196185286
 20
99.86013986013985
 10
275.7384196185286
 20
100.1573426573427
 10
276.3269754768392
 20
100.7517482517483
 10
276.3269754768392
 20
101.0489510489511
 10
276.9155313351499
 20
101.6433566433566
 10
276.9155313351499
 20
101.9405594405594
 10
277.2098092643051
 20
102.2377622377622
 10
277.2098092643051
 20
102.534965034965
 10
278.0926430517711
 20
103.4265734265734
 10
278.0926430517711
 20
103.7237762237762
 10
278.3869209809264
 20
104.020979020979
 10
278.3869209809264
 20
104.3181818181818
 10
278.6811989100817
 20
104.6153846153846
 10
278.6811989100817
 20
105.2097902097902
 10
278.975476839237
 20
105.506993006993
 10
278.975476839237
 20
105.8041958041958
 10
279.2697547683924
 20
106.1013986013986
 10
279.2697547683924
 20
106.6958041958042
 10
279.5640326975476
 20
106.993006993007
 10
279.5640326975476
 20
107.2902097902098
 10
279.858310626703
 20
107.5874125874126
 10
279.858310626703
 20
107.8846153846154
 10
280.1525885558583
 20
108.1818181818182
 10
280.1525885558583
 20
108.479020979021
 10
280.4468664850136
 20
108.7762237762238
 10
280.4468664850136
 20
109.0734265734266
 10
280.7411444141689
 20
109.3706293706294
 10
280.7411444141689
 20
109.6678321678322
 10
281.0354223433242
 20
109.965034965035
 10
281.0354223433242
 20
110.2622377622378
 10
281.3297002724796
 20
110.5594405594406
 10
281.3297002724796
 20
110.8566433566434
 10
281.6239782016349
 20
111.1538461538461
 10
281.6239782016349
 20
111.7482517482517
 10
281.9182561307902
 20
112.0454545454545
 10
281.9182561307902
 20
112.6398601398601
 10
282.2125340599455
 20
112.9370629370629
 10
282.2125340599455
 20
113.2342657342657
 10
282.5068119891008
 20
113.5314685314685
 10
282.5068119891008
 20
114.1258741258741
 10
282.8010899182561
 20
114.4230769230769
 10
282.8010899182561
 20
115.0174825174825
 10
283.0953678474114
 20
115.3146853146853
 10
283.0953678474114
 20
115.9090909090909
 10
283.3896457765667
 20
116.2062937062937
 10
283.3896457765667
 20
117.0979020979021
 10
283.6839237057221
 20
117.3951048951049
 10
283.6839237057221
 20
117.9895104895105
 10
283.9782016348774
 20
118.2867132867133
 10
283.9782016348774
 20
119.1783216783217
 10
284.2724795640327
 20
119.4755244755245
 10
284.2724795640327
 20
120.6643356643357
 10
284.566757493188
 20
120.9615384615385
 10
284.566757493188
 20
122.4475524475524
 10
284.8610354223433
 20
122.7447552447552
 10
284.8610354223433
 20
124.2307692307692
 10
285.1553133514986
 20
124.527972027972
 10
285.1553133514986
 20
126.3111888111888
 10
285.4495912806539
 20
126.6083916083916
 10
285.4495912806539
 20
129.2832167832168
 10
285.7438692098092
 20
129.5804195804196
 10
285.7438692098092
 20
140.8741258741259
 10
285.4495912806539
 20
141.1713286713287
 10
285.4495912806539
 20
143.2517482517482
 10
285.1553133514986
 20
143.548951048951
 10
285.1553133514986
 20
145.6293706293706
 10
284.8610354223433
 20
145.9265734265734
 10
284.8610354223433
 20
147.1153846153846
 10
284.566757493188
 20
147.4125874125874
 10
284.566757493188
 20
148.6013986013986
 10
284.2724795640327
 20
148.8986013986014
 10
284.2724795640327
 20
150.3846153846154
 10
283.9782016348774
 20
150.6818181818182
 10
283.9782016348774
 20
151.8706293706294
 10
283.6839237057221
 20
152.1678321678322
 10
283.6839237057221
 20
153.0594405594406
 10
283.3896457765667
 20
153.3566433566434
 10
283.3896457765667
 20
154.2482517482518
 10
283.0953678474114
 20
154.5454545454545
 10
283.0953678474114
 20
155.4370629370629
 10
282.8010899182561
 20
155.7342657342657
 10
282.8010899182561
 20
156.6258741258741
 10
282.5068119891008
 20
156.9230769230769
 10
282.5068119891008
 20
157.5174825174825
 10
282.2125340599455
 20
157.8146853146853
 10
282.2125340599455
 20
158.7062937062937
 10
281.9182561307902
 20
159.0034965034965
 10
281.9182561307902
 20
159.8951048951049
 10
281.6239782016349
 20
160.1923076923077
 10
281.6239782016349
 20
160.7867132867133
 10
281.3297002724796
 20
161.0839160839161
 10
281.3297002724796
 20
161.6783216783217
 10
281.0354223433242
 20
161.9755244755245
 10
281.0354223433242
 20
162.2727272727273
 10
280.7411444141689
 20
162.5699300699301
 10
280.7411444141689
 20
163.4615384615385
 10
280.4468664850136
 20
163.7587412587413
 10
280.4468664850136
 20
164.0559440559441
 10
280.1525885558583
 20
164.3531468531469
 10
280.1525885558583
 20
164.9475524475525
 10
279.858310626703
 20
165.2447552447553
 10
279.858310626703
 20
165.5419580419581
 10
279.2697547683924
 20
166.1363636363636
 10
279.2697547683924
 20
167.027972027972
 10
278.6811989100817
 20
167.6223776223776
 10
278.6811989100817
 20
167.9195804195804
 10
278.3869209809264
 20
168.2167832167832
 10
278.3869209809264
 20
168.8111888111888
 10
278.0926430517711
 20
169.1083916083916
 10
278.0926430517711
 20
169.4055944055944
 10
277.7983651226158
 20
169.7027972027972
 10
277.7983651226158
 20
170
 10
277.5040871934605
 20
170.2972027972028
 10
277.5040871934605
 20
170.5944055944056
 10
277.2098092643051
 20
170.8916083916084
 10
277.2098092643051
 20
171.1888111888112
 10
276.3269754768392
 20
172.0804195804196
 10
276.3269754768392
 20
172.6748251748252
 10
276.0326975476839
 20
172.972027972028
 10
276.0326975476839
 20
173.2692307692308
 10
275.7384196185286
 20
173.5664335664336
 10
275.7384196185286
 20
173.8636363636364
 10
275.149863760218
 20
174.4580419580419
 10
275.149863760218
 20
174.7552447552447
 10
274.8555858310626
 20
175.0524475524475
 10
274.8555858310626
 20
175.3496503496503
 10
274.267029972752
 20
175.9440559440559
 10
274.267029972752
 20
176.2412587412587
 10
273.9727520435967
 20
176.5384615384615
 10
273.9727520435967
 20
176.8356643356643
 10
273.3841961852861
 20
177.4300699300699
 10
273.3841961852861
 20
177.7272727272727
 10
272.5013623978202
 20
178.6188811188811
 10
272.5013623978202
 20
178.9160839160839
 10
271.9128065395095
 20
179.5104895104895
 10
271.9128065395095
 20
179.8076923076923
 10
270.7356948228883
 20
180.9965034965035
 10
270.7356948228883
 20
181.2937062937063
 10
269.8528610354223
 20
182.1853146853147
 10
269.8528610354223
 20
182.4825174825175
 10
268.0871934604904
 20
184.2657342657343
 10
268.0871934604904
 20
184.5629370629371
 10
266.6158038147139
 20
186.048951048951
 10
266.6158038147139
 20
186.3461538461538
 10
263.0844686648501
 20
189.9125874125874
 10
263.0844686648501
 20
190.2097902097902
 10
261.3188010899182
 20
191.993006993007
 10
261.3188010899182
 20
192.2902097902098
 10
256.0217983651226
 20
197.6398601398601
 10
256.0217983651226
 20
197.9370629370629
 10
253.0790190735695
 20
200.9090909090909
 10
253.0790190735695
 20
201.2062937062937
 10
250.724795640327
 20
203.5839160839161
 10
250.724795640327
 20
203.8811188811189
 10
249.5476839237057
 20
205.0699300699301
 10
249.5476839237057
 20
205.3671328671329
 10
248.0762942779292
 20
206.8531468531469
 10
248.0762942779292
 20
207.1503496503497
 10
247.1934604904632
 20
208.041958041958
 10
247.1934604904632
 20
208.3391608391608
 10
246.8991825613079
 20
208.6363636363636
 10
246.8991825613079
 20
208.9335664335664
 10
246.3106267029973
 20
209.527972027972
 10
246.3106267029973
 20
209.8251748251748
 10
245.7220708446866
 20
210.4195804195804
 10
245.7220708446866
 20
210.7167832167832
 10
245.4277929155313
 20
211.013986013986
 10
245.4277929155313
 20
211.3111888111888
 10
244.8392370572207
 20
211.9055944055944
 10
244.8392370572207
 20
212.2027972027972
 10
244.5449591280654
 20
212.5
 10
244.5449591280654
 20
212.7972027972028
 10
244.2506811989101
 20
213.0944055944056
 10
244.2506811989101
 20
213.3916083916084
 10
243.9564032697548
 20
213.6888111888112
 10
243.9564032697548
 20
213.986013986014
 10
243.6621253405994
 20
214.2832167832168
 10
243.6621253405994
 20
214.5804195804196
 10
243.3678474114441
 20
214.8776223776224
 10
243.3678474114441
 20
215.1748251748252
 10
242.7792915531335
 20
215.7692307692308
 10
242.7792915531335
 20
216.0664335664336
 10
242.4850136239782
 20
216.3636363636364
 10
242.1907356948229
 20
216.3636363636364
 10
241.3079019073569
 20
217.2552447552447
 10
241.0136239782016
 20
217.2552447552447
 10
240.425068119891
 20
217.8496503496503
 10
240.1307901907357
 20
217.8496503496503
 10
239.2479564032697
 20
218.7412587412587
 10
238.9536784741144
 20
218.7412587412587
 10
238.3651226158038
 20
219.3356643356643
 10
238.0708446866485
 20
219.3356643356643
 10
237.7765667574932
 20
219.6328671328671
 10
237.4822888283379
 20
219.6328671328671
 10
237.1880108991826
 20
219.9300699300699
 10
236.8937329700272
 20
219.9300699300699
 10
236.3051771117166
 20
220.5244755244755
 10
236.0108991825613
 20
220.5244755244755
 10
235.716621253406
 20
220.8216783216783
 10
235.4223433242507
 20
220.8216783216783
 10
234.5395095367847
 20
221.7132867132867
 10
234.2452316076294
 20
221.7132867132867
 10
233.6566757493188
 20
222.3076923076923
 10
233.3623978201635
 20
222.3076923076923
 10
232.7738419618528
 20
222.9020979020979
 10
232.4795640326975
 20
222.9020979020979
 10
231.8910081743869
 20
223.4965034965035
 10
231.5967302452316
 20
223.4965034965035
 10
231.3024523160763
 20
223.7937062937063
 10
231.008174386921
 20
223.7937062937063
 10
230.7138964577657
 20
224.0909090909091
 10
230.4196185286103
 20
224.0909090909091
 10
230.125340599455
 20
224.3881118881119
 10
229.8310626702997
 20
224.3881118881119
 10
229.5367847411444
 20
224.6853146853147
 10
229.2425068119891
 20
224.6853146853147
 10
228.9482288828338
 20
224.9825174825175
 10
228.6539509536784
 20
224.9825174825175
 10
228.3596730245231
 20
225.2797202797203
 10
228.0653950953678
 20
225.2797202797203
 10
227.4768392370572
 20
225.8741258741259
 10
227.1825613079019
 20
225.8741258741259
 10
226.8882833787466
 20
226.1713286713287
 10
226.5940054495913
 20
226.1713286713287
 10
226.299727520436
 20
226.4685314685315
 10
226.0054495912806
 20
226.4685314685315
 10
225.7111716621253
 20
226.7657342657343
 10
225.41689373297
 20
226.7657342657343
 10
224.8283378746594
 20
227.3601398601399
 10
224.5340599455041
 20
227.3601398601399
 10
224.2397820163488
 20
227.6573426573427
 10
223.9455040871935
 20
227.6573426573427
 10
223.6512261580381
 20
227.9545454545454
 10
223.3569482288828
 20
227.9545454545454
 10
222.7683923705722
 20
228.548951048951
 10
222.1798365122616
 20
228.548951048951
 10
221.5912806539509
 20
229.1433566433566
 10
221.2970027247956
 20
229.1433566433566
 10
221.0027247956403
 20
229.4405594405594
 10
220.708446866485
 20
229.4405594405594
 10
220.4141689373297
 20
229.7377622377622
 10
220.1198910081744
 20
229.7377622377622
 10
219.8256130790191
 20
230.034965034965
 10
219.5313351498637
 20
230.034965034965
 10
218.9427792915531
 20
230.6293706293706
 10
218.3542234332425
 20
230.6293706293706
 10
218.0599455040872
 20
230.9265734265734
 10
217.7656675749319
 20
230.9265734265734
 10
217.1771117166212
 20
231.520979020979
 10
216.8828337874659
 20
231.520979020979
 10
216.5885558583106
 20
231.8181818181818
 10
216.2942779291553
 20
231.8181818181818
 10
216
 20
232.1153846153846
 10
215.7057220708447
 20
232.1153846153846
 10
215.4114441416894
 20
232.4125874125874
 10
215.117166212534
 20
232.4125874125874
 10
214.8228882833787
 20
232.7097902097902
 10
214.5286103542234
 20
232.7097902097902
 10
214.2343324250681
 20
233.006993006993
 10
213.9400544959128
 20
233.006993006993
 10
213.6457765667575
 20
233.3041958041958
 10
213.3514986376022
 20
233.3041958041958
 10
213.0572207084469
 20
233.6013986013986
 10
212.7629427792915
 20
233.6013986013986
 10
212.4686648501362
 20
233.8986013986014
 10
212.1743869209809
 20
233.8986013986014
 10
210.7029972752044
 20
235.3846153846154
 10
210.7029972752044
 20
236.2762237762238
 10
210.408719346049
 20
236.5734265734266
 10
210.408719346049
 20
240.4370629370629
 10
208.9373297002725
 20
241.9230769230769
 10
208.6430517711171
 20
241.9230769230769
 10
208.3487738419618
 20
242.2202797202797
 10
208.3487738419618
 20
242.5174825174825
 10
208.0544959128065
 20
242.8146853146853
 10
208.0544959128065
 20
243.1118881118881
 10
207.1716621253406
 20
244.0034965034965
 10
207.1716621253406
 20
244.8951048951049
 10
206.8773841961853
 20
245.1923076923077
 10
206.8773841961853
 20
246.9755244755245
 10
207.1716621253406
 20
247.2727272727273
 10
207.1716621253406
 20
247.5699300699301
 10
208.0544959128065
 20
248.4615384615385
 10
208.0544959128065
 20
249.0559440559441
 10
208.3487738419618
 20
249.3531468531469
 10
208.6430517711171
 20
249.3531468531469
 10
209.2316076294278
 20
249.9475524475525
 10
209.5258855585831
 20
249.9475524475525
 10
210.1144414168937
 20
250.541958041958
 10
210.408719346049
 20
250.541958041958
 10
210.7029972752044
 20
250.8391608391608
 10
210.9972752043597
 20
250.8391608391608
 10
211.291553133515
 20
251.1363636363636
 10
211.8801089918256
 20
251.1363636363636
 10
212.1743869209809
 20
251.4335664335664
 10
212.7629427792915
 20
251.4335664335664
 10
213.0572207084469
 20
251.1363636363636
 10
214.8228882833787
 20
251.1363636363636
 10
215.117166212534
 20
250.8391608391608
 10
215.4114441416894
 20
250.8391608391608
 10
215.7057220708447
 20
250.541958041958
 10
216
 20
250.541958041958
 10
217.7656675749319
 20
248.7587412587413
 10
218.0599455040872
 20
248.7587412587413
 10
218.3542234332425
 20
248.4615384615385
 10
220.1198910081744
 20
248.4615384615385
 10
221.0027247956403
 20
247.5699300699301
 10
221.2970027247956
 20
247.5699300699301
 10
221.5912806539509
 20
247.2727272727273
 10
221.5912806539509
 20
246.9755244755245
 10
222.1798365122616
 20
246.3811188811189
 10
222.1798365122616
 20
245.7867132867133
 10
222.4741144414169
 20
245.4895104895105
 10
222.4741144414169
 20
244.5979020979021
 10
222.7683923705722
 20
244.3006993006993
 10
222.7683923705722
 20
244.0034965034965
 10
223.0626702997275
 20
243.7062937062937
 10
223.0626702997275
 20
243.4090909090909
 10
224.2397820163488
 20
242.2202797202797
 10
224.5340599455041
 20
242.2202797202797
 10
225.7111716621253
 20
241.0314685314685
 10
226.0054495912806
 20
241.0314685314685
 10
226.5940054495913
 20
240.4370629370629
 10
226.8882833787466
 20
240.4370629370629
 10
227.7711171662125
 20
239.5454545454545
 10
228.0653950953678
 20
239.5454545454545
 10
228.6539509536784
 20
238.951048951049
 10
228.9482288828338
 20
238.951048951049
 10
229.2425068119891
 20
238.6538461538462
 10
229.5367847411444
 20
238.6538461538462
 10
230.125340599455
 20
238.0594405594406
 10
230.4196185286103
 20
238.0594405594406
 10
230.7138964577657
 20
237.7622377622378
 10
231.008174386921
 20
237.7622377622378
 10
231.5967302452316
 20
237.1678321678322
 10
231.8910081743869
 20
237.1678321678322
 10
232.4795640326975
 20
236.5734265734266
 10
232.7738419618528
 20
236.5734265734266
 10
233.3623978201635
 20
235.979020979021
 10
233.6566757493188
 20
235.979020979021
 10
235.1280653950953
 20
234.493006993007
 10
235.4223433242507
 20
234.493006993007
 10
235.716621253406
 20
234.1958041958042
 10
236.0108991825613
 20
234.1958041958042
 10
236.3051771117166
 20
233.8986013986014
 10
237.7765667574932
 20
233.8986013986014
 10
238.0708446866485
 20
233.6013986013986
 10
239.542234332425
 20
233.6013986013986
 10
239.8365122615804
 20
233.3041958041958
 10
240.425068119891
 20
233.3041958041958
 10
240.7193460490463
 20
233.006993006993
 10
241.3079019073569
 20
233.006993006993
 10
241.6021798365122
 20
232.7097902097902
 10
242.1907356948229
 20
232.7097902097902
 10
242.4850136239782
 20
232.4125874125874
 10
243.0735694822888
 20
232.4125874125874
 10
243.3678474114441
 20
232.1153846153846
 10
244.5449591280654
 20
232.1153846153846
 10
244.8392370572207
 20
231.8181818181818
 10
246.0163487738419
 20
231.8181818181818
 10
246.3106267029973
 20
231.520979020979
 10
251.3133514986376
 20
231.520979020979
 10
251.6076294277929
 20
231.8181818181818
 10
253.0790190735695
 20
231.8181818181818
 10
253.3732970027248
 20
232.1153846153846
 10
254.550408719346
 20
232.1153846153846
 10
254.8446866485014
 20
232.4125874125874
 10
256.3160762942779
 20
232.4125874125874
 10
256.6103542234332
 20
232.7097902097902
 10
258.9645776566757
 20
232.7097902097902
 10
259.258855585831
 20
233.006993006993
 10
264.5558583106267
 20
233.006993006993
 10
264.850136239782
 20
232.7097902097902
 10
266.9100817438692
 20
232.7097902097902
 10
267.2043596730245
 20
232.4125874125874
 10
267.7929155313352
 20
232.4125874125874
 10
268.0871934604904
 20
232.1153846153846
 10
269.2643051771117
 20
232.1153846153846
 10
269.558583106267
 20
231.8181818181818
 10
270.4414168937329
 20
231.8181818181818
 10
270.7356948228883
 20
231.520979020979
 10
271.3242506811989
 20
231.520979020979
 10
271.6185286103542
 20
231.2237762237762
 10
272.2070844686648
 20
231.2237762237762
 10
272.5013623978202
 20
230.9265734265734
 10
273.0899182561308
 20
230.9265734265734
 10
273.3841961852861
 20
230.6293706293706
 10
273.9727520435967
 20
230.6293706293706
 10
274.267029972752
 20
230.3321678321678
 10
274.8555858310626
 20
230.3321678321678
 10
275.149863760218
 20
230.034965034965
 10
276.0326975476839
 20
230.034965034965
 10
276.3269754768392
 20
229.7377622377622
 10
276.6212534059945
 20
229.7377622377622
 10
276.9155313351499
 20
229.4405594405594
 10
277.2098092643051
 20
229.4405594405594
 10
277.5040871934605
 20
229.1433566433566
 10
278.0926430517711
 20
229.1433566433566
 10
278.3869209809264
 20
228.8461538461538
 10
278.6811989100817
 20
228.8461538461538
 10
278.975476839237
 20
228.548951048951
 10
279.2697547683924
 20
228.548951048951
 10
279.858310626703
 20
227.9545454545454
 10
280.4468664850136
 20
227.9545454545454
 10
280.7411444141689
 20
227.6573426573427
 10
281.0354223433242
 20
227.6573426573427
 10
281.3297002724796
 20
227.3601398601399
 10
281.6239782016349
 20
227.3601398601399
 10
281.9182561307902
 20
227.0629370629371
 10
282.2125340599455
 20
227.0629370629371
 10
282.5068119891008
 20
226.7657342657343
 10
282.8010899182561
 20
226.7657342657343
 10
283.3896457765667
 20
226.1713286713287
 10
283.6839237057221
 20
226.1713286713287
 10
283.9782016348774
 20
225.8741258741259
 10
284.2724795640327
 20
225.8741258741259
 10
284.566757493188
 20
225.5769230769231
 10
284.8610354223433
 20
225.5769230769231
 10
285.4495912806539
 20
224.9825174825175
 10
285.7438692098092
 20
224.9825174825175
 10
286.3324250681198
 20
224.3881118881119
 10
286.6267029972752
 20
224.3881118881119
 10
286.9209809264305
 20
224.0909090909091
 10
287.2152588555858
 20
224.0909090909091
 10
288.0980926430518
 20
223.1993006993007
 10
288.3923705722071
 20
223.1993006993007
 10
288.9809264305177
 20
222.6048951048951
 10
289.275204359673
 20
222.6048951048951
 10
290.1580381471389
 20
221.7132867132867
 10
290.4523160762943
 20
221.7132867132867
 10
291.6294277929155
 20
220.5244755244755
 10
291.9237057220708
 20
220.5244755244755
 10
293.6893732970027
 20
218.7412587412587
 10
293.983651226158
 20
218.7412587412587
 10
299.8692098092643
 20
212.7972027972028
 10
299.8692098092643
 20
212.5
 10
302.2234332425068
 20
210.1223776223776
 10
302.2234332425068
 20
209.8251748251748
 10
303.9891008174387
 20
208.041958041958
 10
303.9891008174387
 20
207.7447552447553
 10
304.8719346049046
 20
206.8531468531469
 10
304.8719346049046
 20
206.5559440559441
 10
306.3433242506812
 20
205.0699300699301
 10
306.3433242506812
 20
204.7727272727273
 10
307.5204359673024
 20
203.5839160839161
 10
307.5204359673024
 20
203.2867132867133
 10
308.4032697547684
 20
202.3951048951049
 10
308.4032697547684
 20
202.0979020979021
 10
309.5803814713896
 20
200.9090909090909
 10
309.5803814713896
 20
200.6118881118881
 10
310.4632152588555
 20
199.7202797202797
 10
310.4632152588555
 20
199.4230769230769
 10
311.0517711171662
 20
198.8286713286713
 10
311.0517711171662
 20
198.5314685314685
 10
311.6403269754768
 20
197.9370629370629
 10
311.6403269754768
 20
197.6398601398601
 10
312.2288828337875
 20
197.0454545454545
 10
312.2288828337875
 20
196.7482517482517
 10
312.8174386920981
 20
196.1538461538462
 10
312.8174386920981
 20
195.8566433566434
 10
313.4059945504087
 20
195.2622377622378
 10
313.4059945504087
 20
194.965034965035
 10
313.9945504087193
 20
194.3706293706294
 10
313.9945504087193
 20
194.0734265734266
 10
314.2888283378746
 20
193.7762237762238
 10
314.2888283378746
 20
193.479020979021
 10
314.8773841961853
 20
192.8846153846154
 10
314.8773841961853
 20
192.5874125874126
 10
315.1716621253406
 20
192.2902097902098
 10
315.1716621253406
 20
191.993006993007
 10
315.7602179836512
 20
191.3986013986014
 10
315.7602179836512
 20
191.1013986013986
 10
316.0544959128065
 20
190.8041958041958
 10
316.0544959128065
 20
190.506993006993
 10
316.6430517711171
 20
189.9125874125874
 10
316.6430517711171
 20
189.6153846153846
 10
316.9373297002725
 20
189.3181818181818
 10
316.9373297002725
 20
189.020979020979
 10
317.2316076294278
 20
188.7237762237762
 10
317.2316076294278
 20
188.4265734265734
 10
317.5258855585831
 20
188.1293706293706
 10
317.5258855585831
 20
187.8321678321678
 10
317.8201634877384
 20
187.534965034965
 10
317.8201634877384
 20
187.2377622377622
 10
318.4087193460491
 20
186.6433566433566
 10
318.4087193460491
 20
186.3461538461538
 10
318.7029972752043
 20
186.048951048951
 10
318.7029972752043
 20
185.7517482517482
 10
318.9972752043597
 20
185.4545454545454
 10
318.9972752043597
 20
185.1573426573427
 10
319.291553133515
 20
184.8601398601399
 10
319.291553133515
 20
184.5629370629371
 10
319.5858310626703
 20
184.2657342657343
 10
319.5858310626703
 20
183.9685314685315
 10
319.8801089918256
 20
183.6713286713287
 10
319.8801089918256
 20
183.3741258741259
 10
320.1743869209809
 20
183.0769230769231
 10
320.1743869209809
 20
182.7797202797203
 10
320.4686648501362
 20
182.4825174825175
 10
320.4686648501362
 20
182.1853146853147
 10
320.7629427792915
 20
181.8881118881119
 10
320.7629427792915
 20
181.2937062937063
 10
321.0572207084468
 20
180.9965034965035
 10
321.0572207084468
 20
180.6993006993007
 10
321.3514986376022
 20
180.4020979020979
 10
321.3514986376022
 20
180.1048951048951
 10
321.6457765667575
 20
179.8076923076923
 10
321.6457765667575
 20
179.2132867132867
 10
321.9400544959128
 20
178.9160839160839
 10
321.9400544959128
 20
178.6188811188811
 10
322.2343324250681
 20
178.3216783216783
 10
322.2343324250681
 20
178.0244755244755
 10
322.5286103542234
 20
177.7272727272727
 10
322.5286103542234
 20
177.1328671328671
 10
322.8228882833787
 20
176.8356643356643
 10
322.8228882833787
 20
176.2412587412587
 10
323.117166212534
 20
175.9440559440559
 10
323.117166212534
 20
175.3496503496503
 10
323.4114441416893
 20
175.0524475524475
 10
323.4114441416893
 20
174.7552447552447
 10
323.7057220708447
 20
174.4580419580419
 10
323.7057220708447
 20
173.8636363636364
 10
324
 20
173.5664335664336
 10
324
 20
172.972027972028
 10
324.2942779291553
 20
172.6748251748252
 10
324.2942779291553
 20
172.0804195804196
 10
324.5885558583106
 20
171.7832167832168
 10
324.5885558583106
 20
170.8916083916084
 10
324.8828337874659
 20
170.5944055944056
 10
324.8828337874659
 20
169.7027972027972
 10
325.1771117166213
 20
169.4055944055944
 10
325.1771117166213
 20
168.8111888111888
 10
325.4713896457765
 20
168.513986013986
 10
325.4713896457765
 20
167.6223776223776
 10
325.7656675749319
 20
167.3251748251748
 10
325.7656675749319
 20
166.4335664335664
 10
326.0599455040872
 20
166.1363636363636
 10
326.0599455040872
 20
165.5419580419581
 10
326.3542234332425
 20
165.2447552447553
 10
326.3542234332425
 20
164.3531468531469
 10
326.6485013623978
 20
164.0559440559441
 10
326.6485013623978
 20
163.1643356643357
 10
326.9427792915531
 20
162.8671328671329
 10
326.9427792915531
 20
161.9755244755245
 10
327.2370572207084
 20
161.6783216783217
 10
327.2370572207084
 20
160.4895104895105
 10
327.5313351498638
 20
160.1923076923077
 10
327.5313351498638
 20
159.3006993006993
 10
327.825613079019
 20
159.0034965034965
 10
327.825613079019
 20
157.8146853146853
 10
328.1198910081744
 20
157.5174825174825
 10
328.1198910081744
 20
156.3286713286713
 10
328.4141689373297
 20
156.0314685314685
 10
328.4141689373297
 20
154.5454545454545
 10
328.708446866485
 20
154.2482517482518
 10
328.708446866485
 20
152.7622377622378
 10
329.0027247956403
 20
152.465034965035
 10
329.0027247956403
 20
150.979020979021
 10
329.2970027247956
 20
150.6818181818182
 10
329.2970027247956
 20
148.6013986013986
 10
329.5912806539509
 20
148.3041958041958
 10
329.5912806539509
 20
145.034965034965
 10
329.8855585831063
 20
144.7377622377622
 10
329.8855585831063
 20
139.3881118881119
 10
330.1798365122615
 20
139.0909090909091
 10
330.1798365122615
 20
134.9300699300699
 10
329.8855585831063
 20
134.6328671328671
 10
329.8855585831063
 20
129.8776223776224
 10
329.5912806539509
 20
129.5804195804196
 10
329.5912806539509
 20
127.2027972027972
 10
329.2970027247956
 20
126.9055944055944
 10
329.2970027247956
 20
125.1223776223776
 10
329.0027247956403
 20
124.8251748251748
 10
329.0027247956403
 20
122.7447552447552
 10
328.708446866485
 20
122.4475524475524
 10
328.708446866485
 20
120.9615384615385
 10
328.4141689373297
 20
120.6643356643357
 10
328.4141689373297
 20
118.8811188811189
 10
328.1198910081744
 20
118.5839160839161
 10
328.1198910081744
 20
116.8006993006993
 10
327.825613079019
 20
116.5034965034965
 10
327.825613079019
 20
115.3146853146853
 10
327.5313351498638
 20
115.0174825174825
 10
327.5313351498638
 20
113.8286713286713
 10
327.2370572207084
 20
113.5314685314685
 10
327.2370572207084
 20
112.3426573426573
 10
326.9427792915531
 20
112.0454545454545
 10
326.9427792915531
 20
110.8566433566434
 10
326.6485013623978
 20
110.5594405594406
 10
326.6485013623978
 20
109.6678321678322
 10
326.3542234332425
 20
109.3706293706294
 10
326.3542234332425
 20
108.479020979021
 10
326.0599455040872
 20
108.1818181818182
 10
326.0599455040872
 20
107.5874125874126
 10
325.7656675749319
 20
107.2902097902098
 10
325.7656675749319
 20
106.3986013986014
 10
325.4713896457765
 20
106.1013986013986
 10
325.4713896457765
 20
105.2097902097902
 10
325.1771117166213
 20
104.9125874125874
 10
325.1771117166213
 20
104.3181818181818
 10
324.8828337874659
 20
104.020979020979
 10
324.8828337874659
 20
103.4265734265734
 10
324.5885558583106
 20
103.1293706293706
 10
324.5885558583106
 20
102.534965034965
 10
324.2942779291553
 20
102.2377622377622
 10
324.2942779291553
 20
101.6433566433566
 10
324
 20
101.3461538461538
 10
324
 20
100.7517482517483
 10
323.7057220708447
 20
100.4545454545455
 10
323.7057220708447
 20
99.86013986013985
 10
323.4114441416893
 20
99.56293706293707
 10
323.4114441416893
 20
98.96853146853147
 10
323.117166212534
 20
98.67132867132867
 10
323.117166212534
 20
98.37412587412587
 10
322.8228882833787
 20
98.07692307692308
 10
322.8228882833787
 20
97.48251748251748
 10
322.5286103542234
 20
97.18531468531468
 10
322.5286103542234
 20
96.88811188811189
 10
322.2343324250681
 20
96.59090909090909
 10
322.2343324250681
 20
95.99650349650349
 10
321.9400544959128
 20
95.69930069930069
 10
321.9400544959128
 20
95.10489510489511
 10
321.6457765667575
 20
94.80769230769231
 10
321.6457765667575
 20
94.51048951048951
 10
321.3514986376022
 20
94.21328671328671
 10
321.3514986376022
 20
93.91608391608392
 10
321.0572207084468
 20
93.61888111888112
 10
321.0572207084468
 20
93.32167832167832
 10
320.7629427792915
 20
93.02447552447552
 10
320.7629427792915
 20
92.43006993006993
 10
320.4686648501362
 20
92.13286713286713
 10
320.4686648501362
 20
91.83566433566433
 10
319.8801089918256
 20
91.24125874125875
 10
319.8801089918256
 20
90.64685314685315
 10
319.5858310626703
 20
90.34965034965035
 10
319.5858310626703
 20
90.05244755244755
 10
319.291553133515
 20
89.75524475524476
 10
319.291553133515
 20
89.45804195804196
 10
318.9972752043597
 20
89.16083916083916
 10
318.9972752043597
 20
88.86363636363636
 10
318.7029972752043
 20
88.56643356643356
 10
318.7029972752043
 20
88.26923076923077
 10
318.4087193460491
 20
87.97202797202797
 10
318.4087193460491
 20
87.67482517482517
 10
318.1144414168937
 20
87.37762237762237
 10
318.1144414168937
 20
87.08041958041957
 10
317.8201634877384
 20
86.78321678321679
 10
317.8201634877384
 20
86.48601398601399
 10
317.2316076294278
 20
85.89160839160839
 10
317.2316076294278
 20
85.5944055944056
 10
316.9373297002725
 20
85.2972027972028
 10
316.9373297002725
 20
85
 10
316.6430517711171
 20
84.7027972027972
 10
316.6430517711171
 20
84.4055944055944
 10
316.0544959128065
 20
83.81118881118881
 10
316.0544959128065
 20
83.51398601398601
 10
315.7602179836512
 20
83.21678321678321
 10
315.7602179836512
 20
82.91958041958041
 10
315.1716621253406
 20
82.32517482517483
 10
315.1716621253406
 20
82.02797202797203
 10
314.8773841961853
 20
81.73076923076923
 10
314.8773841961853
 20
81.43356643356643
 10
314.2888283378746
 20
80.83916083916084
 10
314.2888283378746
 20
80.54195804195804
 10
313.700272479564
 20
79.94755244755245
 10
313.700272479564
 20
79.65034965034965
 10
313.1117166212534
 20
79.05594405594405
 10
313.1117166212534
 20
78.75874125874125
 10
312.5231607629428
 20
78.16433566433567
 10
312.5231607629428
 20
77.86713286713287
 10
311.9346049046321
 20
77.27272727272727
 10
311.9346049046321
 20
76.97552447552448
 10
311.3460490463215
 20
76.38111888111888
 10
311.3460490463215
 20
76.08391608391608
 10
310.7574931880109
 20
75.48951048951049
 10
310.7574931880109
 20
75.19230769230769
 10
309.8746594005449
 20
74.30069930069929
 10
309.8746594005449
 20
74.00349650349651
 10
308.991825613079
 20
73.11188811188811
 10
308.991825613079
 20
72.81468531468532
 10
307.8147138964578
 20
71.62587412587412
 10
307.8147138964578
 20
71.32867132867133
 10
306.9318801089918
 20
70.43706293706293
 10
306.9318801089918
 20
70.13986013986013
 10
305.4604904632153
 20
68.65384615384615
 10
305.4604904632153
 20
68.35664335664336
 10
303.6948228882833
 20
66.57342657342657
 10
303.6948228882833
 20
66.27622377622377
 10
301.3405994550408
 20
63.8986013986014
 10
301.3405994550408
 20
63.6013986013986
 10
296.0435967302452
 20
58.25174825174825
 10
295.7493188010899
 20
58.25174825174825
 10
293.6893732970027
 20
56.17132867132867
 10
293.3950953678474
 20
56.17132867132867
 10
291.6294277929155
 20
54.38811188811189
 10
291.3351498637602
 20
54.38811188811189
 10
289.8637602179836
 20
52.9020979020979
 10
289.5694822888283
 20
52.9020979020979
 10
288.3923705722071
 20
51.71328671328671
 10
288.0980926430518
 20
51.71328671328671
 10
286.9209809264305
 20
50.52447552447553
 10
286.6267029972752
 20
50.52447552447553
 10
286.0381471389646
 20
49.93006993006993
 10
285.7438692098092
 20
49.93006993006993
 10
284.8610354223433
 20
49.03846153846154
 10
284.566757493188
 20
49.03846153846154
 10
283.9782016348774
 20
48.44405594405595
 10
283.6839237057221
 20
48.44405594405595
 10
283.0953678474114
 20
47.84965034965035
 10
282.8010899182561
 20
47.84965034965035
 10
282.2125340599455
 20
47.25524475524475
 10
281.9182561307902
 20
47.25524475524475
 10
281.6239782016349
 20
46.95804195804196
 10
281.3297002724796
 20
46.95804195804196
 10
280.7411444141689
 20
46.36363636363636
 10
280.4468664850136
 20
46.36363636363636
 10
280.1525885558583
 20
46.06643356643357
 10
279.858310626703
 20
46.06643356643357
 10
279.5640326975476
 20
45.76923076923077
 10
279.2697547683924
 20
45.76923076923077
 10
278.975476839237
 20
45.47202797202797
 10
278.6811989100817
 20
45.47202797202797
 10
278.3869209809264
 20
45.17482517482517
 10
278.0926430517711
 20
45.17482517482517
 10
277.7983651226158
 20
44.87762237762238
 10
277.5040871934605
 20
44.87762237762238
 10
277.2098092643051
 20
44.58041958041958
 10
276.9155313351499
 20
44.58041958041958
 10
276.6212534059945
 20
44.28321678321678
 10
276.3269754768392
 20
44.28321678321678
 10
276.0326975476839
 20
43.98601398601399
 10
275.4441416893733
 20
43.98601398601399
 10
275.149863760218
 20
43.68881118881119
 10
274.8555858310626
 20
43.68881118881119
 10
274.5613079019074
 20
43.39160839160839
 10
273.9727520435967
 20
43.39160839160839
 10
273.6784741144414
 20
43.09440559440559
 10
273.0899182561308
 20
43.09440559440559
 10
272.7956403269754
 20
42.7972027972028
 10
272.2070844686648
 20
42.7972027972028
 10
271.9128065395095
 20
42.5
 10
271.3242506811989
 20
42.5
 10
271.0299727520436
 20
42.2027972027972
 10
270.1471389645777
 20
42.2027972027972
 10
269.8528610354223
 20
41.90559440559441
 10
268.9700272479564
 20
41.90559440559441
 10
268.6757493188011
 20
41.60839160839161
 10
267.2043596730245
 20
41.60839160839161
 10
266.9100817438692
 20
41.31118881118881
 10
265.7329700272479
 20
41.31118881118881
 10
265.4386920980926
 20
41.01398601398601
 10
263.3787465940054
 20
41.01398601398601
 10
263.0844686648501
 20
40.71678321678321
 10
258.9645776566757
 20
40.71678321678321
 10
258.6702997275204
 20
40.41958041958042
 10
255.1389645776567
 20
40.41958041958042
 10
254.8446866485014
 20
40.12237762237762
 10
253.9618528610354
 20
40.12237762237762
 10
253.6675749318801
 20
39.82517482517483
 10
252.4904632152588
 20
39.82517482517483
 10
252.1961852861035
 20
39.52797202797203
  0
TEXT
  5
52
100
AcDbEntity
  8
TEXT
  6
ByLayer
 62
  256
370
   -1
100
AcDbText
 10
285.4495912806539
 20
141.7657342657343
 30
0
 40
5
  1
Contour 8
 50
0
 41
1
 51
0
  7
STANDARD
 71
    0
210
0
220
0
230
1
100
AcDbText
  0
ENDSEC
  0
SECTION
  2
OBJECTS
  0
DICTIONARY
  5
C
330
0
100
AcDbDictionary
281
    1
  3
ACAD_GROUP
350
D
  0
DICTIONARY
  5
D
330
C
100
AcDbDictionary
281
    1
  0
PLOTSETTINGS
  5
53
100
AcDbPlotSettings
  6
1x1
 40
0
 41
0
 42
0
 43
0
  0
ENDSEC
  0
EOF
