999
dxfrw 0.6.3
  0
SECTION
  2
HEADER
  9
$ACADVER
  1
AC1021
  9
$DWGCODEPAGE
  3
ANSI_1252
  9
$INSBASE
 10
0
 20
0
 30
0
  9
$EXTMIN
 10
15.00817438692098
 20
-328.1533101045296
 30
0
  9
$EXTMAX
 10
452.6064940962764
 20
-40.57491289198606
 30
0
  9
$LIMMIN
 10
0
 20
0
  9
$LIMMAX
 10
420
 20
297
  9
$ORTHOMODE
 70
    0
  9
$REGENMODE
 70
    1
  9
$FILLMODE
 70
    1
  9
$QTEXTMODE
 70
    0
  9
$MIRRTEXT
 70
    1
  9
$LTSCALE
 40
1
  9
$ATTMODE
 70
    1
  9
$TEXTSIZE
 40
2.5
  9
$TRACEWID
 40
1
  9
$TEXTSTYLE
  7
Standard
  9
$CLAYER
  8
0
  9
$CELTYPE
  6
ByLayer
  9
$CECOLOR
 62
  256
  9
$CELTSCALE
 40
1
  9
$DISPSILH
 70
    0
  9
$DIMSCALE
 40
1
  9
$DIMASZ
 40
2.5
  9
$DIMEXO
 40
0.625
  9
$DIMDLI
 40
3.75
  9
$DIMRND
 40
0
  9
$DIMDLE
 40
0
  9
$DIMEXE
 40
1.25
  9
$DIMTP
 40
0
  9
$DIMTM
 40
0
  9
$DIMTXT
 40
2.5
  9
$DIMCEN
 40
2.5
  9
$DIMTSZ
 40
0
  9
$DIMTOL
 70
    0
  9
$DIMLIM
 70
    0
  9
$DIMTIH
 70
    0
  9
$DIMTOH
 70
    0
  9
$DIMSE1
 70
    0
  9
$DIMSE2
 70
    0
  9
$DIMTAD
 70
    1
  9
$DIMZIN
 70
    8
  9
$DIMBLK
  1

  9
$DIMASO
 70
    1
  9
$DIMSHO
 70
    1
  9
$DIMPOST
  1

  9
$DIMAPOST
  1

  9
$DIMALT
 70
    0
  9
$DIMALTD
 70
    3
  9
$DIMALTF
 40
0.03937007874
  9
$DIMLFAC
 40
1
  9
$DIMTOFL
 70
    1
  9
$DIMTVP
 40
0
  9
$DIMTIX
 70
    0
  9
$DIMSOXD
 70
    0
  9
$DIMSAH
 70
    0
  9
$DIMBLK1
  1

  9
$DIMBLK2
  1

  9
$DIMSTYLE
  2
ISO-25
  9
$DIMCLRD
 70
    0
  9
$DIMCLRE
 70
    0
  9
$DIMCLRT
 70
    0
  9
$DIMTFAC
 40
1
  9
$DIMGAP
 40
0.625
  9
$DIMJUST
 70
    0
  9
$DIMSD1
 70
    0
  9
$DIMSD2
 70
    0
  9
$DIMTOLJ
 70
    0
  9
$DIMTZIN
 70
    8
  9
$DIMALTZ
 70
    0
  9
$DIMALTTZ
 70
    0
  9
$DIMUPT
 70
    0
  9
$DIMDEC
 70
    2
  9
$DIMTDEC
 70
    2
  9
$DIMALTU
 70
    2
  9
$DIMALTTD
 70
    3
  9
$DIMTXSTY
  7
Standard
  9
$DIMAUNIT
 70
    0
  9
$DIMADEC
 70
    0
  9
$DIMALTRND
 40
0
  9
$DIMAZIN
 70
    0
  9
$DIMDSEP
 70
   44
  9
$DIMATFIT
 70
    3
  9
$DIMFRAC
 70
    0
  9
$DIMLDRBLK
  1

  9
$DIMLUNIT
 70
    2
  9
$DIMLWD
 70
   -2
  9
$DIMLWE
 70
   -2
  9
$DIMTMOVE
 70
    0
  9
$DIMFXL
 40
1
  9
$DIMFXLON
 70
    0
  9
$DIMJOGANG
 40
0.785398163397
  9
$DIMTFILL
 70
    0
  9
$DIMTFILLCLR
 70
    0
  9
$DIMARCSYM
 70
    0
  9
$DIMLTYPE
  6

  9
$DIMLTEX1
  6

  9
$DIMLTEX2
  6

  9
$LUNITS
 70
    2
  9
$LUPREC
 70
    4
  9
$SKETCHINC
 40
1
  9
$FILLETRAD
 40
10
  9
$AUNITS
 70
    0
  9
$AUPREC
 70
    2
  9
$MENU
  1
.
  9
$ELEVATION
 40
0
  9
$PELEVATION
 40
0
  9
$THICKNESS
 40
0
  9
$LIMCHECK
 70
    0
  9
$CHAMFERA
 40
0
  9
$CHAMFERB
 40
0
  9
$CHAMFERC
 40
0
  9
$CHAMFERD
 40
0
  9
$SKPOLY
 70
    0
  9
$USRTIMER
 70
    1
  9
$ANGBASE
 50
0
  9
$ANGDIR
 70
    0
  9
$PDMODE
 70
    0
  9
$PDSIZE
 40
0
  9
$PLINEWID
 40
0
  9
$SPLFRAME
 70
    0
  9
$SPLINETYPE
 70
    6
  9
$SPLINESEGS
 70
    8
  9
$HANDSEED
  5
20000
  9
$SURFTAB1
 70
    6
  9
$SURFTAB2
 70
    6
  9
$SURFTYPE
 70
    6
  9
$SURFU
 70
    6
  9
$SURFV
 70
    6
  9
$UCSBASE
  2

  9
$UCSNAME
  2

  9
$UCSORG
 10
0
 20
0
 30
0
  9
$UCSXDIR
 10
1
 20
0
 30
0
  9
$UCSYDIR
 10
0
 20
1
 30
0
  9
$UCSORTHOREF
  2

  9
$UCSORTHOVIEW
 70
    0
  9
$UCSORGTOP
 10
0
 20
0
 30
0
  9
$UCSORGBOTTOM
 10
0
 20
0
 30
0
  9
$UCSORGLEFT
 10
0
 20
0
 30
0
  9
$UCSORGRIGHT
 10
0
 20
0
 30
0
  9
$UCSORGFRONT
 10
0
 20
0
 30
0
  9
$UCSORGBACK
 10
0
 20
0
 30
0
  9
$PUCSBASE
  2

  9
$PUCSNAME
  2

  9
$PUCSORG
 10
0
 20
0
 30
0
  9
$PUCSXDIR
 10
1
 20
0
 30
0
  9
$PUCSYDIR
 10
0
 20
1
 30
0
  9
$PUCSORTHOREF
  2

  9
$PUCSORTHOVIEW
 70
    0
  9
$PUCSORGTOP
 10
0
 20
0
 30
0
  9
$PUCSORGBOTTOM
 10
0
 20
0
 30
0
  9
$PUCSORGLEFT
 10
0
 20
0
 30
0
  9
$PUCSORGRIGHT
 10
0
 20
0
 30
0
  9
$PUCSORGFRONT
 10
0
 20
0
 30
0
  9
$PUCSORGBACK
 10
0
 20
0
 30
0
  9
$USERI1
 70
    0
  9
$USERI2
 70
    0
  9
$USERI3
 70
    0
  9
$USERI4
 70
    0
  9
$USERI5
 70
    0
  9
$USERR1
 40
0
  9
$USERR2
 40
0
  9
$USERR3
 40
0
  9
$USERR4
 40
0
  9
$USERR5
 40
0
  9
$WORLDVIEW
 70
    1
  9
$SHADEDGE
 70
    3
  9
$SHADEDIF
 70
   70
  9
$TILEMODE
 70
    1
  9
$MAXACTVP
 70
   64
  9
$PINSBASE
 10
0
 20
0
 30
0
  9
$PLIMCHECK
 70
    0
  9
$PEXTMIN
 10
1e+20
 20
1e+20
 30
1e+20
  9
$PEXTMAX
 10
-1e+20
 20
-1e+20
 30
-1e+20
  9
$GRIDMODE
 70
    0
  9
$SNAPSTYLE
 70
    0
  9
$PLIMMIN
 10
0
 20
0
  9
$PLIMMAX
 10
420
 20
297
  9
$UNITMODE
 70
    0
  9
$VISRETAIN
 70
    1
  9
$PLINEGEN
 70
    0
  9
$PSLTSCALE
 70
    1
  9
$TREEDEPTH
 70
 3020
  9
$CMLSTYLE
  2
Standard
  9
$CMLJUST
 70
    0
  9
$CMLSCALE
 40
20
  9
$PROXYGRAPHICS
 70
    1
  9
$MEASUREMENT
 70
    1
  9
$CELWEIGHT
370
   -1
  9
$ENDCAPS
280
    0
  9
$JOINSTYLE
280
    0
  9
$LWDISPLAY
290
    0
  9
$INSUNITS
 70
    6
  9
$HYPERLINKBASE
  1

  9
$STYLESHEET
  1

  9
$XEDIT
290
    1
  9
$CEPSNTYPE
380
    0
  9
$PSTYLEMODE
290
    1
  9
$EXTNAMES
290
    1
  9
$PSVPSCALE
 40
0
  9
$OLESTARTUP
290
    0
  9
$SORTENTS
280
  127
  9
$INDEXCTL
280
    0
  9
$HIDETEXT
280
    1
  9
$XCLIPFRAME
290
    1
  9
$HALOGAP
280
    0
  9
$OBSCOLOR
 70
  257
  9
$OBSLTYPE
280
    0
  9
$INTERSECTIONDISPLAY
280
    0
  9
$INTERSECTIONCOLOR
 70
  257
  9
$DIMASSOC
280
    2
  9
$PROJECTNAME
  1

  9
$CAMERADISPLAY
290
    0
  9
$LENSLENGTH
 40
50
  9
$CAMERAHEIGHT
 40
0
  9
$STEPSPERSEC
 40
24
  9
$STEPSIZE
 40
100
  9
$3DDWFPREC
 40
2
  9
$PSOLWIDTH
 40
0.005
  9
$PSOLHEIGHT
 40
0.08
  9
$LOFTANG1
 40
1.570796326795
  9
$LOFTANG2
 40
1.570796326795
  9
$LOFTMAG1
 40
0
  9
$LOFTMAG2
 40
0
  9
$LOFTPARAM
 70
    7
  9
$LOFTNORMALS
280
    1
  9
$LATITUDE
 40
37.795
  9
$LONGITUDE
 40
-122.394
  9
$NORTHDIRECTION
 40
0
  9
$TIMEZONE
 70
-8000
  9
$LIGHTGLYPHDISPLAY
280
    1
  9
$TILEMODELIGHTSYNCH
280
    1
  9
$SOLIDHIST
280
    0
  9
$SHOWHIST
280
    1
  9
$DWFFRAME
280
    2
  9
$DGNFRAME
280
    2
  9
$REALWORLDSCALE
290
    1
  9
$INTERFERECOLOR
 62
  256
  9
$CSHADOW
280
    0
  9
$SHADOWPLANELOCATION
 40
0
  0
ENDSEC
  0
SECTION
  2
CLASSES
  0
ENDSEC
  0
SECTION
  2
TABLES
  0
TABLE
  2
VPORT
  5
8
330
0
100
AcDbSymbolTable
 70
    1
  0
VPORT
  5
31
330
2
100
AcDbSymbolTableRecord
100
AcDbViewportTableRecord
  2
*ACTIVE
 70
    0
 10
0
 20
0
 11
1
 21
1
 12
380.5157034603704
 22
90.90097360442182
 13
0
 23
0
 14
10
 24
10
 15
10
 25
10
 16
0
 26
0
 36
1
 17
0
 27
0
 37
0
 40
703.5312561756182
 41
1.372596153846154
 42
50
 43
0
 44
0
 50
0
 51
0
 71
    0
 72
  100
 73
    1
 74
    3
 75
    0
 76
    0
 77
    0
 78
    0
281
    0
 65
    1
110
0
120
0
130
0
111
1
121
0
131
0
112
0
122
1
132
0
 79
    0
146
0
348
10020
 60
    7
 61
    5
292
1
282
    1
141
0
142
0
 63
  250
421
3358443
  0
ENDTAB
  0
TABLE
  2
LTYPE
  5
5
330
0
100
AcDbSymbolTable
 70
    4
  0
LTYPE
  5
14
330
5
100
AcDbSymbolTableRecord
100
AcDbLinetypeTableRecord
  2
ByBlock
 70
    0
  3

 72
   65
 73
    0
 40
0
  0
LTYPE
  5
15
330
5
100
AcDbSymbolTableRecord
100
AcDbLinetypeTableRecord
  2
ByLayer
 70
    0
  3

 72
   65
 73
    0
 40
0
  0
LTYPE
  5
16
330
5
100
AcDbSymbolTableRecord
100
AcDbLinetypeTableRecord
  2
Continuous
 70
    0
  3
Solid line
 72
   65
 73
    0
 40
0
  0
LTYPE
  5
32
330
5
100
AcDbSymbolTableRecord
100
AcDbLinetypeTableRecord
  2
DOT
 70
    0
  3
Dot . . . . . . . . . . . . . . . . . . . . . .
 72
   65
 73
    2
 40
6.35
 49
0
 74
    0
 49
-6.35
 74
    0
  0
LTYPE
  5
33
330
5
100
AcDbSymbolTableRecord
100
AcDbLinetypeTableRecord
  2
DOTTINY
 70
    0
  3
Dot (.15x) .....................................
 72
   65
 73
    2
 40
0.9525
 49
0
 74
    0
 49
-0.9525
 74
    0
  0
LTYPE
  5
34
330
5
100
AcDbSymbolTableRecord
100
AcDbLinetypeTableRecord
  2
DOT2
 70
    0
  3
Dot (.5x) .....................................
 72
   65
 73
    2
 40
3.175
 49
0
 74
    0
 49
-3.175
 74
    0
  0
LTYPE
  5
35
330
5
100
AcDbSymbolTableRecord
100
AcDbLinetypeTableRecord
  2
DOTX2
 70
    0
  3
Dot (2x) .  .  .  .  .  .  .  .  .  .  .  .  .
 72
   65
 73
    2
 40
12.7
 49
0
 74
    0
 49
-12.7
 74
    0
  0
LTYPE
  5
36
330
5
100
AcDbSymbolTableRecord
100
AcDbLinetypeTableRecord
  2
DASHED
 70
    0
  3
Dashed _ _ _ _ _ _ _ _ _ _ _ _ _ _ _ _ _
 72
   65
 73
    2
 40
19.05
 49
12.7
 74
    0
 49
-6.35
 74
    0
  0
LTYPE
  5
37
330
5
100
AcDbSymbolTableRecord
100
AcDbLinetypeTableRecord
  2
DASHEDTINY
 70
    0
  3
Dashed (.15x) _ _ _ _ _ _ _ _ _ _ _ _ _ _ _ _ _
 72
   65
 73
    2
 40
2.8575
 49
1.905
 74
    0
 49
-0.9525
 74
    0
  0
LTYPE
  5
38
330
5
100
AcDbSymbolTableRecord
100
AcDbLinetypeTableRecord
  2
DASHED2
 70
    0
  3
Dashed (.5x) _ _ _ _ _ _ _ _ _ _ _ _ _ _ _ _ _
 72
   65
 73
    2
 40
9.524999999999999
 49
6.35
 74
    0
 49
-3.175
 74
    0
  0
LTYPE
  5
39
330
5
100
AcDbSymbolTableRecord
100
AcDbLinetypeTableRecord
  2
DASHEDX2
 70
    0
  3
Dashed (2x) ____  ____  ____  ____  ____  ___
 72
   65
 73
    2
 40
38.09999999999999
 49
25.4
 74
    0
 49
-12.7
 74
    0
  0
LTYPE
  5
3A
330
5
100
AcDbSymbolTableRecord
100
AcDbLinetypeTableRecord
  2
DASHDOT
 70
    0
  3
Dash dot __ . __ . __ . __ . __ . __ . __ . __
 72
   65
 73
    4
 40
25.4
 49
12.7
 74
    0
 49
-6.35
 74
    0
 49
0
 74
    0
 49
-6.35
 74
    0
  0
LTYPE
  5
3B
330
5
100
AcDbSymbolTableRecord
100
AcDbLinetypeTableRecord
  2
DASHDOTTINY
 70
    0
  3
Dash dot (.15x) _._._._._._._._._._._._._._._.
 72
   65
 73
    4
 40
3.81
 49
1.905
 74
    0
 49
-0.9525
 74
    0
 49
0
 74
    0
 49
-0.9525
 74
    0
  0
LTYPE
  5
3C
330
5
100
AcDbSymbolTableRecord
100
AcDbLinetypeTableRecord
  2
DASHDOT2
 70
    0
  3
Dash dot (.5x) _._._._._._._._._._._._._._._.
 72
   65
 73
    4
 40
12.7
 49
6.35
 74
    0
 49
-3.175
 74
    0
 49
0
 74
    0
 49
-3.175
 74
    0
  0
LTYPE
  5
3D
330
5
100
AcDbSymbolTableRecord
100
AcDbLinetypeTableRecord
  2
DASHDOTX2
 70
    0
  3
Dash dot (2x) ____  .  ____  .  ____  .  ___
 72
   65
 73
    4
 40
50.8
 49
25.4
 74
    0
 49
-12.7
 74
    0
 49
0
 74
    0
 49
-12.7
 74
    0
  0
LTYPE
  5
3E
330
5
100
AcDbSymbolTableRecord
100
AcDbLinetypeTableRecord
  2
DIVIDE
 70
    0
  3
Divide ____ . . ____ . . ____ . . ____ . . ____
 72
   65
 73
    6
 40
31.75
 49
12.7
 74
    0
 49
-6.35
 74
    0
 49
0
 74
    0
 49
-6.35
 74
    0
 49
0
 74
    0
 49
-6.35
 74
    0
  0
LTYPE
  5
3F
330
5
100
AcDbSymbolTableRecord
100
AcDbLinetypeTableRecord
  2
DIVIDETINY
 70
    0
  3
Divide (.15x) __..__..__..__..__..__..__..__.._
 72
   65
 73
    6
 40
4.7625
 49
1.905
 74
    0
 49
-0.9525
 74
    0
 49
0
 74
    0
 49
-0.9525
 74
    0
 49
0
 74
    0
 49
-0.9525
 74
    0
  0
LTYPE
  5
40
330
5
100
AcDbSymbolTableRecord
100
AcDbLinetypeTableRecord
  2
DIVIDE2
 70
    0
  3
Divide (.5x) __..__..__..__..__..__..__..__.._
 72
   65
 73
    6
 40
15.875
 49
6.35
 74
    0
 49
-3.175
 74
    0
 49
0
 74
    0
 49
-3.175
 74
    0
 49
0
 74
    0
 49
-3.175
 74
    0
  0
LTYPE
  5
41
330
5
100
AcDbSymbolTableRecord
100
AcDbLinetypeTableRecord
  2
DIVIDEX2
 70
    0
  3
Divide (2x) ________  .  .  ________  .  .  _
 72
   65
 73
    6
 40
63.5
 49
25.4
 74
    0
 49
-12.7
 74
    0
 49
0
 74
    0
 49
-12.7
 74
    0
 49
0
 74
    0
 49
-12.7
 74
    0
  0
LTYPE
  5
42
330
5
100
AcDbSymbolTableRecord
100
AcDbLinetypeTableRecord
  2
BORDER
 70
    0
  3
Border __ __ . __ __ . __ __ . __ __ . __ __ .
 72
   65
 73
    6
 40
44.45
 49
12.7
 74
    0
 49
-6.35
 74
    0
 49
12.7
 74
    0
 49
-6.35
 74
    0
 49
0
 74
    0
 49
-6.35
 74
    0
  0
LTYPE
  5
43
330
5
100
AcDbSymbolTableRecord
100
AcDbLinetypeTableRecord
  2
BORDERTINY
 70
    0
  3
Border (.15x) __.__.__.__.__.__.__.__.__.__.__.
 72
   65
 73
    6
 40
6.6675
 49
1.905
 74
    0
 49
-0.9525
 74
    0
 49
1.905
 74
    0
 49
-0.9525
 74
    0
 49
0
 74
    0
 49
-0.9525
 74
    0
  0
LTYPE
  5
44
330
5
100
AcDbSymbolTableRecord
100
AcDbLinetypeTableRecord
  2
BORDER2
 70
    0
  3
Border (.5x) __.__.__.__.__.__.__.__.__.__.__.
 72
   65
 73
    6
 40
22.225
 49
6.35
 74
    0
 49
-3.175
 74
    0
 49
6.35
 74
    0
 49
-3.175
 74
    0
 49
0
 74
    0
 49
-3.175
 74
    0
  0
LTYPE
  5
45
330
5
100
AcDbSymbolTableRecord
100
AcDbLinetypeTableRecord
  2
BORDERX2
 70
    0
  3
Border (2x) ____  ____  .  ____  ____  .  ___
 72
   65
 73
    6
 40
88.89999999999999
 49
25.4
 74
    0
 49
-12.7
 74
    0
 49
25.4
 74
    0
 49
-12.7
 74
    0
 49
0
 74
    0
 49
-12.7
 74
    0
  0
LTYPE
  5
46
330
5
100
AcDbSymbolTableRecord
100
AcDbLinetypeTableRecord
  2
CENTER
 70
    0
  3
Center ____ _ ____ _ ____ _ ____ _ ____ _ ____
 72
   65
 73
    4
 40
50.8
 49
31.75
 74
    0
 49
-6.35
 74
    0
 49
6.35
 74
    0
 49
-6.35
 74
    0
  0
LTYPE
  5
47
330
5
100
AcDbSymbolTableRecord
100
AcDbLinetypeTableRecord
  2
CENTERTINY
 70
    0
  3
Center (.15x) ___ _ ___ _ ___ _ ___ _ ___ _ ___
 72
   65
 73
    4
 40
7.619999999999999
 49
4.7625
 74
    0
 49
-0.9525
 74
    0
 49
0.9525
 74
    0
 49
-0.9525
 74
    0
  0
LTYPE
  5
48
330
5
100
AcDbSymbolTableRecord
100
AcDbLinetypeTableRecord
  2
CENTER2
 70
    0
  3
Center (.5x) ___ _ ___ _ ___ _ ___ _ ___ _ ___
 72
   65
 73
    4
 40
28.575
 49
19.05
 74
    0
 49
-3.175
 74
    0
 49
3.175
 74
    0
 49
-3.175
 74
    0
  0
LTYPE
  5
49
330
5
100
AcDbSymbolTableRecord
100
AcDbLinetypeTableRecord
  2
CENTERX2
 70
    0
  3
Center (2x) ________  __  ________  __  _____
 72
   65
 73
    4
 40
101.6
 49
63.5
 74
    0
 49
-12.7
 74
    0
 49
12.7
 74
    0
 49
-12.7
 74
    0
  0
ENDTAB
  0
TABLE
  2
LAYER
  5
2
330
0
100
AcDbSymbolTable
 70
    1
  0
LAYER
  5
10
330
2
100
AcDbSymbolTableRecord
100
AcDbLayerTableRecord
  2
0
 70
    0
 62
    7
  6
CONTINUOUS
370
   -3
390
F
  0
LAYER
  5
4A
330
2
100
AcDbSymbolTableRecord
100
AcDbLayerTableRecord
  2
CONTOURS
 70
    0
 62
    7
  6
CONTINUOUS
370
   -3
390
F
  0
LAYER
  5
4B
330
2
100
AcDbSymbolTableRecord
100
AcDbLayerTableRecord
  2
DIMENSIONS
 70
    0
 62
    7
  6
CONTINUOUS
370
   -3
390
F
  0
LAYER
  5
4C
330
2
100
AcDbSymbolTableRecord
100
AcDbLayerTableRecord
  2
Defpoints
 70
    0
 62
    7
  6
CONTINUOUS
290
0
370
   -3
390
F
  0
LAYER
  5
4D
330
2
100
AcDbSymbolTableRecord
100
AcDbLayerTableRecord
  2
TEXT
 70
    0
 62
    7
  6
CONTINUOUS
370
   -3
390
F
  0
ENDTAB
  0
TABLE
  2
STYLE
  5
3
330
0
100
AcDbSymbolTable
 70
    3
  0
STYLE
  5
4E
330
2
100
AcDbSymbolTableRecord
100
AcDbTextStyleTableRecord
  2
STANDARD
 70
    0
 40
0
 41
1
 50
0
 71
    0
 42
1
  3
STANDARD
  4

  0
ENDTAB
  0
TABLE
  2
VIEW
  5
6
330
0
100
AcDbSymbolTable
 70
    0
  0
ENDTAB
  0
TABLE
  2
UCS
  5
7
330
0
100
AcDbSymbolTable
 70
    0
  0
ENDTAB
  0
TABLE
  2
APPID
  5
9
330
0
100
AcDbSymbolTable
 70
    1
  0
APPID
  5
12
330
9
100
AcDbSymbolTableRecord
100
AcDbRegAppTableRecord
  2
ACAD
 70
    0
  0
APPID
  5
4F
330
9
100
AcDbSymbolTableRecord
100
AcDbRegAppTableRecord
  2
LibreCad
 70
    0
  0
ENDTAB
  0
TABLE
  2
DIMSTYLE
  5
A
330
0
100
AcDbSymbolTable
 70
    1
100
AcDbDimStyleTable
 71
    1
  0
DIMSTYLE
105
50
330
A
100
AcDbSymbolTableRecord
100
AcDbDimStyleTableRecord
  2
Standard
 70
    0
 40
1
 41
2.5
 42
0.625
 43
0.38
 44
1.25
 45
0
 46
0
 47
0
 48
0
 49
1
140
2.5
141
0.09
142
0
143
25.4
144
1
145
0
146
1
147
0.625
148
0
 71
    0
 72
    0
 73
    0
 74
    1
 75
    0
 76
    0
 77
    0
 78
    8
 79
    0
170
    0
171
    2
172
    0
173
    0
174
    0
175
    0
176
    0
177
    0
178
    0
179
    0
271
    2
272
    4
273
    2
274
    2
275
    0
276
    0
277
    2
278
   44
279
    0
280
    0
281
    0
282
    0
283
    1
284
    0
285
    0
286
    0
288
    0
289
    3
340
4E
  0
ENDTAB
  0
TABLE
  2
BLOCK_RECORD
  5
1
330
0
100
AcDbSymbolTable
 70
    2
  0
BLOCK_RECORD
  5
1F
330
1
100
AcDbSymbolTableRecord
100
AcDbBlockTableRecord
  2
*Model_Space
 70
    0
280
    1
281
    0
  0
BLOCK_RECORD
  5
1E
330
1
100
AcDbSymbolTableRecord
100
AcDbBlockTableRecord
  2
*Paper_Space
 70
    0
280
    1
281
    0
  0
ENDTAB
  0
ENDSEC
  0
SECTION
  2
BLOCKS
  0
BLOCK
  5
20
330
1F
100
AcDbEntity
  8
0
100
AcDbBlockBegin
  2
*Model_Space
 70
    0
 10
0
 20
0
 30
0
  3
*Model_Space
  1

  0
ENDBLK
  5
21
330
1F
100
AcDbEntity
  8
0
100
AcDbBlockEnd
  0
BLOCK
  5
1C
330
1B
100
AcDbEntity
  8
0
100
AcDbBlockBegin
  2
*Paper_Space
 70
    0
 10
0
 20
0
 30
0
  3
*Paper_Space
  1

  0
ENDBLK
  5
1D
330
1F
100
AcDbEntity
  8
0
100
AcDbBlockEnd
  0
ENDSEC
  0
SECTION
  2
ENTITIES
  0
LWPOLYLINE
  5
51
100
AcDbEntity
  8
CONTOURS
  6
ByLayer
 62
  256
370
   -1
100
AcDbPolyline
 90
  193
 70
    1
 43
0
 10
88.283378746594
 20
-273.6585365853659
 10
87.98910081743868
 20
-273.9547038327526
 10
87.10626702997274
 20
-273.9547038327526
 10
86.81198910081743
 20
-274.2508710801393
 10
86.2234332425068
 20
-274.2508710801393
 10
85.92915531335149
 20
-274.5470383275261
 10
85.63487738419617
 20
-274.5470383275261
 10
83.86920980926431
 20
-276.3240418118467
 10
83.57493188010899
 20
-276.3240418118467
 10
82.10354223433242
 20
-277.8048780487805
 10
82.10354223433242
 20
-278.1010452961672
 10
80.04359673024523
 20
-280.1742160278746
 10
80.04359673024523
 20
-280.4703832752613
 10
79.4550408719346
 20
-281.0627177700349
 10
79.4550408719346
 20
-281.3588850174216
 10
79.16076294277929
 20
-281.6550522648084
 10
79.16076294277929
 20
-281.9512195121951
 10
78.86648501362397
 20
-282.2473867595819
 10
78.86648501362397
 20
-282.5435540069686
 10
78.27792915531334
 20
-283.1358885017422
 10
78.27792915531334
 20
-283.4320557491289
 10
77.98365122615803
 20
-283.7282229965157
 10
66.50681198910081
 20
-283.7282229965157
 10
66.2125340599455
 20
-284.0243902439024
 10
65.91825613079018
 20
-284.0243902439024
 10
63.56403269754768
 20
-286.3937282229965
 10
63.26975476839237
 20
-286.3937282229965
 10
62.97547683923705
 20
-286.6898954703832
 10
34.13623978201635
 20
-286.6898954703832
 10
33.84196185286103
 20
-286.98606271777
 10
32.95912806539509
 20
-286.98606271777
 10
32.66485013623978
 20
-287.2822299651568
 10
32.37057220708446
 20
-287.2822299651568
 10
29.72207084468665
 20
-289.9477351916376
 10
29.72207084468665
 20
-290.2439024390244
 10
28.83923705722071
 20
-291.1324041811847
 10
28.83923705722071
 20
-291.4285714285714
 10
28.54495912806539
 20
-291.7247386759582
 10
28.54495912806539
 20
-292.020905923345
 10
28.25068119891008
 20
-292.3170731707317
 10
28.25068119891008
 20
-292.6132404181185
 10
27.95640326975477
 20
-292.9094076655052
 10
27.95640326975477
 20
-293.5017421602788
 10
27.66212534059945
 20
-293.7979094076655
 10
27.66212534059945
 20
-294.390243902439
 10
27.36784741144414
 20
-294.6864111498258
 10
27.36784741144414
 20
-294.9825783972125
 10
27.07356948228882
 20
-295.2787456445993
 10
27.07356948228882
 20
-296.1672473867596
 10
26.77929155313351
 20
-296.4634146341463
 10
26.77929155313351
 20
-297.0557491289198
 10
26.4850136239782
 20
-297.3519163763066
 10
26.4850136239782
 20
-299.4250871080139
 10
26.19073569482289
 20
-299.7212543554007
 10
26.19073569482289
 20
-301.4982578397212
 10
26.4850136239782
 20
-301.794425087108
 10
26.4850136239782
 20
-304.4599303135889
 10
26.77929155313351
 20
-304.7560975609756
 10
26.77929155313351
 20
-305.3484320557491
 10
27.07356948228882
 20
-305.6445993031359
 10
27.07356948228882
 20
-306.2369337979094
 10
27.36784741144414
 20
-306.5331010452962
 10
27.36784741144414
 20
-306.8292682926829
 10
27.66212534059945
 20
-307.1254355400697
 10
27.66212534059945
 20
-307.4216027874564
 10
29.42779291553133
 20
-309.198606271777
 10
30.60490463215259
 20
-309.198606271777
 10
30.8991825613079
 20
-309.4947735191637
 10
35.60762942779292
 20
-309.4947735191637
 10
35.90190735694823
 20
-309.7909407665505
 10
42.96457765667574
 20
-309.7909407665505
 10
43.25885558583106
 20
-310.0871080139373
 10
48.5558583106267
 20
-310.0871080139373
 10
48.85013623978201
 20
-310.3832752613241
 10
56.79564032697547
 20
-310.3832752613241
 10
57.08991825613079
 20
-310.6794425087108
 10
59.14986376021798
 20
-310.6794425087108
 10
59.4441416893733
 20
-310.9756097560976
 10
59.4441416893733
 20
-311.2717770034843
 10
60.03269754768392
 20
-311.8641114982578
 10
60.03269754768392
 20
-312.1602787456446
 10
61.7983651226158
 20
-313.9372822299651
 10
62.09264305177111
 20
-313.9372822299651
 10
62.38692098092643
 20
-314.2334494773519
 10
71.21525885558583
 20
-314.2334494773519
 10
71.50953678474114
 20
-314.5296167247387
 10
74.15803814713895
 20
-314.5296167247387
 10
74.45231607629427
 20
-314.8257839721255
 10
74.45231607629427
 20
-315.1219512195122
 10
74.74659400544958
 20
-315.4181184668989
 10
74.74659400544958
 20
-316.0104529616725
 10
75.04087193460489
 20
-316.3066202090592
 10
75.04087193460489
 20
-317.4912891986063
 10
75.33514986376021
 20
-317.787456445993
 10
75.33514986376021
 20
-318.3797909407666
 10
75.62942779291552
 20
-318.6759581881533
 10
75.62942779291552
 20
-318.9721254355401
 10
75.92370572207084
 20
-319.2682926829268
 10
75.92370572207084
 20
-319.8606271777003
 10
76.21798365122615
 20
-320.1567944250871
 10
76.21798365122615
 20
-320.4529616724739
 10
76.51226158038146
 20
-320.7491289198607
 10
76.51226158038146
 20
-321.0452961672474
 10
76.80653950953678
 20
-321.3414634146341
 10
76.80653950953678
 20
-321.6376306620209
 10
77.3950953678474
 20
-322.2299651567944
 10
77.3950953678474
 20
-322.5261324041812
 10
79.16076294277929
 20
-324.3031358885017
 10
79.4550408719346
 20
-324.3031358885017
 10
79.74931880108991
 20
-324.5993031358885
 10
80.04359673024523
 20
-324.5993031358885
 10
80.33787465940054
 20
-324.8954703832753
 10
80.92643051771117
 20
-324.8954703832753
 10
81.22070844686648
 20
-325.191637630662
 10
85.63487738419617
 20
-325.191637630662
 10
85.92915531335149
 20
-325.4878048780488
 10
95.34604904632153
 20
-325.4878048780488
 10
95.64032697547684
 20
-325.7839721254355
 10
108.8828337874659
 20
-325.7839721254355
 10
109.1771117166212
 20
-326.0801393728223
 10
125.6566757493188
 20
-326.0801393728223
 10
125.9509536784741
 20
-326.376306620209
 10
136.2506811989101
 20
-326.376306620209
 10
136.5449591280654
 20
-326.6724738675958
 10
147.7275204359673
 20
-326.6724738675958
 10
148.0217983651226
 20
-326.9686411149826
 10
161.8528610354223
 20
-326.9686411149826
 10
162.1471389645776
 20
-327.2648083623694
 10
176.2724795640327
 20
-327.2648083623694
 10
176.566757493188
 20
-327.5609756097561
 10
190.1035422343324
 20
-327.5609756097561
 10
190.3978201634877
 20
-327.8571428571428
 10
204.2288828337875
 20
-327.8571428571428
 10
204.5231607629428
 20
-328.1533101045296
 10
216.8828337874659
 20
-328.1533101045296
 10
217.1771117166212
 20
-327.8571428571428
 10
217.7656675749319
 20
-327.8571428571428
 10
218.0599455040872
 20
-327.5609756097561
 10
218.3542234332425
 20
-327.5609756097561
 10
218.9427792915531
 20
-326.9686411149826
 10
219.2370572207084
 20
-326.9686411149826
 10
219.5313351498637
 20
-326.6724738675958
 10
219.8256130790191
 20
-326.6724738675958
 10
220.1198910081744
 20
-326.376306620209
 10
220.1198910081744
 20
-326.0801393728223
 10
220.4141689373297
 20
-325.7839721254355
 10
220.4141689373297
 20
-325.4878048780488
 10
220.708446866485
 20
-325.191637630662
 10
220.708446866485
 20
-324.5993031358885
 10
221.0027247956403
 20
-324.3031358885017
 10
221.0027247956403
 20
-323.1184668989547
 10
221.2970027247956
 20
-322.822299651568
 10
221.2970027247956
 20
-320.4529616724739
 10
221.5912806539509
 20
-320.1567944250871
 10
221.5912806539509
 20
-316.602787456446
 10
221.8855585831062
 20
-316.3066202090592
 10
221.8855585831062
 20
-311.2717770034843
 10
222.1798365122616
 20
-310.9756097560976
 10
222.1798365122616
 20
-303.8675958188153
 10
222.4741144414169
 20
-303.5714285714286
 10
222.4741144414169
 20
-292.9094076655052
 10
222.7683923705722
 20
-292.6132404181185
 10
222.7683923705722
 20
-288.7630662020906
 10
222.4741144414169
 20
-288.4668989547038
 10
222.4741144414169
 20
-283.7282229965157
 10
222.7683923705722
 20
-283.4320557491289
 10
222.4741144414169
 20
-283.1358885017422
 10
222.4741144414169
 20
-280.1742160278746
 10
222.1798365122616
 20
-279.8780487804878
 10
222.1798365122616
 20
-278.6933797909408
 10
221.8855585831062
 20
-278.397212543554
 10
221.8855585831062
 20
-277.8048780487805
 10
220.708446866485
 20
-276.6202090592334
 10
220.4141689373297
 20
-276.6202090592334
 10
220.1198910081744
 20
-276.3240418118467
 10
218.6485013623978
 20
-276.3240418118467
 10
218.3542234332425
 20
-276.0278745644599
 10
207.4659400544959
 20
-276.0278745644599
 10
207.1716621253406
 20
-275.7317073170732
 10
189.2207084468665
 20
-275.7317073170732
 10
188.9264305177112
 20
-275.4355400696864
 10
171.2697547683923
 20
-275.4355400696864
 10
170.975476839237
 20
-275.1393728222997
 10
155.0844686648501
 20
-275.1393728222997
 10
154.7901907356948
 20
-274.8432055749129
 10
138.6049046321526
 20
-274.8432055749129
 10
138.3106267029973
 20
-274.5470383275261
 10
124.7738419618529
 20
-274.5470383275261
 10
124.4795640326975
 20
-274.2508710801393
 10
108.5885558583106
 20
-274.2508710801393
 10
108.2942779291553
 20
-273.9547038327526
 10
95.93460490463215
 20
-273.9547038327526
 10
95.64032697547684
 20
-273.6585365853659
  0
TEXT
  5
52
100
AcDbEntity
  8
TEXT
  6
ByLayer
 62
  256
370
   -1
100
AcDbText
 10
135.9564032697548
 20
-300.609756097561
 30
0
 40
5
  1
Contour 1
 50
0
 41
1
 51
0
  7
STANDARD
 71
    0
210
0
220
0
230
1
100
AcDbText
  0
LWPOLYLINE
  5
53
100
AcDbEntity
  8
CONTOURS
  6
ByLayer
 62
  256
370
   -1
100
AcDbPolyline
 90
  105
 70
    1
 43
0
 10
421.4059945504087
 20
-148.3797909407666
 10
421.1117166212534
 20
-148.6759581881533
 10
421.1117166212534
 20
-150.4529616724739
 10
420.8174386920981
 20
-150.7491289198606
 10
420.8174386920981
 20
-151.6376306620209
 10
420.5231607629428
 20
-151.9337979094077
 10
420.5231607629428
 20
-153.4146341463415
 10
420.2288828337875
 20
-153.7108013937282
 10
420.2288828337875
 20
-154.006968641115
 10
419.9346049046321
 20
-154.3031358885017
 10
419.9346049046321
 20
-154.8954703832753
 10
419.6403269754768
 20
-155.191637630662
 10
419.6403269754768
 20
-155.7839721254356
 10
419.3460490463215
 20
-156.0801393728223
 10
419.3460490463215
 20
-156.376306620209
 10
419.0517711171662
 20
-156.6724738675958
 10
419.0517711171662
 20
-157.5609756097561
 10
418.7574931880109
 20
-157.8571428571429
 10
418.7574931880109
 20
-159.0418118466899
 10
418.4632152588555
 20
-159.3379790940766
 10
418.4632152588555
 20
-160.8188153310105
 10
418.1689373297003
 20
-161.1149825783972
 10
418.1689373297003
 20
-162.595818815331
 10
417.8746594005449
 20
-162.8919860627178
 10
417.8746594005449
 20
-175.0348432055749
 10
417.5803814713896
 20
-175.3310104529617
 10
417.5803814713896
 20
-193.6933797909408
 10
417.2861035422343
 20
-193.9895470383275
 10
417.2861035422343
 20
-211.7595818815331
 10
416.991825613079
 20
-212.0557491289199
 10
416.991825613079
 20
-227.1602787456446
 10
416.6975476839237
 20
-227.4564459930314
 10
416.6975476839237
 20
-235.7491289198606
 10
416.4032697547684
 20
-236.0452961672474
 10
416.4032697547684
 20
-236.6376306620209
 10
416.108991825613
 20
-236.9337979094077
 10
416.108991825613
 20
-237.2299651567944
 10
416.4032697547684
 20
-237.5261324041812
 10
416.4032697547684
 20
-243.7456445993031
 10
416.108991825613
 20
-244.0418118466899
 10
416.108991825613
 20
-259.7386759581881
 10
415.8147138964578
 20
-260.0348432055749
 10
415.8147138964578
 20
-261.5156794425087
 10
415.5204359673024
 20
-261.8118466898954
 10
415.5204359673024
 20
-264.4773519163763
 10
415.8147138964578
 20
-264.7735191637631
 10
415.8147138964578
 20
-273.6585365853659
 10
415.5204359673024
 20
-273.9547038327526
 10
415.5204359673024
 20
-279.2857142857143
 10
415.2261580381471
 20
-279.5818815331011
 10
415.2261580381471
 20
-291.4285714285714
 10
415.8147138964578
 20
-292.020905923345
 10
415.8147138964578
 20
-292.6132404181185
 10
416.4032697547684
 20
-293.205574912892
 10
416.6975476839237
 20
-293.205574912892
 10
416.991825613079
 20
-293.5017421602788
 10
417.5803814713896
 20
-293.5017421602788
 10
418.1689373297003
 20
-294.0940766550523
 10
419.3460490463215
 20
-294.0940766550523
 10
419.6403269754768
 20
-294.390243902439
 10
420.5231607629428
 20
-294.390243902439
 10
420.8174386920981
 20
-294.0940766550523
 10
421.700272479564
 20
-294.0940766550523
 10
423.7602179836512
 20
-292.020905923345
 10
423.7602179836512
 20
-285.5052264808363
 10
423.4659400544959
 20
-285.2090592334495
 10
423.4659400544959
 20
-279.8780487804878
 10
423.1716621253406
 20
-279.5818815331011
 10
423.1716621253406
 20
-276.6202090592334
 10
423.4659400544959
 20
-276.3240418118467
 10
423.4659400544959
 20
-266.8466898954704
 10
423.7602179836512
 20
-266.5505226480836
 10
423.7602179836512
 20
-255.5923344947735
 10
424.0544959128065
 20
-255.2961672473868
 10
424.0544959128065
 20
-242.8571428571429
 10
424.3487738419618
 20
-242.5609756097561
 10
424.3487738419618
 20
-230.1219512195122
 10
424.6430517711171
 20
-229.8257839721254
 10
424.6430517711171
 20
-211.7595818815331
 10
424.9373297002725
 20
-211.4634146341463
 10
424.9373297002725
 20
-194.2857142857143
 10
425.2316076294277
 20
-193.9895470383275
 10
425.2316076294277
 20
-175.6271777003484
 10
425.5258855585831
 20
-175.3310104529617
 10
425.5258855585831
 20
-161.411149825784
 10
425.2316076294277
 20
-161.1149825783972
 10
425.2316076294277
 20
-159.3379790940766
 10
424.9373297002725
 20
-159.0418118466899
 10
424.9373297002725
 20
-156.9686411149826
 10
424.6430517711171
 20
-156.6724738675958
 10
424.6430517711171
 20
-155.4878048780488
 10
424.3487738419618
 20
-155.191637630662
 10
424.3487738419618
 20
-154.5993031358885
 10
424.0544959128065
 20
-154.3031358885017
 10
424.0544959128065
 20
-153.7108013937282
 10
423.7602179836512
 20
-153.4146341463415
 10
423.7602179836512
 20
-153.1184668989547
 10
423.4659400544959
 20
-152.8222996515679
 10
423.4659400544959
 20
-152.5261324041812
 10
423.1716621253406
 20
-152.2299651567944
 10
423.1716621253406
 20
-151.6376306620209
 10
422.8773841961852
 20
-151.3414634146341
 10
422.8773841961852
 20
-149.8606271777003
 10
422.58310626703
 20
-149.5644599303136
 10
422.58310626703
 20
-148.3797909407666
  0
TEXT
  5
54
100
AcDbEntity
  8
TEXT
  6
ByLayer
 62
  256
370
   -1
100
AcDbText
 10
420.5231607629428
 20
-224.4947735191638
 30
0
 40
5
  1
Contour 2
 50
0
 41
1
 51
0
  7
STANDARD
 71
    0
210
0
220
0
230
1
100
AcDbText
  0
LWPOLYLINE
  5
55
100
AcDbEntity
  8
CONTOURS
  6
ByLayer
 62
  256
370
   -1
100
AcDbPolyline
 90
  226
 70
    1
 43
0
 10
365.7874659400545
 20
-132.6829268292683
 10
365.4931880108991
 20
-132.9790940766551
 10
361.6675749318801
 20
-132.9790940766551
 10
361.3732970027248
 20
-133.2752613240418
 10
358.1362397820163
 20
-133.2752613240418
 10
357.841961852861
 20
-133.5714285714286
 10
356.0762942779292
 20
-133.5714285714286
 10
355.7820163487738
 20
-133.8675958188153
 10
354.0163487738419
 20
-133.8675958188153
 10
353.7220708446866
 20
-134.1637630662021
 10
351.9564032697547
 20
-134.1637630662021
 10
351.6621253405995
 20
-134.4599303135888
 10
349.8964577656675
 20
-134.4599303135888
 10
349.6021798365122
 20
-134.7560975609756
 10
347.8365122615804
 20
-134.7560975609756
 10
347.542234332425
 20
-135.0522648083624
 10
346.0708446866485
 20
-135.0522648083624
 10
345.7765667574932
 20
-135.3484320557491
 10
344.3051771117166
 20
-135.3484320557491
 10
344.0108991825613
 20
-135.6445993031359
 10
343.1280653950953
 20
-135.6445993031359
 10
342.83378746594
 20
-135.9407665505227
 10
342.2452316076294
 20
-135.9407665505227
 10
341.6566757493188
 20
-136.5331010452962
 10
341.3623978201635
 20
-136.5331010452962
 10
341.3623978201635
 20
-137.1254355400697
 10
341.0681198910082
 20
-137.4216027874564
 10
341.0681198910082
 20
-140.0871080139373
 10
341.3623978201635
 20
-140.383275261324
 10
341.3623978201635
 20
-140.6794425087108
 10
341.6566757493188
 20
-140.6794425087108
 10
341.9509536784741
 20
-140.9756097560976
 10
343.7166212534059
 20
-140.9756097560976
 10
344.0108991825613
 20
-141.2717770034843
 10
346.0708446866485
 20
-141.2717770034843
 10
346.3651226158038
 20
-141.5679442508711
 10
346.6594005449591
 20
-141.2717770034843
 10
346.9536784741144
 20
-141.2717770034843
 10
347.8365122615804
 20
-140.383275261324
 10
351.3678474114441
 20
-140.383275261324
 10
351.6621253405995
 20
-140.6794425087108
 10
351.6621253405995
 20
-143.0487804878049
 10
350.7792915531335
 20
-143.9372822299651
 10
350.7792915531335
 20
-144.2334494773519
 10
348.7193460490463
 20
-146.3066202090592
 10
348.7193460490463
 20
-146.602787456446
 10
347.8365122615804
 20
-147.4912891986063
 10
347.8365122615804
 20
-147.787456445993
 10
346.6594005449591
 20
-148.9721254355401
 10
346.6594005449591
 20
-149.2682926829268
 10
345.7765667574932
 20
-150.1567944250871
 10
345.7765667574932
 20
-150.4529616724739
 10
344.8937329700272
 20
-151.3414634146341
 10
344.8937329700272
 20
-151.6376306620209
 10
344.3051771117166
 20
-152.2299651567944
 10
344.3051771117166
 20
-152.5261324041812
 10
343.1280653950953
 20
-153.7108013937282
 10
343.1280653950953
 20
-154.006968641115
 10
342.5395095367847
 20
-154.5993031358885
 10
342.5395095367847
 20
-154.8954703832753
 10
341.6566757493188
 20
-155.7839721254356
 10
341.6566757493188
 20
-156.0801393728223
 10
340.7738419618528
 20
-156.9686411149826
 10
340.7738419618528
 20
-159.0418118466899
 10
340.4795640326975
 20
-159.3379790940766
 10
340.4795640326975
 20
-163.780487804878
 10
340.1852861035422
 20
-164.0766550522648
 10
340.1852861035422
 20
-164.6689895470383
 10
339.8910081743869
 20
-164.9651567944251
 10
339.8910081743869
 20
-165.5574912891986
 10
339.5967302452316
 20
-165.8536585365854
 10
339.5967302452316
 20
-166.7421602787456
 10
339.3024523160763
 20
-167.0383275261324
 10
339.3024523160763
 20
-168.815331010453
 10
339.008174386921
 20
-169.1114982578397
 10
339.008174386921
 20
-170.5923344947735
 10
338.7138964577657
 20
-170.8885017421603
 10
338.7138964577657
 20
-173.2578397212544
 10
339.008174386921
 20
-173.5540069686411
 10
339.008174386921
 20
-176.8118466898955
 10
338.7138964577657
 20
-177.1080139372822
 10
338.7138964577657
 20
-178.2926829268293
 10
338.4196185286103
 20
-178.588850174216
 10
337.5367847411444
 20
-178.588850174216
 10
337.5367847411444
 20
-179.7735191637631
 10
337.2425068119891
 20
-180.0696864111498
 10
337.2425068119891
 20
-181.5505226480836
 10
336.9482288828337
 20
-181.8466898954704
 10
336.9482288828337
 20
-182.7351916376307
 10
336.6539509536785
 20
-183.0313588850174
 10
336.6539509536785
 20
-185.1045296167247
 10
336.3596730245231
 20
-185.4006968641115
 10
336.3596730245231
 20
-188.3623693379791
 10
336.6539509536785
 20
-188.3623693379791
 10
336.9482288828337
 20
-188.6585365853659
 10
336.9482288828337
 20
-189.2508710801394
 10
337.2425068119891
 20
-189.5470383275261
 10
337.2425068119891
 20
-192.212543554007
 10
336.9482288828337
 20
-192.5087108013937
 10
336.9482288828337
 20
-212.9442508710801
 10
336.6539509536785
 20
-213.2404181184669
 10
336.6539509536785
 20
-220.9407665505227
 10
336.3596730245231
 20
-221.2369337979094
 10
336.3596730245231
 20
-229.8257839721254
 10
336.0653950953678
 20
-230.1219512195122
 10
336.0653950953678
 20
-237.8222996515679
 10
335.7711171662125
 20
-238.1184668989547
 10
335.7711171662125
 20
-252.9268292682927
 10
335.4768392370572
 20
-253.2229965156795
 10
334.5940054495912
 20
-253.2229965156795
 10
334.5940054495912
 20
-259.1463414634146
 10
334.299727520436
 20
-259.4425087108014
 10
334.299727520436
 20
-265.6620209059233
 10
334.0054495912806
 20
-265.9581881533101
 10
334.0054495912806
 20
-274.8432055749129
 10
333.7111716621253
 20
-275.1393728222997
 10
333.7111716621253
 20
-280.4703832752613
 10
333.41689373297
 20
-280.7665505226481
 10
333.41689373297
 20
-281.6550522648084
 10
333.1226158038147
 20
-281.9512195121951
 10
333.1226158038147
 20
-283.1358885017422
 10
332.8283378746594
 20
-283.4320557491289
 10
332.8283378746594
 20
-284.0243902439024
 10
332.5340599455041
 20
-284.3205574912892
 10
332.5340599455041
 20
-289.0592334494773
 10
333.1226158038147
 20
-289.0592334494773
 10
333.41689373297
 20
-289.3554006968641
 10
340.1852861035422
 20
-289.3554006968641
 10
340.4795640326975
 20
-289.0592334494773
 10
351.0735694822888
 20
-289.0592334494773
 10
351.3678474114441
 20
-288.7630662020906
 10
361.9618528610354
 20
-288.7630662020906
 10
362.2561307901907
 20
-288.4668989547038
 10
374.6158038147139
 20
-288.4668989547038
 10
374.9100817438692
 20
-288.1707317073171
 10
384.9155313351499
 20
-288.1707317073171
 10
385.2098092643051
 20
-287.8745644599303
 10
393.1553133514986
 20
-287.8745644599303
 10
393.4495912806539
 20
-287.5783972125436
 10
393.7438692098092
 20
-287.5783972125436
 10
393.7438692098092
 20
-282.5435540069686
 10
393.4495912806539
 20
-282.2473867595819
 10
393.4495912806539
 20
-281.6550522648084
 10
393.1553133514986
 20
-281.3588850174216
 10
393.1553133514986
 20
-280.4703832752613
 10
392.8610354223433
 20
-280.1742160278746
 10
392.8610354223433
 20
-276.9163763066202
 10
392.566757493188
 20
-276.6202090592334
 10
392.566757493188
 20
-270.993031358885
 10
392.2724795640327
 20
-270.6968641114983
 10
392.2724795640327
 20
-265.3658536585366
 10
391.9782016348773
 20
-265.0696864111498
 10
391.9782016348773
 20
-254.7038327526132
 10
391.6839237057221
 20
-254.4076655052265
 10
391.6839237057221
 20
-244.3379790940766
 10
391.3896457765667
 20
-244.0418118466899
 10
391.3896457765667
 20
-233.3797909407666
 10
391.0953678474114
 20
-233.0836236933798
 10
391.0953678474114
 20
-220.0522648083624
 10
390.8010899182561
 20
-219.7560975609756
 10
390.8010899182561
 20
-212.9442508710801
 10
390.5068119891008
 20
-212.6480836236934
 10
390.5068119891008
 20
-207.9094076655052
 10
390.2125340599455
 20
-207.6132404181185
 10
390.2125340599455
 20
-204.3554006968641
 10
389.9182561307902
 20
-204.0592334494773
 10
389.9182561307902
 20
-201.0975609756098
 10
389.6239782016348
 20
-200.801393728223
 10
389.6239782016348
 20
-198.4320557491289
 10
389.3297002724796
 20
-198.1358885017422
 10
389.3297002724796
 20
-195.4703832752613
 10
389.0354223433242
 20
-195.1742160278746
 10
389.0354223433242
 20
-193.1010452961673
 10
388.7411444141689
 20
-192.8048780487805
 10
388.7411444141689
 20
-190.7317073170732
 10
388.4468664850136
 20
-190.4355400696864
 10
388.4468664850136
 20
-188.3623693379791
 10
388.1525885558583
 20
-188.0662020905923
 10
388.1525885558583
 20
-185.6968641114983
 10
387.858310626703
 20
-185.4006968641115
 10
387.858310626703
 20
-182.1428571428571
 10
387.5640326975476
 20
-181.8466898954704
 10
387.5640326975476
 20
-179.1811846689895
 10
387.2697547683924
 20
-178.8850174216028
 10
387.2697547683924
 20
-176.8118466898955
 10
386.975476839237
 20
-176.5156794425087
 10
386.975476839237
 20
-174.7386759581882
 10
386.6811989100817
 20
-174.4425087108014
 10
386.6811989100817
 20
-172.9616724738676
 10
386.3869209809264
 20
-172.6655052264808
 10
386.3869209809264
 20
-170.2961672473868
 10
386.0926430517711
 20
-170
 10
386.0926430517711
 20
-167.6306620209059
 10
385.7983651226158
 20
-167.3344947735192
 10
385.7983651226158
 20
-164.9651567944251
 10
385.5040871934605
 20
-164.6689895470383
 10
385.5040871934605
 20
-162.8919860627178
 10
385.2098092643051
 20
-162.595818815331
 10
385.2098092643051
 20
-161.1149825783972
 10
384.9155313351499
 20
-160.8188153310105
 10
384.9155313351499
 20
-159.9303135888502
 10
384.6212534059945
 20
-159.6341463414634
 10
384.6212534059945
 20
-153.4146341463415
 10
384.3269754768392
 20
-153.1184668989547
 10
384.3269754768392
 20
-151.3414634146341
 10
384.0326975476839
 20
-151.0452961672474
 10
384.0326975476839
 20
-149.2682926829268
 10
383.7384196185286
 20
-148.9721254355401
 10
383.7384196185286
 20
-147.1951219512195
 10
383.4441416893733
 20
-146.8989547038327
 10
383.4441416893733
 20
-144.8257839721254
 10
383.149863760218
 20
-144.5296167247387
 10
383.149863760218
 20
-142.1602787456446
 10
382.8555858310626
 20
-141.8641114982578
 10
382.8555858310626
 20
-139.4947735191638
 10
383.149863760218
 20
-139.198606271777
 10
383.149863760218
 20
-138.3101045296167
 10
383.4441416893733
 20
-138.01393728223
 10
383.4441416893733
 20
-137.7177700348432
 10
382.8555858310626
 20
-137.1254355400697
 10
382.5613079019074
 20
-137.1254355400697
 10
378.7356948228883
 20
-133.2752613240418
 10
378.4414168937329
 20
-133.2752613240418
 10
378.1471389645776
 20
-132.9790940766551
 10
377.2643051771117
 20
-132.9790940766551
 10
376.9700272479564
 20
-132.6829268292683
  0
TEXT
  5
56
100
AcDbEntity
  8
TEXT
  6
ByLayer
 62
  256
370
   -1
100
AcDbText
 10
363.1389645776567
 20
-216.4982578397212
 30
0
 40
5
  1
Contour 3
 50
0
 41
1
 51
0
  7
STANDARD
 71
    0
210
0
220
0
230
1
100
AcDbText
  0
LWPOLYLINE
  5
57
100
AcDbEntity
  8
CONTOURS
  6
ByLayer
 62
  256
370
   -1
100
AcDbPolyline
 90
  110
 70
    1
 43
0
 10
35.01907356948229
 20
-98.9198606271777
 10
34.72479564032697
 20
-99.21602787456446
 10
33.84196185286103
 20
-99.21602787456446
 10
33.54768392370572
 20
-99.51219512195122
 10
32.66485013623978
 20
-99.51219512195122
 10
32.37057220708446
 20
-99.80836236933798
 10
31.78201634877384
 20
-99.80836236933798
 10
31.48773841961853
 20
-100.1045296167247
 10
31.19346049046321
 20
-100.1045296167247
 10
30.8991825613079
 20
-100.4006968641115
 10
30.60490463215259
 20
-100.4006968641115
 10
30.31062670299727
 20
-100.6968641114983
 10
30.01634877384196
 20
-100.6968641114983
 10
29.42779291553133
 20
-101.2891986062718
 10
29.13351498637602
 20
-101.2891986062718
 10
28.54495912806539
 20
-101.8815331010453
 10
28.25068119891008
 20
-101.8815331010453
 10
26.19073569482289
 20
-103.9547038327526
 10
25.89645776566757
 20
-103.9547038327526
 10
25.30790190735695
 20
-104.5470383275261
 10
25.30790190735695
 20
-106.0278745644599
 10
25.01362397820163
 20
-106.3240418118467
 10
25.01362397820163
 20
-106.6202090592334
 10
24.71934604904632
 20
-106.9163763066202
 10
24.71934604904632
 20
-107.5087108013937
 10
24.42506811989101
 20
-107.8048780487805
 10
24.42506811989101
 20
-108.6933797909408
 10
24.13079019073569
 20
-108.9895470383275
 10
24.13079019073569
 20
-113.7282229965157
 10
24.42506811989101
 20
-114.0243902439024
 10
24.42506811989101
 20
-114.9128919860627
 10
24.71934604904632
 20
-115.2090592334495
 10
24.71934604904632
 20
-115.801393728223
 10
25.01362397820163
 20
-116.0975609756098
 10
25.01362397820163
 20
-116.3937282229965
 10
25.30790190735695
 20
-116.6898954703833
 10
25.30790190735695
 20
-117.2822299651568
 10
25.89645776566757
 20
-117.8745644599303
 10
25.89645776566757
 20
-118.1707317073171
 10
26.4850136239782
 20
-118.7630662020906
 10
26.4850136239782
 20
-119.0592334494773
 10
29.42779291553133
 20
-122.0209059233449
 10
29.72207084468665
 20
-122.0209059233449
 10
30.01634877384196
 20
-122.3170731707317
 10
30.31062670299727
 20
-122.3170731707317
 10
30.8991825613079
 20
-122.9094076655052
 10
31.19346049046321
 20
-122.9094076655052
 10
31.48773841961853
 20
-123.205574912892
 10
32.07629427792915
 20
-123.205574912892
 10
32.66485013623978
 20
-123.7979094076655
 10
33.54768392370572
 20
-123.7979094076655
 10
33.84196185286103
 20
-124.0940766550523
 10
34.43051771117166
 20
-124.0940766550523
 10
34.72479564032697
 20
-124.390243902439
 10
35.90190735694823
 20
-124.390243902439
 10
36.19618528610354
 20
-124.6864111498258
 10
40.90463215258855
 20
-124.6864111498258
 10
41.19891008174387
 20
-124.390243902439
 10
42.08174386920981
 20
-124.390243902439
 10
42.37602179836512
 20
-124.0940766550523
 10
42.96457765667574
 20
-124.0940766550523
 10
43.25885558583106
 20
-123.7979094076655
 10
43.55313351498637
 20
-123.7979094076655
 10
43.84741144414168
 20
-123.5017421602788
 10
44.141689373297
 20
-123.5017421602788
 10
44.43596730245231
 20
-123.205574912892
 10
45.02452316076294
 20
-123.205574912892
 10
45.31880108991825
 20
-122.9094076655052
 10
45.61307901907357
 20
-122.9094076655052
 10
45.90735694822888
 20
-122.6132404181185
 10
46.20163487738419
 20
-122.6132404181185
 10
49.73297002724795
 20
-119.0592334494773
 10
49.73297002724795
 20
-117.5783972125435
 10
50.32152588555858
 20
-116.98606271777
 10
50.32152588555858
 20
-116.6898954703833
 10
50.61580381471389
 20
-116.3937282229965
 10
50.61580381471389
 20
-114.616724738676
 10
50.91008174386921
 20
-114.3205574912892
 10
50.91008174386921
 20
-109.8780487804878
 10
50.61580381471389
 20
-109.581881533101
 10
50.61580381471389
 20
-108.9895470383275
 10
50.32152588555858
 20
-108.6933797909408
 10
50.32152588555858
 20
-108.1010452961672
 10
50.02724795640327
 20
-107.8048780487805
 10
50.02724795640327
 20
-107.212543554007
 10
49.73297002724795
 20
-106.9163763066202
 10
49.73297002724795
 20
-106.6202090592334
 10
49.43869209809264
 20
-106.3240418118467
 10
49.43869209809264
 20
-106.0278745644599
 10
48.85013623978201
 20
-105.4355400696864
 10
48.85013623978201
 20
-105.1393728222996
 10
48.26158038147139
 20
-104.5470383275261
 10
48.26158038147139
 20
-104.2508710801394
 10
46.20163487738419
 20
-102.1777003484321
 10
45.90735694822888
 20
-102.1777003484321
 10
44.73024523160763
 20
-100.993031358885
 10
44.43596730245231
 20
-100.993031358885
 10
44.141689373297
 20
-100.6968641114983
 10
43.84741144414168
 20
-100.6968641114983
 10
43.55313351498637
 20
-100.4006968641115
 10
43.25885558583106
 20
-100.4006968641115
 10
42.96457765667574
 20
-100.1045296167247
 10
42.67029972752044
 20
-100.1045296167247
 10
42.37602179836512
 20
-99.80836236933798
 10
41.7874659400545
 20
-99.80836236933798
 10
41.49318801089918
 20
-99.51219512195122
 10
40.90463215258855
 20
-99.51219512195122
 10
40.61035422343324
 20
-99.21602787456446
 10
39.43324250681199
 20
-99.21602787456446
 10
39.13896457765667
 20
-98.9198606271777
  0
TEXT
  5
58
100
AcDbEntity
  8
TEXT
  6
ByLayer
 62
  256
370
   -1
100
AcDbText
 10
37.37329700272479
 20
-111.6550522648084
 30
0
 40
5
  1
Contour 4
 50
0
 41
1
 51
0
  7
STANDARD
 71
    0
210
0
220
0
230
1
100
AcDbText
  0
LWPOLYLINE
  5
59
100
AcDbEntity
  8
CONTOURS
  6
ByLayer
 62
  256
370
   -1
100
AcDbPolyline
 90
  656
 70
    1
 43
0
 10
174.8010899182561
 20
-48.86759581881533
 10
174.5068119891008
 20
-49.16376306620209
 10
172.1525885558583
 20
-49.16376306620209
 10
171.858310626703
 20
-49.45993031358885
 10
169.5040871934605
 20
-49.45993031358885
 10
169.2098092643052
 20
-49.75609756097561
 10
167.149863760218
 20
-49.75609756097561
 10
166.8555858310627
 20
-50.05226480836237
 10
164.7956403269755
 20
-50.05226480836237
 10
164.5013623978201
 20
-50.34843205574913
 10
162.1471389645776
 20
-50.34843205574913
 10
161.8528610354223
 20
-50.64459930313589
 10
160.0871934604905
 20
-50.64459930313589
 10
159.7929155313351
 20
-50.94076655052265
 10
158.0272479564033
 20
-50.94076655052265
 10
157.7329700272479
 20
-51.23693379790941
 10
155.9673024523161
 20
-51.23693379790941
 10
155.6730245231608
 20
-51.53310104529617
 10
153.9073569482289
 20
-51.53310104529617
 10
153.6130790190736
 20
-51.82926829268293
 10
151.8474114441417
 20
-51.82926829268293
 10
151.5531335149864
 20
-52.12543554006969
 10
150.0817438692098
 20
-52.12543554006969
 10
149.7874659400545
 20
-52.42160278745644
 10
149.1989100817439
 20
-52.42160278745644
 10
148.9046321525885
 20
-52.71777003484321
 10
148.9046321525885
 20
-54.79094076655052
 10
149.4931880108992
 20
-55.38327526132404
 10
150.6702997275204
 20
-55.38327526132404
 10
150.9645776566757
 20
-55.6794425087108
 10
153.3188010899183
 20
-55.6794425087108
 10
153.6130790190736
 20
-55.97560975609756
 10
156.5558583106267
 20
-55.97560975609756
 10
156.850136239782
 20
-56.27177700348432
 10
159.4986376021798
 20
-56.27177700348432
 10
159.7929155313351
 20
-56.56794425087108
 10
162.7356948228883
 20
-56.56794425087108
 10
163.0299727520436
 20
-56.86411149825784
 10
165.6784741144414
 20
-56.86411149825784
 10
165.9727520435967
 20
-57.1602787456446
 10
165.9727520435967
 20
-59.52961672473867
 10
165.6784741144414
 20
-59.82578397212544
 10
162.441416893733
 20
-59.82578397212544
 10
162.1471389645776
 20
-60.1219512195122
 10
157.1444141689373
 20
-60.1219512195122
 10
156.850136239782
 20
-60.41811846689895
 10
152.7302452316076
 20
-60.41811846689895
 10
152.4359673024523
 20
-60.71428571428572
 10
150.0817438692098
 20
-60.71428571428572
 10
149.7874659400545
 20
-61.01045296167247
 10
149.4931880108992
 20
-61.01045296167247
 10
149.1989100817439
 20
-61.30662020905923
 10
149.1989100817439
 20
-62.49128919860627
 10
149.7874659400545
 20
-63.08362369337979
 10
150.3760217983651
 20
-63.08362369337979
 10
150.6702997275204
 20
-63.37979094076655
 10
153.6130790190736
 20
-63.37979094076655
 10
153.9073569482289
 20
-63.67595818815331
 10
156.850136239782
 20
-63.67595818815331
 10
157.1444141689373
 20
-63.97212543554007
 10
160.6757493188011
 20
-63.97212543554007
 10
160.9700272479564
 20
-64.26829268292683
 10
164.5013623978201
 20
-64.26829268292683
 10
164.7956403269755
 20
-64.56445993031359
 10
164.7956403269755
 20
-66.93379790940766
 10
164.2070844686648
 20
-67.52613240418118
 10
159.7929155313351
 20
-67.52613240418118
 10
159.4986376021798
 20
-67.82229965156795
 10
154.7901907356948
 20
-67.82229965156795
 10
154.4959128065395
 20
-68.11846689895471
 10
151.258855585831
 20
-68.11846689895471
 10
150.9645776566757
 20
-68.41463414634147
 10
150.0817438692098
 20
-68.41463414634147
 10
149.7874659400545
 20
-68.71080139372822
 10
149.7874659400545
 20
-69.89547038327527
 10
150.0817438692098
 20
-70.19163763066202
 10
150.0817438692098
 20
-70.48780487804878
 10
150.6702997275204
 20
-70.48780487804878
 10
150.9645776566757
 20
-70.78397212543554
 10
153.0245231607629
 20
-70.78397212543554
 10
153.3188010899183
 20
-71.0801393728223
 10
156.2615803814714
 20
-71.0801393728223
 10
156.5558583106267
 20
-71.37630662020906
 10
160.6757493188011
 20
-71.37630662020906
 10
160.9700272479564
 20
-71.67247386759581
 10
164.5013623978201
 20
-71.67247386759581
 10
164.7956403269755
 20
-71.96864111498257
 10
166.267029972752
 20
-71.96864111498257
 10
166.5613079019074
 20
-72.26480836236934
 10
166.5613079019074
 20
-74.63414634146342
 10
166.267029972752
 20
-74.93031358885017
 10
161.2643051771117
 20
-74.93031358885017
 10
160.9700272479564
 20
-75.22648083623693
 10
157.1444141689373
 20
-75.22648083623693
 10
156.850136239782
 20
-75.52264808362369
 10
153.3188010899183
 20
-75.52264808362369
 10
153.0245231607629
 20
-75.81881533101046
 10
150.6702997275204
 20
-75.81881533101046
 10
150.3760217983651
 20
-76.11498257839722
 10
150.3760217983651
 20
-76.70731707317073
 10
150.0817438692098
 20
-77.00348432055749
 10
150.3760217983651
 20
-77.29965156794425
 10
150.3760217983651
 20
-77.59581881533101
 10
150.9645776566757
 20
-78.18815331010452
 10
152.4359673024523
 20
-78.18815331010452
 10
152.7302452316076
 20
-78.48432055749129
 10
156.2615803814714
 20
-78.48432055749129
 10
156.5558583106267
 20
-78.78048780487805
 10
160.6757493188011
 20
-78.78048780487805
 10
160.9700272479564
 20
-79.07665505226481
 10
165.3841961852861
 20
-79.07665505226481
 10
165.6784741144414
 20
-79.37282229965157
 10
167.4441416893733
 20
-79.37282229965157
 10
167.7384196185286
 20
-79.66898954703832
 10
167.7384196185286
 20
-82.03832752613241
 10
167.4441416893733
 20
-82.33449477351917
 10
163.0299727520436
 20
-82.33449477351917
 10
162.7356948228883
 20
-82.63066202090593
 10
158.6158038147139
 20
-82.63066202090593
 10
158.3215258855586
 20
-82.92682926829268
 10
154.2016348773842
 20
-82.92682926829268
 10
153.9073569482289
 20
-83.22299651567944
 10
151.5531335149864
 20
-83.22299651567944
 10
151.258855585831
 20
-83.5191637630662
 10
150.6702997275204
 20
-83.5191637630662
 10
150.6702997275204
 20
-85
 10
151.258855585831
 20
-85.59233449477352
 10
152.141689373297
 20
-85.59233449477352
 10
152.4359673024523
 20
-85.88850174216027
 10
156.5558583106267
 20
-85.88850174216027
 10
156.850136239782
 20
-86.18466898954703
 10
160.9700272479564
 20
-86.18466898954703
 10
161.2643051771117
 20
-86.4808362369338
 10
165.9727520435967
 20
-86.4808362369338
 10
166.267029972752
 20
-86.77700348432056
 10
168.3269754768392
 20
-86.77700348432056
 10
168.6212534059945
 20
-87.07317073170732
 10
168.6212534059945
 20
-89.44250871080139
 10
168.3269754768392
 20
-89.73867595818815
 10
163.6185286103542
 20
-89.73867595818815
 10
163.3242506811989
 20
-90.03484320557492
 10
158.9100817438692
 20
-90.03484320557492
 10
158.6158038147139
 20
-90.33101045296168
 10
155.0844686648501
 20
-90.33101045296168
 10
154.7901907356948
 20
-90.62717770034843
 10
151.8474114441417
 20
-90.62717770034843
 10
151.5531335149864
 20
-90.92334494773519
 10
150.9645776566757
 20
-90.92334494773519
 10
150.9645776566757
 20
-91.51567944250871
 10
150.6702997275204
 20
-91.81184668989548
 10
150.9645776566757
 20
-92.10801393728222
 10
150.9645776566757
 20
-92.70034843205575
 10
151.258855585831
 20
-92.99651567944251
 10
152.141689373297
 20
-92.99651567944251
 10
152.4359673024523
 20
-93.29268292682927
 10
156.850136239782
 20
-93.29268292682927
 10
157.1444141689373
 20
-93.58885017421603
 10
161.2643051771117
 20
-93.58885017421603
 10
161.558583106267
 20
-93.88501742160278
 10
166.267029972752
 20
-93.88501742160278
 10
166.5613079019074
 20
-94.18118466898954
 10
169.5040871934605
 20
-94.18118466898954
 10
169.7983651226158
 20
-94.47735191637631
 10
169.7983651226158
 20
-96.84668989547038
 10
169.5040871934605
 20
-97.14285714285714
 10
164.5013623978201
 20
-97.14285714285714
 10
164.2070844686648
 20
-97.4390243902439
 10
159.4986376021798
 20
-97.4390243902439
 10
159.2043596730245
 20
-97.73519163763066
 10
155.3787465940054
 20
-97.73519163763066
 10
155.0844686648501
 20
-98.03135888501743
 10
152.141689373297
 20
-98.03135888501743
 10
151.8474114441417
 20
-98.32752613240419
 10
151.258855585831
 20
-98.32752613240419
 10
150.9645776566757
 20
-98.62369337979094
 10
150.9645776566757
 20
-98.9198606271777
 10
150.6702997275204
 20
-99.21602787456446
 10
150.9645776566757
 20
-99.51219512195122
 10
150.9645776566757
 20
-99.80836236933798
 10
151.5531335149864
 20
-100.4006968641115
 10
152.4359673024523
 20
-100.4006968641115
 10
152.7302452316076
 20
-100.6968641114983
 10
156.850136239782
 20
-100.6968641114983
 10
157.1444141689373
 20
-100.993031358885
 10
162.1471389645776
 20
-100.993031358885
 10
162.441416893733
 20
-101.2891986062718
 10
166.8555858310627
 20
-101.2891986062718
 10
167.149863760218
 20
-101.5853658536585
 10
169.2098092643052
 20
-101.5853658536585
 10
169.5040871934605
 20
-101.8815331010453
 10
169.5040871934605
 20
-104.2508710801394
 10
169.2098092643052
 20
-104.5470383275261
 10
164.2070844686648
 20
-104.5470383275261
 10
163.9128065395095
 20
-104.8432055749129
 10
159.7929155313351
 20
-104.8432055749129
 10
159.4986376021798
 20
-105.1393728222996
 10
155.6730245231608
 20
-105.1393728222996
 10
155.3787465940054
 20
-105.4355400696864
 10
152.141689373297
 20
-105.4355400696864
 10
151.8474114441417
 20
-105.7317073170732
 10
151.258855585831
 20
-105.7317073170732
 10
150.9645776566757
 20
-106.0278745644599
 10
150.9645776566757
 20
-107.5087108013937
 10
151.258855585831
 20
-107.5087108013937
 10
151.5531335149864
 20
-107.8048780487805
 10
152.4359673024523
 20
-107.8048780487805
 10
152.7302452316076
 20
-108.1010452961672
 10
157.4386920980926
 20
-108.1010452961672
 10
157.7329700272479
 20
-108.397212543554
 10
162.441416893733
 20
-108.397212543554
 10
162.7356948228883
 20
-108.6933797909408
 10
168.0326975476839
 20
-108.6933797909408
 10
168.3269754768392
 20
-108.9895470383275
 10
168.9155313351499
 20
-108.9895470383275
 10
169.2098092643052
 20
-109.2857142857143
 10
169.2098092643052
 20
-111.6550522648084
 10
168.9155313351499
 20
-111.9512195121951
 10
163.9128065395095
 20
-111.9512195121951
 10
163.6185286103542
 20
-112.2473867595819
 10
159.7929155313351
 20
-112.2473867595819
 10
159.4986376021798
 20
-112.5435540069686
 10
155.6730245231608
 20
-112.5435540069686
 10
155.3787465940054
 20
-112.8397212543554
 10
152.141689373297
 20
-112.8397212543554
 10
151.8474114441417
 20
-113.1358885017422
 10
150.9645776566757
 20
-113.1358885017422
 10
150.6702997275204
 20
-113.4320557491289
 10
150.6702997275204
 20
-114.616724738676
 10
151.258855585831
 20
-115.2090592334495
 10
152.7302452316076
 20
-115.2090592334495
 10
153.0245231607629
 20
-115.5052264808362
 10
157.7329700272479
 20
-115.5052264808362
 10
158.0272479564033
 20
-115.801393728223
 10
162.7356948228883
 20
-115.801393728223
 10
163.0299727520436
 20
-116.0975609756098
 10
168.9155313351499
 20
-116.0975609756098
 10
169.2098092643052
 20
-116.3937282229965
 10
169.2098092643052
 20
-118.7630662020906
 10
168.9155313351499
 20
-119.0592334494773
 10
168.6212534059945
 20
-119.0592334494773
 10
168.3269754768392
 20
-119.3554006968641
 10
163.6185286103542
 20
-119.3554006968641
 10
163.3242506811989
 20
-119.6515679442509
 10
159.2043596730245
 20
-119.6515679442509
 10
158.9100817438692
 20
-119.9477351916376
 10
155.3787465940054
 20
-119.9477351916376
 10
155.0844686648501
 20
-120.2439024390244
 10
151.8474114441417
 20
-120.2439024390244
 10
151.5531335149864
 20
-120.5400696864111
 10
150.9645776566757
 20
-120.5400696864111
 10
150.6702997275204
 20
-120.8362369337979
 10
150.6702997275204
 20
-121.1324041811847
 10
150.3760217983651
 20
-121.4285714285714
 10
150.6702997275204
 20
-121.7247386759582
 10
150.6702997275204
 20
-122.3170731707317
 10
150.9645776566757
 20
-122.6132404181185
 10
152.4359673024523
 20
-122.6132404181185
 10
152.7302452316076
 20
-122.9094076655052
 10
158.0272479564033
 20
-122.9094076655052
 10
158.3215258855586
 20
-123.205574912892
 10
163.9128065395095
 20
-123.205574912892
 10
164.2070844686648
 20
-123.5017421602788
 10
169.5040871934605
 20
-123.5017421602788
 10
169.7983651226158
 20
-123.7979094076655
 10
169.7983651226158
 20
-126.1672473867596
 10
169.5040871934605
 20
-126.4634146341463
 10
167.4441416893733
 20
-126.4634146341463
 10
167.149863760218
 20
-126.7595818815331
 10
163.3242506811989
 20
-126.7595818815331
 10
163.0299727520436
 20
-127.0557491289199
 10
158.9100817438692
 20
-127.0557491289199
 10
158.6158038147139
 20
-127.3519163763066
 10
154.7901907356948
 20
-127.3519163763066
 10
154.4959128065395
 20
-127.6480836236934
 10
151.258855585831
 20
-127.6480836236934
 10
150.9645776566757
 20
-127.9442508710801
 10
150.3760217983651
 20
-127.9442508710801
 10
150.0817438692098
 20
-128.2404181184669
 10
150.0817438692098
 20
-129.4250871080139
 10
150.6702997275204
 20
-130.0174216027875
 10
153.0245231607629
 20
-130.0174216027875
 10
153.3188010899183
 20
-130.3135888501742
 10
158.6158038147139
 20
-130.3135888501742
 10
158.9100817438692
 20
-130.609756097561
 10
164.7956403269755
 20
-130.609756097561
 10
165.0899182561308
 20
-130.9059233449477
 10
170.6811989100817
 20
-130.9059233449477
 10
170.975476839237
 20
-131.2020905923345
 10
170.975476839237
 20
-133.5714285714286
 10
170.6811989100817
 20
-133.8675958188153
 10
166.5613079019074
 20
-133.8675958188153
 10
166.267029972752
 20
-134.1637630662021
 10
162.1471389645776
 20
-134.1637630662021
 10
161.8528610354223
 20
-134.4599303135888
 10
158.0272479564033
 20
-134.4599303135888
 10
157.7329700272479
 20
-134.7560975609756
 10
154.2016348773842
 20
-134.7560975609756
 10
153.9073569482289
 20
-135.0522648083624
 10
150.9645776566757
 20
-135.0522648083624
 10
150.6702997275204
 20
-135.3484320557491
 10
150.0817438692098
 20
-135.3484320557491
 10
149.7874659400545
 20
-135.6445993031359
 10
149.7874659400545
 20
-136.8292682926829
 10
150.3760217983651
 20
-137.4216027874564
 10
153.0245231607629
 20
-137.4216027874564
 10
153.3188010899183
 20
-137.7177700348432
 10
159.2043596730245
 20
-137.7177700348432
 10
159.4986376021798
 20
-138.01393728223
 10
165.3841961852861
 20
-138.01393728223
 10
165.6784741144414
 20
-138.3101045296167
 10
167.4441416893733
 20
-138.3101045296167
 10
167.7384196185286
 20
-138.6062717770035
 10
167.7384196185286
 20
-140.9756097560976
 10
167.4441416893733
 20
-141.2717770034843
 10
162.1471389645776
 20
-141.2717770034843
 10
161.8528610354223
 20
-141.5679442508711
 10
157.1444141689373
 20
-141.5679442508711
 10
156.850136239782
 20
-141.8641114982578
 10
151.8474114441417
 20
-141.8641114982578
 10
151.5531335149864
 20
-142.1602787456446
 10
150.0817438692098
 20
-142.1602787456446
 10
149.7874659400545
 20
-142.4564459930314
 10
149.4931880108992
 20
-142.4564459930314
 10
149.4931880108992
 20
-143.3449477351916
 10
149.1989100817439
 20
-143.6411149825784
 10
149.4931880108992
 20
-143.9372822299651
 10
149.4931880108992
 20
-144.5296167247387
 10
149.7874659400545
 20
-144.8257839721254
 10
150.0817438692098
 20
-144.8257839721254
 10
150.3760217983651
 20
-145.1219512195122
 10
151.258855585831
 20
-145.1219512195122
 10
151.5531335149864
 20
-145.418118466899
 10
152.7302452316076
 20
-145.418118466899
 10
153.0245231607629
 20
-145.7142857142857
 10
153.9073569482289
 20
-145.7142857142857
 10
154.2016348773842
 20
-146.0104529616725
 10
155.0844686648501
 20
-146.0104529616725
 10
155.3787465940054
 20
-146.3066202090592
 10
155.9673024523161
 20
-146.3066202090592
 10
156.2615803814714
 20
-146.602787456446
 10
156.850136239782
 20
-146.602787456446
 10
157.1444141689373
 20
-146.8989547038327
 10
157.4386920980926
 20
-146.8989547038327
 10
157.7329700272479
 20
-147.1951219512195
 10
158.0272479564033
 20
-147.1951219512195
 10
158.3215258855586
 20
-147.4912891986063
 10
158.9100817438692
 20
-147.4912891986063
 10
159.2043596730245
 20
-147.787456445993
 10
159.4986376021798
 20
-147.787456445993
 10
160.0871934604905
 20
-148.3797909407666
 10
160.3814713896458
 20
-148.3797909407666
 10
160.6757493188011
 20
-148.6759581881533
 10
160.9700272479564
 20
-148.6759581881533
 10
161.2643051771117
 20
-148.9721254355401
 10
161.558583106267
 20
-148.9721254355401
 10
162.1471389645776
 20
-149.5644599303136
 10
162.441416893733
 20
-149.5644599303136
 10
163.3242506811989
 20
-150.4529616724739
 10
163.6185286103542
 20
-150.4529616724739
 10
166.267029972752
 20
-153.1184668989547
 10
166.267029972752
 20
-153.4146341463415
 10
166.8555858310627
 20
-154.006968641115
 10
166.8555858310627
 20
-154.3031358885017
 10
167.4441416893733
 20
-154.8954703832753
 10
167.4441416893733
 20
-155.191637630662
 10
167.7384196185286
 20
-155.4878048780488
 10
167.7384196185286
 20
-155.7839721254356
 10
168.0326975476839
 20
-156.0801393728223
 10
168.0326975476839
 20
-156.376306620209
 10
168.3269754768392
 20
-156.6724738675958
 10
168.3269754768392
 20
-156.9686411149826
 10
168.6212534059945
 20
-157.2648083623693
 10
168.6212534059945
 20
-157.5609756097561
 10
168.9155313351499
 20
-157.8571428571429
 10
168.9155313351499
 20
-158.7456445993031
 10
169.2098092643052
 20
-159.0418118466899
 10
169.2098092643052
 20
-159.9303135888502
 10
169.5040871934605
 20
-160.2264808362369
 10
169.5040871934605
 20
-161.7073170731707
 10
169.7983651226158
 20
-162.0034843205575
 10
169.7983651226158
 20
-164.0766550522648
 10
170.0926430517711
 20
-164.3728222996516
 10
170.0926430517711
 20
-169.7038327526132
 10
169.7983651226158
 20
-170
 10
169.7983651226158
 20
-173.2578397212544
 10
169.5040871934605
 20
-173.5540069686411
 10
169.5040871934605
 20
-175.9233449477352
 10
169.2098092643052
 20
-176.219512195122
 10
169.2098092643052
 20
-177.9965156794425
 10
168.9155313351499
 20
-178.2926829268293
 10
168.9155313351499
 20
-180.3658536585366
 10
168.6212534059945
 20
-180.6620209059234
 10
168.6212534059945
 20
-182.4390243902439
 10
168.3269754768392
 20
-182.7351916376307
 10
168.3269754768392
 20
-183.9198606271777
 10
168.0326975476839
 20
-184.2160278745644
 10
168.0326975476839
 20
-185.6968641114983
 10
167.7384196185286
 20
-185.993031358885
 10
167.7384196185286
 20
-187.1777003484321
 10
167.4441416893733
 20
-187.4738675958188
 10
167.4441416893733
 20
-188.6585365853659
 10
167.149863760218
 20
-188.9547038327526
 10
167.149863760218
 20
-190.1393728222997
 10
166.8555858310627
 20
-190.4355400696864
 10
166.8555858310627
 20
-191.3240418118467
 10
166.5613079019074
 20
-191.6202090592334
 10
166.5613079019074
 20
-192.5087108013937
 10
166.267029972752
 20
-192.8048780487805
 10
166.267029972752
 20
-193.9895470383275
 10
165.9727520435967
 20
-194.2857142857143
 10
165.9727520435967
 20
-195.1742160278746
 10
165.6784741144414
 20
-195.4703832752613
 10
165.6784741144414
 20
-196.0627177700349
 10
165.3841961852861
 20
-196.3588850174216
 10
165.3841961852861
 20
-197.2473867595819
 10
165.0899182561308
 20
-197.5435540069686
 10
165.0899182561308
 20
-198.4320557491289
 10
164.7956403269755
 20
-198.7282229965157
 10
164.7956403269755
 20
-199.3205574912892
 10
164.5013623978201
 20
-199.616724738676
 10
164.5013623978201
 20
-200.5052264808362
 10
164.2070844686648
 20
-200.801393728223
 10
164.2070844686648
 20
-201.3937282229965
 10
163.9128065395095
 20
-201.6898954703833
 10
163.9128065395095
 20
-202.2822299651568
 10
163.6185286103542
 20
-202.5783972125436
 10
163.6185286103542
 20
-203.4668989547038
 10
163.3242506811989
 20
-203.7630662020906
 10
163.3242506811989
 20
-204.3554006968641
 10
163.0299727520436
 20
-204.6515679442509
 10
163.0299727520436
 20
-205.2439024390244
 10
162.7356948228883
 20
-205.5400696864112
 10
162.7356948228883
 20
-206.1324041811847
 10
162.441416893733
 20
-206.4285714285714
 10
162.441416893733
 20
-207.0209059233449
 10
162.1471389645776
 20
-207.3170731707317
 10
162.1471389645776
 20
-207.9094076655052
 10
161.8528610354223
 20
-208.205574912892
 10
161.8528610354223
 20
-208.7979094076655
 10
161.558583106267
 20
-209.0940766550523
 10
161.558583106267
 20
-209.390243902439
 10
161.2643051771117
 20
-209.6864111498258
 10
161.2643051771117
 20
-210.2787456445993
 10
160.9700272479564
 20
-210.5749128919861
 10
160.9700272479564
 20
-211.1672473867596
 10
160.6757493188011
 20
-211.4634146341463
 10
160.6757493188011
 20
-211.7595818815331
 10
160.3814713896458
 20
-212.0557491289199
 10
160.3814713896458
 20
-212.6480836236934
 10
160.0871934604905
 20
-212.9442508710801
 10
160.0871934604905
 20
-213.5365853658537
 10
159.7929155313351
 20
-213.8327526132404
 10
159.7929155313351
 20
-214.1289198606272
 10
159.4986376021798
 20
-214.4250871080139
 10
159.4986376021798
 20
-214.7212543554007
 10
159.2043596730245
 20
-215.0174216027875
 10
159.2043596730245
 20
-215.609756097561
 10
158.9100817438692
 20
-215.9059233449477
 10
158.9100817438692
 20
-216.2020905923345
 10
158.6158038147139
 20
-216.4982578397212
 10
158.6158038147139
 20
-216.794425087108
 10
158.3215258855586
 20
-217.0905923344948
 10
158.3215258855586
 20
-217.3867595818815
 10
158.0272479564033
 20
-217.6829268292683
 10
158.0272479564033
 20
-218.2752613240418
 10
157.7329700272479
 20
-218.5714285714286
 10
157.7329700272479
 20
-218.8675958188153
 10
157.4386920980926
 20
-219.1637630662021
 10
157.4386920980926
 20
-219.4599303135888
 10
157.1444141689373
 20
-219.7560975609756
 10
157.1444141689373
 20
-220.0522648083624
 10
156.850136239782
 20
-220.3484320557491
 10
156.850136239782
 20
-220.6445993031359
 10
156.5558583106267
 20
-220.9407665505227
 10
156.5558583106267
 20
-221.5331010452962
 10
156.2615803814714
 20
-221.8292682926829
 10
156.2615803814714
 20
-222.4216027874564
 10
156.5558583106267
 20
-222.7177700348432
 10
156.5558583106267
 20
-223.01393728223
 10
156.850136239782
 20
-223.3101045296167
 10
156.850136239782
 20
-223.6062717770035
 10
157.4386920980926
 20
-224.198606271777
 10
157.7329700272479
 20
-224.198606271777
 10
159.2043596730245
 20
-225.6794425087108
 10
159.4986376021798
 20
-225.6794425087108
 10
160.3814713896458
 20
-226.5679442508711
 10
160.6757493188011
 20
-226.5679442508711
 10
161.2643051771117
 20
-227.1602787456446
 10
161.558583106267
 20
-227.1602787456446
 10
162.1471389645776
 20
-227.7526132404181
 10
162.441416893733
 20
-227.7526132404181
 10
162.7356948228883
 20
-228.0487804878049
 10
163.0299727520436
 20
-228.0487804878049
 10
163.3242506811989
 20
-228.3449477351916
 10
163.6185286103542
 20
-228.3449477351916
 10
163.9128065395095
 20
-228.6411149825784
 10
164.2070844686648
 20
-228.6411149825784
 10
164.5013623978201
 20
-228.9372822299651
 10
165.0899182561308
 20
-228.9372822299651
 10
165.3841961852861
 20
-229.2334494773519
 10
165.6784741144414
 20
-229.2334494773519
 10
165.9727520435967
 20
-229.5296167247387
 10
166.267029972752
 20
-229.5296167247387
 10
166.5613079019074
 20
-229.8257839721254
 10
167.149863760218
 20
-229.8257839721254
 10
167.4441416893733
 20
-230.1219512195122
 10
168.3269754768392
 20
-230.1219512195122
 10
168.6212534059945
 20
-230.418118466899
 10
170.3869209809264
 20
-230.418118466899
 10
170.6811989100817
 20
-230.7142857142857
 10
172.4468664850136
 20
-230.7142857142857
 10
172.7411444141689
 20
-230.418118466899
 10
174.2125340599455
 20
-230.418118466899
 10
174.5068119891008
 20
-230.1219512195122
 10
175.3896457765667
 20
-230.1219512195122
 10
175.6839237057221
 20
-229.8257839721254
 10
176.2724795640327
 20
-229.8257839721254
 10
176.566757493188
 20
-229.5296167247387
 10
177.1553133514986
 20
-229.5296167247387
 10
177.4495912806539
 20
-229.2334494773519
 10
177.7438692098092
 20
-229.2334494773519
 10
178.0381471389646
 20
-228.9372822299651
 10
178.3324250681199
 20
-228.9372822299651
 10
178.6267029972752
 20
-228.6411149825784
 10
178.9209809264305
 20
-228.6411149825784
 10
179.5095367847411
 20
-228.0487804878049
 10
179.8038147138965
 20
-228.0487804878049
 10
180.6866485013624
 20
-227.1602787456446
 10
180.9809264305177
 20
-227.1602787456446
 10
183.3351498637602
 20
-224.7909407665505
 10
183.3351498637602
 20
-224.4947735191638
 10
184.2179836512261
 20
-223.6062717770035
 10
184.2179836512261
 20
-223.3101045296167
 10
184.5122615803814
 20
-223.01393728223
 10
184.5122615803814
 20
-222.7177700348432
 10
184.8065395095368
 20
-222.4216027874564
 10
184.8065395095368
 20
-222.1254355400697
 10
185.3950953678474
 20
-221.5331010452962
 10
185.3950953678474
 20
-220.9407665505227
 10
185.6893732970027
 20
-220.6445993031359
 10
185.6893732970027
 20
-220.0522648083624
 10
185.983651226158
 20
-219.7560975609756
 10
185.983651226158
 20
-219.4599303135888
 10
186.2779291553133
 20
-219.1637630662021
 10
186.2779291553133
 20
-218.5714285714286
 10
186.5722070844687
 20
-218.2752613240418
 10
186.5722070844687
 20
-217.3867595818815
 10
186.866485013624
 20
-217.0905923344948
 10
186.866485013624
 20
-216.2020905923345
 10
187.1607629427793
 20
-215.9059233449477
 10
187.1607629427793
 20
-214.4250871080139
 10
187.4550408719346
 20
-214.1289198606272
 10
187.4550408719346
 20
-212.3519163763066
 10
187.7493188010899
 20
-212.0557491289199
 10
187.7493188010899
 20
-209.0940766550523
 10
188.0435967302452
 20
-208.7979094076655
 10
188.0435967302452
 20
-200.2090592334495
 10
187.7493188010899
 20
-199.9128919860627
 10
187.7493188010899
 20
-192.5087108013937
 10
187.4550408719346
 20
-192.212543554007
 10
187.4550408719346
 20
-161.7073170731707
 10
187.7493188010899
 20
-161.411149825784
 10
187.7493188010899
 20
-156.0801393728223
 10
188.0435967302452
 20
-155.7839721254356
 10
188.0435967302452
 20
-152.8222996515679
 10
188.3378746594005
 20
-152.5261324041812
 10
188.3378746594005
 20
-149.5644599303136
 10
188.6321525885558
 20
-149.2682926829268
 10
188.6321525885558
 20
-146.8989547038327
 10
188.9264305177112
 20
-146.602787456446
 10
188.9264305177112
 20
-144.5296167247387
 10
189.2207084468665
 20
-144.2334494773519
 10
189.2207084468665
 20
-142.4564459930314
 10
189.5149863760218
 20
-142.1602787456446
 10
189.5149863760218
 20
-139.7909407665505
 10
189.8092643051771
 20
-139.4947735191638
 10
189.8092643051771
 20
-137.4216027874564
 10
190.1035422343324
 20
-137.1254355400697
 10
190.1035422343324
 20
-135.3484320557491
 10
190.3978201634877
 20
-135.0522648083624
 10
190.3978201634877
 20
-132.9790940766551
 10
190.6920980926431
 20
-132.6829268292683
 10
190.6920980926431
 20
-130.9059233449477
 10
190.9863760217983
 20
-130.609756097561
 10
190.9863760217983
 20
-128.5365853658537
 10
191.2806539509537
 20
-128.2404181184669
 10
191.2806539509537
 20
-125.8710801393728
 10
191.574931880109
 20
-125.5749128919861
 10
191.574931880109
 20
-123.205574912892
 10
191.8692098092643
 20
-122.9094076655052
 10
191.8692098092643
 20
-120.2439024390244
 10
192.1634877384196
 20
-119.9477351916376
 10
192.1634877384196
 20
-117.2822299651568
 10
192.4577656675749
 20
-116.98606271777
 10
192.4577656675749
 20
-113.4320557491289
 10
192.7520435967302
 20
-113.1358885017422
 10
192.7520435967302
 20
-108.1010452961672
 10
193.0463215258856
 20
-107.8048780487805
 10
193.0463215258856
 20
-102.4738675958188
 10
193.3405994550409
 20
-102.1777003484321
 10
193.3405994550409
 20
-82.33449477351917
 10
193.0463215258856
 20
-82.03832752613241
 10
193.0463215258856
 20
-78.18815331010452
 10
192.7520435967302
 20
-77.89198606271778
 10
192.7520435967302
 20
-75.52264808362369
 10
192.4577656675749
 20
-75.22648083623693
 10
192.4577656675749
 20
-73.15331010452962
 10
192.1634877384196
 20
-72.85714285714286
 10
192.1634877384196
 20
-71.0801393728223
 10
191.8692098092643
 20
-70.78397212543554
 10
191.8692098092643
 20
-69.30313588850174
 10
191.574931880109
 20
-69.00696864111498
 10
191.574931880109
 20
-67.82229965156795
 10
191.2806539509537
 20
-67.52613240418118
 10
191.2806539509537
 20
-66.34146341463415
 10
190.9863760217983
 20
-66.04529616724739
 10
190.9863760217983
 20
-65.15679442508711
 10
190.6920980926431
 20
-64.86062717770035
 10
190.6920980926431
 20
-63.97212543554007
 10
190.3978201634877
 20
-63.67595818815331
 10
190.3978201634877
 20
-62.78745644599303
 10
190.1035422343324
 20
-62.49128919860627
 10
190.1035422343324
 20
-61.60278745644599
 10
189.8092643051771
 20
-61.30662020905923
 10
189.8092643051771
 20
-60.71428571428572
 10
189.5149863760218
 20
-60.41811846689895
 10
189.5149863760218
 20
-59.52961672473867
 10
189.2207084468665
 20
-59.23344947735192
 10
189.2207084468665
 20
-58.6411149825784
 10
188.9264305177112
 20
-58.34494773519164
 10
188.9264305177112
 20
-57.75261324041812
 10
188.6321525885558
 20
-57.45644599303136
 10
188.6321525885558
 20
-56.86411149825784
 10
188.3378746594005
 20
-56.56794425087108
 10
188.3378746594005
 20
-55.97560975609756
 10
188.0435967302452
 20
-55.6794425087108
 10
188.0435967302452
 20
-55.38327526132404
 10
187.7493188010899
 20
-55.08710801393728
 10
187.7493188010899
 20
-54.79094076655052
 10
187.4550408719346
 20
-54.49477351916376
 10
187.4550408719346
 20
-54.198606271777
 10
186.866485013624
 20
-53.60627177700349
 10
186.866485013624
 20
-53.31010452961672
 10
184.2179836512261
 20
-50.64459930313589
 10
183.9237057220708
 20
-50.64459930313589
 10
183.6294277929155
 20
-50.34843205574913
 10
183.3351498637602
 20
-50.34843205574913
 10
183.0408719346049
 20
-50.05226480836237
 10
182.7465940054496
 20
-50.05226480836237
 10
182.4523160762943
 20
-49.75609756097561
 10
182.158038147139
 20
-49.75609756097561
 10
181.8637602179836
 20
-49.45993031358885
 10
181.275204359673
 20
-49.45993031358885
 10
180.9809264305177
 20
-49.16376306620209
 10
180.0980926430518
 20
-49.16376306620209
 10
179.8038147138965
 20
-48.86759581881533
  0
TEXT
  5
5A
100
AcDbEntity
  8
TEXT
  6
ByLayer
 62
  256
370
   -1
100
AcDbText
 10
174.8010899182561
 20
-131.794425087108
 30
0
 40
5
  1
Contour 5
 50
0
 41
1
 51
0
  7
STANDARD
 71
    0
210
0
220
0
230
1
100
AcDbText
  0
LWPOLYLINE
  5
5B
100
AcDbEntity
  8
CONTOURS
  6
ByLayer
 62
  256
370
   -1
100
AcDbPolyline
 90
  120
 70
    1
 43
0
 10
65.62397820163487
 20
-47.09059233449477
 10
65.32970027247956
 20
-47.38675958188153
 10
64.44686648501362
 20
-47.38675958188153
 10
64.1525885558583
 20
-47.68292682926829
 10
63.56403269754768
 20
-47.68292682926829
 10
63.26975476839237
 20
-47.97909407665505
 10
62.68119891008174
 20
-47.97909407665505
 10
62.38692098092643
 20
-48.27526132404181
 10
62.09264305177111
 20
-48.27526132404181
 10
61.7983651226158
 20
-48.57142857142857
 10
61.50408719346049
 20
-48.57142857142857
 10
60.62125340599454
 20
-49.45993031358885
 10
60.32697547683923
 20
-49.45993031358885
 10
58.26702997275204
 20
-51.53310104529617
 10
58.26702997275204
 20
-51.82926829268293
 10
57.97275204359673
 20
-52.12543554006969
 10
57.97275204359673
 20
-52.42160278745644
 10
57.67847411444141
 20
-52.71777003484321
 10
57.67847411444141
 20
-53.01393728222997
 10
57.3841961852861
 20
-53.31010452961672
 10
57.3841961852861
 20
-53.60627177700349
 10
57.08991825613079
 20
-53.90243902439025
 10
57.08991825613079
 20
-54.49477351916376
 10
56.79564032697547
 20
-54.79094076655052
 10
56.79564032697547
 20
-55.6794425087108
 10
56.50136239782016
 20
-55.97560975609756
 10
56.50136239782016
 20
-56.86411149825784
 10
56.20708446866485
 20
-57.1602787456446
 10
56.20708446866485
 20
-60.1219512195122
 10
56.50136239782016
 20
-60.41811846689895
 10
56.50136239782016
 20
-61.60278745644599
 10
56.79564032697547
 20
-61.89895470383275
 10
56.79564032697547
 20
-62.49128919860627
 10
57.08991825613079
 20
-62.78745644599303
 10
57.08991825613079
 20
-63.37979094076655
 10
57.3841961852861
 20
-63.67595818815331
 10
57.3841961852861
 20
-64.26829268292683
 10
57.97275204359673
 20
-64.86062717770035
 10
57.97275204359673
 20
-65.15679442508711
 10
58.26702997275204
 20
-65.45296167247386
 10
58.26702997275204
 20
-65.74912891986062
 10
61.50408719346049
 20
-69.00696864111498
 10
61.7983651226158
 20
-69.00696864111498
 10
62.38692098092643
 20
-69.5993031358885
 10
62.68119891008174
 20
-69.5993031358885
 10
62.97547683923705
 20
-69.89547038327527
 10
63.26975476839237
 20
-69.89547038327527
 10
63.56403269754768
 20
-70.19163763066202
 10
63.85831062670299
 20
-70.19163763066202
 10
64.1525885558583
 20
-70.48780487804878
 10
64.44686648501362
 20
-70.48780487804878
 10
64.74114441416893
 20
-70.78397212543554
 10
65.32970027247956
 20
-70.78397212543554
 10
65.62397820163487
 20
-71.0801393728223
 10
66.2125340599455
 20
-71.0801393728223
 10
66.50681198910081
 20
-71.37630662020906
 10
67.68392370572207
 20
-71.37630662020906
 10
67.97820163487738
 20
-71.67247386759581
 10
70.92098092643052
 20
-71.67247386759581
 10
71.21525885558583
 20
-71.37630662020906
 10
72.39237057220708
 20
-71.37630662020906
 10
72.6866485013624
 20
-71.0801393728223
 10
73.27520435967303
 20
-71.0801393728223
 10
73.56948228882834
 20
-70.78397212543554
 10
74.15803814713895
 20
-70.78397212543554
 10
74.45231607629427
 20
-70.48780487804878
 10
74.74659400544958
 20
-70.48780487804878
 10
75.04087193460489
 20
-70.19163763066202
 10
75.33514986376021
 20
-70.19163763066202
 10
75.62942779291552
 20
-69.89547038327527
 10
75.92370572207084
 20
-69.89547038327527
 10
76.21798365122615
 20
-69.5993031358885
 10
76.51226158038146
 20
-69.5993031358885
 10
77.10081743869209
 20
-69.00696864111498
 10
77.3950953678474
 20
-69.00696864111498
 10
78.57220708446866
 20
-67.82229965156795
 10
78.57220708446866
 20
-67.52613240418118
 10
78.86648501362397
 20
-67.22996515679442
 10
78.86648501362397
 20
-66.93379790940766
 10
79.16076294277929
 20
-66.63763066202091
 10
79.16076294277929
 20
-66.34146341463415
 10
79.74931880108991
 20
-65.74912891986062
 10
79.74931880108991
 20
-65.15679442508711
 10
80.04359673024523
 20
-64.86062717770035
 10
80.04359673024523
 20
-64.56445993031359
 10
80.33787465940054
 20
-64.26829268292683
 10
80.33787465940054
 20
-63.67595818815331
 10
80.63215258855585
 20
-63.37979094076655
 10
80.63215258855585
 20
-62.49128919860627
 10
80.92643051771117
 20
-62.19512195121951
 10
80.92643051771117
 20
-58.04878048780488
 10
80.63215258855585
 20
-57.75261324041812
 10
80.63215258855585
 20
-56.86411149825784
 10
80.33787465940054
 20
-56.56794425087108
 10
80.33787465940054
 20
-55.6794425087108
 10
80.04359673024523
 20
-55.38327526132404
 10
80.04359673024523
 20
-55.08710801393728
 10
79.74931880108991
 20
-54.79094076655052
 10
79.74931880108991
 20
-54.49477351916376
 10
79.4550408719346
 20
-54.198606271777
 10
79.4550408719346
 20
-53.90243902439025
 10
78.86648501362397
 20
-53.31010452961672
 10
78.86648501362397
 20
-53.01393728222997
 10
78.27792915531334
 20
-52.42160278745644
 10
78.27792915531334
 20
-52.12543554006969
 10
75.33514986376021
 20
-49.16376306620209
 10
75.04087193460489
 20
-49.16376306620209
 10
74.74659400544958
 20
-48.86759581881533
 10
74.45231607629427
 20
-48.86759581881533
 10
74.15803814713895
 20
-48.57142857142857
 10
73.86376021798365
 20
-48.57142857142857
 10
73.56948228882834
 20
-48.27526132404181
 10
73.27520435967303
 20
-48.27526132404181
 10
72.98092643051771
 20
-47.97909407665505
 10
72.39237057220708
 20
-47.97909407665505
 10
72.09809264305177
 20
-47.68292682926829
 10
71.50953678474114
 20
-47.68292682926829
 10
71.21525885558583
 20
-47.38675958188153
 10
70.33242506811989
 20
-47.38675958188153
 10
70.03814713896458
 20
-47.09059233449477
  0
TEXT
  5
5C
100
AcDbEntity
  8
TEXT
  6
ByLayer
 62
  256
370
   -1
100
AcDbText
 10
68.56675749318801
 20
-59.23344947735192
 30
0
 40
5
  1
Contour 6
 50
0
 41
1
 51
0
  7
STANDARD
 71
    0
210
0
220
0
230
1
100
AcDbText
  0
LWPOLYLINE
  5
5D
100
AcDbEntity
  8
CONTOURS
  6
ByLayer
 62
  256
370
   -1
100
AcDbPolyline
 90
  130
 70
    1
 43
0
 10
25.60217983651226
 20
-45.90592334494774
 10
25.30790190735695
 20
-46.20209059233449
 10
24.13079019073569
 20
-46.20209059233449
 10
23.83651226158038
 20
-46.49825783972125
 10
23.24795640326975
 20
-46.49825783972125
 10
22.95367847411444
 20
-46.79442508710802
 10
22.36512261580381
 20
-46.79442508710802
 10
22.0708446866485
 20
-47.09059233449477
 10
21.48228882833787
 20
-47.09059233449477
 10
21.18801089918256
 20
-47.38675958188153
 10
20.89373297002725
 20
-47.38675958188153
 10
20.30517711171662
 20
-47.97909407665505
 10
20.01089918256131
 20
-47.97909407665505
 10
19.42234332425068
 20
-48.57142857142857
 10
19.12806539509537
 20
-48.57142857142857
 10
18.53950953678474
 20
-49.16376306620209
 10
18.24523160762943
 20
-49.16376306620209
 10
17.95095367847411
 20
-49.45993031358885
 10
17.6566757493188
 20
-49.45993031358885
 10
17.36239782016349
 20
-49.75609756097561
 10
17.36239782016349
 20
-50.05226480836237
 10
17.06811989100817
 20
-50.34843205574913
 10
17.06811989100817
 20
-50.64459930313589
 10
16.77384196185286
 20
-50.94076655052265
 10
16.77384196185286
 20
-51.23693379790941
 10
16.47956403269755
 20
-51.53310104529617
 10
16.47956403269755
 20
-51.82926829268293
 10
16.18528610354223
 20
-52.12543554006969
 10
16.18528610354223
 20
-52.42160278745644
 10
15.89100817438692
 20
-52.71777003484321
 10
15.89100817438692
 20
-53.31010452961672
 10
15.59673024523161
 20
-53.60627177700349
 10
15.59673024523161
 20
-54.198606271777
 10
15.30245231607629
 20
-54.49477351916376
 10
15.30245231607629
 20
-55.6794425087108
 10
15.00817438692098
 20
-55.97560975609756
 10
15.00817438692098
 20
-59.23344947735192
 10
15.30245231607629
 20
-59.52961672473867
 10
15.30245231607629
 20
-60.71428571428572
 10
15.59673024523161
 20
-61.01045296167247
 10
15.59673024523161
 20
-61.60278745644599
 10
15.89100817438692
 20
-61.89895470383275
 10
15.89100817438692
 20
-62.19512195121951
 10
16.18528610354223
 20
-62.49128919860627
 10
16.18528610354223
 20
-63.08362369337979
 10
16.47956403269755
 20
-63.37979094076655
 10
16.47956403269755
 20
-63.67595818815331
 10
17.06811989100817
 20
-64.26829268292683
 10
17.06811989100817
 20
-64.56445993031359
 10
17.6566757493188
 20
-65.15679442508711
 10
17.6566757493188
 20
-65.45296167247386
 10
19.42234332425068
 20
-67.22996515679442
 10
19.71662125340599
 20
-67.22996515679442
 10
20.59945504087193
 20
-68.11846689895471
 10
20.89373297002725
 20
-68.11846689895471
 10
21.48228882833787
 20
-68.71080139372822
 10
21.77656675749319
 20
-68.71080139372822
 10
22.0708446866485
 20
-69.00696864111498
 10
22.36512261580381
 20
-69.00696864111498
 10
22.65940054495913
 20
-69.30313588850174
 10
22.95367847411444
 20
-69.30313588850174
 10
23.24795640326975
 20
-69.5993031358885
 10
23.54223433242507
 20
-69.5993031358885
 10
23.83651226158038
 20
-69.89547038327527
 10
24.42506811989101
 20
-69.89547038327527
 10
24.71934604904632
 20
-70.19163763066202
 10
25.30790190735695
 20
-70.19163763066202
 10
25.60217983651226
 20
-70.48780487804878
 10
26.4850136239782
 20
-70.48780487804878
 10
26.77929155313351
 20
-70.78397212543554
 10
30.01634877384196
 20
-70.78397212543554
 10
30.31062670299727
 20
-70.48780487804878
 10
31.78201634877384
 20
-70.48780487804878
 10
32.07629427792915
 20
-70.19163763066202
 10
32.66485013623978
 20
-70.19163763066202
 10
32.95912806539509
 20
-69.89547038327527
 10
33.25340599455041
 20
-69.89547038327527
 10
33.54768392370572
 20
-69.5993031358885
 10
34.13623978201635
 20
-69.5993031358885
 10
34.43051771117166
 20
-69.30313588850174
 10
34.72479564032697
 20
-69.30313588850174
 10
35.3133514986376
 20
-68.71080139372822
 10
35.60762942779292
 20
-68.71080139372822
 10
36.19618528610354
 20
-68.11846689895471
 10
36.49046321525886
 20
-68.11846689895471
 10
38.25613079019073
 20
-66.34146341463415
 10
38.25613079019073
 20
-66.04529616724739
 10
38.84468664850136
 20
-65.45296167247386
 10
38.84468664850136
 20
-65.15679442508711
 10
39.13896457765667
 20
-64.86062717770035
 10
39.13896457765667
 20
-64.26829268292683
 10
39.43324250681199
 20
-63.97212543554007
 10
39.43324250681199
 20
-63.67595818815331
 10
39.7275204359673
 20
-63.37979094076655
 10
39.7275204359673
 20
-62.78745644599303
 10
40.02179836512261
 20
-62.49128919860627
 10
40.02179836512261
 20
-61.60278745644599
 10
40.31607629427793
 20
-61.30662020905923
 10
40.31607629427793
 20
-56.56794425087108
 10
40.02179836512261
 20
-56.27177700348432
 10
40.02179836512261
 20
-55.6794425087108
 10
39.7275204359673
 20
-55.38327526132404
 10
39.7275204359673
 20
-54.79094076655052
 10
39.43324250681199
 20
-54.49477351916376
 10
39.43324250681199
 20
-53.90243902439025
 10
39.13896457765667
 20
-53.60627177700349
 10
39.13896457765667
 20
-53.01393728222997
 10
38.25613079019073
 20
-52.12543554006969
 10
38.25613079019073
 20
-51.82926829268293
 10
37.6675749318801
 20
-51.23693379790941
 10
37.6675749318801
 20
-50.94076655052265
 10
36.49046321525886
 20
-49.75609756097561
 10
36.19618528610354
 20
-49.75609756097561
 10
34.72479564032697
 20
-48.27526132404181
 10
34.43051771117166
 20
-48.27526132404181
 10
34.13623978201635
 20
-47.97909407665505
 10
33.84196185286103
 20
-47.97909407665505
 10
33.54768392370572
 20
-47.68292682926829
 10
33.25340599455041
 20
-47.68292682926829
 10
32.95912806539509
 20
-47.38675958188153
 10
32.66485013623978
 20
-47.38675958188153
 10
32.37057220708446
 20
-47.09059233449477
 10
31.78201634877384
 20
-47.09059233449477
 10
31.48773841961853
 20
-46.79442508710802
 10
31.19346049046321
 20
-46.79442508710802
 10
30.8991825613079
 20
-46.49825783972125
 10
30.31062670299727
 20
-46.49825783972125
 10
30.01634877384196
 20
-46.20209059233449
 10
28.54495912806539
 20
-46.20209059233449
 10
28.25068119891008
 20
-45.90592334494774
  0
TEXT
  5
5E
100
AcDbEntity
  8
TEXT
  6
ByLayer
 62
  256
370
   -1
100
AcDbText
 10
27.66212534059945
 20
-58.04878048780488
 30
0
 40
5
  1
Contour 7
 50
0
 41
1
 51
0
  7
STANDARD
 71
    0
210
0
220
0
230
1
100
AcDbText
  0
LWPOLYLINE
  5
5F
100
AcDbEntity
  8
CONTOURS
  6
ByLayer
 62
  256
370
   -1
100
AcDbPolyline
 90
  874
 70
    1
 43
0
 10
248.9591280653951
 20
-40.57491289198606
 10
248.6648501362398
 20
-40.87108013937282
 10
247.1934604904632
 20
-40.87108013937282
 10
246.8991825613079
 20
-41.16724738675958
 10
246.3106267029973
 20
-41.16724738675958
 10
246.0163487738419
 20
-41.46341463414634
 10
245.4277929155313
 20
-41.46341463414634
 10
245.133514986376
 20
-41.7595818815331
 10
244.8392370572207
 20
-41.7595818815331
 10
243.3678474114441
 20
-43.2404181184669
 10
243.0735694822888
 20
-43.2404181184669
 10
243.0735694822888
 20
-43.53658536585366
 10
242.4850136239782
 20
-44.12891986062718
 10
241.8964577656675
 20
-44.12891986062718
 10
241.0136239782016
 20
-45.01742160278746
 10
240.7193460490463
 20
-45.01742160278746
 10
240.425068119891
 20
-45.31358885017421
 10
240.425068119891
 20
-45.60975609756098
 10
239.8365122615804
 20
-46.20209059233449
 10
239.8365122615804
 20
-46.49825783972125
 10
239.2479564032697
 20
-47.09059233449477
 10
239.2479564032697
 20
-47.68292682926829
 10
238.9536784741144
 20
-47.97909407665505
 10
238.9536784741144
 20
-48.27526132404181
 10
238.3651226158038
 20
-48.86759581881533
 10
238.3651226158038
 20
-49.16376306620209
 10
237.4822888283379
 20
-50.05226480836237
 10
237.1880108991826
 20
-50.05226480836237
 10
236.8937329700272
 20
-50.34843205574913
 10
236.8937329700272
 20
-51.53310104529617
 10
237.1880108991826
 20
-51.82926829268293
 10
237.1880108991826
 20
-52.12543554006969
 10
237.4822888283379
 20
-52.42160278745644
 10
237.4822888283379
 20
-52.71777003484321
 10
237.7765667574932
 20
-53.01393728222997
 10
237.7765667574932
 20
-53.31010452961672
 10
238.0708446866485
 20
-53.60627177700349
 10
238.0708446866485
 20
-53.90243902439025
 10
238.3651226158038
 20
-54.198606271777
 10
238.3651226158038
 20
-54.49477351916376
 10
238.6594005449591
 20
-54.79094076655052
 10
238.6594005449591
 20
-55.08710801393728
 10
239.2479564032697
 20
-55.6794425087108
 10
239.2479564032697
 20
-55.97560975609756
 10
240.1307901907357
 20
-56.86411149825784
 10
240.1307901907357
 20
-57.1602787456446
 10
240.7193460490463
 20
-57.75261324041812
 10
240.7193460490463
 20
-58.04878048780488
 10
242.4850136239782
 20
-59.82578397212544
 10
242.4850136239782
 20
-60.1219512195122
 10
242.7792915531335
 20
-60.41811846689895
 10
243.0735694822888
 20
-60.41811846689895
 10
244.5449591280654
 20
-61.89895470383275
 10
244.5449591280654
 20
-62.19512195121951
 10
245.7220708446866
 20
-63.37979094076655
 10
245.7220708446866
 20
-63.67595818815331
 10
246.3106267029973
 20
-64.26829268292683
 10
246.3106267029973
 20
-64.56445993031359
 10
246.8991825613079
 20
-65.15679442508711
 10
246.8991825613079
 20
-65.45296167247386
 10
247.4877384196185
 20
-66.04529616724739
 10
247.4877384196185
 20
-66.34146341463415
 10
247.7820163487738
 20
-66.63763066202091
 10
247.7820163487738
 20
-66.93379790940766
 10
248.0762942779292
 20
-67.22996515679442
 10
248.0762942779292
 20
-67.52613240418118
 10
248.6648501362398
 20
-68.11846689895471
 10
248.6648501362398
 20
-68.41463414634147
 10
249.2534059945504
 20
-69.00696864111498
 10
249.2534059945504
 20
-69.30313588850174
 10
249.5476839237057
 20
-69.5993031358885
 10
249.5476839237057
 20
-69.89547038327527
 10
250.1362397820163
 20
-70.48780487804878
 10
250.1362397820163
 20
-70.78397212543554
 10
250.724795640327
 20
-71.37630662020906
 10
250.724795640327
 20
-71.67247386759581
 10
251.3133514986376
 20
-72.26480836236934
 10
251.3133514986376
 20
-72.5609756097561
 10
252.4904632152588
 20
-73.74564459930313
 10
252.4904632152588
 20
-74.0418118466899
 10
252.7847411444141
 20
-74.33797909407666
 10
252.7847411444141
 20
-74.63414634146342
 10
254.2561307901907
 20
-76.11498257839722
 10
254.2561307901907
 20
-76.41114982578397
 10
255.1389645776567
 20
-77.29965156794425
 10
255.1389645776567
 20
-77.59581881533101
 10
256.6103542234332
 20
-79.07665505226481
 10
256.6103542234332
 20
-79.37282229965157
 10
258.0817438692098
 20
-80.85365853658537
 10
258.0817438692098
 20
-81.14982578397212
 10
261.024523160763
 20
-84.11149825783973
 10
261.024523160763
 20
-84.40766550522648
 10
265.1444141689373
 20
-88.55400696864112
 10
265.1444141689373
 20
-88.85017421602788
 10
268.0871934604904
 20
-91.81184668989548
 10
268.0871934604904
 20
-92.10801393728222
 10
269.2643051771117
 20
-93.29268292682927
 10
269.2643051771117
 20
-93.58885017421603
 10
270.4414168937329
 20
-94.77351916376307
 10
270.4414168937329
 20
-95.06968641114983
 10
271.3242506811989
 20
-95.9581881533101
 10
271.3242506811989
 20
-96.25435540069687
 10
272.2070844686648
 20
-97.14285714285714
 10
272.2070844686648
 20
-97.4390243902439
 10
272.7956403269754
 20
-98.03135888501743
 10
272.7956403269754
 20
-98.32752613240419
 10
273.3841961852861
 20
-98.9198606271777
 10
273.3841961852861
 20
-99.21602787456446
 10
273.9727520435967
 20
-99.80836236933798
 10
273.9727520435967
 20
-100.1045296167247
 10
274.267029972752
 20
-100.4006968641115
 10
274.267029972752
 20
-100.6968641114983
 10
274.8555858310626
 20
-101.2891986062718
 10
274.8555858310626
 20
-101.5853658536585
 10
275.149863760218
 20
-101.8815331010453
 10
275.149863760218
 20
-102.1777003484321
 10
275.7384196185286
 20
-102.7700348432056
 10
275.7384196185286
 20
-103.0662020905923
 10
276.3269754768392
 20
-103.6585365853659
 10
276.3269754768392
 20
-103.9547038327526
 10
276.9155313351499
 20
-104.5470383275261
 10
276.9155313351499
 20
-104.8432055749129
 10
277.2098092643051
 20
-105.1393728222996
 10
277.2098092643051
 20
-105.4355400696864
 10
277.5040871934605
 20
-105.7317073170732
 10
277.5040871934605
 20
-106.0278745644599
 10
277.7983651226158
 20
-106.3240418118467
 10
277.7983651226158
 20
-106.9163763066202
 10
278.0926430517711
 20
-107.212543554007
 10
278.0926430517711
 20
-107.5087108013937
 10
278.3869209809264
 20
-107.8048780487805
 10
278.3869209809264
 20
-108.397212543554
 10
278.6811989100817
 20
-108.6933797909408
 10
278.6811989100817
 20
-108.9895470383275
 10
278.975476839237
 20
-109.2857142857143
 10
278.975476839237
 20
-109.581881533101
 10
279.2697547683924
 20
-109.8780487804878
 10
279.2697547683924
 20
-110.1742160278746
 10
279.5640326975476
 20
-110.4703832752613
 10
279.5640326975476
 20
-110.7665505226481
 10
279.858310626703
 20
-111.0627177700348
 10
279.858310626703
 20
-111.3588850174216
 10
280.1525885558583
 20
-111.6550522648084
 10
280.1525885558583
 20
-112.2473867595819
 10
280.4468664850136
 20
-112.5435540069686
 10
280.4468664850136
 20
-113.1358885017422
 10
280.7411444141689
 20
-113.4320557491289
 10
280.7411444141689
 20
-113.7282229965157
 10
281.0354223433242
 20
-114.0243902439024
 10
281.0354223433242
 20
-114.616724738676
 10
281.3297002724796
 20
-114.9128919860627
 10
281.3297002724796
 20
-115.5052264808362
 10
281.6239782016349
 20
-115.801393728223
 10
281.6239782016349
 20
-116.3937282229965
 10
281.9182561307902
 20
-116.6898954703833
 10
281.9182561307902
 20
-117.2822299651568
 10
282.2125340599455
 20
-117.5783972125435
 10
282.2125340599455
 20
-118.4668989547038
 10
282.5068119891008
 20
-118.7630662020906
 10
282.5068119891008
 20
-119.3554006968641
 10
282.8010899182561
 20
-119.6515679442509
 10
282.8010899182561
 20
-120.8362369337979
 10
283.0953678474114
 20
-121.1324041811847
 10
283.0953678474114
 20
-122.3170731707317
 10
283.3896457765667
 20
-122.6132404181185
 10
283.3896457765667
 20
-124.0940766550523
 10
283.6839237057221
 20
-124.390243902439
 10
283.6839237057221
 20
-126.4634146341463
 10
283.9782016348774
 20
-126.7595818815331
 10
283.9782016348774
 20
-128.5365853658537
 10
284.2724795640327
 20
-128.8327526132404
 10
284.2724795640327
 20
-142.1602787456446
 10
283.9782016348774
 20
-142.4564459930314
 10
283.9782016348774
 20
-144.2334494773519
 10
283.6839237057221
 20
-144.5296167247387
 10
283.6839237057221
 20
-146.602787456446
 10
283.3896457765667
 20
-146.8989547038327
 10
283.3896457765667
 20
-148.0836236933798
 10
283.0953678474114
 20
-148.3797909407666
 10
283.0953678474114
 20
-149.5644599303136
 10
282.8010899182561
 20
-149.8606271777003
 10
282.8010899182561
 20
-151.0452961672474
 10
282.5068119891008
 20
-151.3414634146341
 10
282.5068119891008
 20
-152.5261324041812
 10
282.2125340599455
 20
-152.8222996515679
 10
282.2125340599455
 20
-153.7108013937282
 10
281.9182561307902
 20
-154.006968641115
 10
281.9182561307902
 20
-155.191637630662
 10
281.6239782016349
 20
-155.4878048780488
 10
281.6239782016349
 20
-156.0801393728223
 10
281.3297002724796
 20
-156.376306620209
 10
281.3297002724796
 20
-157.2648083623693
 10
281.0354223433242
 20
-157.5609756097561
 10
281.0354223433242
 20
-158.4494773519164
 10
280.7411444141689
 20
-158.7456445993031
 10
280.7411444141689
 20
-159.3379790940766
 10
280.4468664850136
 20
-159.6341463414634
 10
280.4468664850136
 20
-160.5226480836237
 10
280.1525885558583
 20
-160.8188153310105
 10
280.1525885558583
 20
-161.411149825784
 10
279.858310626703
 20
-161.7073170731707
 10
279.858310626703
 20
-162.2996515679442
 10
279.5640326975476
 20
-162.595818815331
 10
279.5640326975476
 20
-162.8919860627178
 10
279.2697547683924
 20
-163.1881533101045
 10
279.2697547683924
 20
-163.780487804878
 10
278.975476839237
 20
-164.0766550522648
 10
278.975476839237
 20
-164.6689895470383
 10
278.6811989100817
 20
-164.9651567944251
 10
278.6811989100817
 20
-165.2613240418119
 10
278.3869209809264
 20
-165.5574912891986
 10
278.3869209809264
 20
-165.8536585365854
 10
278.0926430517711
 20
-166.1498257839721
 10
278.0926430517711
 20
-166.4459930313589
 10
277.7983651226158
 20
-166.7421602787456
 10
277.7983651226158
 20
-167.6306620209059
 10
277.2098092643051
 20
-168.2229965156795
 10
277.2098092643051
 20
-168.5191637630662
 10
276.9155313351499
 20
-168.815331010453
 10
276.9155313351499
 20
-169.1114982578397
 10
276.6212534059945
 20
-169.4076655052265
 10
276.6212534059945
 20
-170
 10
276.3269754768392
 20
-170.2961672473868
 10
276.3269754768392
 20
-170.5923344947735
 10
275.7384196185286
 20
-171.184668989547
 10
275.7384196185286
 20
-171.4808362369338
 10
275.4441416893733
 20
-171.7770034843205
 10
275.4441416893733
 20
-172.0731707317073
 10
274.8555858310626
 20
-172.6655052264808
 10
274.8555858310626
 20
-173.2578397212544
 10
274.5613079019074
 20
-173.5540069686411
 10
274.5613079019074
 20
-173.8501742160279
 10
273.9727520435967
 20
-174.4425087108014
 10
273.9727520435967
 20
-174.7386759581882
 10
273.3841961852861
 20
-175.3310104529617
 10
273.3841961852861
 20
-175.6271777003484
 10
273.0899182561308
 20
-175.9233449477352
 10
273.0899182561308
 20
-176.219512195122
 10
272.7956403269754
 20
-176.5156794425087
 10
272.7956403269754
 20
-176.8118466898955
 10
272.2070844686648
 20
-177.404181184669
 10
272.2070844686648
 20
-177.7003484320558
 10
271.6185286103542
 20
-178.2926829268293
 10
271.6185286103542
 20
-178.588850174216
 10
270.7356948228883
 20
-179.4773519163763
 10
270.7356948228883
 20
-179.7735191637631
 10
270.1471389645777
 20
-180.3658536585366
 10
270.1471389645777
 20
-180.6620209059234
 10
268.9700272479564
 20
-181.8466898954704
 10
268.9700272479564
 20
-182.1428571428571
 10
267.7929155313352
 20
-183.3275261324042
 10
267.7929155313352
 20
-183.623693379791
 10
266.3215258855586
 20
-185.1045296167247
 10
266.3215258855586
 20
-185.4006968641115
 10
264.2615803814714
 20
-187.4738675958188
 10
264.2615803814714
 20
-187.7700348432056
 10
261.024523160763
 20
-191.0278745644599
 10
261.024523160763
 20
-191.3240418118467
 10
259.258855585831
 20
-193.1010452961673
 10
259.258855585831
 20
-193.397212543554
 10
253.9618528610354
 20
-198.7282229965157
 10
253.9618528610354
 20
-199.0243902439024
 10
253.6675749318801
 20
-199.3205574912892
 10
253.3732970027248
 20
-199.3205574912892
 10
253.0790190735695
 20
-199.616724738676
 10
253.0790190735695
 20
-199.9128919860627
 10
250.4305177111717
 20
-202.5783972125436
 10
250.4305177111717
 20
-202.8745644599303
 10
248.0762942779292
 20
-205.2439024390244
 10
248.0762942779292
 20
-205.5400696864112
 10
246.6049046321526
 20
-207.0209059233449
 10
246.6049046321526
 20
-207.3170731707317
 10
246.3106267029973
 20
-207.6132404181185
 10
246.3106267029973
 20
-207.9094076655052
 10
245.4277929155313
 20
-208.7979094076655
 10
245.4277929155313
 20
-209.0940766550523
 10
244.8392370572207
 20
-209.6864111498258
 10
244.8392370572207
 20
-209.9825783972125
 10
244.5449591280654
 20
-210.2787456445993
 10
244.5449591280654
 20
-210.5749128919861
 10
243.9564032697548
 20
-211.1672473867596
 10
243.9564032697548
 20
-211.4634146341463
 10
243.6621253405994
 20
-211.7595818815331
 10
243.6621253405994
 20
-212.0557491289199
 10
243.0735694822888
 20
-212.6480836236934
 10
243.0735694822888
 20
-212.9442508710801
 10
242.7792915531335
 20
-213.2404181184669
 10
242.7792915531335
 20
-213.5365853658537
 10
242.4850136239782
 20
-213.8327526132404
 10
242.4850136239782
 20
-214.1289198606272
 10
241.8964577656675
 20
-214.7212543554007
 10
241.8964577656675
 20
-215.3135888501742
 10
241.3079019073569
 20
-215.9059233449477
 10
241.3079019073569
 20
-216.2020905923345
 10
240.425068119891
 20
-217.0905923344948
 10
240.1307901907357
 20
-217.0905923344948
 10
239.542234332425
 20
-217.6829268292683
 10
239.2479564032697
 20
-217.6829268292683
 10
238.3651226158038
 20
-218.5714285714286
 10
238.0708446866485
 20
-218.5714285714286
 10
237.1880108991826
 20
-219.4599303135888
 10
236.8937329700272
 20
-219.4599303135888
 10
236.5994550408719
 20
-219.7560975609756
 10
236.3051771117166
 20
-219.7560975609756
 10
236.0108991825613
 20
-220.0522648083624
 10
235.716621253406
 20
-220.0522648083624
 10
235.1280653950953
 20
-220.6445993031359
 10
234.83378746594
 20
-220.6445993031359
 10
234.5395095367847
 20
-220.9407665505227
 10
234.2452316076294
 20
-220.9407665505227
 10
233.6566757493188
 20
-221.5331010452962
 10
233.3623978201635
 20
-221.5331010452962
 10
232.7738419618528
 20
-222.1254355400697
 10
232.4795640326975
 20
-222.1254355400697
 10
231.8910081743869
 20
-222.7177700348432
 10
231.5967302452316
 20
-222.7177700348432
 10
231.008174386921
 20
-223.3101045296167
 10
230.7138964577657
 20
-223.3101045296167
 10
230.125340599455
 20
-223.9024390243902
 10
229.8310626702997
 20
-223.9024390243902
 10
229.5367847411444
 20
-224.198606271777
 10
229.2425068119891
 20
-224.198606271777
 10
228.9482288828338
 20
-224.4947735191638
 10
228.6539509536784
 20
-224.4947735191638
 10
228.3596730245231
 20
-224.7909407665505
 10
228.0653950953678
 20
-224.7909407665505
 10
227.7711171662125
 20
-225.0871080139373
 10
227.4768392370572
 20
-225.0871080139373
 10
227.1825613079019
 20
-225.383275261324
 10
226.8882833787466
 20
-225.383275261324
 10
226.299727520436
 20
-225.9756097560976
 10
226.0054495912806
 20
-225.9756097560976
 10
225.7111716621253
 20
-226.2717770034843
 10
225.41689373297
 20
-226.2717770034843
 10
225.1226158038147
 20
-226.5679442508711
 10
224.8283378746594
 20
-226.5679442508711
 10
224.5340599455041
 20
-226.8641114982578
 10
224.2397820163488
 20
-226.8641114982578
 10
223.9455040871935
 20
-227.1602787456446
 10
223.6512261580381
 20
-227.1602787456446
 10
223.0626702997275
 20
-227.7526132404181
 10
222.7683923705722
 20
-227.7526132404181
 10
222.4741144414169
 20
-228.0487804878049
 10
222.1798365122616
 20
-228.0487804878049
 10
221.8855585831062
 20
-228.3449477351916
 10
221.5912806539509
 20
-228.3449477351916
 10
221.0027247956403
 20
-228.9372822299651
 10
220.708446866485
 20
-228.9372822299651
 10
220.4141689373297
 20
-229.2334494773519
 10
220.1198910081744
 20
-229.2334494773519
 10
219.8256130790191
 20
-229.5296167247387
 10
219.5313351498637
 20
-229.5296167247387
 10
219.2370572207084
 20
-229.8257839721254
 10
218.9427792915531
 20
-229.8257839721254
 10
218.6485013623978
 20
-230.1219512195122
 10
218.3542234332425
 20
-230.1219512195122
 10
218.0599455040872
 20
-230.418118466899
 10
217.7656675749319
 20
-230.418118466899
 10
217.4713896457766
 20
-230.7142857142857
 10
217.1771117166212
 20
-230.7142857142857
 10
216.8828337874659
 20
-231.0104529616725
 10
216.5885558583106
 20
-231.0104529616725
 10
216.2942779291553
 20
-231.3066202090592
 10
216
 20
-231.3066202090592
 10
215.4114441416894
 20
-231.8989547038327
 10
215.117166212534
 20
-231.8989547038327
 10
214.8228882833787
 20
-232.1951219512195
 10
214.5286103542234
 20
-232.1951219512195
 10
214.2343324250681
 20
-232.4912891986063
 10
213.9400544959128
 20
-232.4912891986063
 10
213.6457765667575
 20
-232.787456445993
 10
213.3514986376022
 20
-232.787456445993
 10
213.0572207084469
 20
-233.0836236933798
 10
212.7629427792915
 20
-233.0836236933798
 10
212.4686648501362
 20
-233.3797909407666
 10
212.1743869209809
 20
-233.3797909407666
 10
211.8801089918256
 20
-233.6759581881533
 10
211.5858310626703
 20
-233.6759581881533
 10
211.291553133515
 20
-233.9721254355401
 10
210.9972752043597
 20
-233.9721254355401
 10
210.7029972752044
 20
-234.2682926829268
 10
210.408719346049
 20
-234.2682926829268
 10
209.2316076294278
 20
-235.4529616724739
 10
209.2316076294278
 20
-235.7491289198606
 10
208.9373297002725
 20
-236.0452961672474
 10
208.9373297002725
 20
-236.9337979094077
 10
208.6430517711171
 20
-237.2299651567944
 10
208.6430517711171
 20
-241.0801393728223
 10
208.3487738419618
 20
-241.376306620209
 10
208.0544959128065
 20
-241.376306620209
 10
207.1716621253406
 20
-242.2648083623693
 10
206.8773841961853
 20
-242.2648083623693
 10
206.58310626703
 20
-242.5609756097561
 10
206.58310626703
 20
-242.8571428571429
 10
206.2888283378746
 20
-243.1533101045296
 10
206.2888283378746
 20
-243.4494773519164
 10
205.700272479564
 20
-244.0418118466899
 10
205.700272479564
 20
-244.3379790940766
 10
205.4059945504087
 20
-244.6341463414634
 10
205.4059945504087
 20
-245.2264808362369
 10
205.1117166212534
 20
-245.5226480836237
 10
205.1117166212534
 20
-247.2996515679442
 10
205.9945504087193
 20
-248.1881533101045
 10
205.9945504087193
 20
-248.4843205574913
 10
206.2888283378746
 20
-248.780487804878
 10
206.2888283378746
 20
-249.0766550522648
 10
207.4659400544959
 20
-250.2613240418119
 10
207.7602179836512
 20
-250.2613240418119
 10
208.0544959128065
 20
-250.5574912891986
 10
208.3487738419618
 20
-250.5574912891986
 10
208.9373297002725
 20
-251.1498257839721
 10
209.2316076294278
 20
-251.1498257839721
 10
209.5258855585831
 20
-251.4459930313589
 10
213.0572207084469
 20
-251.4459930313589
 10
213.3514986376022
 20
-251.1498257839721
 10
213.6457765667575
 20
-251.1498257839721
 10
213.9400544959128
 20
-250.8536585365854
 10
214.2343324250681
 20
-250.8536585365854
 10
216.2942779291553
 20
-248.780487804878
 10
218.0599455040872
 20
-248.780487804878
 10
218.3542234332425
 20
-248.4843205574913
 10
218.6485013623978
 20
-248.4843205574913
 10
219.5313351498637
 20
-247.595818815331
 10
219.8256130790191
 20
-247.595818815331
 10
219.8256130790191
 20
-247.2996515679442
 10
220.4141689373297
 20
-246.7073170731707
 10
220.4141689373297
 20
-246.1149825783972
 10
220.708446866485
 20
-245.8188153310105
 10
220.708446866485
 20
-244.9303135888502
 10
221.0027247956403
 20
-244.6341463414634
 10
221.0027247956403
 20
-244.3379790940766
 10
221.2970027247956
 20
-244.0418118466899
 10
221.2970027247956
 20
-243.7456445993031
 10
222.7683923705722
 20
-242.2648083623693
 10
223.0626702997275
 20
-242.2648083623693
 10
223.9455040871935
 20
-241.376306620209
 10
224.2397820163488
 20
-241.376306620209
 10
224.8283378746594
 20
-240.7839721254356
 10
225.1226158038147
 20
-240.7839721254356
 10
226.0054495912806
 20
-239.8954703832753
 10
226.299727520436
 20
-239.8954703832753
 10
226.8882833787466
 20
-239.3031358885017
 10
227.1825613079019
 20
-239.3031358885017
 10
227.4768392370572
 20
-239.006968641115
 10
227.7711171662125
 20
-239.006968641115
 10
228.3596730245231
 20
-238.4146341463415
 10
228.6539509536784
 20
-238.4146341463415
 10
228.9482288828338
 20
-238.1184668989547
 10
229.2425068119891
 20
-238.1184668989547
 10
229.8310626702997
 20
-237.5261324041812
 10
230.125340599455
 20
-237.5261324041812
 10
230.7138964577657
 20
-236.9337979094077
 10
231.008174386921
 20
-236.9337979094077
 10
231.5967302452316
 20
-236.3414634146341
 10
231.8910081743869
 20
-236.3414634146341
 10
233.0681198910082
 20
-235.1567944250871
 10
233.3623978201635
 20
-235.1567944250871
 10
233.9509536784741
 20
-234.5644599303136
 10
234.2452316076294
 20
-234.5644599303136
 10
234.5395095367847
 20
-234.2682926829268
 10
236.0108991825613
 20
-234.2682926829268
 10
236.3051771117166
 20
-233.9721254355401
 10
237.7765667574932
 20
-233.9721254355401
 10
238.0708446866485
 20
-233.6759581881533
 10
238.6594005449591
 20
-233.6759581881533
 10
238.9536784741144
 20
-233.3797909407666
 10
239.542234332425
 20
-233.3797909407666
 10
239.8365122615804
 20
-233.0836236933798
 10
240.425068119891
 20
-233.0836236933798
 10
240.7193460490463
 20
-232.787456445993
 10
241.3079019073569
 20
-232.787456445993
 10
241.6021798365122
 20
-232.4912891986063
 10
242.7792915531335
 20
-232.4912891986063
 10
243.0735694822888
 20
-232.1951219512195
 10
244.2506811989101
 20
-232.1951219512195
 10
244.5449591280654
 20
-231.8989547038327
 10
249.5476839237057
 20
-231.8989547038327
 10
249.841961852861
 20
-232.1951219512195
 10
251.3133514986376
 20
-232.1951219512195
 10
251.6076294277929
 20
-232.4912891986063
 10
252.7847411444141
 20
-232.4912891986063
 10
253.0790190735695
 20
-232.787456445993
 10
254.8446866485014
 20
-232.787456445993
 10
255.1389645776567
 20
-233.0836236933798
 10
257.1989100817439
 20
-233.0836236933798
 10
257.4931880108992
 20
-233.3797909407666
 10
262.7901907356948
 20
-233.3797909407666
 10
263.0844686648501
 20
-233.0836236933798
 10
265.1444141689373
 20
-233.0836236933798
 10
265.4386920980926
 20
-232.787456445993
 10
266.0272479564032
 20
-232.787456445993
 10
266.3215258855586
 20
-232.4912891986063
 10
267.4986376021798
 20
-232.4912891986063
 10
267.7929155313352
 20
-232.1951219512195
 10
268.6757493188011
 20
-232.1951219512195
 10
268.9700272479564
 20
-231.8989547038327
 10
269.558583106267
 20
-231.8989547038327
 10
269.8528610354223
 20
-231.602787456446
 10
270.4414168937329
 20
-231.602787456446
 10
270.7356948228883
 20
-231.3066202090592
 10
271.3242506811989
 20
-231.3066202090592
 10
271.6185286103542
 20
-231.0104529616725
 10
272.5013623978202
 20
-231.0104529616725
 10
272.7956403269754
 20
-230.7142857142857
 10
273.0899182561308
 20
-230.7142857142857
 10
273.3841961852861
 20
-230.418118466899
 10
274.267029972752
 20
-230.418118466899
 10
274.5613079019074
 20
-230.1219512195122
 10
274.8555858310626
 20
-230.1219512195122
 10
275.149863760218
 20
-229.8257839721254
 10
275.4441416893733
 20
-229.8257839721254
 10
275.7384196185286
 20
-229.5296167247387
 10
276.0326975476839
 20
-229.5296167247387
 10
276.3269754768392
 20
-229.2334494773519
 10
276.9155313351499
 20
-229.2334494773519
 10
277.2098092643051
 20
-228.9372822299651
 10
277.5040871934605
 20
-228.9372822299651
 10
277.7983651226158
 20
-228.6411149825784
 10
278.0926430517711
 20
-228.6411149825784
 10
278.3869209809264
 20
-228.3449477351916
 10
278.6811989100817
 20
-228.3449477351916
 10
278.975476839237
 20
-228.0487804878049
 10
279.2697547683924
 20
-228.0487804878049
 10
279.5640326975476
 20
-227.7526132404181
 10
279.858310626703
 20
-227.7526132404181
 10
280.1525885558583
 20
-227.4564459930314
 10
280.4468664850136
 20
-227.4564459930314
 10
280.7411444141689
 20
-227.1602787456446
 10
281.0354223433242
 20
-227.1602787456446
 10
281.3297002724796
 20
-226.8641114982578
 10
281.6239782016349
 20
-226.8641114982578
 10
281.9182561307902
 20
-226.5679442508711
 10
282.2125340599455
 20
-226.5679442508711
 10
282.8010899182561
 20
-225.9756097560976
 10
283.0953678474114
 20
-225.9756097560976
 10
283.3896457765667
 20
-225.6794425087108
 10
283.6839237057221
 20
-225.6794425087108
 10
284.2724795640327
 20
-225.0871080139373
 10
284.566757493188
 20
-225.0871080139373
 10
285.1553133514986
 20
-224.4947735191638
 10
285.4495912806539
 20
-224.4947735191638
 10
286.0381471389646
 20
-223.9024390243902
 10
286.3324250681198
 20
-223.9024390243902
 10
286.9209809264305
 20
-223.3101045296167
 10
287.2152588555858
 20
-223.3101045296167
 10
288.0980926430518
 20
-222.4216027874564
 10
288.3923705722071
 20
-222.4216027874564
 10
289.5694822888283
 20
-221.2369337979094
 10
289.8637602179836
 20
-221.2369337979094
 10
291.3351498637602
 20
-219.7560975609756
 10
291.6294277929155
 20
-219.7560975609756
 10
293.983651226158
 20
-217.3867595818815
 10
294.2779291553134
 20
-217.3867595818815
 10
295.4550408719346
 20
-216.2020905923345
 10
295.4550408719346
 20
-215.9059233449477
 10
299.574931880109
 20
-211.7595818815331
 10
299.574931880109
 20
-211.4634146341463
 10
301.3405994550408
 20
-209.6864111498258
 10
301.3405994550408
 20
-209.390243902439
 10
302.8119891008174
 20
-207.9094076655052
 10
302.8119891008174
 20
-207.6132404181185
 10
303.9891008174387
 20
-206.4285714285714
 10
303.9891008174387
 20
-206.1324041811847
 10
305.7547683923706
 20
-204.3554006968641
 10
305.7547683923706
 20
-204.0592334494773
 10
306.6376021798365
 20
-203.1707317073171
 10
306.6376021798365
 20
-202.8745644599303
 10
307.5204359673024
 20
-201.98606271777
 10
307.5204359673024
 20
-201.6898954703833
 10
308.4032697547684
 20
-200.801393728223
 10
308.4032697547684
 20
-200.5052264808362
 10
308.991825613079
 20
-199.9128919860627
 10
308.991825613079
 20
-199.616724738676
 10
309.5803814713896
 20
-199.0243902439024
 10
309.5803814713896
 20
-198.7282229965157
 10
310.4632152588555
 20
-197.8397212543554
 10
310.4632152588555
 20
-197.5435540069686
 10
310.7574931880109
 20
-197.2473867595819
 10
310.7574931880109
 20
-196.9512195121951
 10
311.6403269754768
 20
-196.0627177700349
 10
311.6403269754768
 20
-195.7665505226481
 10
311.9346049046321
 20
-195.4703832752613
 10
311.9346049046321
 20
-195.1742160278746
 10
312.5231607629428
 20
-194.581881533101
 10
312.5231607629428
 20
-194.2857142857143
 10
313.1117166212534
 20
-193.6933797909408
 10
313.1117166212534
 20
-193.397212543554
 10
313.4059945504087
 20
-193.1010452961673
 10
313.4059945504087
 20
-192.8048780487805
 10
313.9945504087193
 20
-192.212543554007
 10
313.9945504087193
 20
-191.9163763066202
 10
314.58310626703
 20
-191.3240418118467
 10
314.58310626703
 20
-191.0278745644599
 10
314.8773841961853
 20
-190.7317073170732
 10
314.8773841961853
 20
-190.4355400696864
 10
315.1716621253406
 20
-190.1393728222997
 10
315.1716621253406
 20
-189.8432055749129
 10
315.4659400544959
 20
-189.5470383275261
 10
315.4659400544959
 20
-189.2508710801394
 10
316.0544959128065
 20
-188.6585365853659
 10
316.0544959128065
 20
-188.3623693379791
 10
316.3487738419618
 20
-188.0662020905923
 10
316.3487738419618
 20
-187.7700348432056
 10
316.6430517711171
 20
-187.4738675958188
 10
316.6430517711171
 20
-187.1777003484321
 10
317.2316076294278
 20
-186.5853658536585
 10
317.2316076294278
 20
-186.2891986062718
 10
317.5258855585831
 20
-185.993031358885
 10
317.5258855585831
 20
-185.6968641114983
 10
317.8201634877384
 20
-185.4006968641115
 10
317.8201634877384
 20
-185.1045296167247
 10
318.1144414168937
 20
-184.808362369338
 10
318.1144414168937
 20
-184.2160278745644
 10
318.4087193460491
 20
-183.9198606271777
 10
318.4087193460491
 20
-183.623693379791
 10
318.7029972752043
 20
-183.3275261324042
 10
318.7029972752043
 20
-183.0313588850174
 10
318.9972752043597
 20
-182.7351916376307
 10
318.9972752043597
 20
-182.4390243902439
 10
319.291553133515
 20
-182.1428571428571
 10
319.291553133515
 20
-181.5505226480836
 10
319.8801089918256
 20
-180.9581881533101
 10
319.8801089918256
 20
-180.3658536585366
 10
320.1743869209809
 20
-180.0696864111498
 10
320.1743869209809
 20
-179.4773519163763
 10
320.7629427792915
 20
-178.8850174216028
 10
320.7629427792915
 20
-178.2926829268293
 10
321.0572207084468
 20
-177.9965156794425
 10
321.0572207084468
 20
-177.404181184669
 10
321.3514986376022
 20
-177.1080139372822
 10
321.3514986376022
 20
-176.8118466898955
 10
321.6457765667575
 20
-176.5156794425087
 10
321.6457765667575
 20
-175.9233449477352
 10
321.9400544959128
 20
-175.6271777003484
 10
321.9400544959128
 20
-175.0348432055749
 10
322.2343324250681
 20
-174.7386759581882
 10
322.2343324250681
 20
-174.4425087108014
 10
322.5286103542234
 20
-174.1463414634146
 10
322.5286103542234
 20
-173.5540069686411
 10
322.8228882833787
 20
-173.2578397212544
 10
322.8228882833787
 20
-172.3693379790941
 10
323.117166212534
 20
-172.0731707317073
 10
323.117166212534
 20
-171.4808362369338
 10
323.4114441416893
 20
-171.184668989547
 10
323.4114441416893
 20
-170.2961672473868
 10
323.7057220708447
 20
-170
 10
323.7057220708447
 20
-169.4076655052265
 10
324
 20
-169.1114982578397
 10
324
 20
-168.2229965156795
 10
324.2942779291553
 20
-167.9268292682927
 10
324.2942779291553
 20
-167.0383275261324
 10
324.5885558583106
 20
-166.7421602787456
 10
324.5885558583106
 20
-166.1498257839721
 10
324.8828337874659
 20
-165.8536585365854
 10
324.8828337874659
 20
-164.9651567944251
 10
325.1771117166213
 20
-164.6689895470383
 10
325.1771117166213
 20
-163.780487804878
 10
325.4713896457765
 20
-163.4843205574913
 10
325.4713896457765
 20
-162.595818815331
 10
325.7656675749319
 20
-162.2996515679442
 10
325.7656675749319
 20
-161.411149825784
 10
326.0599455040872
 20
-161.1149825783972
 10
326.0599455040872
 20
-159.9303135888502
 10
326.3542234332425
 20
-159.6341463414634
 10
326.3542234332425
 20
-158.7456445993031
 10
326.6485013623978
 20
-158.4494773519164
 10
326.6485013623978
 20
-157.2648083623693
 10
326.9427792915531
 20
-156.9686411149826
 10
326.9427792915531
 20
-155.4878048780488
 10
327.2370572207084
 20
-155.191637630662
 10
327.2370572207084
 20
-153.7108013937282
 10
327.5313351498638
 20
-153.4146341463415
 10
327.5313351498638
 20
-151.9337979094077
 10
327.825613079019
 20
-151.6376306620209
 10
327.825613079019
 20
-149.5644599303136
 10
328.1198910081744
 20
-149.2682926829268
 10
328.1198910081744
 20
-146.602787456446
 10
328.4141689373297
 20
-146.3066202090592
 10
328.4141689373297
 20
-142.4564459930314
 10
328.708446866485
 20
-142.1602787456446
 10
328.708446866485
 20
-132.9790940766551
 10
328.4141689373297
 20
-132.6829268292683
 10
328.4141689373297
 20
-129.1289198606272
 10
328.1198910081744
 20
-128.8327526132404
 10
328.1198910081744
 20
-126.7595818815331
 10
327.825613079019
 20
-126.4634146341463
 10
327.825613079019
 20
-124.390243902439
 10
327.5313351498638
 20
-124.0940766550523
 10
327.5313351498638
 20
-122.3170731707317
 10
327.2370572207084
 20
-122.0209059233449
 10
327.2370572207084
 20
-120.5400696864111
 10
326.9427792915531
 20
-120.2439024390244
 10
326.9427792915531
 20
-118.4668989547038
 10
326.6485013623978
 20
-118.1707317073171
 10
326.6485013623978
 20
-116.6898954703833
 10
326.3542234332425
 20
-116.3937282229965
 10
326.3542234332425
 20
-115.2090592334495
 10
326.0599455040872
 20
-114.9128919860627
 10
326.0599455040872
 20
-113.7282229965157
 10
325.7656675749319
 20
-113.4320557491289
 10
325.7656675749319
 20
-112.2473867595819
 10
325.4713896457765
 20
-111.9512195121951
 10
325.4713896457765
 20
-111.0627177700348
 10
325.1771117166213
 20
-110.7665505226481
 10
325.1771117166213
 20
-109.8780487804878
 10
324.8828337874659
 20
-109.581881533101
 10
324.8828337874659
 20
-108.6933797909408
 10
324.5885558583106
 20
-108.397212543554
 10
324.5885558583106
 20
-107.5087108013937
 10
324.2942779291553
 20
-107.212543554007
 10
324.2942779291553
 20
-106.3240418118467
 10
324
 20
-106.0278745644599
 10
324
 20
-105.4355400696864
 10
323.7057220708447
 20
-105.1393728222996
 10
323.7057220708447
 20
-104.5470383275261
 10
323.4114441416893
 20
-104.2508710801394
 10
323.4114441416893
 20
-103.3623693379791
 10
323.117166212534
 20
-103.0662020905923
 10
323.117166212534
 20
-102.4738675958188
 10
322.8228882833787
 20
-102.1777003484321
 10
322.8228882833787
 20
-101.5853658536585
 10
322.5286103542234
 20
-101.2891986062718
 10
322.5286103542234
 20
-100.993031358885
 10
322.2343324250681
 20
-100.6968641114983
 10
322.2343324250681
 20
-100.1045296167247
 10
321.9400544959128
 20
-99.80836236933798
 10
321.9400544959128
 20
-99.21602787456446
 10
321.6457765667575
 20
-98.9198606271777
 10
321.6457765667575
 20
-98.62369337979094
 10
321.3514986376022
 20
-98.32752613240419
 10
321.3514986376022
 20
-97.73519163763066
 10
321.0572207084468
 20
-97.4390243902439
 10
321.0572207084468
 20
-96.84668989547038
 10
320.7629427792915
 20
-96.55052264808363
 10
320.7629427792915
 20
-95.9581881533101
 10
320.4686648501362
 20
-95.66202090592334
 10
320.4686648501362
 20
-95.36585365853658
 10
320.1743869209809
 20
-95.06968641114983
 10
320.1743869209809
 20
-94.77351916376307
 10
319.8801089918256
 20
-94.47735191637631
 10
319.8801089918256
 20
-94.18118466898954
 10
319.5858310626703
 20
-93.88501742160278
 10
319.5858310626703
 20
-93.29268292682927
 10
319.291553133515
 20
-92.99651567944251
 10
319.291553133515
 20
-92.70034843205575
 10
318.7029972752043
 20
-92.10801393728222
 10
318.7029972752043
 20
-91.51567944250871
 10
318.4087193460491
 20
-91.21951219512195
 10
318.4087193460491
 20
-90.92334494773519
 10
318.1144414168937
 20
-90.62717770034843
 10
318.1144414168937
 20
-90.33101045296168
 10
317.8201634877384
 20
-90.03484320557492
 10
317.8201634877384
 20
-89.73867595818815
 10
317.5258855585831
 20
-89.44250871080139
 10
317.5258855585831
 20
-89.14634146341463
 10
317.2316076294278
 20
-88.85017421602788
 10
317.2316076294278
 20
-88.55400696864112
 10
316.9373297002725
 20
-88.25783972125436
 10
316.9373297002725
 20
-87.96167247386759
 10
316.3487738419618
 20
-87.36933797909408
 10
316.3487738419618
 20
-87.07317073170732
 10
316.0544959128065
 20
-86.77700348432056
 10
316.0544959128065
 20
-86.4808362369338
 10
315.7602179836512
 20
-86.18466898954703
 10
315.7602179836512
 20
-85.88850174216027
 10
315.4659400544959
 20
-85.59233449477352
 10
315.4659400544959
 20
-85.29616724738676
 10
314.8773841961853
 20
-84.70383275261324
 10
314.8773841961853
 20
-84.40766550522648
 10
314.58310626703
 20
-84.11149825783973
 10
314.58310626703
 20
-83.81533101045297
 10
313.9945504087193
 20
-83.22299651567944
 10
313.9945504087193
 20
-82.92682926829268
 10
313.700272479564
 20
-82.63066202090593
 10
313.700272479564
 20
-82.33449477351917
 10
313.1117166212534
 20
-81.74216027874564
 10
313.1117166212534
 20
-81.44599303135888
 10
312.5231607629428
 20
-80.85365853658537
 10
312.5231607629428
 20
-80.55749128919861
 10
311.9346049046321
 20
-79.96515679442508
 10
311.9346049046321
 20
-79.66898954703832
 10
311.3460490463215
 20
-79.07665505226481
 10
311.3460490463215
 20
-78.78048780487805
 10
310.7574931880109
 20
-78.18815331010452
 10
310.7574931880109
 20
-77.89198606271778
 10
310.1689373297003
 20
-77.29965156794425
 10
310.1689373297003
 20
-77.00348432055749
 10
309.5803814713896
 20
-76.41114982578397
 10
309.5803814713896
 20
-76.11498257839722
 10
308.6975476839237
 20
-75.22648083623693
 10
308.6975476839237
 20
-74.93031358885017
 10
307.8147138964578
 20
-74.0418118466899
 10
307.8147138964578
 20
-73.74564459930313
 10
306.9318801089918
 20
-72.85714285714286
 10
306.9318801089918
 20
-72.5609756097561
 10
305.7547683923706
 20
-71.37630662020906
 10
305.7547683923706
 20
-71.0801393728223
 10
304.5776566757493
 20
-69.89547038327527
 10
304.5776566757493
 20
-69.5993031358885
 10
302.8119891008174
 20
-67.82229965156795
 10
302.8119891008174
 20
-67.52613240418118
 10
300.7520435967302
 20
-65.45296167247386
 10
300.7520435967302
 20
-65.15679442508711
 10
294.5722070844686
 20
-58.93728222996516
 10
294.2779291553134
 20
-58.93728222996516
 10
292.2179836512261
 20
-56.86411149825784
 10
291.9237057220708
 20
-56.86411149825784
 10
290.1580381471389
 20
-55.08710801393728
 10
289.8637602179836
 20
-55.08710801393728
 10
288.3923705722071
 20
-53.60627177700349
 10
288.0980926430518
 20
-53.60627177700349
 10
287.2152588555858
 20
-52.71777003484321
 10
286.9209809264305
 20
-52.71777003484321
 10
285.7438692098092
 20
-51.53310104529617
 10
285.4495912806539
 20
-51.53310104529617
 10
284.566757493188
 20
-50.64459930313589
 10
284.2724795640327
 20
-50.64459930313589
 10
283.6839237057221
 20
-50.05226480836237
 10
283.3896457765667
 20
-50.05226480836237
 10
282.8010899182561
 20
-49.45993031358885
 10
282.5068119891008
 20
-49.45993031358885
 10
281.9182561307902
 20
-48.86759581881533
 10
281.6239782016349
 20
-48.86759581881533
 10
281.0354223433242
 20
-48.27526132404181
 10
280.7411444141689
 20
-48.27526132404181
 10
280.1525885558583
 20
-47.68292682926829
 10
279.858310626703
 20
-47.68292682926829
 10
279.5640326975476
 20
-47.38675958188153
 10
279.2697547683924
 20
-47.38675958188153
 10
278.975476839237
 20
-47.09059233449477
 10
278.6811989100817
 20
-47.09059233449477
 10
278.3869209809264
 20
-46.79442508710802
 10
278.0926430517711
 20
-46.79442508710802
 10
277.7983651226158
 20
-46.49825783972125
 10
277.5040871934605
 20
-46.49825783972125
 10
277.2098092643051
 20
-46.20209059233449
 10
276.9155313351499
 20
-46.20209059233449
 10
276.6212534059945
 20
-45.90592334494774
 10
276.3269754768392
 20
-45.90592334494774
 10
276.0326975476839
 20
-45.60975609756098
 10
275.7384196185286
 20
-45.60975609756098
 10
275.4441416893733
 20
-45.31358885017421
 10
275.149863760218
 20
-45.31358885017421
 10
274.8555858310626
 20
-45.01742160278746
 10
274.5613079019074
 20
-45.01742160278746
 10
274.267029972752
 20
-44.7212543554007
 10
273.6784741144414
 20
-44.7212543554007
 10
273.3841961852861
 20
-44.42508710801394
 10
272.7956403269754
 20
-44.42508710801394
 10
272.5013623978202
 20
-44.12891986062718
 10
271.9128065395095
 20
-44.12891986062718
 10
271.6185286103542
 20
-43.83275261324042
 10
271.0299727520436
 20
-43.83275261324042
 10
270.7356948228883
 20
-43.53658536585366
 10
270.1471389645777
 20
-43.53658536585366
 10
269.8528610354223
 20
-43.2404181184669
 10
268.6757493188011
 20
-43.2404181184669
 10
268.3814713896458
 20
-42.94425087108014
 10
267.4986376021798
 20
-42.94425087108014
 10
267.2043596730245
 20
-42.64808362369338
 10
266.0272479564032
 20
-42.64808362369338
 10
265.7329700272479
 20
-42.35191637630662
 10
264.2615803814714
 20
-42.35191637630662
 10
263.9673024523161
 20
-42.05574912891986
 10
261.6130790190736
 20
-42.05574912891986
 10
261.3188010899182
 20
-41.7595818815331
 10
256.6103542234332
 20
-41.7595818815331
 10
256.3160762942779
 20
-41.46341463414634
 10
253.9618528610354
 20
-41.46341463414634
 10
253.6675749318801
 20
-41.16724738675958
 10
252.4904632152588
 20
-41.16724738675958
 10
252.1961852861035
 20
-40.87108013937282
 10
250.4305177111717
 20
-40.87108013937282
 10
250.1362397820163
 20
-40.57491289198606
  0
TEXT
  5
60
100
AcDbEntity
  8
TEXT
  6
ByLayer
 62
  256
370
   -1
100
AcDbText
 10
283.9782016348774
 20
-142.4564459930314
 30
0
 40
5
  1
Contour 8
 50
0
 41
1
 51
0
  7
STANDARD
 71
    0
210
0
220
0
230
1
100
AcDbText
  0
ENDSEC
  0
SECTION
  2
OBJECTS
  0
DICTIONARY
  5
C
330
0
100
AcDbDictionary
281
    1
  3
ACAD_GROUP
350
D
  0
DICTIONARY
  5
D
330
C
100
AcDbDictionary
281
    1
  0
PLOTSETTINGS
  5
61
100
AcDbPlotSettings
  6
1x1
 40
0
 41
0
 42
0
 43
0
  0
ENDSEC
  0
EOF
