  0
SECTION
  2
HEADER
  9
$ACADVER
  1
AC1024
  9
$ACADMAINTVER
 70
6
  9
$DWGCODEPAGE
  3
ANSI_1252
  9
$LASTSAVEDBY
  1
ezdxf
  9
$INSBASE
 10
0.0
 20
0.0
 30
0.0
  9
$EXTMIN
 10
1e+20
 20
1e+20
 30
1e+20
  9
$EXTMAX
 10
-1e+20
 20
-1e+20
 30
-1e+20
  9
$LIMMIN
 10
0.0
 20
0.0
  9
$LIMMAX
 10
420.0
 20
297.0
  9
$ORTHOMODE
 70
0
  9
$REGENMODE
 70
1
  9
$FILLMODE
 70
1
  9
$QTEXTMODE
 70
0
  9
$MIRRTEXT
 70
1
  9
$LTSCALE
 40
1.0
  9
$ATTMODE
 70
1
  9
$TEXTSIZE
 40
2.5
  9
$TRACEWID
 40
1.0
  9
$TEXTSTYLE
  7
Standard
  9
$CLAYER
  8
0
  9
$CELTYPE
  6
ByLayer
  9
$CECOLOR
 62
256
  9
$CELTSCALE
 40
1.0
  9
$DISPSILH
 70
0
  9
$DIMSCALE
 40
1.0
  9
$DIMASZ
 40
2.5
  9
$DIMEXO
 40
0.625
  9
$DIMDLI
 40
3.75
  9
$DIMRND
 40
0.0
  9
$DIMDLE
 40
0.0
  9
$DIMEXE
 40
1.25
  9
$DIMTP
 40
0.0
  9
$DIMTM
 40
0.0
  9
$DIMTXT
 40
2.5
  9
$DIMCEN
 40
2.5
  9
$DIMTSZ
 40
0.0
  9
$DIMTOL
 70
0
  9
$DIMLIM
 70
0
  9
$DIMTIH
 70
0
  9
$DIMTOH
 70
0
  9
$DIMSE1
 70
0
  9
$DIMSE2
 70
0
  9
$DIMTAD
 70
1
  9
$DIMZIN
 70
8
  9
$DIMBLK
  1

  9
$DIMASO
 70
1
  9
$DIMSHO
 70
1
  9
$DIMPOST
  1

  9
$DIMAPOST
  1

  9
$DIMALT
 70
0
  9
$DIMALTD
 70
3
  9
$DIMALTF
 40
0.03937007874
  9
$DIMLFAC
 40
1.0
  9
$DIMTOFL
 70
1
  9
$DIMTVP
 40
0.0
  9
$DIMTIX
 70
0
  9
$DIMSOXD
 70
0
  9
$DIMSAH
 70
0
  9
$DIMBLK1
  1

  9
$DIMBLK2
  1

  9
$DIMSTYLE
  2
ISO-25
  9
$DIMCLRD
 70
0
  9
$DIMCLRE
 70
0
  9
$DIMCLRT
 70
0
  9
$DIMTFAC
 40
1.0
  9
$DIMGAP
 40
0.625
  9
$DIMJUST
 70
0
  9
$DIMSD1
 70
0
  9
$DIMSD2
 70
0
  9
$DIMTOLJ
 70
0
  9
$DIMTZIN
 70
8
  9
$DIMALTZ
 70
0
  9
$DIMALTTZ
 70
0
  9
$DIMUPT
 70
0
  9
$DIMDEC
 70
2
  9
$DIMTDEC
 70
2
  9
$DIMALTU
 70
2
  9
$DIMALTTD
 70
3
  9
$DIMTXSTY
  7
Standard
  9
$DIMAUNIT
 70
0
  9
$DIMADEC
 70
0
  9
$DIMALTRND
 40
0.0
  9
$DIMAZIN
 70
0
  9
$DIMDSEP
 70
44
  9
$DIMATFIT
 70
3
  9
$DIMFRAC
 70
0
  9
$DIMLDRBLK
  1

  9
$DIMLUNIT
 70
2
  9
$DIMLWD
 70
-2
  9
$DIMLWE
 70
-2
  9
$DIMTMOVE
 70
0
  9
$DIMFXL
 40
1.0
  9
$DIMFXLON
 70
0
  9
$DIMJOGANG
 40
0.785398163397
  9
$DIMTFILL
 70
0
  9
$DIMTFILLCLR
 70
0
  9
$DIMARCSYM
 70
0
  9
$DIMLTYPE
  6

  9
$DIMLTEX1
  6

  9
$DIMLTEX2
  6

  9
$DIMTXTDIRECTION
 70
0
  9
$LUNITS
 70
2
  9
$LUPREC
 70
4
  9
$SKETCHINC
 40
1.0
  9
$FILLETRAD
 40
10.0
  9
$AUNITS
 70
0
  9
$AUPREC
 70
2
  9
$MENU
  1
.
  9
$ELEVATION
 40
0.0
  9
$PELEVATION
 40
0.0
  9
$THICKNESS
 40
0.0
  9
$LIMCHECK
 70
0
  9
$CHAMFERA
 40
0.0
  9
$CHAMFERB
 40
0.0
  9
$CHAMFERC
 40
0.0
  9
$CHAMFERD
 40
0.0
  9
$SKPOLY
 70
0
  9
$TDCREATE
 40
2460745.602164352
  9
$TDUCREATE
 40
2458532.153996898
  9
$TDUPDATE
 40
2460745.602164352
  9
$TDUUPDATE
 40
2458532.1544311
  9
$TDINDWG
 40
0.0
  9
$TDUSRTIMER
 40
0.0
  9
$USRTIMER
 70
1
  9
$ANGBASE
 50
0.0
  9
$ANGDIR
 70
0
  9
$PDMODE
 70
0
  9
$PDSIZE
 40
0.0
  9
$PLINEWID
 40
0.0
  9
$SPLFRAME
 70
0
  9
$SPLINETYPE
 70
6
  9
$SPLINESEGS
 70
8
  9
$HANDSEED
  5
46
  9
$SURFTAB1
 70
6
  9
$SURFTAB2
 70
6
  9
$SURFTYPE
 70
6
  9
$SURFU
 70
6
  9
$SURFV
 70
6
  9
$UCSBASE
  2

  9
$UCSNAME
  2

  9
$UCSORG
 10
0.0
 20
0.0
 30
0.0
  9
$UCSXDIR
 10
1.0
 20
0.0
 30
0.0
  9
$UCSYDIR
 10
0.0
 20
1.0
 30
0.0
  9
$UCSORTHOREF
  2

  9
$UCSORTHOVIEW
 70
0
  9
$UCSORGTOP
 10
0.0
 20
0.0
 30
0.0
  9
$UCSORGBOTTOM
 10
0.0
 20
0.0
 30
0.0
  9
$UCSORGLEFT
 10
0.0
 20
0.0
 30
0.0
  9
$UCSORGRIGHT
 10
0.0
 20
0.0
 30
0.0
  9
$UCSORGFRONT
 10
0.0
 20
0.0
 30
0.0
  9
$UCSORGBACK
 10
0.0
 20
0.0
 30
0.0
  9
$PUCSBASE
  2

  9
$PUCSNAME
  2

  9
$PUCSORG
 10
0.0
 20
0.0
 30
0.0
  9
$PUCSXDIR
 10
1.0
 20
0.0
 30
0.0
  9
$PUCSYDIR
 10
0.0
 20
1.0
 30
0.0
  9
$PUCSORTHOREF
  2

  9
$PUCSORTHOVIEW
 70
0
  9
$PUCSORGTOP
 10
0.0
 20
0.0
 30
0.0
  9
$PUCSORGBOTTOM
 10
0.0
 20
0.0
 30
0.0
  9
$PUCSORGLEFT
 10
0.0
 20
0.0
 30
0.0
  9
$PUCSORGRIGHT
 10
0.0
 20
0.0
 30
0.0
  9
$PUCSORGFRONT
 10
0.0
 20
0.0
 30
0.0
  9
$PUCSORGBACK
 10
0.0
 20
0.0
 30
0.0
  9
$USERI1
 70
0
  9
$USERI2
 70
0
  9
$USERI3
 70
0
  9
$USERI4
 70
0
  9
$USERI5
 70
0
  9
$USERR1
 40
0.0
  9
$USERR2
 40
0.0
  9
$USERR3
 40
0.0
  9
$USERR4
 40
0.0
  9
$USERR5
 40
0.0
  9
$WORLDVIEW
 70
1
  9
$SHADEDGE
 70
3
  9
$SHADEDIF
 70
70
  9
$TILEMODE
 70
1
  9
$MAXACTVP
 70
64
  9
$PINSBASE
 10
0.0
 20
0.0
 30
0.0
  9
$PLIMCHECK
 70
0
  9
$PEXTMIN
 10
1e+20
 20
1e+20
 30
1e+20
  9
$PEXTMAX
 10
-1e+20
 20
-1e+20
 30
-1e+20
  9
$PLIMMIN
 10
0.0
 20
0.0
  9
$PLIMMAX
 10
420.0
 20
297.0
  9
$UNITMODE
 70
0
  9
$VISRETAIN
 70
1
  9
$PLINEGEN
 70
0
  9
$PSLTSCALE
 70
1
  9
$TREEDEPTH
 70
3020
  9
$CMLSTYLE
  2
Standard
  9
$CMLJUST
 70
0
  9
$CMLSCALE
 40
20.0
  9
$PROXYGRAPHICS
 70
1
  9
$MEASUREMENT
 70
1
  9
$CELWEIGHT
370
-1
  9
$ENDCAPS
280
0
  9
$JOINSTYLE
280
0
  9
$LWDISPLAY
290
0
  9
$INSUNITS
 70
6
  9
$HYPERLINKBASE
  1

  9
$STYLESHEET
  1

  9
$XEDIT
290
1
  9
$CEPSNTYPE
380
0
  9
$PSTYLEMODE
290
1
  9
$FINGERPRINTGUID
  2
{29CE4F5E-7D68-47D1-88A3-3215EFC37098}
  9
$VERSIONGUID
  2
{AD0A117A-CD92-48EE-852D-DA483489E544}
  9
$EXTNAMES
290
1
  9
$PSVPSCALE
 40
0.0
  9
$OLESTARTUP
290
0
  9
$SORTENTS
280
127
  9
$INDEXCTL
280
0
  9
$HIDETEXT
280
1
  9
$XCLIPFRAME
280
1
  9
$HALOGAP
280
0
  9
$OBSCOLOR
 70
257
  9
$OBSLTYPE
280
0
  9
$INTERSECTIONDISPLAY
280
0
  9
$INTERSECTIONCOLOR
 70
257
  9
$DIMASSOC
280
2
  9
$PROJECTNAME
  1

  9
$CAMERADISPLAY
290
0
  9
$LENSLENGTH
 40
50.0
  9
$CAMERAHEIGHT
 40
0.0
  9
$STEPSPERSEC
 40
24.0
  9
$STEPSIZE
 40
100.0
  9
$3DDWFPREC
 40
2.0
  9
$PSOLWIDTH
 40
0.005
  9
$PSOLHEIGHT
 40
0.08
  9
$LOFTANG1
 40
1.570796326795
  9
$LOFTANG2
 40
1.570796326795
  9
$LOFTMAG1
 40
0.0
  9
$LOFTMAG2
 40
0.0
  9
$LOFTPARAM
 70
7
  9
$LOFTNORMALS
280
1
  9
$LATITUDE
 40
37.795
  9
$LONGITUDE
 40
-122.394
  9
$NORTHDIRECTION
 40
0.0
  9
$TIMEZONE
 70
-8000
  9
$LIGHTGLYPHDISPLAY
280
1
  9
$TILEMODELIGHTSYNCH
280
1
  9
$CMATERIAL
347
20
  9
$SOLIDHIST
280
0
  9
$SHOWHIST
280
1
  9
$DWFFRAME
280
2
  9
$DGNFRAME
280
2
  9
$REALWORLDSCALE
290
1
  9
$INTERFERECOLOR
 62
256
  9
$CSHADOW
280
0
  9
$SHADOWPLANELOCATION
 40
0.0
  0
ENDSEC
  0
SECTION
  2
CLASSES
  0
CLASS
  1
ACDBDICTIONARYWDFLT
  2
AcDbDictionaryWithDefault
  3
ObjectDBX Classes
 90
0
 91
0
280
0
281
0
  0
CLASS
  1
SUN
  2
AcDbSun
  3
SCENEOE
 90
1153
 91
0
280
0
281
0
  0
CLASS
  1
VISUALSTYLE
  2
AcDbVisualStyle
  3
ObjectDBX Classes
 90
4095
 91
0
280
0
281
0
  0
CLASS
  1
MATERIAL
  2
AcDbMaterial
  3
ObjectDBX Classes
 90
1153
 91
0
280
0
281
0
  0
CLASS
  1
SCALE
  2
AcDbScale
  3
ObjectDBX Classes
 90
1153
 91
0
280
0
281
0
  0
CLASS
  1
TABLESTYLE
  2
AcDbTableStyle
  3
ObjectDBX Classes
 90
4095
 91
0
280
0
281
0
  0
CLASS
  1
MLEADERSTYLE
  2
AcDbMLeaderStyle
  3
ACDB_MLEADERSTYLE_CLASS
 90
4095
 91
0
280
0
281
0
  0
CLASS
  1
DICTIONARYVAR
  2
AcDbDictionaryVar
  3
ObjectDBX Classes
 90
0
 91
0
280
0
281
0
  0
CLASS
  1
CELLSTYLEMAP
  2
AcDbCellStyleMap
  3
ObjectDBX Classes
 90
1152
 91
0
280
0
281
0
  0
CLASS
  1
MENTALRAYRENDERSETTINGS
  2
AcDbMentalRayRenderSettings
  3
SCENEOE
 90
1024
 91
0
280
0
281
0
  0
CLASS
  1
ACDBDETAILVIEWSTYLE
  2
AcDbDetailViewStyle
  3
ObjectDBX Classes
 90
1025
 91
0
280
0
281
0
  0
CLASS
  1
ACDBSECTIONVIEWSTYLE
  2
AcDbSectionViewStyle
  3
ObjectDBX Classes
 90
1025
 91
0
280
0
281
0
  0
CLASS
  1
RASTERVARIABLES
  2
AcDbRasterVariables
  3
ISM
 90
0
 91
0
280
0
281
0
  0
CLASS
  1
ACDBPLACEHOLDER
  2
AcDbPlaceHolder
  3
ObjectDBX Classes
 90
0
 91
0
280
0
281
0
  0
CLASS
  1
LAYOUT
  2
AcDbLayout
  3
ObjectDBX Classes
 90
0
 91
0
280
0
281
0
  0
ENDSEC
  0
SECTION
  2
TABLES
  0
TABLE
  2
VPORT
  5
8
330
0
100
AcDbSymbolTable
 70
1
  0
VPORT
  5
23
330
8
100
AcDbSymbolTableRecord
100
AcDbViewportTableRecord
  2
*Active
 70
0
 10
0.0
 20
0.0
 11
1.0
 21
1.0
 12
0.0
 22
0.0
 13
0.0
 23
0.0
 14
0.5
 24
0.5
 15
0.5
 25
0.5
 16
0.0
 26
0.0
 36
1.0
 17
0.0
 27
0.0
 37
0.0
 40
1000.0
 41
1.34
 42
50.0
 43
0.0
 44
0.0
 50
0.0
 51
0.0
 71
0
 72
1000
 73
1
 74
3
 75
0
 76
0
 77
0
 78
0
281
0
 65
0
146
0.0
  0
ENDTAB
  0
TABLE
  2
LTYPE
  5
2
330
0
100
AcDbSymbolTable
 70
3
  0
LTYPE
  5
24
330
2
100
AcDbSymbolTableRecord
100
AcDbLinetypeTableRecord
  2
ByBlock
 70
0
  3

 72
65
 73
0
 40
0.0
  0
LTYPE
  5
25
330
2
100
AcDbSymbolTableRecord
100
AcDbLinetypeTableRecord
  2
ByLayer
 70
0
  3

 72
65
 73
0
 40
0.0
  0
LTYPE
  5
26
330
2
100
AcDbSymbolTableRecord
100
AcDbLinetypeTableRecord
  2
Continuous
 70
0
  3

 72
65
 73
0
 40
0.0
  0
ENDTAB
  0
TABLE
  2
LAYER
  5
1
330
0
100
AcDbSymbolTable
 70
5
  0
LAYER
  5
27
330
1
100
AcDbSymbolTableRecord
100
AcDbLayerTableRecord
  2
0
 70
0
 62
7
  6
Continuous
370
-3
390
13
347
21
  0
LAYER
  5
28
330
1
100
AcDbSymbolTableRecord
100
AcDbLayerTableRecord
  2
Defpoints
 70
0
 62
7
  6
Continuous
290
0
370
-3
390
13
347
21
  0
LAYER
  5
2F
330
1
100
AcDbSymbolTableRecord
100
AcDbLayerTableRecord
  2
CONTOURS
 70
0
 62
7
  6
Continuous
370
-3
390
13
347
21
  0
LAYER
  5
30
330
1
100
AcDbSymbolTableRecord
100
AcDbLayerTableRecord
  2
DIMENSIONS
 70
0
 62
7
  6
Continuous
370
-3
390
13
347
21
  0
LAYER
  5
31
330
1
100
AcDbSymbolTableRecord
100
AcDbLayerTableRecord
  2
TEXT
 70
0
 62
7
  6
Continuous
370
-3
390
13
347
21
  0
ENDTAB
  0
TABLE
  2
STYLE
  5
5
330
0
100
AcDbSymbolTable
 70
1
  0
STYLE
  5
29
330
5
100
AcDbSymbolTableRecord
100
AcDbTextStyleTableRecord
  2
Standard
 70
0
 40
0.0
 41
1.0
 50
0.0
 71
0
 42
2.5
  3
txt
  4

  0
ENDTAB
  0
TABLE
  2
VIEW
  5
7
330
0
100
AcDbSymbolTable
 70
0
  0
ENDTAB
  0
TABLE
  2
UCS
  5
6
330
0
100
AcDbSymbolTable
 70
0
  0
ENDTAB
  0
TABLE
  2
APPID
  5
3
330
0
100
AcDbSymbolTable
 70
3
  0
APPID
  5
2A
330
3
100
AcDbSymbolTableRecord
100
AcDbRegAppTableRecord
  2
ACAD
 70
0
  0
APPID
  5
43
330
3
100
AcDbSymbolTableRecord
100
AcDbRegAppTableRecord
  2
HATCHBACKGROUNDCOLOR
 70
0
  0
APPID
  5
44
330
3
100
AcDbSymbolTableRecord
100
AcDbRegAppTableRecord
  2
EZDXF
 70
0
  0
ENDTAB
  0
TABLE
  2
DIMSTYLE
  5
4
330
0
100
AcDbSymbolTable
 70
1
100
AcDbDimStyleTable
  0
DIMSTYLE
105
2B
330
4
100
AcDbSymbolTableRecord
100
AcDbDimStyleTableRecord
  2
Standard
 70
0
 40
1.0
 41
2.5
 42
0.625
 43
3.75
 44
1.25
 45
0.0
 46
0.0
 47
0.0
 48
0.0
 49
2.5
140
2.5
141
2.5
142
0.0
143
0.03937007874
144
1.0
145
0.0
146
1.0
147
0.625
148
0.0
 69
0
 70
0
 71
0
 72
0
 73
0
 74
0
 75
0
 76
0
 77
1
 78
8
 79
3
170
0
171
3
172
1
173
0
174
0
175
0
176
0
177
0
178
0
179
2
271
2
272
2
273
2
274
3
275
0
276
0
277
2
278
44
279
0
280
0
281
0
282
0
283
0
284
8
285
0
286
0
288
0
289
3
290
0
371
-2
372
-2
  0
ENDTAB
  0
TABLE
  2
BLOCK_RECORD
  5
9
330
0
100
AcDbSymbolTable
 70
2
  0
BLOCK_RECORD
  5
17
330
9
100
AcDbSymbolTableRecord
100
AcDbBlockTableRecord
  2
*Model_Space
340
1A
 70
0
280
1
281
0
  0
BLOCK_RECORD
  5
1B
330
9
100
AcDbSymbolTableRecord
100
AcDbBlockTableRecord
  2
*Paper_Space
340
1E
 70
0
280
1
281
0
  0
ENDTAB
  0
ENDSEC
  0
SECTION
  2
BLOCKS
  0
BLOCK
  5
18
330
17
100
AcDbEntity
  8
0
100
AcDbBlockBegin
  2
*Model_Space
 70
0
 10
0.0
 20
0.0
 30
0.0
  3
*Model_Space
  1

  0
ENDBLK
  5
19
330
17
100
AcDbEntity
  8
0
100
AcDbBlockEnd
  0
BLOCK
  5
1C
330
1B
100
AcDbEntity
  8
0
100
AcDbBlockBegin
  2
*Paper_Space
 70
0
 10
0.0
 20
0.0
 30
0.0
  3
*Paper_Space
  1

  0
ENDBLK
  5
1D
330
1B
100
AcDbEntity
  8
0
100
AcDbBlockEnd
  0
ENDSEC
  0
SECTION
  2
ENTITIES
  0
TEXT
  5
32
330
17
100
AcDbEntity
  8
TEXT
100
AcDbText
 10
0.0
 20
10.0
 30
0.0
 40
5.0
  1
Real-World Dimensions: 540.0 mm (width) x 340.0 mm (length)
100
AcDbText
  0
LWPOLYLINE
  5
33
330
17
100
AcDbEntity
  8
CONTOURS
100
AcDbPolyline
 90
193
 70
1
 10
88.283378746594
 20
-273.6585365853659
 10
87.98910081743868
 20
-273.9547038327526
 10
87.10626702997274
 20
-273.9547038327526
 10
86.81198910081743
 20
-274.25087108013935
 10
86.2234332425068
 20
-274.25087108013935
 10
85.92915531335149
 20
-274.54703832752614
 10
85.63487738419617
 20
-274.54703832752614
 10
83.8692098092643
 20
-276.3240418118467
 10
83.57493188010899
 20
-276.3240418118467
 10
82.10354223433242
 20
-277.8048780487805
 10
82.10354223433242
 20
-278.10104529616723
 10
80.04359673024523
 20
-280.1742160278746
 10
80.04359673024523
 20
-280.4703832752613
 10
79.4550408719346
 20
-281.06271777003485
 10
79.4550408719346
 20
-281.3588850174216
 10
79.16076294277929
 20
-281.6550522648084
 10
79.16076294277929
 20
-281.9512195121951
 10
78.86648501362397
 20
-282.2473867595819
 10
78.86648501362397
 20
-282.54355400696863
 10
78.27792915531334
 20
-283.13588850174216
 10
78.27792915531334
 20
-283.4320557491289
 10
77.98365122615803
 20
-283.7282229965157
 10
66.50681198910081
 20
-283.7282229965157
 10
66.2125340599455
 20
-284.0243902439024
 10
65.91825613079018
 20
-284.0243902439024
 10
63.56403269754768
 20
-286.3937282229965
 10
63.26975476839237
 20
-286.3937282229965
 10
62.975476839237054
 20
-286.68989547038325
 10
34.13623978201635
 20
-286.68989547038325
 10
33.84196185286103
 20
-286.98606271777004
 10
32.95912806539509
 20
-286.98606271777004
 10
32.66485013623978
 20
-287.2822299651568
 10
32.370572207084464
 20
-287.2822299651568
 10
29.722070844686648
 20
-289.9477351916376
 10
29.722070844686648
 20
-290.2439024390244
 10
28.839237057220707
 20
-291.13240418118465
 10
28.839237057220707
 20
-291.42857142857144
 10
28.544959128065393
 20
-291.7247386759582
 10
28.544959128065393
 20
-292.02090592334497
 10
28.25068119891008
 20
-292.3170731707317
 10
28.25068119891008
 20
-292.6132404181185
 10
27.956403269754766
 20
-292.9094076655052
 10
27.956403269754766
 20
-293.50174216027875
 10
27.662125340599452
 20
-293.7979094076655
 10
27.662125340599452
 20
-294.390243902439
 10
27.36784741144414
 20
-294.6864111498258
 10
27.36784741144414
 20
-294.98257839721254
 10
27.073569482288825
 20
-295.2787456445993
 10
27.073569482288825
 20
-296.1672473867596
 10
26.779291553133515
 20
-296.4634146341463
 10
26.779291553133515
 20
-297.05574912891984
 10
26.4850136239782
 20
-297.35191637630663
 10
26.4850136239782
 20
-299.42508710801394
 10
26.190735694822887
 20
-299.7212543554007
 10
26.190735694822887
 20
-301.49825783972125
 10
26.4850136239782
 20
-301.79442508710804
 10
26.4850136239782
 20
-304.45993031358887
 10
26.779291553133515
 20
-304.7560975609756
 10
26.779291553133515
 20
-305.34843205574913
 10
27.073569482288825
 20
-305.64459930313586
 10
27.073569482288825
 20
-306.2369337979094
 10
27.36784741144414
 20
-306.5331010452962
 10
27.36784741144414
 20
-306.8292682926829
 10
27.662125340599452
 20
-307.1254355400697
 10
27.662125340599452
 20
-307.42160278745644
 10
29.427792915531334
 20
-309.198606271777
 10
30.604904632152586
 20
-309.198606271777
 10
30.8991825613079
 20
-309.49477351916374
 10
35.607629427792915
 20
-309.49477351916374
 10
35.90190735694823
 20
-309.79094076655053
 10
42.96457765667574
 20
-309.79094076655053
 10
43.25885558583106
 20
-310.08710801393727
 10
48.5558583106267
 20
-310.08710801393727
 10
48.85013623978201
 20
-310.38327526132406
 10
56.79564032697547
 20
-310.38327526132406
 10
57.08991825613079
 20
-310.6794425087108
 10
59.14986376021798
 20
-310.6794425087108
 10
59.444141689373296
 20
-310.9756097560976
 10
59.444141689373296
 20
-311.2717770034843
 10
60.03269754768392
 20
-311.86411149825784
 10
60.03269754768392
 20
-312.1602787456446
 10
61.7983651226158
 20
-313.93728222996515
 10
62.09264305177111
 20
-313.93728222996515
 10
62.386920980926426
 20
-314.23344947735194
 10
71.21525885558583
 20
-314.23344947735194
 10
71.50953678474114
 20
-314.5296167247387
 10
74.15803814713895
 20
-314.5296167247387
 10
74.45231607629427
 20
-314.82578397212546
 10
74.45231607629427
 20
-315.1219512195122
 10
74.74659400544958
 20
-315.41811846689893
 10
74.74659400544958
 20
-316.01045296167246
 10
75.0408719346049
 20
-316.30662020905925
 10
75.0408719346049
 20
-317.4912891986063
 10
75.33514986376021
 20
-317.78745644599303
 10
75.33514986376021
 20
-318.37979094076655
 10
75.62942779291552
 20
-318.6759581881533
 10
75.62942779291552
 20
-318.9721254355401
 10
75.92370572207084
 20
-319.2682926829268
 10
75.92370572207084
 20
-319.86062717770034
 10
76.21798365122615
 20
-320.1567944250871
 10
76.21798365122615
 20
-320.45296167247386
 10
76.51226158038146
 20
-320.74912891986065
 10
76.51226158038146
 20
-321.0452961672474
 10
76.80653950953678
 20
-321.3414634146341
 10
76.80653950953678
 20
-321.6376306620209
 10
77.3950953678474
 20
-322.22996515679444
 10
77.3950953678474
 20
-322.52613240418117
 10
79.16076294277929
 20
-324.30313588850174
 10
79.4550408719346
 20
-324.30313588850174
 10
79.74931880108991
 20
-324.5993031358885
 10
80.04359673024523
 20
-324.5993031358885
 10
80.33787465940054
 20
-324.89547038327527
 10
80.92643051771117
 20
-324.89547038327527
 10
81.22070844686648
 20
-325.191637630662
 10
85.63487738419617
 20
-325.191637630662
 10
85.92915531335149
 20
-325.4878048780488
 10
95.34604904632153
 20
-325.4878048780488
 10
95.64032697547684
 20
-325.7839721254355
 10
108.88283378746593
 20
-325.7839721254355
 10
109.17711171662124
 20
-326.0801393728223
 10
125.6566757493188
 20
-326.0801393728223
 10
125.95095367847411
 20
-326.37630662020905
 10
136.2506811989101
 20
-326.37630662020905
 10
136.5449591280654
 20
-326.67247386759584
 10
147.7275204359673
 20
-326.67247386759584
 10
148.0217983651226
 20
-326.9686411149826
 10
161.85286103542234
 20
-326.9686411149826
 10
162.14713896457764
 20
-327.26480836236937
 10
176.2724795640327
 20
-327.26480836236937
 10
176.566757493188
 20
-327.5609756097561
 10
190.10354223433242
 20
-327.5609756097561
 10
190.39782016348772
 20
-327.85714285714283
 10
204.22888283378745
 20
-327.85714285714283
 10
204.52316076294278
 20
-328.1533101045296
 10
216.88283378746593
 20
-328.1533101045296
 10
217.17711171662123
 20
-327.85714285714283
 10
217.76566757493185
 20
-327.85714285714283
 10
218.05994550408718
 20
-327.5609756097561
 10
218.35422343324248
 20
-327.5609756097561
 10
218.9427792915531
 20
-326.9686411149826
 10
219.23705722070844
 20
-326.9686411149826
 10
219.53133514986374
 20
-326.67247386759584
 10
219.82561307901906
 20
-326.67247386759584
 10
220.11989100817436
 20
-326.37630662020905
 10
220.11989100817436
 20
-326.0801393728223
 10
220.4141689373297
 20
-325.7839721254355
 10
220.4141689373297
 20
-325.4878048780488
 10
220.708446866485
 20
-325.191637630662
 10
220.708446866485
 20
-324.5993031358885
 10
221.00272479564032
 20
-324.30313588850174
 10
221.00272479564032
 20
-323.1184668989547
 10
221.29700272479562
 20
-322.82229965156796
 10
221.29700272479562
 20
-320.45296167247386
 10
221.59128065395095
 20
-320.1567944250871
 10
221.59128065395095
 20
-316.602787456446
 10
221.88555858310625
 20
-316.30662020905925
 10
221.88555858310625
 20
-311.2717770034843
 10
222.17983651226157
 20
-310.9756097560976
 10
222.17983651226157
 20
-303.86759581881535
 10
222.47411444141687
 20
-303.57142857142856
 10
222.47411444141687
 20
-292.9094076655052
 10
222.7683923705722
 20
-292.6132404181185
 10
222.7683923705722
 20
-288.7630662020906
 10
222.47411444141687
 20
-288.4668989547038
 10
222.47411444141687
 20
-283.7282229965157
 10
222.7683923705722
 20
-283.4320557491289
 10
222.47411444141687
 20
-283.13588850174216
 10
222.47411444141687
 20
-280.1742160278746
 10
222.17983651226157
 20
-279.8780487804878
 10
222.17983651226157
 20
-278.69337979094075
 10
221.88555858310625
 20
-278.397212543554
 10
221.88555858310625
 20
-277.8048780487805
 10
220.708446866485
 20
-276.62020905923345
 10
220.4141689373297
 20
-276.62020905923345
 10
220.11989100817436
 20
-276.3240418118467
 10
218.6485013623978
 20
-276.3240418118467
 10
218.35422343324248
 20
-276.0278745644599
 10
207.4659400544959
 20
-276.0278745644599
 10
207.1716621253406
 20
-275.7317073170732
 10
189.22070844686647
 20
-275.7317073170732
 10
188.92643051771117
 20
-275.4355400696864
 10
171.26975476839235
 20
-275.4355400696864
 10
170.97547683923705
 20
-275.13937282229966
 10
155.08446866485014
 20
-275.13937282229966
 10
154.7901907356948
 20
-274.8432055749129
 10
138.60490463215257
 20
-274.8432055749129
 10
138.31062670299727
 20
-274.54703832752614
 10
124.77384196185285
 20
-274.54703832752614
 10
124.47956403269754
 20
-274.25087108013935
 10
108.58855585831061
 20
-274.25087108013935
 10
108.2942779291553
 20
-273.9547038327526
 10
95.93460490463215
 20
-273.9547038327526
 10
95.64032697547684
 20
-273.6585365853659
  0
TEXT
  5
34
330
17
100
AcDbEntity
  8
TEXT
100
AcDbText
 10
135.95640326975476
 20
-300.609756097561
 30
0.0
 40
5.0
  1
Contour 1
100
AcDbText
  0
LWPOLYLINE
  5
35
330
17
100
AcDbEntity
  8
CONTOURS
100
AcDbPolyline
 90
105
 70
1
 10
421.4059945504087
 20
-148.37979094076655
 10
421.1117166212534
 20
-148.67595818815332
 10
421.1117166212534
 20
-150.45296167247386
 10
420.81743869209805
 20
-150.74912891986062
 10
420.81743869209805
 20
-151.6376306620209
 10
420.5231607629428
 20
-151.93379790940767
 10
420.5231607629428
 20
-153.41463414634146
 10
420.22888283378745
 20
-153.71080139372822
 10
420.22888283378745
 20
-154.00696864111498
 10
419.9346049046321
 20
-154.30313588850174
 10
419.9346049046321
 20
-154.89547038327527
 10
419.6403269754768
 20
-155.19163763066203
 10
419.6403269754768
 20
-155.78397212543555
 10
419.3460490463215
 20
-156.0801393728223
 10
419.3460490463215
 20
-156.37630662020905
 10
419.0517711171662
 20
-156.6724738675958
 10
419.0517711171662
 20
-157.5609756097561
 10
418.75749318801087
 20
-157.85714285714286
 10
418.75749318801087
 20
-159.04181184668988
 10
418.46321525885554
 20
-159.33797909407664
 10
418.46321525885554
 20
-160.81881533101046
 10
418.16893732970027
 20
-161.11498257839722
 10
418.16893732970027
 20
-162.595818815331
 10
417.87465940054494
 20
-162.89198606271776
 10
417.87465940054494
 20
-175.0348432055749
 10
417.5803814713896
 20
-175.33101045296166
 10
417.5803814713896
 20
-193.69337979094075
 10
417.2861035422343
 20
-193.98954703832752
 10
417.2861035422343
 20
-211.7595818815331
 10
416.991825613079
 20
-212.05574912891987
 10
416.991825613079
 20
-227.1602787456446
 10
416.6975476839237
 20
-227.45644599303137
 10
416.6975476839237
 20
-235.74912891986062
 10
416.40326975476836
 20
-236.0452961672474
 10
416.40326975476836
 20
-236.6376306620209
 10
416.10899182561303
 20
-236.93379790940767
 10
416.10899182561303
 20
-237.22996515679444
 10
416.40326975476836
 20
-237.5261324041812
 10
416.40326975476836
 20
-243.74564459930315
 10
416.10899182561303
 20
-244.04181184668988
 10
416.10899182561303
 20
-259.73867595818814
 10
415.81471389645776
 20
-260.03484320557493
 10
415.81471389645776
 20
-261.5156794425087
 10
415.52043596730243
 20
-261.81184668989545
 10
415.52043596730243
 20
-264.47735191637634
 10
415.81471389645776
 20
-264.77351916376307
 10
415.81471389645776
 20
-273.6585365853659
 10
415.52043596730243
 20
-273.9547038327526
 10
415.52043596730243
 20
-279.2857142857143
 10
415.2261580381471
 20
-279.58188153310107
 10
415.2261580381471
 20
-291.42857142857144
 10
415.81471389645776
 20
-292.02090592334497
 10
415.81471389645776
 20
-292.6132404181185
 10
416.40326975476836
 20
-293.20557491289196
 10
416.6975476839237
 20
-293.20557491289196
 10
416.991825613079
 20
-293.50174216027875
 10
417.5803814713896
 20
-293.50174216027875
 10
418.16893732970027
 20
-294.0940766550523
 10
419.3460490463215
 20
-294.0940766550523
 10
419.6403269754768
 20
-294.390243902439
 10
420.5231607629428
 20
-294.390243902439
 10
420.81743869209805
 20
-294.0940766550523
 10
421.700272479564
 20
-294.0940766550523
 10
423.7602179836512
 20
-292.02090592334497
 10
423.7602179836512
 20
-285.50522648083626
 10
423.4659400544959
 20
-285.20905923344947
 10
423.4659400544959
 20
-279.8780487804878
 10
423.17166212534056
 20
-279.58188153310107
 10
423.17166212534056
 20
-276.62020905923345
 10
423.4659400544959
 20
-276.3240418118467
 10
423.4659400544959
 20
-266.8466898954704
 10
423.7602179836512
 20
-266.55052264808364
 10
423.7602179836512
 20
-255.59233449477352
 10
424.0544959128065
 20
-255.29616724738676
 10
424.0544959128065
 20
-242.85714285714286
 10
424.3487738419618
 20
-242.5609756097561
 10
424.3487738419618
 20
-230.1219512195122
 10
424.64305177111714
 20
-229.82578397212544
 10
424.64305177111714
 20
-211.7595818815331
 10
424.93732970027247
 20
-211.46341463414635
 10
424.93732970027247
 20
-194.28571428571428
 10
425.23160762942774
 20
-193.98954703832752
 10
425.23160762942774
 20
-175.62717770034843
 10
425.52588555858307
 20
-175.33101045296166
 10
425.52588555858307
 20
-161.41114982578398
 10
425.23160762942774
 20
-161.11498257839722
 10
425.23160762942774
 20
-159.33797909407664
 10
424.93732970027247
 20
-159.04181184668988
 10
424.93732970027247
 20
-156.96864111498257
 10
424.64305177111714
 20
-156.6724738675958
 10
424.64305177111714
 20
-155.4878048780488
 10
424.3487738419618
 20
-155.19163763066203
 10
424.3487738419618
 20
-154.5993031358885
 10
424.0544959128065
 20
-154.30313588850174
 10
424.0544959128065
 20
-153.71080139372822
 10
423.7602179836512
 20
-153.41463414634146
 10
423.7602179836512
 20
-153.1184668989547
 10
423.4659400544959
 20
-152.82229965156793
 10
423.4659400544959
 20
-152.5261324041812
 10
423.17166212534056
 20
-152.22996515679444
 10
423.17166212534056
 20
-151.6376306620209
 10
422.87738419618523
 20
-151.34146341463415
 10
422.87738419618523
 20
-149.86062717770034
 10
422.58310626702996
 20
-149.56445993031357
 10
422.58310626702996
 20
-148.37979094076655
  0
TEXT
  5
36
330
17
100
AcDbEntity
  8
TEXT
100
AcDbText
 10
420.5231607629428
 20
-224.49477351916377
 30
0.0
 40
5.0
  1
Contour 2
100
AcDbText
  0
LWPOLYLINE
  5
37
330
17
100
AcDbEntity
  8
CONTOURS
100
AcDbPolyline
 90
226
 70
1
 10
365.78746594005446
 20
-132.6829268292683
 10
365.49318801089913
 20
-132.97909407665506
 10
361.6675749318801
 20
-132.97909407665506
 10
361.37329700272477
 20
-133.27526132404182
 10
358.13623978201633
 20
-133.27526132404182
 10
357.841961852861
 20
-133.57142857142858
 10
356.07629427792915
 20
-133.57142857142858
 10
355.7820163487738
 20
-133.86759581881532
 10
354.0163487738419
 20
-133.86759581881532
 10
353.72207084468664
 20
-134.16376306620208
 10
351.95640326975473
 20
-134.16376306620208
 10
351.66212534059946
 20
-134.45993031358884
 10
349.89645776566755
 20
-134.45993031358884
 10
349.6021798365122
 20
-134.7560975609756
 10
347.83651226158037
 20
-134.7560975609756
 10
347.54223433242504
 20
-135.05226480836237
 10
346.07084468664846
 20
-135.05226480836237
 10
345.7765667574932
 20
-135.34843205574913
 10
344.3051771117166
 20
-135.34843205574913
 10
344.0108991825613
 20
-135.6445993031359
 10
343.12806539509535
 20
-135.6445993031359
 10
342.83378746594
 20
-135.94076655052265
 10
342.2452316076294
 20
-135.94076655052265
 10
341.65667574931877
 20
-136.53310104529618
 10
341.3623978201635
 20
-136.53310104529618
 10
341.3623978201635
 20
-137.12543554006967
 10
341.06811989100817
 20
-137.42160278745644
 10
341.06811989100817
 20
-140.0871080139373
 10
341.3623978201635
 20
-140.38327526132403
 10
341.3623978201635
 20
-140.6794425087108
 10
341.65667574931877
 20
-140.6794425087108
 10
341.9509536784741
 20
-140.97560975609755
 10
343.71662125340595
 20
-140.97560975609755
 10
344.0108991825613
 20
-141.27177700348432
 10
346.07084468664846
 20
-141.27177700348432
 10
346.3651226158038
 20
-141.56794425087108
 10
346.6594005449591
 20
-141.27177700348432
 10
346.95367847411444
 20
-141.27177700348432
 10
347.83651226158037
 20
-140.38327526132403
 10
351.36784741144413
 20
-140.38327526132403
 10
351.66212534059946
 20
-140.6794425087108
 10
351.66212534059946
 20
-143.0487804878049
 10
350.7792915531335
 20
-143.93728222996515
 10
350.7792915531335
 20
-144.2334494773519
 10
348.7193460490463
 20
-146.30662020905925
 10
348.7193460490463
 20
-146.60278745644598
 10
347.83651226158037
 20
-147.49128919860627
 10
347.83651226158037
 20
-147.78745644599303
 10
346.6594005449591
 20
-148.97212543554008
 10
346.6594005449591
 20
-149.26829268292684
 10
345.7765667574932
 20
-150.1567944250871
 10
345.7765667574932
 20
-150.45296167247386
 10
344.8937329700272
 20
-151.34146341463415
 10
344.8937329700272
 20
-151.6376306620209
 10
344.3051771117166
 20
-152.22996515679444
 10
344.3051771117166
 20
-152.5261324041812
 10
343.12806539509535
 20
-153.71080139372822
 10
343.12806539509535
 20
-154.00696864111498
 10
342.5395095367847
 20
-154.5993031358885
 10
342.5395095367847
 20
-154.89547038327527
 10
341.65667574931877
 20
-155.78397212543555
 10
341.65667574931877
 20
-156.0801393728223
 10
340.77384196185284
 20
-156.96864111498257
 10
340.77384196185284
 20
-159.04181184668988
 10
340.4795640326975
 20
-159.33797909407664
 10
340.4795640326975
 20
-163.78048780487805
 10
340.18528610354224
 20
-164.0766550522648
 10
340.18528610354224
 20
-164.66898954703834
 10
339.8910081743869
 20
-164.9651567944251
 10
339.8910081743869
 20
-165.5574912891986
 10
339.5967302452316
 20
-165.85365853658536
 10
339.5967302452316
 20
-166.74216027874564
 10
339.30245231607626
 20
-167.0383275261324
 10
339.30245231607626
 20
-168.81533101045295
 10
339.008174386921
 20
-169.1114982578397
 10
339.008174386921
 20
-170.59233449477352
 10
338.71389645776566
 20
-170.8885017421603
 10
338.71389645776566
 20
-173.25783972125436
 10
339.008174386921
 20
-173.55400696864112
 10
339.008174386921
 20
-176.81184668989548
 10
338.71389645776566
 20
-177.10801393728224
 10
338.71389645776566
 20
-178.29268292682926
 10
338.41961852861033
 20
-178.58885017421602
 10
337.5367847411444
 20
-178.58885017421602
 10
337.5367847411444
 20
-179.77351916376307
 10
337.2425068119891
 20
-180.06968641114983
 10
337.2425068119891
 20
-181.55052264808361
 10
336.94822888283375
 20
-181.84668989547038
 10
336.94822888283375
 20
-182.73519163763066
 10
336.6539509536785
 20
-183.03135888501743
 10
336.6539509536785
 20
-185.10452961672473
 10
336.35967302452315
 20
-185.4006968641115
 10
336.35967302452315
 20
-188.3623693379791
 10
336.6539509536785
 20
-188.3623693379791
 10
336.94822888283375
 20
-188.65853658536585
 10
336.94822888283375
 20
-189.25087108013938
 10
337.2425068119891
 20
-189.54703832752614
 10
337.2425068119891
 20
-192.21254355400697
 10
336.94822888283375
 20
-192.50871080139373
 10
336.94822888283375
 20
-212.94425087108013
 10
336.6539509536785
 20
-213.2404181184669
 10
336.6539509536785
 20
-220.94076655052265
 10
336.35967302452315
 20
-221.23693379790942
 10
336.35967302452315
 20
-229.82578397212544
 10
336.0653950953678
 20
-230.1219512195122
 10
336.0653950953678
 20
-237.82229965156793
 10
335.7711171662125
 20
-238.1184668989547
 10
335.7711171662125
 20
-252.9268292682927
 10
335.4768392370572
 20
-253.22299651567945
 10
334.59400544959124
 20
-253.22299651567945
 10
334.59400544959124
 20
-259.1463414634146
 10
334.29972752043597
 20
-259.4425087108014
 10
334.29972752043597
 20
-265.6620209059233
 10
334.00544959128064
 20
-265.9581881533101
 10
334.00544959128064
 20
-274.8432055749129
 10
333.7111716621253
 20
-275.13937282229966
 10
333.7111716621253
 20
-280.4703832752613
 10
333.41689373297
 20
-280.76655052264806
 10
333.41689373297
 20
-281.6550522648084
 10
333.1226158038147
 20
-281.9512195121951
 10
333.1226158038147
 20
-283.13588850174216
 10
332.8283378746594
 20
-283.4320557491289
 10
332.8283378746594
 20
-284.0243902439024
 10
332.53405994550405
 20
-284.3205574912892
 10
332.53405994550405
 20
-289.05923344947735
 10
333.1226158038147
 20
-289.05923344947735
 10
333.41689373297
 20
-289.35540069686414
 10
340.18528610354224
 20
-289.35540069686414
 10
340.4795640326975
 20
-289.05923344947735
 10
351.0735694822888
 20
-289.05923344947735
 10
351.36784741144413
 20
-288.7630662020906
 10
361.9618528610354
 20
-288.7630662020906
 10
362.2561307901907
 20
-288.4668989547038
 10
374.6158038147139
 20
-288.4668989547038
 10
374.91008174386917
 20
-288.1707317073171
 10
384.91553133514986
 20
-288.1707317073171
 10
385.20980926430514
 20
-287.8745644599303
 10
393.1553133514986
 20
-287.8745644599303
 10
393.4495912806539
 20
-287.57839721254356
 10
393.74386920980925
 20
-287.57839721254356
 10
393.74386920980925
 20
-282.54355400696863
 10
393.4495912806539
 20
-282.2473867595819
 10
393.4495912806539
 20
-281.6550522648084
 10
393.1553133514986
 20
-281.3588850174216
 10
393.1553133514986
 20
-280.4703832752613
 10
392.8610354223433
 20
-280.1742160278746
 10
392.8610354223433
 20
-276.91637630662024
 10
392.566757493188
 20
-276.62020905923345
 10
392.566757493188
 20
-270.993031358885
 10
392.27247956403266
 20
-270.69686411149826
 10
392.27247956403266
 20
-265.3658536585366
 10
391.97820163487734
 20
-265.0696864111498
 10
391.97820163487734
 20
-254.70383275261324
 10
391.68392370572207
 20
-254.40766550522648
 10
391.68392370572207
 20
-244.33797909407664
 10
391.38964577656674
 20
-244.04181184668988
 10
391.38964577656674
 20
-233.37979094076655
 10
391.0953678474114
 20
-233.0836236933798
 10
391.0953678474114
 20
-220.05226480836237
 10
390.8010899182561
 20
-219.7560975609756
 10
390.8010899182561
 20
-212.94425087108013
 10
390.5068119891008
 20
-212.64808362369337
 10
390.5068119891008
 20
-207.90940766550523
 10
390.2125340599455
 20
-207.61324041811847
 10
390.2125340599455
 20
-204.3554006968641
 10
389.91825613079016
 20
-204.05923344947735
 10
389.91825613079016
 20
-201.09756097560975
 10
389.6239782016348
 20
-200.801393728223
 10
389.6239782016348
 20
-198.43205574912892
 10
389.32970027247956
 20
-198.13588850174216
 10
389.32970027247956
 20
-195.47038327526133
 10
389.0354223433242
 20
-195.17421602787456
 10
389.0354223433242
 20
-193.10104529616726
 10
388.7411444141689
 20
-192.8048780487805
 10
388.7411444141689
 20
-190.73170731707316
 10
388.4468664850136
 20
-190.43554006968643
 10
388.4468664850136
 20
-188.3623693379791
 10
388.1525885558583
 20
-188.06620209059233
 10
388.1525885558583
 20
-185.69686411149826
 10
387.858310626703
 20
-185.4006968641115
 10
387.858310626703
 20
-182.14285714285714
 10
387.56403269754765
 20
-181.84668989547038
 10
387.56403269754765
 20
-179.18118466898954
 10
387.2697547683924
 20
-178.88501742160278
 10
387.2697547683924
 20
-176.81184668989548
 10
386.97547683923705
 20
-176.5156794425087
 10
386.97547683923705
 20
-174.73867595818817
 10
386.6811989100817
 20
-174.4425087108014
 10
386.6811989100817
 20
-172.9616724738676
 10
386.3869209809264
 20
-172.66550522648083
 10
386.3869209809264
 20
-170.29616724738676
 10
386.0926430517711
 20
-170.0
 10
386.0926430517711
 20
-167.63066202090593
 10
385.7983651226158
 20
-167.33449477351917
 10
385.7983651226158
 20
-164.9651567944251
 10
385.50408719346046
 20
-164.66898954703834
 10
385.50408719346046
 20
-162.89198606271776
 10
385.20980926430514
 20
-162.595818815331
 10
385.20980926430514
 20
-161.11498257839722
 10
384.91553133514986
 20
-160.81881533101046
 10
384.91553133514986
 20
-159.93031358885017
 10
384.62125340599454
 20
-159.6341463414634
 10
384.62125340599454
 20
-153.41463414634146
 10
384.3269754768392
 20
-153.1184668989547
 10
384.3269754768392
 20
-151.34146341463415
 10
384.0326975476839
 20
-151.0452961672474
 10
384.0326975476839
 20
-149.26829268292684
 10
383.7384196185286
 20
-148.97212543554008
 10
383.7384196185286
 20
-147.1951219512195
 10
383.4441416893733
 20
-146.89895470383274
 10
383.4441416893733
 20
-144.82578397212544
 10
383.14986376021795
 20
-144.52961672473867
 10
383.14986376021795
 20
-142.1602787456446
 10
382.8555858310626
 20
-141.86411149825784
 10
382.8555858310626
 20
-139.49477351916377
 10
383.14986376021795
 20
-139.198606271777
 10
383.14986376021795
 20
-138.31010452961672
 10
383.4441416893733
 20
-138.01393728222996
 10
383.4441416893733
 20
-137.7177700348432
 10
382.8555858310626
 20
-137.12543554006967
 10
382.56130790190736
 20
-137.12543554006967
 10
378.73569482288826
 20
-133.27526132404182
 10
378.44141689373294
 20
-133.27526132404182
 10
378.1471389645776
 20
-132.97909407665506
 10
377.2643051771117
 20
-132.97909407665506
 10
376.97002724795635
 20
-132.6829268292683
  0
TEXT
  5
38
330
17
100
AcDbEntity
  8
TEXT
100
AcDbText
 10
363.1389645776567
 20
-216.49825783972125
 30
0.0
 40
5.0
  1
Contour 3
100
AcDbText
  0
LWPOLYLINE
  5
39
330
17
100
AcDbEntity
  8
CONTOURS
100
AcDbPolyline
 90
110
 70
1
 10
35.01907356948229
 20
-98.9198606271777
 10
34.724795640326974
 20
-99.21602787456446
 10
33.84196185286103
 20
-99.21602787456446
 10
33.54768392370572
 20
-99.51219512195122
 10
32.66485013623978
 20
-99.51219512195122
 10
32.370572207084464
 20
-99.80836236933798
 10
31.78201634877384
 20
-99.80836236933798
 10
31.487738419618527
 20
-100.10452961672473
 10
31.193460490463213
 20
-100.10452961672473
 10
30.8991825613079
 20
-100.4006968641115
 10
30.604904632152586
 20
-100.4006968641115
 10
30.310626702997272
 20
-100.69686411149826
 10
30.01634877384196
 20
-100.69686411149826
 10
29.427792915531334
 20
-101.28919860627178
 10
29.13351498637602
 20
-101.28919860627178
 10
28.544959128065393
 20
-101.88153310104529
 10
28.25068119891008
 20
-101.88153310104529
 10
26.190735694822887
 20
-103.95470383275261
 10
25.896457765667574
 20
-103.95470383275261
 10
25.307901907356946
 20
-104.54703832752614
 10
25.307901907356946
 20
-106.02787456445994
 10
25.013623978201633
 20
-106.32404181184668
 10
25.013623978201633
 20
-106.62020905923345
 10
24.71934604904632
 20
-106.91637630662021
 10
24.71934604904632
 20
-107.50871080139373
 10
24.425068119891005
 20
-107.8048780487805
 10
24.425068119891005
 20
-108.69337979094077
 10
24.130790190735695
 20
-108.98954703832753
 10
24.130790190735695
 20
-113.72822299651568
 10
24.425068119891005
 20
-114.02439024390245
 10
24.425068119891005
 20
-114.91289198606272
 10
24.71934604904632
 20
-115.20905923344948
 10
24.71934604904632
 20
-115.80139372822299
 10
25.013623978201633
 20
-116.09756097560975
 10
25.013623978201633
 20
-116.39372822299651
 10
25.307901907356946
 20
-116.68989547038328
 10
25.307901907356946
 20
-117.2822299651568
 10
25.896457765667574
 20
-117.87456445993031
 10
25.896457765667574
 20
-118.17073170731707
 10
26.4850136239782
 20
-118.7630662020906
 10
26.4850136239782
 20
-119.05923344947735
 10
29.427792915531334
 20
-122.02090592334494
 10
29.722070844686648
 20
-122.02090592334494
 10
30.01634877384196
 20
-122.3170731707317
 10
30.310626702997272
 20
-122.3170731707317
 10
30.8991825613079
 20
-122.90940766550523
 10
31.193460490463213
 20
-122.90940766550523
 10
31.487738419618527
 20
-123.20557491289199
 10
32.07629427792915
 20
-123.20557491289199
 10
32.66485013623978
 20
-123.7979094076655
 10
33.54768392370572
 20
-123.7979094076655
 10
33.84196185286103
 20
-124.09407665505226
 10
34.43051771117166
 20
-124.09407665505226
 10
34.724795640326974
 20
-124.39024390243902
 10
35.90190735694823
 20
-124.39024390243902
 10
36.19618528610354
 20
-124.68641114982579
 10
40.904632152588555
 20
-124.68641114982579
 10
41.19891008174387
 20
-124.39024390243902
 10
42.08174386920981
 20
-124.39024390243902
 10
42.37602179836512
 20
-124.09407665505226
 10
42.96457765667574
 20
-124.09407665505226
 10
43.25885558583106
 20
-123.7979094076655
 10
43.55313351498637
 20
-123.7979094076655
 10
43.847411444141684
 20
-123.50174216027875
 10
44.141689373297
 20
-123.50174216027875
 10
44.43596730245231
 20
-123.20557491289199
 10
45.02452316076294
 20
-123.20557491289199
 10
45.31880108991825
 20
-122.90940766550523
 10
45.61307901907357
 20
-122.90940766550523
 10
45.90735694822888
 20
-122.61324041811847
 10
46.201634877384194
 20
-122.61324041811847
 10
49.73297002724795
 20
-119.05923344947735
 10
49.73297002724795
 20
-117.57839721254355
 10
50.32152588555858
 20
-116.98606271777004
 10
50.32152588555858
 20
-116.68989547038328
 10
50.61580381471389
 20
-116.39372822299651
 10
50.61580381471389
 20
-114.61672473867596
 10
50.910081743869206
 20
-114.3205574912892
 10
50.910081743869206
 20
-109.8780487804878
 10
50.61580381471389
 20
-109.58188153310104
 10
50.61580381471389
 20
-108.98954703832753
 10
50.32152588555858
 20
-108.69337979094077
 10
50.32152588555858
 20
-108.10104529616724
 10
50.027247956403265
 20
-107.8048780487805
 10
50.027247956403265
 20
-107.21254355400697
 10
49.73297002724795
 20
-106.91637630662021
 10
49.73297002724795
 20
-106.62020905923345
 10
49.43869209809264
 20
-106.32404181184668
 10
49.43869209809264
 20
-106.02787456445994
 10
48.85013623978201
 20
-105.43554006968641
 10
48.85013623978201
 20
-105.13937282229965
 10
48.26158038147139
 20
-104.54703832752614
 10
48.26158038147139
 20
-104.25087108013938
 10
46.201634877384194
 20
-102.17770034843205
 10
45.90735694822888
 20
-102.17770034843205
 10
44.730245231607626
 20
-100.99303135888502
 10
44.43596730245231
 20
-100.99303135888502
 10
44.141689373297
 20
-100.69686411149826
 10
43.847411444141684
 20
-100.69686411149826
 10
43.55313351498637
 20
-100.4006968641115
 10
43.25885558583106
 20
-100.4006968641115
 10
42.96457765667574
 20
-100.10452961672473
 10
42.67029972752044
 20
-100.10452961672473
 10
42.37602179836512
 20
-99.80836236933798
 10
41.787465940054496
 20
-99.80836236933798
 10
41.49318801089918
 20
-99.51219512195122
 10
40.904632152588555
 20
-99.51219512195122
 10
40.61035422343324
 20
-99.21602787456446
 10
39.433242506811986
 20
-99.21602787456446
 10
39.13896457765667
 20
-98.9198606271777
  0
TEXT
  5
3A
330
17
100
AcDbEntity
  8
TEXT
100
AcDbText
 10
37.37329700272479
 20
-111.65505226480836
 30
0.0
 40
5.0
  1
Contour 4
100
AcDbText
  0
LWPOLYLINE
  5
3B
330
17
100
AcDbEntity
  8
CONTOURS
100
AcDbPolyline
 90
656
 70
1
 10
174.8010899182561
 20
-48.86759581881533
 10
174.5068119891008
 20
-49.163763066202094
 10
172.1525885558583
 20
-49.163763066202094
 10
171.85831062670297
 20
-49.45993031358885
 10
169.5040871934605
 20
-49.45993031358885
 10
169.20980926430516
 20
-49.75609756097561
 10
167.14986376021798
 20
-49.75609756097561
 10
166.85558583106265
 20
-50.05226480836237
 10
164.79564032697547
 20
-50.05226480836237
 10
164.50136239782015
 20
-50.34843205574913
 10
162.14713896457764
 20
-50.34843205574913
 10
161.85286103542234
 20
-50.64459930313589
 10
160.08719346049045
 20
-50.64459930313589
 10
159.79291553133513
 20
-50.940766550522646
 10
158.02724795640327
 20
-50.940766550522646
 10
157.73297002724794
 20
-51.23693379790941
 10
155.96730245231606
 20
-51.23693379790941
 10
155.67302452316076
 20
-51.53310104529617
 10
153.90735694822888
 20
-51.53310104529617
 10
153.61307901907355
 20
-51.829268292682926
 10
151.84741144414167
 20
-51.829268292682926
 10
151.55313351498637
 20
-52.12543554006969
 10
150.0817438692098
 20
-52.12543554006969
 10
149.7874659400545
 20
-52.42160278745644
 10
149.19891008174386
 20
-52.42160278745644
 10
148.90463215258853
 20
-52.717770034843205
 10
148.90463215258853
 20
-54.79094076655052
 10
149.49318801089916
 20
-55.383275261324044
 10
150.67029972752042
 20
-55.383275261324044
 10
150.96457765667574
 20
-55.6794425087108
 10
153.31880108991825
 20
-55.6794425087108
 10
153.61307901907355
 20
-55.97560975609756
 10
156.5558583106267
 20
-55.97560975609756
 10
156.85013623978202
 20
-56.271777003484324
 10
159.49863760217983
 20
-56.271777003484324
 10
159.79291553133513
 20
-56.56794425087108
 10
162.73569482288826
 20
-56.56794425087108
 10
163.0299727520436
 20
-56.86411149825784
 10
165.6784741144414
 20
-56.86411149825784
 10
165.97275204359673
 20
-57.1602787456446
 10
165.97275204359673
 20
-59.52961672473867
 10
165.6784741144414
 20
-59.825783972125436
 10
162.44141689373296
 20
-59.825783972125436
 10
162.14713896457764
 20
-60.1219512195122
 10
157.14441416893732
 20
-60.1219512195122
 10
156.85013623978202
 20
-60.41811846689895
 10
152.73024523160763
 20
-60.41811846689895
 10
152.4359673024523
 20
-60.714285714285715
 10
150.0817438692098
 20
-60.714285714285715
 10
149.7874659400545
 20
-61.01045296167247
 10
149.49318801089916
 20
-61.01045296167247
 10
149.19891008174386
 20
-61.30662020905923
 10
149.19891008174386
 20
-62.491289198606275
 10
149.7874659400545
 20
-63.08362369337979
 10
150.37602179836512
 20
-63.08362369337979
 10
150.67029972752042
 20
-63.37979094076655
 10
153.61307901907355
 20
-63.37979094076655
 10
153.90735694822888
 20
-63.67595818815331
 10
156.85013623978202
 20
-63.67595818815331
 10
157.14441416893732
 20
-63.97212543554007
 10
160.67574931880108
 20
-63.97212543554007
 10
160.97002724795638
 20
-64.26829268292683
 10
164.50136239782015
 20
-64.26829268292683
 10
164.79564032697547
 20
-64.56445993031359
 10
164.79564032697547
 20
-66.93379790940766
 10
164.20708446866485
 20
-67.52613240418118
 10
159.79291553133513
 20
-67.52613240418118
 10
159.49863760217983
 20
-67.82229965156795
 10
154.7901907356948
 20
-67.82229965156795
 10
154.4959128065395
 20
-68.11846689895471
 10
151.25885558583104
 20
-68.11846689895471
 10
150.96457765667574
 20
-68.41463414634147
 10
150.0817438692098
 20
-68.41463414634147
 10
149.7874659400545
 20
-68.71080139372822
 10
149.7874659400545
 20
-69.89547038327527
 10
150.0817438692098
 20
-70.19163763066202
 10
150.0817438692098
 20
-70.48780487804878
 10
150.67029972752042
 20
-70.48780487804878
 10
150.96457765667574
 20
-70.78397212543554
 10
153.02452316076293
 20
-70.78397212543554
 10
153.31880108991825
 20
-71.0801393728223
 10
156.2615803814714
 20
-71.0801393728223
 10
156.5558583106267
 20
-71.37630662020906
 10
160.67574931880108
 20
-71.37630662020906
 10
160.97002724795638
 20
-71.67247386759581
 10
164.50136239782015
 20
-71.67247386759581
 10
164.79564032697547
 20
-71.96864111498257
 10
166.26702997275203
 20
-71.96864111498257
 10
166.56130790190736
 20
-72.26480836236934
 10
166.56130790190736
 20
-74.63414634146342
 10
166.26702997275203
 20
-74.93031358885017
 10
161.2643051771117
 20
-74.93031358885017
 10
160.97002724795638
 20
-75.22648083623693
 10
157.14441416893732
 20
-75.22648083623693
 10
156.85013623978202
 20
-75.5226480836237
 10
153.31880108991825
 20
-75.5226480836237
 10
153.02452316076293
 20
-75.81881533101046
 10
150.67029972752042
 20
-75.81881533101046
 10
150.37602179836512
 20
-76.11498257839722
 10
150.37602179836512
 20
-76.70731707317073
 10
150.0817438692098
 20
-77.00348432055749
 10
150.37602179836512
 20
-77.29965156794425
 10
150.37602179836512
 20
-77.59581881533101
 10
150.96457765667574
 20
-78.18815331010452
 10
152.4359673024523
 20
-78.18815331010452
 10
152.73024523160763
 20
-78.48432055749129
 10
156.2615803814714
 20
-78.48432055749129
 10
156.5558583106267
 20
-78.78048780487805
 10
160.67574931880108
 20
-78.78048780487805
 10
160.97002724795638
 20
-79.07665505226481
 10
165.3841961852861
 20
-79.07665505226481
 10
165.6784741144414
 20
-79.37282229965157
 10
167.44414168937328
 20
-79.37282229965157
 10
167.7384196185286
 20
-79.66898954703832
 10
167.7384196185286
 20
-82.0383275261324
 10
167.44414168937328
 20
-82.33449477351917
 10
163.0299727520436
 20
-82.33449477351917
 10
162.73569482288826
 20
-82.63066202090593
 10
158.6158038147139
 20
-82.63066202090593
 10
158.32152588555857
 20
-82.92682926829268
 10
154.20163487738418
 20
-82.92682926829268
 10
153.90735694822888
 20
-83.22299651567944
 10
151.55313351498637
 20
-83.22299651567944
 10
151.25885558583104
 20
-83.5191637630662
 10
150.67029972752042
 20
-83.5191637630662
 10
150.67029972752042
 20
-85.0
 10
151.25885558583104
 20
-85.59233449477352
 10
152.141689373297
 20
-85.59233449477352
 10
152.4359673024523
 20
-85.88850174216027
 10
156.5558583106267
 20
-85.88850174216027
 10
156.85013623978202
 20
-86.18466898954703
 10
160.97002724795638
 20
-86.18466898954703
 10
161.2643051771117
 20
-86.4808362369338
 10
165.97275204359673
 20
-86.4808362369338
 10
166.26702997275203
 20
-86.77700348432056
 10
168.32697547683924
 20
-86.77700348432056
 10
168.62125340599454
 20
-87.07317073170732
 10
168.62125340599454
 20
-89.44250871080139
 10
168.32697547683924
 20
-89.73867595818815
 10
163.61852861035422
 20
-89.73867595818815
 10
163.3242506811989
 20
-90.03484320557492
 10
158.9100817438692
 20
-90.03484320557492
 10
158.6158038147139
 20
-90.33101045296168
 10
155.08446866485014
 20
-90.33101045296168
 10
154.7901907356948
 20
-90.62717770034843
 10
151.84741144414167
 20
-90.62717770034843
 10
151.55313351498637
 20
-90.92334494773519
 10
150.96457765667574
 20
-90.92334494773519
 10
150.96457765667574
 20
-91.51567944250871
 10
150.67029972752042
 20
-91.81184668989548
 10
150.96457765667574
 20
-92.10801393728222
 10
150.96457765667574
 20
-92.70034843205575
 10
151.25885558583104
 20
-92.99651567944251
 10
152.141689373297
 20
-92.99651567944251
 10
152.4359673024523
 20
-93.29268292682927
 10
156.85013623978202
 20
-93.29268292682927
 10
157.14441416893732
 20
-93.58885017421603
 10
161.2643051771117
 20
-93.58885017421603
 10
161.558583106267
 20
-93.88501742160278
 10
166.26702997275203
 20
-93.88501742160278
 10
166.56130790190736
 20
-94.18118466898954
 10
169.5040871934605
 20
-94.18118466898954
 10
169.7983651226158
 20
-94.4773519163763
 10
169.7983651226158
 20
-96.84668989547038
 10
169.5040871934605
 20
-97.14285714285714
 10
164.50136239782015
 20
-97.14285714285714
 10
164.20708446866485
 20
-97.4390243902439
 10
159.49863760217983
 20
-97.4390243902439
 10
159.20435967302453
 20
-97.73519163763066
 10
155.37874659400543
 20
-97.73519163763066
 10
155.08446866485014
 20
-98.03135888501743
 10
152.141689373297
 20
-98.03135888501743
 10
151.84741144414167
 20
-98.32752613240419
 10
151.25885558583104
 20
-98.32752613240419
 10
150.96457765667574
 20
-98.62369337979094
 10
150.96457765667574
 20
-98.9198606271777
 10
150.67029972752042
 20
-99.21602787456446
 10
150.96457765667574
 20
-99.51219512195122
 10
150.96457765667574
 20
-99.80836236933798
 10
151.55313351498637
 20
-100.4006968641115
 10
152.4359673024523
 20
-100.4006968641115
 10
152.73024523160763
 20
-100.69686411149826
 10
156.85013623978202
 20
-100.69686411149826
 10
157.14441416893732
 20
-100.99303135888502
 10
162.14713896457764
 20
-100.99303135888502
 10
162.44141689373296
 20
-101.28919860627178
 10
166.85558583106265
 20
-101.28919860627178
 10
167.14986376021798
 20
-101.58536585365853
 10
169.20980926430516
 20
-101.58536585365853
 10
169.5040871934605
 20
-101.88153310104529
 10
169.5040871934605
 20
-104.25087108013938
 10
169.20980926430516
 20
-104.54703832752614
 10
164.20708446866485
 20
-104.54703832752614
 10
163.91280653950952
 20
-104.84320557491289
 10
159.79291553133513
 20
-104.84320557491289
 10
159.49863760217983
 20
-105.13937282229965
 10
155.67302452316076
 20
-105.13937282229965
 10
155.37874659400543
 20
-105.43554006968641
 10
152.141689373297
 20
-105.43554006968641
 10
151.84741144414167
 20
-105.73170731707317
 10
151.25885558583104
 20
-105.73170731707317
 10
150.96457765667574
 20
-106.02787456445994
 10
150.96457765667574
 20
-107.50871080139373
 10
151.25885558583104
 20
-107.50871080139373
 10
151.55313351498637
 20
-107.8048780487805
 10
152.4359673024523
 20
-107.8048780487805
 10
152.73024523160763
 20
-108.10104529616724
 10
157.43869209809264
 20
-108.10104529616724
 10
157.73297002724794
 20
-108.397212543554
 10
162.44141689373296
 20
-108.397212543554
 10
162.73569482288826
 20
-108.69337979094077
 10
168.0326975476839
 20
-108.69337979094077
 10
168.32697547683924
 20
-108.98954703832753
 10
168.91553133514986
 20
-108.98954703832753
 10
169.20980926430516
 20
-109.28571428571429
 10
169.20980926430516
 20
-111.65505226480836
 10
168.91553133514986
 20
-111.95121951219512
 10
163.91280653950952
 20
-111.95121951219512
 10
163.61852861035422
 20
-112.24738675958189
 10
159.79291553133513
 20
-112.24738675958189
 10
159.49863760217983
 20
-112.54355400696865
 10
155.67302452316076
 20
-112.54355400696865
 10
155.37874659400543
 20
-112.8397212543554
 10
152.141689373297
 20
-112.8397212543554
 10
151.84741144414167
 20
-113.13588850174216
 10
150.96457765667574
 20
-113.13588850174216
 10
150.67029972752042
 20
-113.43205574912892
 10
150.67029972752042
 20
-114.61672473867596
 10
151.25885558583104
 20
-115.20905923344948
 10
152.73024523160763
 20
-115.20905923344948
 10
153.02452316076293
 20
-115.50522648083624
 10
157.73297002724794
 20
-115.50522648083624
 10
158.02724795640327
 20
-115.80139372822299
 10
162.73569482288826
 20
-115.80139372822299
 10
163.0299727520436
 20
-116.09756097560975
 10
168.91553133514986
 20
-116.09756097560975
 10
169.20980926430516
 20
-116.39372822299651
 10
169.20980926430516
 20
-118.7630662020906
 10
168.91553133514986
 20
-119.05923344947735
 10
168.62125340599454
 20
-119.05923344947735
 10
168.32697547683924
 20
-119.35540069686411
 10
163.61852861035422
 20
-119.35540069686411
 10
163.3242506811989
 20
-119.65156794425087
 10
159.20435967302453
 20
-119.65156794425087
 10
158.9100817438692
 20
-119.94773519163763
 10
155.37874659400543
 20
-119.94773519163763
 10
155.08446866485014
 20
-120.2439024390244
 10
151.84741144414167
 20
-120.2439024390244
 10
151.55313351498637
 20
-120.54006968641114
 10
150.96457765667574
 20
-120.54006968641114
 10
150.67029972752042
 20
-120.8362369337979
 10
150.67029972752042
 20
-121.13240418118467
 10
150.37602179836512
 20
-121.42857142857143
 10
150.67029972752042
 20
-121.72473867595819
 10
150.67029972752042
 20
-122.3170731707317
 10
150.96457765667574
 20
-122.61324041811847
 10
152.4359673024523
 20
-122.61324041811847
 10
152.73024523160763
 20
-122.90940766550523
 10
158.02724795640327
 20
-122.90940766550523
 10
158.32152588555857
 20
-123.20557491289199
 10
163.91280653950952
 20
-123.20557491289199
 10
164.20708446866485
 20
-123.50174216027875
 10
169.5040871934605
 20
-123.50174216027875
 10
169.7983651226158
 20
-123.7979094076655
 10
169.7983651226158
 20
-126.16724738675958
 10
169.5040871934605
 20
-126.46341463414635
 10
167.44414168937328
 20
-126.46341463414635
 10
167.14986376021798
 20
-126.7595818815331
 10
163.3242506811989
 20
-126.7595818815331
 10
163.0299727520436
 20
-127.05574912891986
 10
158.9100817438692
 20
-127.05574912891986
 10
158.6158038147139
 20
-127.35191637630662
 10
154.7901907356948
 20
-127.35191637630662
 10
154.4959128065395
 20
-127.64808362369338
 10
151.25885558583104
 20
-127.64808362369338
 10
150.96457765667574
 20
-127.94425087108014
 10
150.37602179836512
 20
-127.94425087108014
 10
150.0817438692098
 20
-128.2404181184669
 10
150.0817438692098
 20
-129.42508710801394
 10
150.67029972752042
 20
-130.01742160278746
 10
153.02452316076293
 20
-130.01742160278746
 10
153.31880108991825
 20
-130.31358885017423
 10
158.6158038147139
 20
-130.31358885017423
 10
158.9100817438692
 20
-130.609756097561
 10
164.79564032697547
 20
-130.609756097561
 10
165.08991825613077
 20
-130.90592334494772
 10
170.68119891008175
 20
-130.90592334494772
 10
170.97547683923705
 20
-131.20209059233449
 10
170.97547683923705
 20
-133.57142857142858
 10
170.68119891008175
 20
-133.86759581881532
 10
166.56130790190736
 20
-133.86759581881532
 10
166.26702997275203
 20
-134.16376306620208
 10
162.14713896457764
 20
-134.16376306620208
 10
161.85286103542234
 20
-134.45993031358884
 10
158.02724795640327
 20
-134.45993031358884
 10
157.73297002724794
 20
-134.7560975609756
 10
154.20163487738418
 20
-134.7560975609756
 10
153.90735694822888
 20
-135.05226480836237
 10
150.96457765667574
 20
-135.05226480836237
 10
150.67029972752042
 20
-135.34843205574913
 10
150.0817438692098
 20
-135.34843205574913
 10
149.7874659400545
 20
-135.6445993031359
 10
149.7874659400545
 20
-136.82926829268294
 10
150.37602179836512
 20
-137.42160278745644
 10
153.02452316076293
 20
-137.42160278745644
 10
153.31880108991825
 20
-137.7177700348432
 10
159.20435967302453
 20
-137.7177700348432
 10
159.49863760217983
 20
-138.01393728222996
 10
165.3841961852861
 20
-138.01393728222996
 10
165.6784741144414
 20
-138.31010452961672
 10
167.44414168937328
 20
-138.31010452961672
 10
167.7384196185286
 20
-138.60627177700349
 10
167.7384196185286
 20
-140.97560975609755
 10
167.44414168937328
 20
-141.27177700348432
 10
162.14713896457764
 20
-141.27177700348432
 10
161.85286103542234
 20
-141.56794425087108
 10
157.14441416893732
 20
-141.56794425087108
 10
156.85013623978202
 20
-141.86411149825784
 10
151.84741144414167
 20
-141.86411149825784
 10
151.55313351498637
 20
-142.1602787456446
 10
150.0817438692098
 20
-142.1602787456446
 10
149.7874659400545
 20
-142.45644599303137
 10
149.49318801089916
 20
-142.45644599303137
 10
149.49318801089916
 20
-143.34494773519162
 10
149.19891008174386
 20
-143.6411149825784
 10
149.49318801089916
 20
-143.93728222996515
 10
149.49318801089916
 20
-144.52961672473867
 10
149.7874659400545
 20
-144.82578397212544
 10
150.0817438692098
 20
-144.82578397212544
 10
150.37602179836512
 20
-145.1219512195122
 10
151.25885558583104
 20
-145.1219512195122
 10
151.55313351498637
 20
-145.41811846689896
 10
152.73024523160763
 20
-145.41811846689896
 10
153.02452316076293
 20
-145.71428571428572
 10
153.90735694822888
 20
-145.71428571428572
 10
154.20163487738418
 20
-146.01045296167248
 10
155.08446866485014
 20
-146.01045296167248
 10
155.37874659400543
 20
-146.30662020905925
 10
155.96730245231606
 20
-146.30662020905925
 10
156.2615803814714
 20
-146.60278745644598
 10
156.85013623978202
 20
-146.60278745644598
 10
157.14441416893732
 20
-146.89895470383274
 10
157.43869209809264
 20
-146.89895470383274
 10
157.73297002724794
 20
-147.1951219512195
 10
158.02724795640327
 20
-147.1951219512195
 10
158.32152588555857
 20
-147.49128919860627
 10
158.9100817438692
 20
-147.49128919860627
 10
159.20435967302453
 20
-147.78745644599303
 10
159.49863760217983
 20
-147.78745644599303
 10
160.08719346049045
 20
-148.37979094076655
 10
160.38147138964575
 20
-148.37979094076655
 10
160.67574931880108
 20
-148.67595818815332
 10
160.97002724795638
 20
-148.67595818815332
 10
161.2643051771117
 20
-148.97212543554008
 10
161.558583106267
 20
-148.97212543554008
 10
162.14713896457764
 20
-149.56445993031357
 10
162.44141689373296
 20
-149.56445993031357
 10
163.3242506811989
 20
-150.45296167247386
 10
163.61852861035422
 20
-150.45296167247386
 10
166.26702997275203
 20
-153.1184668989547
 10
166.26702997275203
 20
-153.41463414634146
 10
166.85558583106265
 20
-154.00696864111498
 10
166.85558583106265
 20
-154.30313588850174
 10
167.44414168937328
 20
-154.89547038327527
 10
167.44414168937328
 20
-155.19163763066203
 10
167.7384196185286
 20
-155.4878048780488
 10
167.7384196185286
 20
-155.78397212543555
 10
168.0326975476839
 20
-156.0801393728223
 10
168.0326975476839
 20
-156.37630662020905
 10
168.32697547683924
 20
-156.6724738675958
 10
168.32697547683924
 20
-156.96864111498257
 10
168.62125340599454
 20
-157.26480836236934
 10
168.62125340599454
 20
-157.5609756097561
 10
168.91553133514986
 20
-157.85714285714286
 10
168.91553133514986
 20
-158.74564459930315
 10
169.20980926430516
 20
-159.04181184668988
 10
169.20980926430516
 20
-159.93031358885017
 10
169.5040871934605
 20
-160.22648083623693
 10
169.5040871934605
 20
-161.70731707317074
 10
169.7983651226158
 20
-162.0034843205575
 10
169.7983651226158
 20
-164.0766550522648
 10
170.09264305177112
 20
-164.37282229965157
 10
170.09264305177112
 20
-169.70383275261324
 10
169.7983651226158
 20
-170.0
 10
169.7983651226158
 20
-173.25783972125436
 10
169.5040871934605
 20
-173.55400696864112
 10
169.5040871934605
 20
-175.9233449477352
 10
169.20980926430516
 20
-176.21951219512195
 10
169.20980926430516
 20
-177.9965156794425
 10
168.91553133514986
 20
-178.29268292682926
 10
168.91553133514986
 20
-180.3658536585366
 10
168.62125340599454
 20
-180.66202090592336
 10
168.62125340599454
 20
-182.4390243902439
 10
168.32697547683924
 20
-182.73519163763066
 10
168.32697547683924
 20
-183.9198606271777
 10
168.0326975476839
 20
-184.21602787456445
 10
168.0326975476839
 20
-185.69686411149826
 10
167.7384196185286
 20
-185.99303135888502
 10
167.7384196185286
 20
-187.17770034843207
 10
167.44414168937328
 20
-187.4738675958188
 10
167.44414168937328
 20
-188.65853658536585
 10
167.14986376021798
 20
-188.9547038327526
 10
167.14986376021798
 20
-190.13937282229966
 10
166.85558583106265
 20
-190.43554006968643
 10
166.85558583106265
 20
-191.32404181184668
 10
166.56130790190736
 20
-191.62020905923345
 10
166.56130790190736
 20
-192.50871080139373
 10
166.26702997275203
 20
-192.8048780487805
 10
166.26702997275203
 20
-193.98954703832752
 10
165.97275204359673
 20
-194.28571428571428
 10
165.97275204359673
 20
-195.17421602787456
 10
165.6784741144414
 20
-195.47038327526133
 10
165.6784741144414
 20
-196.06271777003485
 10
165.3841961852861
 20
-196.3588850174216
 10
165.3841961852861
 20
-197.24738675958187
 10
165.08991825613077
 20
-197.54355400696863
 10
165.08991825613077
 20
-198.43205574912892
 10
164.79564032697547
 20
-198.72822299651568
 10
164.79564032697547
 20
-199.3205574912892
 10
164.50136239782015
 20
-199.61672473867597
 10
164.50136239782015
 20
-200.50522648083623
 10
164.20708446866485
 20
-200.801393728223
 10
164.20708446866485
 20
-201.39372822299651
 10
163.91280653950952
 20
-201.68989547038328
 10
163.91280653950952
 20
-202.2822299651568
 10
163.61852861035422
 20
-202.57839721254356
 10
163.61852861035422
 20
-203.46689895470382
 10
163.3242506811989
 20
-203.76306620209058
 10
163.3242506811989
 20
-204.3554006968641
 10
163.0299727520436
 20
-204.65156794425087
 10
163.0299727520436
 20
-205.2439024390244
 10
162.73569482288826
 20
-205.54006968641116
 10
162.73569482288826
 20
-206.13240418118468
 10
162.44141689373296
 20
-206.42857142857142
 10
162.44141689373296
 20
-207.02090592334494
 10
162.14713896457764
 20
-207.3170731707317
 10
162.14713896457764
 20
-207.90940766550523
 10
161.85286103542234
 20
-208.205574912892
 10
161.85286103542234
 20
-208.79790940766551
 10
161.558583106267
 20
-209.09407665505228
 10
161.558583106267
 20
-209.390243902439
 10
161.2643051771117
 20
-209.68641114982577
 10
161.2643051771117
 20
-210.2787456445993
 10
160.97002724795638
 20
-210.57491289198606
 10
160.97002724795638
 20
-211.16724738675958
 10
160.67574931880108
 20
-211.46341463414635
 10
160.67574931880108
 20
-211.7595818815331
 10
160.38147138964575
 20
-212.05574912891987
 10
160.38147138964575
 20
-212.64808362369337
 10
160.08719346049045
 20
-212.94425087108013
 10
160.08719346049045
 20
-213.53658536585365
 10
159.79291553133513
 20
-213.83275261324042
 10
159.79291553133513
 20
-214.12891986062718
 10
159.49863760217983
 20
-214.42508710801394
 10
159.49863760217983
 20
-214.7212543554007
 10
159.20435967302453
 20
-215.01742160278746
 10
159.20435967302453
 20
-215.609756097561
 10
158.9100817438692
 20
-215.90592334494772
 10
158.9100817438692
 20
-216.20209059233449
 10
158.6158038147139
 20
-216.49825783972125
 10
158.6158038147139
 20
-216.794425087108
 10
158.32152588555857
 20
-217.09059233449477
 10
158.32152588555857
 20
-217.38675958188153
 10
158.02724795640327
 20
-217.6829268292683
 10
158.02724795640327
 20
-218.27526132404182
 10
157.73297002724794
 20
-218.57142857142858
 10
157.73297002724794
 20
-218.86759581881532
 10
157.43869209809264
 20
-219.16376306620208
 10
157.43869209809264
 20
-219.45993031358884
 10
157.14441416893732
 20
-219.7560975609756
 10
157.14441416893732
 20
-220.05226480836237
 10
156.85013623978202
 20
-220.34843205574913
 10
156.85013623978202
 20
-220.6445993031359
 10
156.5558583106267
 20
-220.94076655052265
 10
156.5558583106267
 20
-221.53310104529618
 10
156.2615803814714
 20
-221.82926829268294
 10
156.2615803814714
 20
-222.42160278745644
 10
156.5558583106267
 20
-222.7177700348432
 10
156.5558583106267
 20
-223.01393728222996
 10
156.85013623978202
 20
-223.31010452961672
 10
156.85013623978202
 20
-223.60627177700349
 10
157.43869209809264
 20
-224.198606271777
 10
157.73297002724794
 20
-224.198606271777
 10
159.20435967302453
 20
-225.6794425087108
 10
159.49863760217983
 20
-225.6794425087108
 10
160.38147138964575
 20
-226.56794425087108
 10
160.67574931880108
 20
-226.56794425087108
 10
161.2643051771117
 20
-227.1602787456446
 10
161.558583106267
 20
-227.1602787456446
 10
162.14713896457764
 20
-227.75261324041813
 10
162.44141689373296
 20
-227.75261324041813
 10
162.73569482288826
 20
-228.0487804878049
 10
163.0299727520436
 20
-228.0487804878049
 10
163.3242506811989
 20
-228.34494773519162
 10
163.61852861035422
 20
-228.34494773519162
 10
163.91280653950952
 20
-228.6411149825784
 10
164.20708446866485
 20
-228.6411149825784
 10
164.50136239782015
 20
-228.93728222996515
 10
165.08991825613077
 20
-228.93728222996515
 10
165.3841961852861
 20
-229.2334494773519
 10
165.6784741144414
 20
-229.2334494773519
 10
165.97275204359673
 20
-229.52961672473867
 10
166.26702997275203
 20
-229.52961672473867
 10
166.56130790190736
 20
-229.82578397212544
 10
167.14986376021798
 20
-229.82578397212544
 10
167.44414168937328
 20
-230.1219512195122
 10
168.32697547683924
 20
-230.1219512195122
 10
168.62125340599454
 20
-230.41811846689896
 10
170.38692098092642
 20
-230.41811846689896
 10
170.68119891008175
 20
-230.71428571428572
 10
172.4468664850136
 20
-230.71428571428572
 10
172.74114441416893
 20
-230.41811846689896
 10
174.21253405994548
 20
-230.41811846689896
 10
174.5068119891008
 20
-230.1219512195122
 10
175.38964577656674
 20
-230.1219512195122
 10
175.68392370572207
 20
-229.82578397212544
 10
176.2724795640327
 20
-229.82578397212544
 10
176.566757493188
 20
-229.52961672473867
 10
177.15531335149862
 20
-229.52961672473867
 10
177.44959128065395
 20
-229.2334494773519
 10
177.74386920980925
 20
-229.2334494773519
 10
178.03814713896458
 20
-228.93728222996515
 10
178.33242506811987
 20
-228.93728222996515
 10
178.6267029972752
 20
-228.6411149825784
 10
178.9209809264305
 20
-228.6411149825784
 10
179.50953678474113
 20
-228.0487804878049
 10
179.80381471389646
 20
-228.0487804878049
 10
180.68664850136238
 20
-227.1602787456446
 10
180.9809264305177
 20
-227.1602787456446
 10
183.3351498637602
 20
-224.79094076655053
 10
183.3351498637602
 20
-224.49477351916377
 10
184.21798365122615
 20
-223.60627177700349
 10
184.21798365122615
 20
-223.31010452961672
 10
184.51226158038145
 20
-223.01393728222996
 10
184.51226158038145
 20
-222.7177700348432
 10
184.80653950953678
 20
-222.42160278745644
 10
184.80653950953678
 20
-222.12543554006967
 10
185.3950953678474
 20
-221.53310104529618
 10
185.3950953678474
 20
-220.94076655052265
 10
185.6893732970027
 20
-220.6445993031359
 10
185.6893732970027
 20
-220.05226480836237
 10
185.98365122615803
 20
-219.7560975609756
 10
185.98365122615803
 20
-219.45993031358884
 10
186.27792915531333
 20
-219.16376306620208
 10
186.27792915531333
 20
-218.57142857142858
 10
186.57220708446866
 20
-218.27526132404182
 10
186.57220708446866
 20
-217.38675958188153
 10
186.86648501362396
 20
-217.09059233449477
 10
186.86648501362396
 20
-216.20209059233449
 10
187.1607629427793
 20
-215.90592334494772
 10
187.1607629427793
 20
-214.42508710801394
 10
187.45504087193459
 20
-214.12891986062718
 10
187.45504087193459
 20
-212.35191637630663
 10
187.7493188010899
 20
-212.05574912891987
 10
187.7493188010899
 20
-209.09407665505228
 10
188.0435967302452
 20
-208.79790940766551
 10
188.0435967302452
 20
-200.20905923344947
 10
187.7493188010899
 20
-199.91289198606273
 10
187.7493188010899
 20
-192.50871080139373
 10
187.45504087193459
 20
-192.21254355400697
 10
187.45504087193459
 20
-161.70731707317074
 10
187.7493188010899
 20
-161.41114982578398
 10
187.7493188010899
 20
-156.0801393728223
 10
188.0435967302452
 20
-155.78397212543555
 10
188.0435967302452
 20
-152.82229965156793
 10
188.33787465940054
 20
-152.5261324041812
 10
188.33787465940054
 20
-149.56445993031357
 10
188.63215258855584
 20
-149.26829268292684
 10
188.63215258855584
 20
-146.89895470383274
 10
188.92643051771117
 20
-146.60278745644598
 10
188.92643051771117
 20
-144.52961672473867
 10
189.22070844686647
 20
-144.2334494773519
 10
189.22070844686647
 20
-142.45644599303137
 10
189.5149863760218
 20
-142.1602787456446
 10
189.5149863760218
 20
-139.79094076655053
 10
189.8092643051771
 20
-139.49477351916377
 10
189.8092643051771
 20
-137.42160278745644
 10
190.10354223433242
 20
-137.12543554006967
 10
190.10354223433242
 20
-135.34843205574913
 10
190.39782016348772
 20
-135.05226480836237
 10
190.39782016348772
 20
-132.97909407665506
 10
190.69209809264305
 20
-132.6829268292683
 10
190.69209809264305
 20
-130.90592334494772
 10
190.98637602179835
 20
-130.609756097561
 10
190.98637602179835
 20
-128.53658536585365
 10
191.28065395095368
 20
-128.2404181184669
 10
191.28065395095368
 20
-125.87108013937282
 10
191.57493188010898
 20
-125.57491289198606
 10
191.57493188010898
 20
-123.20557491289199
 10
191.8692098092643
 20
-122.90940766550523
 10
191.8692098092643
 20
-120.2439024390244
 10
192.1634877384196
 20
-119.94773519163763
 10
192.1634877384196
 20
-117.2822299651568
 10
192.45776566757493
 20
-116.98606271777004
 10
192.45776566757493
 20
-113.43205574912892
 10
192.75204359673023
 20
-113.13588850174216
 10
192.75204359673023
 20
-108.10104529616724
 10
193.04632152588556
 20
-107.8048780487805
 10
193.04632152588556
 20
-102.47386759581882
 10
193.34059945504086
 20
-102.17770034843205
 10
193.34059945504086
 20
-82.33449477351917
 10
193.04632152588556
 20
-82.0383275261324
 10
193.04632152588556
 20
-78.18815331010452
 10
192.75204359673023
 20
-77.89198606271778
 10
192.75204359673023
 20
-75.5226480836237
 10
192.45776566757493
 20
-75.22648083623693
 10
192.45776566757493
 20
-73.15331010452962
 10
192.1634877384196
 20
-72.85714285714286
 10
192.1634877384196
 20
-71.0801393728223
 10
191.8692098092643
 20
-70.78397212543554
 10
191.8692098092643
 20
-69.30313588850174
 10
191.57493188010898
 20
-69.00696864111498
 10
191.57493188010898
 20
-67.82229965156795
 10
191.28065395095368
 20
-67.52613240418118
 10
191.28065395095368
 20
-66.34146341463415
 10
190.98637602179835
 20
-66.04529616724739
 10
190.98637602179835
 20
-65.15679442508711
 10
190.69209809264305
 20
-64.86062717770035
 10
190.69209809264305
 20
-63.97212543554007
 10
190.39782016348772
 20
-63.67595818815331
 10
190.39782016348772
 20
-62.78745644599303
 10
190.10354223433242
 20
-62.491289198606275
 10
190.10354223433242
 20
-61.602787456445995
 10
189.8092643051771
 20
-61.30662020905923
 10
189.8092643051771
 20
-60.714285714285715
 10
189.5149863760218
 20
-60.41811846689895
 10
189.5149863760218
 20
-59.52961672473867
 10
189.22070844686647
 20
-59.23344947735192
 10
189.22070844686647
 20
-58.6411149825784
 10
188.92643051771117
 20
-58.34494773519164
 10
188.92643051771117
 20
-57.75261324041812
 10
188.63215258855584
 20
-57.45644599303136
 10
188.63215258855584
 20
-56.86411149825784
 10
188.33787465940054
 20
-56.56794425087108
 10
188.33787465940054
 20
-55.97560975609756
 10
188.0435967302452
 20
-55.6794425087108
 10
188.0435967302452
 20
-55.383275261324044
 10
187.7493188010899
 20
-55.08710801393728
 10
187.7493188010899
 20
-54.79094076655052
 10
187.45504087193459
 20
-54.494773519163765
 10
187.45504087193459
 20
-54.198606271777
 10
186.86648501362396
 20
-53.606271777003485
 10
186.86648501362396
 20
-53.31010452961672
 10
184.21798365122615
 20
-50.64459930313589
 10
183.92370572207082
 20
-50.64459930313589
 10
183.62942779291552
 20
-50.34843205574913
 10
183.3351498637602
 20
-50.34843205574913
 10
183.0408719346049
 20
-50.05226480836237
 10
182.74659400544957
 20
-50.05226480836237
 10
182.45231607629427
 20
-49.75609756097561
 10
182.15803814713897
 20
-49.75609756097561
 10
181.86376021798364
 20
-49.45993031358885
 10
181.275204359673
 20
-49.45993031358885
 10
180.9809264305177
 20
-49.163763066202094
 10
180.09809264305176
 20
-49.163763066202094
 10
179.80381471389646
 20
-48.86759581881533
  0
TEXT
  5
3C
330
17
100
AcDbEntity
  8
TEXT
100
AcDbText
 10
174.8010899182561
 20
-131.794425087108
 30
0.0
 40
5.0
  1
Contour 5
100
AcDbText
  0
LWPOLYLINE
  5
3D
330
17
100
AcDbEntity
  8
CONTOURS
100
AcDbPolyline
 90
120
 70
1
 10
65.62397820163487
 20
-47.09059233449477
 10
65.32970027247956
 20
-47.386759581881535
 10
64.44686648501362
 20
-47.386759581881535
 10
64.1525885558583
 20
-47.68292682926829
 10
63.56403269754768
 20
-47.68292682926829
 10
63.26975476839237
 20
-47.97909407665505
 10
62.68119891008174
 20
-47.97909407665505
 10
62.386920980926426
 20
-48.275261324041814
 10
62.09264305177111
 20
-48.275261324041814
 10
61.7983651226158
 20
-48.57142857142857
 10
61.504087193460485
 20
-48.57142857142857
 10
60.621253405994544
 20
-49.45993031358885
 10
60.32697547683923
 20
-49.45993031358885
 10
58.26702997275204
 20
-51.53310104529617
 10
58.26702997275204
 20
-51.829268292682926
 10
57.97275204359673
 20
-52.12543554006969
 10
57.97275204359673
 20
-52.42160278745644
 10
57.678474114441414
 20
-52.717770034843205
 10
57.678474114441414
 20
-53.01393728222997
 10
57.3841961852861
 20
-53.31010452961672
 10
57.3841961852861
 20
-53.606271777003485
 10
57.08991825613079
 20
-53.90243902439025
 10
57.08991825613079
 20
-54.494773519163765
 10
56.79564032697547
 20
-54.79094076655052
 10
56.79564032697547
 20
-55.6794425087108
 10
56.50136239782016
 20
-55.97560975609756
 10
56.50136239782016
 20
-56.86411149825784
 10
56.207084468664846
 20
-57.1602787456446
 10
56.207084468664846
 20
-60.1219512195122
 10
56.50136239782016
 20
-60.41811846689895
 10
56.50136239782016
 20
-61.602787456445995
 10
56.79564032697547
 20
-61.89895470383275
 10
56.79564032697547
 20
-62.491289198606275
 10
57.08991825613079
 20
-62.78745644599303
 10
57.08991825613079
 20
-63.37979094076655
 10
57.3841961852861
 20
-63.67595818815331
 10
57.3841961852861
 20
-64.26829268292683
 10
57.97275204359673
 20
-64.86062717770035
 10
57.97275204359673
 20
-65.15679442508711
 10
58.26702997275204
 20
-65.45296167247386
 10
58.26702997275204
 20
-65.74912891986062
 10
61.504087193460485
 20
-69.00696864111498
 10
61.7983651226158
 20
-69.00696864111498
 10
62.386920980926426
 20
-69.5993031358885
 10
62.68119891008174
 20
-69.5993031358885
 10
62.975476839237054
 20
-69.89547038327527
 10
63.26975476839237
 20
-69.89547038327527
 10
63.56403269754768
 20
-70.19163763066202
 10
63.858310626702995
 20
-70.19163763066202
 10
64.1525885558583
 20
-70.48780487804878
 10
64.44686648501362
 20
-70.48780487804878
 10
64.74114441416893
 20
-70.78397212543554
 10
65.32970027247956
 20
-70.78397212543554
 10
65.62397820163487
 20
-71.0801393728223
 10
66.2125340599455
 20
-71.0801393728223
 10
66.50681198910081
 20
-71.37630662020906
 10
67.68392370572207
 20
-71.37630662020906
 10
67.97820163487738
 20
-71.67247386759581
 10
70.92098092643052
 20
-71.67247386759581
 10
71.21525885558583
 20
-71.37630662020906
 10
72.39237057220708
 20
-71.37630662020906
 10
72.6866485013624
 20
-71.0801393728223
 10
73.27520435967303
 20
-71.0801393728223
 10
73.56948228882834
 20
-70.78397212543554
 10
74.15803814713895
 20
-70.78397212543554
 10
74.45231607629427
 20
-70.48780487804878
 10
74.74659400544958
 20
-70.48780487804878
 10
75.0408719346049
 20
-70.19163763066202
 10
75.33514986376021
 20
-70.19163763066202
 10
75.62942779291552
 20
-69.89547038327527
 10
75.92370572207084
 20
-69.89547038327527
 10
76.21798365122615
 20
-69.5993031358885
 10
76.51226158038146
 20
-69.5993031358885
 10
77.10081743869209
 20
-69.00696864111498
 10
77.3950953678474
 20
-69.00696864111498
 10
78.57220708446866
 20
-67.82229965156795
 10
78.57220708446866
 20
-67.52613240418118
 10
78.86648501362397
 20
-67.22996515679442
 10
78.86648501362397
 20
-66.93379790940766
 10
79.16076294277929
 20
-66.63763066202091
 10
79.16076294277929
 20
-66.34146341463415
 10
79.74931880108991
 20
-65.74912891986062
 10
79.74931880108991
 20
-65.15679442508711
 10
80.04359673024523
 20
-64.86062717770035
 10
80.04359673024523
 20
-64.56445993031359
 10
80.33787465940054
 20
-64.26829268292683
 10
80.33787465940054
 20
-63.67595818815331
 10
80.63215258855585
 20
-63.37979094076655
 10
80.63215258855585
 20
-62.491289198606275
 10
80.92643051771117
 20
-62.19512195121951
 10
80.92643051771117
 20
-58.048780487804876
 10
80.63215258855585
 20
-57.75261324041812
 10
80.63215258855585
 20
-56.86411149825784
 10
80.33787465940054
 20
-56.56794425087108
 10
80.33787465940054
 20
-55.6794425087108
 10
80.04359673024523
 20
-55.383275261324044
 10
80.04359673024523
 20
-55.08710801393728
 10
79.74931880108991
 20
-54.79094076655052
 10
79.74931880108991
 20
-54.494773519163765
 10
79.4550408719346
 20
-54.198606271777
 10
79.4550408719346
 20
-53.90243902439025
 10
78.86648501362397
 20
-53.31010452961672
 10
78.86648501362397
 20
-53.01393728222997
 10
78.27792915531334
 20
-52.42160278745644
 10
78.27792915531334
 20
-52.12543554006969
 10
75.33514986376021
 20
-49.163763066202094
 10
75.0408719346049
 20
-49.163763066202094
 10
74.74659400544958
 20
-48.86759581881533
 10
74.45231607629427
 20
-48.86759581881533
 10
74.15803814713895
 20
-48.57142857142857
 10
73.86376021798365
 20
-48.57142857142857
 10
73.56948228882834
 20
-48.275261324041814
 10
73.27520435967303
 20
-48.275261324041814
 10
72.98092643051771
 20
-47.97909407665505
 10
72.39237057220708
 20
-47.97909407665505
 10
72.09809264305177
 20
-47.68292682926829
 10
71.50953678474114
 20
-47.68292682926829
 10
71.21525885558583
 20
-47.386759581881535
 10
70.33242506811989
 20
-47.386759581881535
 10
70.03814713896458
 20
-47.09059233449477
  0
TEXT
  5
3E
330
17
100
AcDbEntity
  8
TEXT
100
AcDbText
 10
68.566757493188
 20
-59.23344947735192
 30
0.0
 40
5.0
  1
Contour 6
100
AcDbText
  0
LWPOLYLINE
  5
3F
330
17
100
AcDbEntity
  8
CONTOURS
100
AcDbPolyline
 90
130
 70
1
 10
25.60217983651226
 20
-45.90592334494774
 10
25.307901907356946
 20
-46.20209059233449
 10
24.130790190735695
 20
-46.20209059233449
 10
23.83651226158038
 20
-46.498257839721255
 10
23.247956403269754
 20
-46.498257839721255
 10
22.95367847411444
 20
-46.79442508710802
 10
22.365122615803813
 20
-46.79442508710802
 10
22.0708446866485
 20
-47.09059233449477
 10
21.48228882833787
 20
-47.09059233449477
 10
21.18801089918256
 20
-47.386759581881535
 10
20.893732970027248
 20
-47.386759581881535
 10
20.30517711171662
 20
-47.97909407665505
 10
20.010899182561307
 20
-47.97909407665505
 10
19.42234332425068
 20
-48.57142857142857
 10
19.128065395095366
 20
-48.57142857142857
 10
18.53950953678474
 20
-49.163763066202094
 10
18.245231607629428
 20
-49.163763066202094
 10
17.950953678474114
 20
-49.45993031358885
 10
17.6566757493188
 20
-49.45993031358885
 10
17.362397820163487
 20
-49.75609756097561
 10
17.362397820163487
 20
-50.05226480836237
 10
17.068119891008173
 20
-50.34843205574913
 10
17.068119891008173
 20
-50.64459930313589
 10
16.77384196185286
 20
-50.940766550522646
 10
16.77384196185286
 20
-51.23693379790941
 10
16.479564032697546
 20
-51.53310104529617
 10
16.479564032697546
 20
-51.829268292682926
 10
16.185286103542232
 20
-52.12543554006969
 10
16.185286103542232
 20
-52.42160278745644
 10
15.89100817438692
 20
-52.717770034843205
 10
15.89100817438692
 20
-53.31010452961672
 10
15.596730245231607
 20
-53.606271777003485
 10
15.596730245231607
 20
-54.198606271777
 10
15.302452316076293
 20
-54.494773519163765
 10
15.302452316076293
 20
-55.6794425087108
 10
15.00817438692098
 20
-55.97560975609756
 10
15.00817438692098
 20
-59.23344947735192
 10
15.302452316076293
 20
-59.52961672473867
 10
15.302452316076293
 20
-60.714285714285715
 10
15.596730245231607
 20
-61.01045296167247
 10
15.596730245231607
 20
-61.602787456445995
 10
15.89100817438692
 20
-61.89895470383275
 10
15.89100817438692
 20
-62.19512195121951
 10
16.185286103542232
 20
-62.491289198606275
 10
16.185286103542232
 20
-63.08362369337979
 10
16.479564032697546
 20
-63.37979094076655
 10
16.479564032697546
 20
-63.67595818815331
 10
17.068119891008173
 20
-64.26829268292683
 10
17.068119891008173
 20
-64.56445993031359
 10
17.6566757493188
 20
-65.15679442508711
 10
17.6566757493188
 20
-65.45296167247386
 10
19.42234332425068
 20
-67.22996515679442
 10
19.716621253405993
 20
-67.22996515679442
 10
20.599455040871934
 20
-68.11846689895471
 10
20.893732970027248
 20
-68.11846689895471
 10
21.48228882833787
 20
-68.71080139372822
 10
21.776566757493185
 20
-68.71080139372822
 10
22.0708446866485
 20
-69.00696864111498
 10
22.365122615803813
 20
-69.00696864111498
 10
22.659400544959126
 20
-69.30313588850174
 10
22.95367847411444
 20
-69.30313588850174
 10
23.247956403269754
 20
-69.5993031358885
 10
23.542234332425068
 20
-69.5993031358885
 10
23.83651226158038
 20
-69.89547038327527
 10
24.425068119891005
 20
-69.89547038327527
 10
24.71934604904632
 20
-70.19163763066202
 10
25.307901907356946
 20
-70.19163763066202
 10
25.60217983651226
 20
-70.48780487804878
 10
26.4850136239782
 20
-70.48780487804878
 10
26.779291553133515
 20
-70.78397212543554
 10
30.01634877384196
 20
-70.78397212543554
 10
30.310626702997272
 20
-70.48780487804878
 10
31.78201634877384
 20
-70.48780487804878
 10
32.07629427792915
 20
-70.19163763066202
 10
32.66485013623978
 20
-70.19163763066202
 10
32.95912806539509
 20
-69.89547038327527
 10
33.253405994550405
 20
-69.89547038327527
 10
33.54768392370572
 20
-69.5993031358885
 10
34.13623978201635
 20
-69.5993031358885
 10
34.43051771117166
 20
-69.30313588850174
 10
34.724795640326974
 20
-69.30313588850174
 10
35.3133514986376
 20
-68.71080139372822
 10
35.607629427792915
 20
-68.71080139372822
 10
36.19618528610354
 20
-68.11846689895471
 10
36.490463215258856
 20
-68.11846689895471
 10
38.25613079019073
 20
-66.34146341463415
 10
38.25613079019073
 20
-66.04529616724739
 10
38.84468664850136
 20
-65.45296167247386
 10
38.84468664850136
 20
-65.15679442508711
 10
39.13896457765667
 20
-64.86062717770035
 10
39.13896457765667
 20
-64.26829268292683
 10
39.433242506811986
 20
-63.97212543554007
 10
39.433242506811986
 20
-63.67595818815331
 10
39.7275204359673
 20
-63.37979094076655
 10
39.7275204359673
 20
-62.78745644599303
 10
40.02179836512261
 20
-62.491289198606275
 10
40.02179836512261
 20
-61.602787456445995
 10
40.31607629427793
 20
-61.30662020905923
 10
40.31607629427793
 20
-56.56794425087108
 10
40.02179836512261
 20
-56.271777003484324
 10
40.02179836512261
 20
-55.6794425087108
 10
39.7275204359673
 20
-55.383275261324044
 10
39.7275204359673
 20
-54.79094076655052
 10
39.433242506811986
 20
-54.494773519163765
 10
39.433242506811986
 20
-53.90243902439025
 10
39.13896457765667
 20
-53.606271777003485
 10
39.13896457765667
 20
-53.01393728222997
 10
38.25613079019073
 20
-52.12543554006969
 10
38.25613079019073
 20
-51.829268292682926
 10
37.667574931880104
 20
-51.23693379790941
 10
37.667574931880104
 20
-50.940766550522646
 10
36.490463215258856
 20
-49.75609756097561
 10
36.19618528610354
 20
-49.75609756097561
 10
34.724795640326974
 20
-48.275261324041814
 10
34.43051771117166
 20
-48.275261324041814
 10
34.13623978201635
 20
-47.97909407665505
 10
33.84196185286103
 20
-47.97909407665505
 10
33.54768392370572
 20
-47.68292682926829
 10
33.253405994550405
 20
-47.68292682926829
 10
32.95912806539509
 20
-47.386759581881535
 10
32.66485013623978
 20
-47.386759581881535
 10
32.370572207084464
 20
-47.09059233449477
 10
31.78201634877384
 20
-47.09059233449477
 10
31.487738419618527
 20
-46.79442508710802
 10
31.193460490463213
 20
-46.79442508710802
 10
30.8991825613079
 20
-46.498257839721255
 10
30.310626702997272
 20
-46.498257839721255
 10
30.01634877384196
 20
-46.20209059233449
 10
28.544959128065393
 20
-46.20209059233449
 10
28.25068119891008
 20
-45.90592334494774
  0
TEXT
  5
40
330
17
100
AcDbEntity
  8
TEXT
100
AcDbText
 10
27.662125340599452
 20
-58.048780487804876
 30
0.0
 40
5.0
  1
Contour 7
100
AcDbText
  0
LWPOLYLINE
  5
41
330
17
100
AcDbEntity
  8
CONTOURS
100
AcDbPolyline
 90
874
 70
1
 10
248.95912806539508
 20
-40.57491289198606
 10
248.66485013623978
 20
-40.87108013937282
 10
247.1934604904632
 20
-40.87108013937282
 10
246.8991825613079
 20
-41.167247386759584
 10
246.31062670299727
 20
-41.167247386759584
 10
246.01634877384194
 20
-41.46341463414634
 10
245.4277929155313
 20
-41.46341463414634
 10
245.133514986376
 20
-41.7595818815331
 10
244.83923705722069
 20
-41.7595818815331
 10
243.36784741144413
 20
-43.2404181184669
 10
243.0735694822888
 20
-43.2404181184669
 10
243.0735694822888
 20
-43.53658536585366
 10
242.48501362397818
 20
-44.12891986062718
 10
241.89645776566755
 20
-44.12891986062718
 10
241.01362397820162
 20
-45.01742160278746
 10
240.7193460490463
 20
-45.01742160278746
 10
240.425068119891
 20
-45.31358885017421
 10
240.425068119891
 20
-45.609756097560975
 10
239.83651226158037
 20
-46.20209059233449
 10
239.83651226158037
 20
-46.498257839721255
 10
239.24795640326974
 20
-47.09059233449477
 10
239.24795640326974
 20
-47.68292682926829
 10
238.95367847411444
 20
-47.97909407665505
 10
238.95367847411444
 20
-48.275261324041814
 10
238.3651226158038
 20
-48.86759581881533
 10
238.3651226158038
 20
-49.163763066202094
 10
237.48228882833786
 20
-50.05226480836237
 10
237.18801089918256
 20
-50.05226480836237
 10
236.89373297002723
 20
-50.34843205574913
 10
236.89373297002723
 20
-51.53310104529617
 10
237.18801089918256
 20
-51.829268292682926
 10
237.18801089918256
 20
-52.12543554006969
 10
237.48228882833786
 20
-52.42160278745644
 10
237.48228882833786
 20
-52.717770034843205
 10
237.77656675749319
 20
-53.01393728222997
 10
237.77656675749319
 20
-53.31010452961672
 10
238.07084468664848
 20
-53.606271777003485
 10
238.07084468664848
 20
-53.90243902439025
 10
238.3651226158038
 20
-54.198606271777
 10
238.3651226158038
 20
-54.494773519163765
 10
238.6594005449591
 20
-54.79094076655052
 10
238.6594005449591
 20
-55.08710801393728
 10
239.24795640326974
 20
-55.6794425087108
 10
239.24795640326974
 20
-55.97560975609756
 10
240.13079019073567
 20
-56.86411149825784
 10
240.13079019073567
 20
-57.1602787456446
 10
240.7193460490463
 20
-57.75261324041812
 10
240.7193460490463
 20
-58.048780487804876
 10
242.48501362397818
 20
-59.825783972125436
 10
242.48501362397818
 20
-60.1219512195122
 10
242.7792915531335
 20
-60.41811846689895
 10
243.0735694822888
 20
-60.41811846689895
 10
244.5449591280654
 20
-61.89895470383275
 10
244.5449591280654
 20
-62.19512195121951
 10
245.72207084468664
 20
-63.37979094076655
 10
245.72207084468664
 20
-63.67595818815331
 10
246.31062670299727
 20
-64.26829268292683
 10
246.31062670299727
 20
-64.56445993031359
 10
246.8991825613079
 20
-65.15679442508711
 10
246.8991825613079
 20
-65.45296167247386
 10
247.48773841961852
 20
-66.04529616724739
 10
247.48773841961852
 20
-66.34146341463415
 10
247.78201634877382
 20
-66.63763066202091
 10
247.78201634877382
 20
-66.93379790940766
 10
248.07629427792915
 20
-67.22996515679442
 10
248.07629427792915
 20
-67.52613240418118
 10
248.66485013623978
 20
-68.11846689895471
 10
248.66485013623978
 20
-68.41463414634147
 10
249.2534059945504
 20
-69.00696864111498
 10
249.2534059945504
 20
-69.30313588850174
 10
249.5476839237057
 20
-69.5993031358885
 10
249.5476839237057
 20
-69.89547038327527
 10
250.13623978201633
 20
-70.48780487804878
 10
250.13623978201633
 20
-70.78397212543554
 10
250.72479564032696
 20
-71.37630662020906
 10
250.72479564032696
 20
-71.67247386759581
 10
251.3133514986376
 20
-72.26480836236934
 10
251.3133514986376
 20
-72.5609756097561
 10
252.49046321525884
 20
-73.74564459930313
 10
252.49046321525884
 20
-74.0418118466899
 10
252.78474114441414
 20
-74.33797909407666
 10
252.78474114441414
 20
-74.63414634146342
 10
254.25613079019072
 20
-76.11498257839722
 10
254.25613079019072
 20
-76.41114982578397
 10
255.13896457765665
 20
-77.29965156794425
 10
255.13896457765665
 20
-77.59581881533101
 10
256.6103542234332
 20
-79.07665505226481
 10
256.6103542234332
 20
-79.37282229965157
 10
258.0817438692098
 20
-80.85365853658537
 10
258.0817438692098
 20
-81.14982578397212
 10
261.02452316076295
 20
-84.11149825783973
 10
261.02452316076295
 20
-84.40766550522648
 10
265.1444141689373
 20
-88.55400696864112
 10
265.1444141689373
 20
-88.85017421602788
 10
268.0871934604904
 20
-91.81184668989548
 10
268.0871934604904
 20
-92.10801393728222
 10
269.2643051771117
 20
-93.29268292682927
 10
269.2643051771117
 20
-93.58885017421603
 10
270.44141689373294
 20
-94.77351916376307
 10
270.44141689373294
 20
-95.06968641114983
 10
271.3242506811989
 20
-95.9581881533101
 10
271.3242506811989
 20
-96.25435540069687
 10
272.20708446866485
 20
-97.14285714285714
 10
272.20708446866485
 20
-97.4390243902439
 10
272.79564032697544
 20
-98.03135888501743
 10
272.79564032697544
 20
-98.32752613240419
 10
273.3841961852861
 20
-98.9198606271777
 10
273.3841961852861
 20
-99.21602787456446
 10
273.9727520435967
 20
-99.80836236933798
 10
273.9727520435967
 20
-100.10452961672473
 10
274.267029972752
 20
-100.4006968641115
 10
274.267029972752
 20
-100.69686411149826
 10
274.8555858310626
 20
-101.28919860627178
 10
274.8555858310626
 20
-101.58536585365853
 10
275.14986376021795
 20
-101.88153310104529
 10
275.14986376021795
 20
-102.17770034843205
 10
275.7384196185286
 20
-102.77003484320558
 10
275.7384196185286
 20
-103.06620209059234
 10
276.3269754768392
 20
-103.65853658536585
 10
276.3269754768392
 20
-103.95470383275261
 10
276.91553133514986
 20
-104.54703832752614
 10
276.91553133514986
 20
-104.84320557491289
 10
277.20980926430514
 20
-105.13937282229965
 10
277.20980926430514
 20
-105.43554006968641
 10
277.50408719346046
 20
-105.73170731707317
 10
277.50408719346046
 20
-106.02787456445994
 10
277.7983651226158
 20
-106.32404181184668
 10
277.7983651226158
 20
-106.91637630662021
 10
278.0926430517711
 20
-107.21254355400697
 10
278.0926430517711
 20
-107.50871080139373
 10
278.3869209809264
 20
-107.8048780487805
 10
278.3869209809264
 20
-108.397212543554
 10
278.6811989100817
 20
-108.69337979094077
 10
278.6811989100817
 20
-108.98954703832753
 10
278.97547683923705
 20
-109.28571428571429
 10
278.97547683923705
 20
-109.58188153310104
 10
279.2697547683924
 20
-109.8780487804878
 10
279.2697547683924
 20
-110.17421602787456
 10
279.56403269754765
 20
-110.47038327526133
 10
279.56403269754765
 20
-110.76655052264809
 10
279.858310626703
 20
-111.06271777003484
 10
279.858310626703
 20
-111.3588850174216
 10
280.1525885558583
 20
-111.65505226480836
 10
280.1525885558583
 20
-112.24738675958189
 10
280.44686648501363
 20
-112.54355400696865
 10
280.44686648501363
 20
-113.13588850174216
 10
280.7411444141689
 20
-113.43205574912892
 10
280.7411444141689
 20
-113.72822299651568
 10
281.0354223433242
 20
-114.02439024390245
 10
281.0354223433242
 20
-114.61672473867596
 10
281.32970027247956
 20
-114.91289198606272
 10
281.32970027247956
 20
-115.50522648083624
 10
281.6239782016349
 20
-115.80139372822299
 10
281.6239782016349
 20
-116.39372822299651
 10
281.91825613079016
 20
-116.68989547038328
 10
281.91825613079016
 20
-117.2822299651568
 10
282.2125340599455
 20
-117.57839721254355
 10
282.2125340599455
 20
-118.46689895470384
 10
282.5068119891008
 20
-118.7630662020906
 10
282.5068119891008
 20
-119.35540069686411
 10
282.80108991825614
 20
-119.65156794425087
 10
282.80108991825614
 20
-120.8362369337979
 10
283.0953678474114
 20
-121.13240418118467
 10
283.0953678474114
 20
-122.3170731707317
 10
283.38964577656674
 20
-122.61324041811847
 10
283.38964577656674
 20
-124.09407665505226
 10
283.68392370572207
 20
-124.39024390243902
 10
283.68392370572207
 20
-126.46341463414635
 10
283.9782016348774
 20
-126.7595818815331
 10
283.9782016348774
 20
-128.53658536585365
 10
284.27247956403266
 20
-128.83275261324042
 10
284.27247956403266
 20
-142.1602787456446
 10
283.9782016348774
 20
-142.45644599303137
 10
283.9782016348774
 20
-144.2334494773519
 10
283.68392370572207
 20
-144.52961672473867
 10
283.68392370572207
 20
-146.60278745644598
 10
283.38964577656674
 20
-146.89895470383274
 10
283.38964577656674
 20
-148.0836236933798
 10
283.0953678474114
 20
-148.37979094076655
 10
283.0953678474114
 20
-149.56445993031357
 10
282.80108991825614
 20
-149.86062717770034
 10
282.80108991825614
 20
-151.0452961672474
 10
282.5068119891008
 20
-151.34146341463415
 10
282.5068119891008
 20
-152.5261324041812
 10
282.2125340599455
 20
-152.82229965156793
 10
282.2125340599455
 20
-153.71080139372822
 10
281.91825613079016
 20
-154.00696864111498
 10
281.91825613079016
 20
-155.19163763066203
 10
281.6239782016349
 20
-155.4878048780488
 10
281.6239782016349
 20
-156.0801393728223
 10
281.32970027247956
 20
-156.37630662020905
 10
281.32970027247956
 20
-157.26480836236934
 10
281.0354223433242
 20
-157.5609756097561
 10
281.0354223433242
 20
-158.44947735191639
 10
280.7411444141689
 20
-158.74564459930315
 10
280.7411444141689
 20
-159.33797909407664
 10
280.44686648501363
 20
-159.6341463414634
 10
280.44686648501363
 20
-160.5226480836237
 10
280.1525885558583
 20
-160.81881533101046
 10
280.1525885558583
 20
-161.41114982578398
 10
279.858310626703
 20
-161.70731707317074
 10
279.858310626703
 20
-162.29965156794424
 10
279.56403269754765
 20
-162.595818815331
 10
279.56403269754765
 20
-162.89198606271776
 10
279.2697547683924
 20
-163.18815331010452
 10
279.2697547683924
 20
-163.78048780487805
 10
278.97547683923705
 20
-164.0766550522648
 10
278.97547683923705
 20
-164.66898954703834
 10
278.6811989100817
 20
-164.9651567944251
 10
278.6811989100817
 20
-165.26132404181186
 10
278.3869209809264
 20
-165.5574912891986
 10
278.3869209809264
 20
-165.85365853658536
 10
278.0926430517711
 20
-166.14982578397212
 10
278.0926430517711
 20
-166.44599303135888
 10
277.7983651226158
 20
-166.74216027874564
 10
277.7983651226158
 20
-167.63066202090593
 10
277.20980926430514
 20
-168.22299651567945
 10
277.20980926430514
 20
-168.5191637630662
 10
276.91553133514986
 20
-168.81533101045295
 10
276.91553133514986
 20
-169.1114982578397
 10
276.62125340599454
 20
-169.40766550522648
 10
276.62125340599454
 20
-170.0
 10
276.3269754768392
 20
-170.29616724738676
 10
276.3269754768392
 20
-170.59233449477352
 10
275.7384196185286
 20
-171.18466898954705
 10
275.7384196185286
 20
-171.4808362369338
 10
275.4441416893733
 20
-171.77700348432055
 10
275.4441416893733
 20
-172.0731707317073
 10
274.8555858310626
 20
-172.66550522648083
 10
274.8555858310626
 20
-173.25783972125436
 10
274.56130790190736
 20
-173.55400696864112
 10
274.56130790190736
 20
-173.85017421602788
 10
273.9727520435967
 20
-174.4425087108014
 10
273.9727520435967
 20
-174.73867595818817
 10
273.3841961852861
 20
-175.33101045296166
 10
273.3841961852861
 20
-175.62717770034843
 10
273.0899182561308
 20
-175.9233449477352
 10
273.0899182561308
 20
-176.21951219512195
 10
272.79564032697544
 20
-176.5156794425087
 10
272.79564032697544
 20
-176.81184668989548
 10
272.20708446866485
 20
-177.404181184669
 10
272.20708446866485
 20
-177.70034843205576
 10
271.6185286103542
 20
-178.29268292682926
 10
271.6185286103542
 20
-178.58885017421602
 10
270.73569482288826
 20
-179.4773519163763
 10
270.73569482288826
 20
-179.77351916376307
 10
270.14713896457766
 20
-180.3658536585366
 10
270.14713896457766
 20
-180.66202090592336
 10
268.9700272479564
 20
-181.84668989547038
 10
268.9700272479564
 20
-182.14285714285714
 10
267.79291553133515
 20
-183.3275261324042
 10
267.79291553133515
 20
-183.62369337979095
 10
266.3215258855586
 20
-185.10452961672473
 10
266.3215258855586
 20
-185.4006968641115
 10
264.2615803814714
 20
-187.4738675958188
 10
264.2615803814714
 20
-187.77003484320556
 10
261.02452316076295
 20
-191.02787456445992
 10
261.02452316076295
 20
-191.32404181184668
 10
259.25885558583104
 20
-193.10104529616726
 10
259.25885558583104
 20
-193.39721254355402
 10
253.9618528610354
 20
-198.72822299651568
 10
253.9618528610354
 20
-199.02439024390245
 10
253.6675749318801
 20
-199.3205574912892
 10
253.37329700272477
 20
-199.3205574912892
 10
253.07901907356947
 20
-199.61672473867597
 10
253.07901907356947
 20
-199.91289198606273
 10
250.43051771117166
 20
-202.57839721254356
 10
250.43051771117166
 20
-202.87456445993033
 10
248.07629427792915
 20
-205.2439024390244
 10
248.07629427792915
 20
-205.54006968641116
 10
246.60490463215257
 20
-207.02090592334494
 10
246.60490463215257
 20
-207.3170731707317
 10
246.31062670299727
 20
-207.61324041811847
 10
246.31062670299727
 20
-207.90940766550523
 10
245.4277929155313
 20
-208.79790940766551
 10
245.4277929155313
 20
-209.09407665505228
 10
244.83923705722069
 20
-209.68641114982577
 10
244.83923705722069
 20
-209.98257839721254
 10
244.5449591280654
 20
-210.2787456445993
 10
244.5449591280654
 20
-210.57491289198606
 10
243.95640326975476
 20
-211.16724738675958
 10
243.95640326975476
 20
-211.46341463414635
 10
243.66212534059943
 20
-211.7595818815331
 10
243.66212534059943
 20
-212.05574912891987
 10
243.0735694822888
 20
-212.64808362369337
 10
243.0735694822888
 20
-212.94425087108013
 10
242.7792915531335
 20
-213.2404181184669
 10
242.7792915531335
 20
-213.53658536585365
 10
242.48501362397818
 20
-213.83275261324042
 10
242.48501362397818
 20
-214.12891986062718
 10
241.89645776566755
 20
-214.7212543554007
 10
241.89645776566755
 20
-215.31358885017423
 10
241.30790190735692
 20
-215.90592334494772
 10
241.30790190735692
 20
-216.20209059233449
 10
240.425068119891
 20
-217.09059233449477
 10
240.13079019073567
 20
-217.09059233449477
 10
239.54223433242504
 20
-217.6829268292683
 10
239.24795640326974
 20
-217.6829268292683
 10
238.3651226158038
 20
-218.57142857142858
 10
238.07084468664848
 20
-218.57142857142858
 10
237.18801089918256
 20
-219.45993031358884
 10
236.89373297002723
 20
-219.45993031358884
 10
236.59945504087193
 20
-219.7560975609756
 10
236.3051771117166
 20
-219.7560975609756
 10
236.0108991825613
 20
-220.05226480836237
 10
235.71662125340598
 20
-220.05226480836237
 10
235.12806539509535
 20
-220.6445993031359
 10
234.83378746594005
 20
-220.6445993031359
 10
234.53950953678472
 20
-220.94076655052265
 10
234.24523160762942
 20
-220.94076655052265
 10
233.6566757493188
 20
-221.53310104529618
 10
233.36239782016347
 20
-221.53310104529618
 10
232.77384196185284
 20
-222.12543554006967
 10
232.47956403269754
 20
-222.12543554006967
 10
231.8910081743869
 20
-222.7177700348432
 10
231.59673024523158
 20
-222.7177700348432
 10
231.00817438692096
 20
-223.31010452961672
 10
230.71389645776566
 20
-223.31010452961672
 10
230.12534059945503
 20
-223.90243902439025
 10
229.8310626702997
 20
-223.90243902439025
 10
229.5367847411444
 20
-224.198606271777
 10
229.24250681198907
 20
-224.198606271777
 10
228.94822888283377
 20
-224.49477351916377
 10
228.65395095367845
 20
-224.49477351916377
 10
228.35967302452315
 20
-224.79094076655053
 10
228.06539509536782
 20
-224.79094076655053
 10
227.77111716621252
 20
-225.0871080139373
 10
227.47683923705722
 20
-225.0871080139373
 10
227.1825613079019
 20
-225.38327526132403
 10
226.8882833787466
 20
-225.38327526132403
 10
226.29972752043597
 20
-225.97560975609755
 10
226.00544959128064
 20
-225.97560975609755
 10
225.71117166212534
 20
-226.27177700348432
 10
225.41689373297
 20
-226.27177700348432
 10
225.1226158038147
 20
-226.56794425087108
 10
224.82833787465938
 20
-226.56794425087108
 10
224.53405994550408
 20
-226.86411149825784
 10
224.23978201634876
 20
-226.86411149825784
 10
223.94550408719346
 20
-227.1602787456446
 10
223.65122615803813
 20
-227.1602787456446
 10
223.0626702997275
 20
-227.75261324041813
 10
222.7683923705722
 20
-227.75261324041813
 10
222.47411444141687
 20
-228.0487804878049
 10
222.17983651226157
 20
-228.0487804878049
 10
221.88555858310625
 20
-228.34494773519162
 10
221.59128065395095
 20
-228.34494773519162
 10
221.00272479564032
 20
-228.93728222996515
 10
220.708446866485
 20
-228.93728222996515
 10
220.4141689373297
 20
-229.2334494773519
 10
220.11989100817436
 20
-229.2334494773519
 10
219.82561307901906
 20
-229.52961672473867
 10
219.53133514986374
 20
-229.52961672473867
 10
219.23705722070844
 20
-229.82578397212544
 10
218.9427792915531
 20
-229.82578397212544
 10
218.6485013623978
 20
-230.1219512195122
 10
218.35422343324248
 20
-230.1219512195122
 10
218.05994550408718
 20
-230.41811846689896
 10
217.76566757493185
 20
-230.41811846689896
 10
217.47138964577655
 20
-230.71428571428572
 10
217.17711171662123
 20
-230.71428571428572
 10
216.88283378746593
 20
-231.01045296167248
 10
216.5885558583106
 20
-231.01045296167248
 10
216.2942779291553
 20
-231.30662020905925
 10
216.0
 20
-231.30662020905925
 10
215.41144414168937
 20
-231.89895470383274
 10
215.11716621253404
 20
-231.89895470383274
 10
214.82288828337875
 20
-232.1951219512195
 10
214.52861035422342
 20
-232.1951219512195
 10
214.23433242506812
 20
-232.49128919860627
 10
213.9400544959128
 20
-232.49128919860627
 10
213.6457765667575
 20
-232.78745644599303
 10
213.35149863760216
 20
-232.78745644599303
 10
213.05722070844686
 20
-233.0836236933798
 10
212.76294277929154
 20
-233.0836236933798
 10
212.46866485013624
 20
-233.37979094076655
 10
212.1743869209809
 20
-233.37979094076655
 10
211.8801089918256
 20
-233.67595818815332
 10
211.58583106267028
 20
-233.67595818815332
 10
211.29155313351498
 20
-233.97212543554008
 10
210.99727520435965
 20
-233.97212543554008
 10
210.70299727520435
 20
-234.26829268292684
 10
210.40871934604903
 20
-234.26829268292684
 10
209.23160762942777
 20
-235.45296167247386
 10
209.23160762942777
 20
-235.74912891986062
 10
208.93732970027247
 20
-236.0452961672474
 10
208.93732970027247
 20
-236.93379790940767
 10
208.64305177111714
 20
-237.22996515679444
 10
208.64305177111714
 20
-241.0801393728223
 10
208.34877384196184
 20
-241.37630662020905
 10
208.05449591280652
 20
-241.37630662020905
 10
207.1716621253406
 20
-242.26480836236934
 10
206.87738419618526
 20
-242.26480836236934
 10
206.58310626702996
 20
-242.5609756097561
 10
206.58310626702996
 20
-242.85714285714286
 10
206.28882833787463
 20
-243.15331010452962
 10
206.28882833787463
 20
-243.44947735191639
 10
205.700272479564
 20
-244.04181184668988
 10
205.700272479564
 20
-244.33797909407664
 10
205.4059945504087
 20
-244.6341463414634
 10
205.4059945504087
 20
-245.22648083623693
 10
205.11171662125338
 20
-245.5226480836237
 10
205.11171662125338
 20
-247.29965156794424
 10
205.99455040871933
 20
-248.18815331010452
 10
205.99455040871933
 20
-248.4843205574913
 10
206.28882833787463
 20
-248.78048780487805
 10
206.28882833787463
 20
-249.0766550522648
 10
207.4659400544959
 20
-250.26132404181186
 10
207.76021798365122
 20
-250.26132404181186
 10
208.05449591280652
 20
-250.5574912891986
 10
208.34877384196184
 20
-250.5574912891986
 10
208.93732970027247
 20
-251.14982578397212
 10
209.23160762942777
 20
-251.14982578397212
 10
209.5258855585831
 20
-251.44599303135888
 10
213.05722070844686
 20
-251.44599303135888
 10
213.35149863760216
 20
-251.14982578397212
 10
213.6457765667575
 20
-251.14982578397212
 10
213.9400544959128
 20
-250.85365853658536
 10
214.23433242506812
 20
-250.85365853658536
 10
216.2942779291553
 20
-248.78048780487805
 10
218.05994550408718
 20
-248.78048780487805
 10
218.35422343324248
 20
-248.4843205574913
 10
218.6485013623978
 20
-248.4843205574913
 10
219.53133514986374
 20
-247.595818815331
 10
219.82561307901906
 20
-247.595818815331
 10
219.82561307901906
 20
-247.29965156794424
 10
220.4141689373297
 20
-246.70731707317074
 10
220.4141689373297
 20
-246.11498257839722
 10
220.708446866485
 20
-245.81881533101046
 10
220.708446866485
 20
-244.93031358885017
 10
221.00272479564032
 20
-244.6341463414634
 10
221.00272479564032
 20
-244.33797909407664
 10
221.29700272479562
 20
-244.04181184668988
 10
221.29700272479562
 20
-243.74564459930315
 10
222.7683923705722
 20
-242.26480836236934
 10
223.0626702997275
 20
-242.26480836236934
 10
223.94550408719346
 20
-241.37630662020905
 10
224.23978201634876
 20
-241.37630662020905
 10
224.82833787465938
 20
-240.78397212543555
 10
225.1226158038147
 20
-240.78397212543555
 10
226.00544959128064
 20
-239.89547038327527
 10
226.29972752043597
 20
-239.89547038327527
 10
226.8882833787466
 20
-239.30313588850174
 10
227.1825613079019
 20
-239.30313588850174
 10
227.47683923705722
 20
-239.00696864111498
 10
227.77111716621252
 20
-239.00696864111498
 10
228.35967302452315
 20
-238.41463414634146
 10
228.65395095367845
 20
-238.41463414634146
 10
228.94822888283377
 20
-238.1184668989547
 10
229.24250681198907
 20
-238.1184668989547
 10
229.8310626702997
 20
-237.5261324041812
 10
230.12534059945503
 20
-237.5261324041812
 10
230.71389645776566
 20
-236.93379790940767
 10
231.00817438692096
 20
-236.93379790940767
 10
231.59673024523158
 20
-236.34146341463415
 10
231.8910081743869
 20
-236.34146341463415
 10
233.06811989100817
 20
-235.1567944250871
 10
233.36239782016347
 20
-235.1567944250871
 10
233.9509536784741
 20
-234.5644599303136
 10
234.24523160762942
 20
-234.5644599303136
 10
234.53950953678472
 20
-234.26829268292684
 10
236.0108991825613
 20
-234.26829268292684
 10
236.3051771117166
 20
-233.97212543554008
 10
237.77656675749319
 20
-233.97212543554008
 10
238.07084468664848
 20
-233.67595818815332
 10
238.6594005449591
 20
-233.67595818815332
 10
238.95367847411444
 20
-233.37979094076655
 10
239.54223433242504
 20
-233.37979094076655
 10
239.83651226158037
 20
-233.0836236933798
 10
240.425068119891
 20
-233.0836236933798
 10
240.7193460490463
 20
-232.78745644599303
 10
241.30790190735692
 20
-232.78745644599303
 10
241.60217983651225
 20
-232.49128919860627
 10
242.7792915531335
 20
-232.49128919860627
 10
243.0735694822888
 20
-232.1951219512195
 10
244.25068119891006
 20
-232.1951219512195
 10
244.5449591280654
 20
-231.89895470383274
 10
249.5476839237057
 20
-231.89895470383274
 10
249.84196185286103
 20
-232.1951219512195
 10
251.3133514986376
 20
-232.1951219512195
 10
251.6076294277929
 20
-232.49128919860627
 10
252.78474114441414
 20
-232.49128919860627
 10
253.07901907356947
 20
-232.78745644599303
 10
254.84468664850135
 20
-232.78745644599303
 10
255.13896457765665
 20
-233.0836236933798
 10
257.19891008174386
 20
-233.0836236933798
 10
257.4931880108992
 20
-233.37979094076655
 10
262.7901907356948
 20
-233.37979094076655
 10
263.08446866485014
 20
-233.0836236933798
 10
265.1444141689373
 20
-233.0836236933798
 10
265.43869209809264
 20
-232.78745644599303
 10
266.02724795640324
 20
-232.78745644599303
 10
266.3215258855586
 20
-232.49128919860627
 10
267.4986376021798
 20
-232.49128919860627
 10
267.79291553133515
 20
-232.1951219512195
 10
268.6757493188011
 20
-232.1951219512195
 10
268.9700272479564
 20
-231.89895470383274
 10
269.558583106267
 20
-231.89895470383274
 10
269.85286103542234
 20
-231.60278745644598
 10
270.44141689373294
 20
-231.60278745644598
 10
270.73569482288826
 20
-231.30662020905925
 10
271.3242506811989
 20
-231.30662020905925
 10
271.6185286103542
 20
-231.01045296167248
 10
272.5013623978202
 20
-231.01045296167248
 10
272.79564032697544
 20
-230.71428571428572
 10
273.0899182561308
 20
-230.71428571428572
 10
273.3841961852861
 20
-230.41811846689896
 10
274.267029972752
 20
-230.41811846689896
 10
274.56130790190736
 20
-230.1219512195122
 10
274.8555858310626
 20
-230.1219512195122
 10
275.14986376021795
 20
-229.82578397212544
 10
275.4441416893733
 20
-229.82578397212544
 10
275.7384196185286
 20
-229.52961672473867
 10
276.0326975476839
 20
-229.52961672473867
 10
276.3269754768392
 20
-229.2334494773519
 10
276.91553133514986
 20
-229.2334494773519
 10
277.20980926430514
 20
-228.93728222996515
 10
277.50408719346046
 20
-228.93728222996515
 10
277.7983651226158
 20
-228.6411149825784
 10
278.0926430517711
 20
-228.6411149825784
 10
278.3869209809264
 20
-228.34494773519162
 10
278.6811989100817
 20
-228.34494773519162
 10
278.97547683923705
 20
-228.0487804878049
 10
279.2697547683924
 20
-228.0487804878049
 10
279.56403269754765
 20
-227.75261324041813
 10
279.858310626703
 20
-227.75261324041813
 10
280.1525885558583
 20
-227.45644599303137
 10
280.44686648501363
 20
-227.45644599303137
 10
280.7411444141689
 20
-227.1602787456446
 10
281.0354223433242
 20
-227.1602787456446
 10
281.32970027247956
 20
-226.86411149825784
 10
281.6239782016349
 20
-226.86411149825784
 10
281.91825613079016
 20
-226.56794425087108
 10
282.2125340599455
 20
-226.56794425087108
 10
282.80108991825614
 20
-225.97560975609755
 10
283.0953678474114
 20
-225.97560975609755
 10
283.38964577656674
 20
-225.6794425087108
 10
283.68392370572207
 20
-225.6794425087108
 10
284.27247956403266
 20
-225.0871080139373
 10
284.566757493188
 20
-225.0871080139373
 10
285.1553133514986
 20
-224.49477351916377
 10
285.4495912806539
 20
-224.49477351916377
 10
286.0381471389646
 20
-223.90243902439025
 10
286.33242506811985
 20
-223.90243902439025
 10
286.9209809264305
 20
-223.31010452961672
 10
287.21525885558583
 20
-223.31010452961672
 10
288.09809264305176
 20
-222.42160278745644
 10
288.3923705722071
 20
-222.42160278745644
 10
289.56948228882834
 20
-221.23693379790942
 10
289.8637602179836
 20
-221.23693379790942
 10
291.3351498637602
 20
-219.7560975609756
 10
291.6294277929155
 20
-219.7560975609756
 10
293.98365122615803
 20
-217.38675958188153
 10
294.27792915531336
 20
-217.38675958188153
 10
295.4550408719346
 20
-216.20209059233449
 10
295.4550408719346
 20
-215.90592334494772
 10
299.574931880109
 20
-211.7595818815331
 10
299.574931880109
 20
-211.46341463414635
 10
301.34059945504083
 20
-209.68641114982577
 10
301.34059945504083
 20
-209.390243902439
 10
302.8119891008174
 20
-207.90940766550523
 10
302.8119891008174
 20
-207.61324041811847
 10
303.98910081743867
 20
-206.42857142857142
 10
303.98910081743867
 20
-206.13240418118468
 10
305.7547683923706
 20
-204.3554006968641
 10
305.7547683923706
 20
-204.05923344947735
 10
306.6376021798365
 20
-203.17073170731706
 10
306.6376021798365
 20
-202.87456445993033
 10
307.52043596730243
 20
-201.98606271777004
 10
307.52043596730243
 20
-201.68989547038328
 10
308.40326975476836
 20
-200.801393728223
 10
308.40326975476836
 20
-200.50522648083623
 10
308.991825613079
 20
-199.91289198606273
 10
308.991825613079
 20
-199.61672473867597
 10
309.5803814713896
 20
-199.02439024390245
 10
309.5803814713896
 20
-198.72822299651568
 10
310.46321525885554
 20
-197.8397212543554
 10
310.46321525885554
 20
-197.54355400696863
 10
310.75749318801087
 20
-197.24738675958187
 10
310.75749318801087
 20
-196.9512195121951
 10
311.6403269754768
 20
-196.06271777003485
 10
311.6403269754768
 20
-195.7665505226481
 10
311.9346049046321
 20
-195.47038327526133
 10
311.9346049046321
 20
-195.17421602787456
 10
312.5231607629428
 20
-194.58188153310104
 10
312.5231607629428
 20
-194.28571428571428
 10
313.1117166212534
 20
-193.69337979094075
 10
313.1117166212534
 20
-193.39721254355402
 10
313.4059945504087
 20
-193.10104529616726
 10
313.4059945504087
 20
-192.8048780487805
 10
313.9945504087193
 20
-192.21254355400697
 10
313.9945504087193
 20
-191.9163763066202
 10
314.58310626702996
 20
-191.32404181184668
 10
314.58310626702996
 20
-191.02787456445992
 10
314.8773841961853
 20
-190.73170731707316
 10
314.8773841961853
 20
-190.43554006968643
 10
315.17166212534056
 20
-190.13937282229966
 10
315.17166212534056
 20
-189.8432055749129
 10
315.4659400544959
 20
-189.54703832752614
 10
315.4659400544959
 20
-189.25087108013938
 10
316.05449591280654
 20
-188.65853658536585
 10
316.05449591280654
 20
-188.3623693379791
 10
316.3487738419618
 20
-188.06620209059233
 10
316.3487738419618
 20
-187.77003484320556
 10
316.64305177111714
 20
-187.4738675958188
 10
316.64305177111714
 20
-187.17770034843207
 10
317.2316076294278
 20
-186.58536585365854
 10
317.2316076294278
 20
-186.28919860627178
 10
317.52588555858307
 20
-185.99303135888502
 10
317.52588555858307
 20
-185.69686411149826
 10
317.8201634877384
 20
-185.4006968641115
 10
317.8201634877384
 20
-185.10452961672473
 10
318.1144414168937
 20
-184.80836236933797
 10
318.1144414168937
 20
-184.21602787456445
 10
318.40871934604905
 20
-183.9198606271777
 10
318.40871934604905
 20
-183.62369337979095
 10
318.7029972752043
 20
-183.3275261324042
 10
318.7029972752043
 20
-183.03135888501743
 10
318.99727520435965
 20
-182.73519163763066
 10
318.99727520435965
 20
-182.4390243902439
 10
319.291553133515
 20
-182.14285714285714
 10
319.291553133515
 20
-181.55052264808361
 10
319.8801089918256
 20
-180.95818815331012
 10
319.8801089918256
 20
-180.3658536585366
 10
320.1743869209809
 20
-180.06968641114983
 10
320.1743869209809
 20
-179.4773519163763
 10
320.7629427792915
 20
-178.88501742160278
 10
320.7629427792915
 20
-178.29268292682926
 10
321.05722070844683
 20
-177.9965156794425
 10
321.05722070844683
 20
-177.404181184669
 10
321.35149863760216
 20
-177.10801393728224
 10
321.35149863760216
 20
-176.81184668989548
 10
321.6457765667575
 20
-176.5156794425087
 10
321.6457765667575
 20
-175.9233449477352
 10
321.94005449591276
 20
-175.62717770034843
 10
321.94005449591276
 20
-175.0348432055749
 10
322.2343324250681
 20
-174.73867595818817
 10
322.2343324250681
 20
-174.4425087108014
 10
322.5286103542234
 20
-174.14634146341464
 10
322.5286103542234
 20
-173.55400696864112
 10
322.82288828337875
 20
-173.25783972125436
 10
322.82288828337875
 20
-172.36933797909407
 10
323.117166212534
 20
-172.0731707317073
 10
323.117166212534
 20
-171.4808362369338
 10
323.41144414168934
 20
-171.18466898954705
 10
323.41144414168934
 20
-170.29616724738676
 10
323.7057220708447
 20
-170.0
 10
323.7057220708447
 20
-169.40766550522648
 10
324.0
 20
-169.1114982578397
 10
324.0
 20
-168.22299651567945
 10
324.29427792915527
 20
-167.9268292682927
 10
324.29427792915527
 20
-167.0383275261324
 10
324.5885558583106
 20
-166.74216027874564
 10
324.5885558583106
 20
-166.14982578397212
 10
324.8828337874659
 20
-165.85365853658536
 10
324.8828337874659
 20
-164.9651567944251
 10
325.17711171662125
 20
-164.66898954703834
 10
325.17711171662125
 20
-163.78048780487805
 10
325.4713896457765
 20
-163.4843205574913
 10
325.4713896457765
 20
-162.595818815331
 10
325.76566757493185
 20
-162.29965156794424
 10
325.76566757493185
 20
-161.41114982578398
 10
326.0599455040872
 20
-161.11498257839722
 10
326.0599455040872
 20
-159.93031358885017
 10
326.3542234332425
 20
-159.6341463414634
 10
326.3542234332425
 20
-158.74564459930315
 10
326.6485013623978
 20
-158.44947735191639
 10
326.6485013623978
 20
-157.26480836236934
 10
326.9427792915531
 20
-156.96864111498257
 10
326.9427792915531
 20
-155.4878048780488
 10
327.23705722070844
 20
-155.19163763066203
 10
327.23705722070844
 20
-153.71080139372822
 10
327.53133514986376
 20
-153.41463414634146
 10
327.53133514986376
 20
-151.93379790940767
 10
327.82561307901904
 20
-151.6376306620209
 10
327.82561307901904
 20
-149.56445993031357
 10
328.11989100817436
 20
-149.26829268292684
 10
328.11989100817436
 20
-146.60278745644598
 10
328.4141689373297
 20
-146.30662020905925
 10
328.4141689373297
 20
-142.45644599303137
 10
328.708446866485
 20
-142.1602787456446
 10
328.708446866485
 20
-132.97909407665506
 10
328.4141689373297
 20
-132.6829268292683
 10
328.4141689373297
 20
-129.12891986062718
 10
328.11989100817436
 20
-128.83275261324042
 10
328.11989100817436
 20
-126.7595818815331
 10
327.82561307901904
 20
-126.46341463414635
 10
327.82561307901904
 20
-124.39024390243902
 10
327.53133514986376
 20
-124.09407665505226
 10
327.53133514986376
 20
-122.3170731707317
 10
327.23705722070844
 20
-122.02090592334494
 10
327.23705722070844
 20
-120.54006968641114
 10
326.9427792915531
 20
-120.2439024390244
 10
326.9427792915531
 20
-118.46689895470384
 10
326.6485013623978
 20
-118.17073170731707
 10
326.6485013623978
 20
-116.68989547038328
 10
326.3542234332425
 20
-116.39372822299651
 10
326.3542234332425
 20
-115.20905923344948
 10
326.0599455040872
 20
-114.91289198606272
 10
326.0599455040872
 20
-113.72822299651568
 10
325.76566757493185
 20
-113.43205574912892
 10
325.76566757493185
 20
-112.24738675958189
 10
325.4713896457765
 20
-111.95121951219512
 10
325.4713896457765
 20
-111.06271777003484
 10
325.17711171662125
 20
-110.76655052264809
 10
325.17711171662125
 20
-109.8780487804878
 10
324.8828337874659
 20
-109.58188153310104
 10
324.8828337874659
 20
-108.69337979094077
 10
324.5885558583106
 20
-108.397212543554
 10
324.5885558583106
 20
-107.50871080139373
 10
324.29427792915527
 20
-107.21254355400697
 10
324.29427792915527
 20
-106.32404181184668
 10
324.0
 20
-106.02787456445994
 10
324.0
 20
-105.43554006968641
 10
323.7057220708447
 20
-105.13937282229965
 10
323.7057220708447
 20
-104.54703832752614
 10
323.41144414168934
 20
-104.25087108013938
 10
323.41144414168934
 20
-103.36236933797909
 10
323.117166212534
 20
-103.06620209059234
 10
323.117166212534
 20
-102.47386759581882
 10
322.82288828337875
 20
-102.17770034843205
 10
322.82288828337875
 20
-101.58536585365853
 10
322.5286103542234
 20
-101.28919860627178
 10
322.5286103542234
 20
-100.99303135888502
 10
322.2343324250681
 20
-100.69686411149826
 10
322.2343324250681
 20
-100.10452961672473
 10
321.94005449591276
 20
-99.80836236933798
 10
321.94005449591276
 20
-99.21602787456446
 10
321.6457765667575
 20
-98.9198606271777
 10
321.6457765667575
 20
-98.62369337979094
 10
321.35149863760216
 20
-98.32752613240419
 10
321.35149863760216
 20
-97.73519163763066
 10
321.05722070844683
 20
-97.4390243902439
 10
321.05722070844683
 20
-96.84668989547038
 10
320.7629427792915
 20
-96.55052264808363
 10
320.7629427792915
 20
-95.9581881533101
 10
320.46866485013624
 20
-95.66202090592334
 10
320.46866485013624
 20
-95.36585365853658
 10
320.1743869209809
 20
-95.06968641114983
 10
320.1743869209809
 20
-94.77351916376307
 10
319.8801089918256
 20
-94.4773519163763
 10
319.8801089918256
 20
-94.18118466898954
 10
319.58583106267025
 20
-93.88501742160278
 10
319.58583106267025
 20
-93.29268292682927
 10
319.291553133515
 20
-92.99651567944251
 10
319.291553133515
 20
-92.70034843205575
 10
318.7029972752043
 20
-92.10801393728222
 10
318.7029972752043
 20
-91.51567944250871
 10
318.40871934604905
 20
-91.21951219512195
 10
318.40871934604905
 20
-90.92334494773519
 10
318.1144414168937
 20
-90.62717770034843
 10
318.1144414168937
 20
-90.33101045296168
 10
317.8201634877384
 20
-90.03484320557492
 10
317.8201634877384
 20
-89.73867595818815
 10
317.52588555858307
 20
-89.44250871080139
 10
317.52588555858307
 20
-89.14634146341463
 10
317.2316076294278
 20
-88.85017421602788
 10
317.2316076294278
 20
-88.55400696864112
 10
316.93732970027247
 20
-88.25783972125436
 10
316.93732970027247
 20
-87.9616724738676
 10
316.3487738419618
 20
-87.36933797909408
 10
316.3487738419618
 20
-87.07317073170732
 10
316.05449591280654
 20
-86.77700348432056
 10
316.05449591280654
 20
-86.4808362369338
 10
315.7602179836512
 20
-86.18466898954703
 10
315.7602179836512
 20
-85.88850174216027
 10
315.4659400544959
 20
-85.59233449477352
 10
315.4659400544959
 20
-85.29616724738676
 10
314.8773841961853
 20
-84.70383275261324
 10
314.8773841961853
 20
-84.40766550522648
 10
314.58310626702996
 20
-84.11149825783973
 10
314.58310626702996
 20
-83.81533101045297
 10
313.9945504087193
 20
-83.22299651567944
 10
313.9945504087193
 20
-82.92682926829268
 10
313.70027247956403
 20
-82.63066202090593
 10
313.70027247956403
 20
-82.33449477351917
 10
313.1117166212534
 20
-81.74216027874564
 10
313.1117166212534
 20
-81.44599303135888
 10
312.5231607629428
 20
-80.85365853658537
 10
312.5231607629428
 20
-80.55749128919861
 10
311.9346049046321
 20
-79.96515679442508
 10
311.9346049046321
 20
-79.66898954703832
 10
311.3460490463215
 20
-79.07665505226481
 10
311.3460490463215
 20
-78.78048780487805
 10
310.75749318801087
 20
-78.18815331010452
 10
310.75749318801087
 20
-77.89198606271778
 10
310.16893732970027
 20
-77.29965156794425
 10
310.16893732970027
 20
-77.00348432055749
 10
309.5803814713896
 20
-76.41114982578397
 10
309.5803814713896
 20
-76.11498257839722
 10
308.6975476839237
 20
-75.22648083623693
 10
308.6975476839237
 20
-74.93031358885017
 10
307.81471389645776
 20
-74.0418118466899
 10
307.81471389645776
 20
-73.74564459930313
 10
306.93188010899183
 20
-72.85714285714286
 10
306.93188010899183
 20
-72.5609756097561
 10
305.7547683923706
 20
-71.37630662020906
 10
305.7547683923706
 20
-71.0801393728223
 10
304.5776566757493
 20
-69.89547038327527
 10
304.5776566757493
 20
-69.5993031358885
 10
302.8119891008174
 20
-67.82229965156795
 10
302.8119891008174
 20
-67.52613240418118
 10
300.75204359673023
 20
-65.45296167247386
 10
300.75204359673023
 20
-65.15679442508711
 10
294.57220708446863
 20
-58.937282229965156
 10
294.27792915531336
 20
-58.937282229965156
 10
292.2179836512261
 20
-56.86411149825784
 10
291.92370572207085
 20
-56.86411149825784
 10
290.15803814713894
 20
-55.08710801393728
 10
289.8637602179836
 20
-55.08710801393728
 10
288.3923705722071
 20
-53.606271777003485
 10
288.09809264305176
 20
-53.606271777003485
 10
287.21525885558583
 20
-52.717770034843205
 10
286.9209809264305
 20
-52.717770034843205
 10
285.74386920980925
 20
-51.53310104529617
 10
285.4495912806539
 20
-51.53310104529617
 10
284.566757493188
 20
-50.64459930313589
 10
284.27247956403266
 20
-50.64459930313589
 10
283.68392370572207
 20
-50.05226480836237
 10
283.38964577656674
 20
-50.05226480836237
 10
282.80108991825614
 20
-49.45993031358885
 10
282.5068119891008
 20
-49.45993031358885
 10
281.91825613079016
 20
-48.86759581881533
 10
281.6239782016349
 20
-48.86759581881533
 10
281.0354223433242
 20
-48.275261324041814
 10
280.7411444141689
 20
-48.275261324041814
 10
280.1525885558583
 20
-47.68292682926829
 10
279.858310626703
 20
-47.68292682926829
 10
279.56403269754765
 20
-47.386759581881535
 10
279.2697547683924
 20
-47.386759581881535
 10
278.97547683923705
 20
-47.09059233449477
 10
278.6811989100817
 20
-47.09059233449477
 10
278.3869209809264
 20
-46.79442508710802
 10
278.0926430517711
 20
-46.79442508710802
 10
277.7983651226158
 20
-46.498257839721255
 10
277.50408719346046
 20
-46.498257839721255
 10
277.20980926430514
 20
-46.20209059233449
 10
276.91553133514986
 20
-46.20209059233449
 10
276.62125340599454
 20
-45.90592334494774
 10
276.3269754768392
 20
-45.90592334494774
 10
276.0326975476839
 20
-45.609756097560975
 10
275.7384196185286
 20
-45.609756097560975
 10
275.4441416893733
 20
-45.31358885017421
 10
275.14986376021795
 20
-45.31358885017421
 10
274.8555858310626
 20
-45.01742160278746
 10
274.56130790190736
 20
-45.01742160278746
 10
274.267029972752
 20
-44.721254355400696
 10
273.67847411444137
 20
-44.721254355400696
 10
273.3841961852861
 20
-44.42508710801394
 10
272.79564032697544
 20
-44.42508710801394
 10
272.5013623978202
 20
-44.12891986062718
 10
271.9128065395095
 20
-44.12891986062718
 10
271.6185286103542
 20
-43.832752613240416
 10
271.0299727520436
 20
-43.832752613240416
 10
270.73569482288826
 20
-43.53658536585366
 10
270.14713896457766
 20
-43.53658536585366
 10
269.85286103542234
 20
-43.2404181184669
 10
268.6757493188011
 20
-43.2404181184669
 10
268.38147138964575
 20
-42.944250871080136
 10
267.4986376021798
 20
-42.944250871080136
 10
267.2043596730245
 20
-42.64808362369338
 10
266.02724795640324
 20
-42.64808362369338
 10
265.7329700272479
 20
-42.35191637630662
 10
264.2615803814714
 20
-42.35191637630662
 10
263.96730245231606
 20
-42.055749128919864
 10
261.61307901907355
 20
-42.055749128919864
 10
261.3188010899182
 20
-41.7595818815331
 10
256.6103542234332
 20
-41.7595818815331
 10
256.31607629427793
 20
-41.46341463414634
 10
253.9618528610354
 20
-41.46341463414634
 10
253.6675749318801
 20
-41.167247386759584
 10
252.49046321525884
 20
-41.167247386759584
 10
252.1961852861035
 20
-40.87108013937282
 10
250.43051771117166
 20
-40.87108013937282
 10
250.13623978201633
 20
-40.57491289198606
  0
TEXT
  5
42
330
17
100
AcDbEntity
  8
TEXT
100
AcDbText
 10
283.9782016348774
 20
-142.45644599303137
 30
0.0
 40
5.0
  1
Contour 8
100
AcDbText
  0
ENDSEC
  0
SECTION
  2
OBJECTS
  0
DICTIONARY
  5
A
330
0
100
AcDbDictionary
280
0
281
1
  3
ACAD_COLOR
350
B
  3
ACAD_GROUP
350
C
  3
ACAD_LAYOUT
350
D
  3
ACAD_MATERIAL
350
E
  3
ACAD_MLEADERSTYLE
350
F
  3
ACAD_MLINESTYLE
350
10
  3
ACAD_PLOTSETTINGS
350
11
  3
ACAD_PLOTSTYLENAME
350
12
  3
ACAD_SCALELIST
350
14
  3
ACAD_TABLESTYLE
350
15
  3
ACAD_VISUALSTYLE
350
16
  3
EZDXF_META
350
2D
  0
DICTIONARY
  5
B
330
A
100
AcDbDictionary
280
0
281
1
  0
DICTIONARY
  5
C
330
A
100
AcDbDictionary
280
0
281
1
  0
DICTIONARY
  5
D
330
A
100
AcDbDictionary
280
0
281
1
  3
Model
350
1A
  3
Layout1
350
1E
  0
DICTIONARY
  5
E
330
A
100
AcDbDictionary
280
0
281
1
  3
ByBlock
350
1F
  3
ByLayer
350
20
  3
Global
350
21
  0
DICTIONARY
  5
F
330
A
100
AcDbDictionary
280
0
281
1
  3
Standard
350
2C
  0
DICTIONARY
  5
10
330
A
100
AcDbDictionary
280
0
281
1
  3
Standard
350
22
  0
DICTIONARY
  5
11
330
A
100
AcDbDictionary
280
0
281
1
  0
ACDBDICTIONARYWDFLT
  5
12
330
A
100
AcDbDictionary
280
0
281
1
  3
Normal
350
13
100
AcDbDictionaryWithDefault
340
13
  0
ACDBPLACEHOLDER
  5
13
330
12
  0
DICTIONARY
  5
14
330
A
100
AcDbDictionary
280
0
281
1
  0
DICTIONARY
  5
15
330
A
100
AcDbDictionary
280
0
281
1
  0
DICTIONARY
  5
16
330
A
100
AcDbDictionary
280
0
281
1
  0
LAYOUT
  5
1A
330
D
100
AcDbPlotSettings
  1

  4
A3
  6

 40
7.5
 41
20.0
 42
7.5
 43
20.0
 44
420.0
 45
297.0
 46
0.0
 47
0.0
 48
0.0
 49
0.0
140
0.0
141
0.0
142
1.0
143
1.0
 70
1024
 72
1
 73
0
 74
5
  7

 75
16
 76
0
 77
2
 78
300
147
1.0
148
0.0
149
0.0
100
AcDbLayout
  1
Model
 70
1
 71
0
 10
0.0
 20
0.0
 11
420.0
 21
297.0
 12
0.0
 22
0.0
 32
0.0
 14
1e+20
 24
1e+20
 34
1e+20
 15
-1e+20
 25
-1e+20
 35
-1e+20
146
0.0
 13
0.0
 23
0.0
 33
0.0
 16
1.0
 26
0.0
 36
0.0
 17
0.0
 27
1.0
 37
0.0
 76
1
330
17
  0
LAYOUT
  5
1E
330
D
100
AcDbPlotSettings
  1

  4
A3
  6

 40
7.5
 41
20.0
 42
7.5
 43
20.0
 44
420.0
 45
297.0
 46
0.0
 47
0.0
 48
0.0
 49
0.0
140
0.0
141
0.0
142
1.0
143
1.0
 70
0
 72
1
 73
0
 74
5
  7

 75
16
 76
0
 77
2
 78
300
147
1.0
148
0.0
149
0.0
100
AcDbLayout
  1
Layout1
 70
1
 71
1
 10
0.0
 20
0.0
 11
420.0
 21
297.0
 12
0.0
 22
0.0
 32
0.0
 14
1e+20
 24
1e+20
 34
1e+20
 15
-1e+20
 25
-1e+20
 35
-1e+20
146
0.0
 13
0.0
 23
0.0
 33
0.0
 16
1.0
 26
0.0
 36
0.0
 17
0.0
 27
1.0
 37
0.0
 76
1
330
1B
  0
MATERIAL
  5
1F
102
{ACAD_REACTORS
330
E
102
}
330
E
100
AcDbMaterial
  1
ByBlock
  2

 70
0
 40
1.0
 71
1
 41
1.0
 91
-1023410177
 42
1.0
 72
1
  3

 73
1
 74
1
 75
1
 44
0.5
 73
0
 45
1.0
 46
1.0
 77
1
  4

 78
1
 79
1
170
1
 48
1.0
171
1
  6

172
1
173
1
174
1
140
1.0
141
1.0
175
1
  7

176
1
177
1
178
1
143
1.0
179
1
  8

270
1
271
1
272
1
145
1.0
146
1.0
273
1
  9

274
1
275
1
276
1
 42
1.0
 72
1
  3

 73
1
 74
1
 75
1
 94
63
  0
MATERIAL
  5
20
102
{ACAD_REACTORS
330
E
102
}
330
E
100
AcDbMaterial
  1
ByLayer
  2

 70
0
 40
1.0
 71
1
 41
1.0
 91
-1023410177
 42
1.0
 72
1
  3

 73
1
 74
1
 75
1
 44
0.5
 73
0
 45
1.0
 46
1.0
 77
1
  4

 78
1
 79
1
170
1
 48
1.0
171
1
  6

172
1
173
1
174
1
140
1.0
141
1.0
175
1
  7

176
1
177
1
178
1
143
1.0
179
1
  8

270
1
271
1
272
1
145
1.0
146
1.0
273
1
  9

274
1
275
1
276
1
 42
1.0
 72
1
  3

 73
1
 74
1
 75
1
 94
63
  0
MATERIAL
  5
21
102
{ACAD_REACTORS
330
E
102
}
330
E
100
AcDbMaterial
  1
Global
  2

 70
0
 40
1.0
 71
1
 41
1.0
 91
-1023410177
 42
1.0
 72
1
  3

 73
1
 74
1
 75
1
 44
0.5
 73
0
 45
1.0
 46
1.0
 77
1
  4

 78
1
 79
1
170
1
 48
1.0
171
1
  6

172
1
173
1
174
1
140
1.0
141
1.0
175
1
  7

176
1
177
1
178
1
143
1.0
179
1
  8

270
1
271
1
272
1
145
1.0
146
1.0
273
1
  9

274
1
275
1
276
1
 42
1.0
 72
1
  3

 73
1
 74
1
 75
1
 94
63
  0
MLINESTYLE
  5
22
102
{ACAD_REACTORS
330
10
102
}
330
10
100
AcDbMlineStyle
  2
Standard
 70
0
  3

 62
256
 51
90.0
 52
90.0
 71
2
 49
0.5
 62
256
  6
BYLAYER
 49
-0.5
 62
256
  6
BYLAYER
  0
MLEADERSTYLE
  5
2C
102
{ACAD_REACTORS
330
F
102
}
330
F
100
AcDbMLeaderStyle
179
2
170
2
171
1
172
0
 90
2
 40
0.0
 41
0.0
173
1
 91
-1056964608
 92
-2
290
1
 42
2.0
291
1
 43
8.0
  3
Standard
 44
4.0
300

342
29
174
1
175
1
176
0
178
1
 93
-1056964608
 45
4.0
292
0
297
0
 46
4.0
 94
-1056964608
 47
1.0
 49
1.0
140
1.0
294
1
141
0.0
177
0
142
1.0
295
0
296
0
143
3.75
271
0
272
9
273
9
  0
DICTIONARY
  5
2D
330
A
100
AcDbDictionary
280
1
281
1
  3
CREATED_BY_EZDXF
350
2E
  3
WRITTEN_BY_EZDXF
350
45
  0
DICTIONARYVAR
  5
2E
330
2D
100
DictionaryVariables
280
0
  1
1.4.0 @ 2025-03-10T12:27:07.080938+00:00
  0
DICTIONARYVAR
  5
45
330
2D
100
DictionaryVariables
280
0
  1
1.4.0 @ 2025-03-10T12:27:07.103502+00:00
  0
ENDSEC
  0
EOF
