  0
SECTION
  2
HEADER
  9
$ACADVER
  1
AC1024
  9
$ACADMAINTVER
 70
6
  9
$DWGCODEPAGE
  3
ANSI_1252
  9
$LASTSAVEDBY
  1
ezdxf
  9
$INSBASE
 10
0.0
 20
0.0
 30
0.0
  9
$EXTMIN
 10
1e+20
 20
1e+20
 30
1e+20
  9
$EXTMAX
 10
-1e+20
 20
-1e+20
 30
-1e+20
  9
$LIMMIN
 10
0.0
 20
0.0
  9
$LIMMAX
 10
420.0
 20
297.0
  9
$ORTHOMODE
 70
0
  9
$REGENMODE
 70
1
  9
$FILLMODE
 70
1
  9
$QTEXTMODE
 70
0
  9
$MIRRTEXT
 70
1
  9
$LTSCALE
 40
1.0
  9
$ATTMODE
 70
1
  9
$TEXTSIZE
 40
2.5
  9
$TRACEWID
 40
1.0
  9
$TEXTSTYLE
  7
Standard
  9
$CLAYER
  8
0
  9
$CELTYPE
  6
ByLayer
  9
$CECOLOR
 62
256
  9
$CELTSCALE
 40
1.0
  9
$DISPSILH
 70
0
  9
$DIMSCALE
 40
1.0
  9
$DIMASZ
 40
2.5
  9
$DIMEXO
 40
0.625
  9
$DIMDLI
 40
3.75
  9
$DIMRND
 40
0.0
  9
$DIMDLE
 40
0.0
  9
$DIMEXE
 40
1.25
  9
$DIMTP
 40
0.0
  9
$DIMTM
 40
0.0
  9
$DIMTXT
 40
2.5
  9
$DIMCEN
 40
2.5
  9
$DIMTSZ
 40
0.0
  9
$DIMTOL
 70
0
  9
$DIMLIM
 70
0
  9
$DIMTIH
 70
0
  9
$DIMTOH
 70
0
  9
$DIMSE1
 70
0
  9
$DIMSE2
 70
0
  9
$DIMTAD
 70
1
  9
$DIMZIN
 70
8
  9
$DIMBLK
  1

  9
$DIMASO
 70
1
  9
$DIMSHO
 70
1
  9
$DIMPOST
  1

  9
$DIMAPOST
  1

  9
$DIMALT
 70
0
  9
$DIMALTD
 70
3
  9
$DIMALTF
 40
0.03937007874
  9
$DIMLFAC
 40
1.0
  9
$DIMTOFL
 70
1
  9
$DIMTVP
 40
0.0
  9
$DIMTIX
 70
0
  9
$DIMSOXD
 70
0
  9
$DIMSAH
 70
0
  9
$DIMBLK1
  1

  9
$DIMBLK2
  1

  9
$DIMSTYLE
  2
ISO-25
  9
$DIMCLRD
 70
0
  9
$DIMCLRE
 70
0
  9
$DIMCLRT
 70
0
  9
$DIMTFAC
 40
1.0
  9
$DIMGAP
 40
0.625
  9
$DIMJUST
 70
0
  9
$DIMSD1
 70
0
  9
$DIMSD2
 70
0
  9
$DIMTOLJ
 70
0
  9
$DIMTZIN
 70
8
  9
$DIMALTZ
 70
0
  9
$DIMALTTZ
 70
0
  9
$DIMUPT
 70
0
  9
$DIMDEC
 70
2
  9
$DIMTDEC
 70
2
  9
$DIMALTU
 70
2
  9
$DIMALTTD
 70
3
  9
$DIMTXSTY
  7
Standard
  9
$DIMAUNIT
 70
0
  9
$DIMADEC
 70
0
  9
$DIMALTRND
 40
0.0
  9
$DIMAZIN
 70
0
  9
$DIMDSEP
 70
44
  9
$DIMATFIT
 70
3
  9
$DIMFRAC
 70
0
  9
$DIMLDRBLK
  1

  9
$DIMLUNIT
 70
2
  9
$DIMLWD
 70
-2
  9
$DIMLWE
 70
-2
  9
$DIMTMOVE
 70
0
  9
$DIMFXL
 40
1.0
  9
$DIMFXLON
 70
0
  9
$DIMJOGANG
 40
0.785398163397
  9
$DIMTFILL
 70
0
  9
$DIMTFILLCLR
 70
0
  9
$DIMARCSYM
 70
0
  9
$DIMLTYPE
  6

  9
$DIMLTEX1
  6

  9
$DIMLTEX2
  6

  9
$DIMTXTDIRECTION
 70
0
  9
$LUNITS
 70
2
  9
$LUPREC
 70
4
  9
$SKETCHINC
 40
1.0
  9
$FILLETRAD
 40
10.0
  9
$AUNITS
 70
0
  9
$AUPREC
 70
2
  9
$MENU
  1
.
  9
$ELEVATION
 40
0.0
  9
$PELEVATION
 40
0.0
  9
$THICKNESS
 40
0.0
  9
$LIMCHECK
 70
0
  9
$CHAMFERA
 40
0.0
  9
$CHAMFERB
 40
0.0
  9
$CHAMFERC
 40
0.0
  9
$CHAMFERD
 40
0.0
  9
$SKPOLY
 70
0
  9
$TDCREATE
 40
2460745.5724189817
  9
$TDUCREATE
 40
2458532.153996898
  9
$TDUPDATE
 40
2460745.5724189817
  9
$TDUUPDATE
 40
2458532.1544311
  9
$TDINDWG
 40
0.0
  9
$TDUSRTIMER
 40
0.0
  9
$USRTIMER
 70
1
  9
$ANGBASE
 50
0.0
  9
$ANGDIR
 70
0
  9
$PDMODE
 70
0
  9
$PDSIZE
 40
0.0
  9
$PLINEWID
 40
0.0
  9
$SPLFRAME
 70
0
  9
$SPLINETYPE
 70
6
  9
$SPLINESEGS
 70
8
  9
$HANDSEED
  5
3E
  9
$SURFTAB1
 70
6
  9
$SURFTAB2
 70
6
  9
$SURFTYPE
 70
6
  9
$SURFU
 70
6
  9
$SURFV
 70
6
  9
$UCSBASE
  2

  9
$UCSNAME
  2

  9
$UCSORG
 10
0.0
 20
0.0
 30
0.0
  9
$UCSXDIR
 10
1.0
 20
0.0
 30
0.0
  9
$UCSYDIR
 10
0.0
 20
1.0
 30
0.0
  9
$UCSORTHOREF
  2

  9
$UCSORTHOVIEW
 70
0
  9
$UCSORGTOP
 10
0.0
 20
0.0
 30
0.0
  9
$UCSORGBOTTOM
 10
0.0
 20
0.0
 30
0.0
  9
$UCSORGLEFT
 10
0.0
 20
0.0
 30
0.0
  9
$UCSORGRIGHT
 10
0.0
 20
0.0
 30
0.0
  9
$UCSORGFRONT
 10
0.0
 20
0.0
 30
0.0
  9
$UCSORGBACK
 10
0.0
 20
0.0
 30
0.0
  9
$PUCSBASE
  2

  9
$PUCSNAME
  2

  9
$PUCSORG
 10
0.0
 20
0.0
 30
0.0
  9
$PUCSXDIR
 10
1.0
 20
0.0
 30
0.0
  9
$PUCSYDIR
 10
0.0
 20
1.0
 30
0.0
  9
$PUCSORTHOREF
  2

  9
$PUCSORTHOVIEW
 70
0
  9
$PUCSORGTOP
 10
0.0
 20
0.0
 30
0.0
  9
$PUCSORGBOTTOM
 10
0.0
 20
0.0
 30
0.0
  9
$PUCSORGLEFT
 10
0.0
 20
0.0
 30
0.0
  9
$PUCSORGRIGHT
 10
0.0
 20
0.0
 30
0.0
  9
$PUCSORGFRONT
 10
0.0
 20
0.0
 30
0.0
  9
$PUCSORGBACK
 10
0.0
 20
0.0
 30
0.0
  9
$USERI1
 70
0
  9
$USERI2
 70
0
  9
$USERI3
 70
0
  9
$USERI4
 70
0
  9
$USERI5
 70
0
  9
$USERR1
 40
0.0
  9
$USERR2
 40
0.0
  9
$USERR3
 40
0.0
  9
$USERR4
 40
0.0
  9
$USERR5
 40
0.0
  9
$WORLDVIEW
 70
1
  9
$SHADEDGE
 70
3
  9
$SHADEDIF
 70
70
  9
$TILEMODE
 70
1
  9
$MAXACTVP
 70
64
  9
$PINSBASE
 10
0.0
 20
0.0
 30
0.0
  9
$PLIMCHECK
 70
0
  9
$PEXTMIN
 10
1e+20
 20
1e+20
 30
1e+20
  9
$PEXTMAX
 10
-1e+20
 20
-1e+20
 30
-1e+20
  9
$PLIMMIN
 10
0.0
 20
0.0
  9
$PLIMMAX
 10
420.0
 20
297.0
  9
$UNITMODE
 70
0
  9
$VISRETAIN
 70
1
  9
$PLINEGEN
 70
0
  9
$PSLTSCALE
 70
1
  9
$TREEDEPTH
 70
3020
  9
$CMLSTYLE
  2
Standard
  9
$CMLJUST
 70
0
  9
$CMLSCALE
 40
20.0
  9
$PROXYGRAPHICS
 70
1
  9
$MEASUREMENT
 70
1
  9
$CELWEIGHT
370
-1
  9
$ENDCAPS
280
0
  9
$JOINSTYLE
280
0
  9
$LWDISPLAY
290
0
  9
$INSUNITS
 70
6
  9
$HYPERLINKBASE
  1

  9
$STYLESHEET
  1

  9
$XEDIT
290
1
  9
$CEPSNTYPE
380
0
  9
$PSTYLEMODE
290
1
  9
$FINGERPRINTGUID
  2
{25CDDEF2-9323-4806-AE07-A6E67EBBC5AA}
  9
$VERSIONGUID
  2
{FE1E7269-DB05-4708-B790-DFAEAF2BF565}
  9
$EXTNAMES
290
1
  9
$PSVPSCALE
 40
0.0
  9
$OLESTARTUP
290
0
  9
$SORTENTS
280
127
  9
$INDEXCTL
280
0
  9
$HIDETEXT
280
1
  9
$XCLIPFRAME
280
1
  9
$HALOGAP
280
0
  9
$OBSCOLOR
 70
257
  9
$OBSLTYPE
280
0
  9
$INTERSECTIONDISPLAY
280
0
  9
$INTERSECTIONCOLOR
 70
257
  9
$DIMASSOC
280
2
  9
$PROJECTNAME
  1

  9
$CAMERADISPLAY
290
0
  9
$LENSLENGTH
 40
50.0
  9
$CAMERAHEIGHT
 40
0.0
  9
$STEPSPERSEC
 40
24.0
  9
$STEPSIZE
 40
100.0
  9
$3DDWFPREC
 40
2.0
  9
$PSOLWIDTH
 40
0.005
  9
$PSOLHEIGHT
 40
0.08
  9
$LOFTANG1
 40
1.570796326795
  9
$LOFTANG2
 40
1.570796326795
  9
$LOFTMAG1
 40
0.0
  9
$LOFTMAG2
 40
0.0
  9
$LOFTPARAM
 70
7
  9
$LOFTNORMALS
280
1
  9
$LATITUDE
 40
37.795
  9
$LONGITUDE
 40
-122.394
  9
$NORTHDIRECTION
 40
0.0
  9
$TIMEZONE
 70
-8000
  9
$LIGHTGLYPHDISPLAY
280
1
  9
$TILEMODELIGHTSYNCH
280
1
  9
$CMATERIAL
347
20
  9
$SOLIDHIST
280
0
  9
$SHOWHIST
280
1
  9
$DWFFRAME
280
2
  9
$DGNFRAME
280
2
  9
$REALWORLDSCALE
290
1
  9
$INTERFERECOLOR
 62
256
  9
$CSHADOW
280
0
  9
$SHADOWPLANELOCATION
 40
0.0
  0
ENDSEC
  0
SECTION
  2
CLASSES
  0
CLASS
  1
ACDBDICTIONARYWDFLT
  2
AcDbDictionaryWithDefault
  3
ObjectDBX Classes
 90
0
 91
0
280
0
281
0
  0
CLASS
  1
SUN
  2
AcDbSun
  3
SCENEOE
 90
1153
 91
0
280
0
281
0
  0
CLASS
  1
VISUALSTYLE
  2
AcDbVisualStyle
  3
ObjectDBX Classes
 90
4095
 91
0
280
0
281
0
  0
CLASS
  1
MATERIAL
  2
AcDbMaterial
  3
ObjectDBX Classes
 90
1153
 91
0
280
0
281
0
  0
CLASS
  1
SCALE
  2
AcDbScale
  3
ObjectDBX Classes
 90
1153
 91
0
280
0
281
0
  0
CLASS
  1
TABLESTYLE
  2
AcDbTableStyle
  3
ObjectDBX Classes
 90
4095
 91
0
280
0
281
0
  0
CLASS
  1
MLEADERSTYLE
  2
AcDbMLeaderStyle
  3
ACDB_MLEADERSTYLE_CLASS
 90
4095
 91
0
280
0
281
0
  0
CLASS
  1
DICTIONARYVAR
  2
AcDbDictionaryVar
  3
ObjectDBX Classes
 90
0
 91
0
280
0
281
0
  0
CLASS
  1
CELLSTYLEMAP
  2
AcDbCellStyleMap
  3
ObjectDBX Classes
 90
1152
 91
0
280
0
281
0
  0
CLASS
  1
MENTALRAYRENDERSETTINGS
  2
AcDbMentalRayRenderSettings
  3
SCENEOE
 90
1024
 91
0
280
0
281
0
  0
CLASS
  1
ACDBDETAILVIEWSTYLE
  2
AcDbDetailViewStyle
  3
ObjectDBX Classes
 90
1025
 91
0
280
0
281
0
  0
CLASS
  1
ACDBSECTIONVIEWSTYLE
  2
AcDbSectionViewStyle
  3
ObjectDBX Classes
 90
1025
 91
0
280
0
281
0
  0
CLASS
  1
RASTERVARIABLES
  2
AcDbRasterVariables
  3
ISM
 90
0
 91
0
280
0
281
0
  0
CLASS
  1
LAYOUT
  2
AcDbLayout
  3
ObjectDBX Classes
 90
0
 91
0
280
0
281
0
  0
CLASS
  1
ACDBPLACEHOLDER
  2
AcDbPlaceHolder
  3
ObjectDBX Classes
 90
0
 91
0
280
0
281
0
  0
ENDSEC
  0
SECTION
  2
TABLES
  0
TABLE
  2
VPORT
  5
8
330
0
100
AcDbSymbolTable
 70
1
  0
VPORT
  5
23
330
8
100
AcDbSymbolTableRecord
100
AcDbViewportTableRecord
  2
*Active
 70
0
 10
0.0
 20
0.0
 11
1.0
 21
1.0
 12
0.0
 22
0.0
 13
0.0
 23
0.0
 14
0.5
 24
0.5
 15
0.5
 25
0.5
 16
0.0
 26
0.0
 36
1.0
 17
0.0
 27
0.0
 37
0.0
 40
1000.0
 41
1.34
 42
50.0
 43
0.0
 44
0.0
 50
0.0
 51
0.0
 71
0
 72
1000
 73
1
 74
3
 75
0
 76
0
 77
0
 78
0
281
0
 65
0
146
0.0
  0
ENDTAB
  0
TABLE
  2
LTYPE
  5
2
330
0
100
AcDbSymbolTable
 70
3
  0
LTYPE
  5
24
330
2
100
AcDbSymbolTableRecord
100
AcDbLinetypeTableRecord
  2
ByBlock
 70
0
  3

 72
65
 73
0
 40
0.0
  0
LTYPE
  5
25
330
2
100
AcDbSymbolTableRecord
100
AcDbLinetypeTableRecord
  2
ByLayer
 70
0
  3

 72
65
 73
0
 40
0.0
  0
LTYPE
  5
26
330
2
100
AcDbSymbolTableRecord
100
AcDbLinetypeTableRecord
  2
Continuous
 70
0
  3

 72
65
 73
0
 40
0.0
  0
ENDTAB
  0
TABLE
  2
LAYER
  5
1
330
0
100
AcDbSymbolTable
 70
5
  0
LAYER
  5
27
330
1
100
AcDbSymbolTableRecord
100
AcDbLayerTableRecord
  2
0
 70
0
 62
7
  6
Continuous
370
-3
390
13
347
21
  0
LAYER
  5
28
330
1
100
AcDbSymbolTableRecord
100
AcDbLayerTableRecord
  2
Defpoints
 70
0
 62
7
  6
Continuous
290
0
370
-3
390
13
347
21
  0
LAYER
  5
2F
330
1
100
AcDbSymbolTableRecord
100
AcDbLayerTableRecord
  2
CONTOURS
 70
0
 62
7
  6
Continuous
370
-3
390
13
347
21
  0
LAYER
  5
30
330
1
100
AcDbSymbolTableRecord
100
AcDbLayerTableRecord
  2
DIMENSIONS
 70
0
 62
7
  6
Continuous
370
-3
390
13
347
21
  0
LAYER
  5
31
330
1
100
AcDbSymbolTableRecord
100
AcDbLayerTableRecord
  2
TEXT
 70
0
 62
7
  6
Continuous
370
-3
390
13
347
21
  0
ENDTAB
  0
TABLE
  2
STYLE
  5
5
330
0
100
AcDbSymbolTable
 70
1
  0
STYLE
  5
29
330
5
100
AcDbSymbolTableRecord
100
AcDbTextStyleTableRecord
  2
Standard
 70
0
 40
0.0
 41
1.0
 50
0.0
 71
0
 42
2.5
  3
txt
  4

  0
ENDTAB
  0
TABLE
  2
VIEW
  5
7
330
0
100
AcDbSymbolTable
 70
0
  0
ENDTAB
  0
TABLE
  2
UCS
  5
6
330
0
100
AcDbSymbolTable
 70
0
  0
ENDTAB
  0
TABLE
  2
APPID
  5
3
330
0
100
AcDbSymbolTable
 70
3
  0
APPID
  5
2A
330
3
100
AcDbSymbolTableRecord
100
AcDbRegAppTableRecord
  2
ACAD
 70
0
  0
APPID
  5
3B
330
3
100
AcDbSymbolTableRecord
100
AcDbRegAppTableRecord
  2
HATCHBACKGROUNDCOLOR
 70
0
  0
APPID
  5
3C
330
3
100
AcDbSymbolTableRecord
100
AcDbRegAppTableRecord
  2
EZDXF
 70
0
  0
ENDTAB
  0
TABLE
  2
DIMSTYLE
  5
4
330
0
100
AcDbSymbolTable
 70
1
100
AcDbDimStyleTable
  0
DIMSTYLE
105
2B
330
4
100
AcDbSymbolTableRecord
100
AcDbDimStyleTableRecord
  2
Standard
 70
0
 40
1.0
 41
2.5
 42
0.625
 43
3.75
 44
1.25
 45
0.0
 46
0.0
 47
0.0
 48
0.0
 49
2.5
140
2.5
141
2.5
142
0.0
143
0.03937007874
144
1.0
145
0.0
146
1.0
147
0.625
148
0.0
 69
0
 70
0
 71
0
 72
0
 73
0
 74
0
 75
0
 76
0
 77
1
 78
8
 79
3
170
0
171
3
172
1
173
0
174
0
175
0
176
0
177
0
178
0
179
2
271
2
272
2
273
2
274
3
275
0
276
0
277
2
278
44
279
0
280
0
281
0
282
0
283
0
284
8
285
0
286
0
288
0
289
3
290
0
371
-2
372
-2
  0
ENDTAB
  0
TABLE
  2
BLOCK_RECORD
  5
9
330
0
100
AcDbSymbolTable
 70
2
  0
BLOCK_RECORD
  5
17
330
9
100
AcDbSymbolTableRecord
100
AcDbBlockTableRecord
  2
*Model_Space
340
1A
 70
0
280
1
281
0
  0
BLOCK_RECORD
  5
1B
330
9
100
AcDbSymbolTableRecord
100
AcDbBlockTableRecord
  2
*Paper_Space
340
1E
 70
0
280
1
281
0
  0
ENDTAB
  0
ENDSEC
  0
SECTION
  2
BLOCKS
  0
BLOCK
  5
18
330
17
100
AcDbEntity
  8
0
100
AcDbBlockBegin
  2
*Model_Space
 70
0
 10
0.0
 20
0.0
 30
0.0
  3
*Model_Space
  1

  0
ENDBLK
  5
19
330
17
100
AcDbEntity
  8
0
100
AcDbBlockEnd
  0
BLOCK
  5
1C
330
1B
100
AcDbEntity
  8
0
100
AcDbBlockBegin
  2
*Paper_Space
 70
0
 10
0.0
 20
0.0
 30
0.0
  3
*Paper_Space
  1

  0
ENDBLK
  5
1D
330
1B
100
AcDbEntity
  8
0
100
AcDbBlockEnd
  0
ENDSEC
  0
SECTION
  2
ENTITIES
  0
LWPOLYLINE
  5
32
330
17
100
AcDbEntity
  8
CONTOURS
100
AcDbPolyline
 90
187
 70
1
 10
87.04918032786885
 20
274.3181818181818
 10
86.75409836065573
 20
274.6153846153846
 10
86.1639344262295
 20
274.6153846153846
 10
85.8688524590164
 20
274.9125874125874
 10
85.57377049180327
 20
274.9125874125874
 10
85.27868852459017
 20
275.2097902097902
 10
84.98360655737704
 20
275.2097902097902
 10
79.9672131147541
 20
280.26223776223776
 10
79.9672131147541
 20
280.55944055944053
 10
79.37704918032787
 20
281.15384615384613
 10
79.37704918032787
 20
281.45104895104896
 10
78.78688524590164
 20
282.04545454545456
 10
78.78688524590164
 20
282.34265734265733
 10
78.49180327868852
 20
282.63986013986016
 10
78.49180327868852
 20
282.93706293706293
 10
78.19672131147541
 20
283.2342657342657
 10
78.19672131147541
 20
283.53146853146853
 10
77.31147540983606
 20
284.4230769230769
 10
66.09836065573771
 20
284.4230769230769
 10
65.80327868852459
 20
284.72027972027973
 10
65.50819672131148
 20
284.72027972027973
 10
65.21311475409836
 20
285.0174825174825
 10
64.91803278688525
 20
285.0174825174825
 10
64.62295081967213
 20
285.31468531468533
 10
64.62295081967213
 20
285.6118881118881
 10
63.73770491803279
 20
286.5034965034965
 10
63.442622950819676
 20
286.5034965034965
 10
62.55737704918033
 20
287.3951048951049
 10
33.9344262295082
 20
287.3951048951049
 10
33.63934426229508
 20
287.6923076923077
 10
32.75409836065574
 20
287.6923076923077
 10
32.459016393442624
 20
287.9895104895105
 10
32.16393442622951
 20
287.9895104895105
 10
31.868852459016395
 20
288.2867132867133
 10
31.57377049180328
 20
288.2867132867133
 10
29.21311475409836
 20
290.6643356643357
 10
29.21311475409836
 20
290.96153846153845
 10
28.327868852459016
 20
291.8531468531468
 10
28.327868852459016
 20
292.15034965034965
 10
28.0327868852459
 20
292.4475524475524
 10
28.0327868852459
 20
292.74475524475525
 10
27.737704918032787
 20
293.041958041958
 10
27.737704918032787
 20
293.33916083916085
 10
27.442622950819672
 20
293.6363636363636
 10
27.442622950819672
 20
294.2307692307692
 10
27.147540983606557
 20
294.527972027972
 10
27.147540983606557
 20
295.1223776223776
 10
26.852459016393443
 20
295.4195804195804
 10
26.852459016393443
 20
295.7167832167832
 10
26.557377049180328
 20
296.013986013986
 10
26.557377049180328
 20
296.9055944055944
 10
26.262295081967213
 20
297.20279720279717
 10
26.262295081967213
 20
297.7972027972028
 10
25.9672131147541
 20
298.0944055944056
 10
25.9672131147541
 20
299.2832167832168
 10
25.672131147540984
 20
299.5804195804196
 10
25.672131147540984
 20
303.44405594405595
 10
25.9672131147541
 20
303.7412587412587
 10
25.9672131147541
 20
305.5244755244755
 10
26.262295081967213
 20
305.8216783216783
 10
26.262295081967213
 20
306.1188811188811
 10
26.557377049180328
 20
306.4160839160839
 10
26.557377049180328
 20
307.3076923076923
 10
26.852459016393443
 20
307.6048951048951
 10
26.852459016393443
 20
307.9020979020979
 10
27.442622950819672
 20
308.4965034965035
 10
27.442622950819672
 20
308.7937062937063
 10
28.327868852459016
 20
309.68531468531467
 10
28.62295081967213
 20
309.68531468531467
 10
28.918032786885245
 20
309.9825174825175
 10
29.508196721311474
 20
309.9825174825175
 10
29.80327868852459
 20
310.27972027972027
 10
33.63934426229508
 20
310.27972027972027
 10
33.9344262295082
 20
310.5769230769231
 10
41.60655737704918
 20
310.5769230769231
 10
41.90163934426229
 20
310.87412587412587
 10
47.80327868852459
 20
310.87412587412587
 10
48.09836065573771
 20
311.1713286713287
 10
56.65573770491803
 20
311.1713286713287
 10
56.950819672131146
 20
311.46853146853147
 10
58.721311475409834
 20
311.46853146853147
 10
59.31147540983606
 20
312.06293706293707
 10
59.31147540983606
 20
312.36013986013984
 10
59.90163934426229
 20
312.95454545454544
 10
59.90163934426229
 20
313.25174825174827
 10
61.37704918032787
 20
314.73776223776224
 10
61.9672131147541
 20
314.73776223776224
 10
62.26229508196722
 20
315.034965034965
 10
73.77049180327869
 20
315.034965034965
 10
74.06557377049181
 20
315.33216783216784
 10
74.06557377049181
 20
315.6293706293706
 10
74.36065573770492
 20
315.92657342657344
 10
74.36065573770492
 20
316.52097902097904
 10
74.65573770491804
 20
316.8181818181818
 10
74.65573770491804
 20
317.7097902097902
 10
74.95081967213115
 20
318.006993006993
 10
74.95081967213115
 20
318.8986013986014
 10
75.24590163934427
 20
319.1958041958042
 10
75.24590163934427
 20
319.493006993007
 10
75.54098360655738
 20
319.7902097902098
 10
75.54098360655738
 20
320.38461538461536
 10
75.8360655737705
 20
320.6818181818182
 10
75.8360655737705
 20
320.97902097902096
 10
76.1311475409836
 20
321.2762237762238
 10
76.1311475409836
 20
321.57342657342656
 10
76.42622950819673
 20
321.8706293706294
 10
76.42622950819673
 20
322.16783216783216
 10
77.01639344262296
 20
322.76223776223776
 10
77.01639344262296
 20
323.05944055944053
 10
79.08196721311475
 20
325.13986013986016
 10
79.37704918032787
 20
325.13986013986016
 10
79.67213114754098
 20
325.43706293706293
 10
79.9672131147541
 20
325.43706293706293
 10
80.26229508196721
 20
325.7342657342657
 10
81.14754098360656
 20
325.7342657342657
 10
81.44262295081967
 20
326.03146853146853
 10
89.11475409836066
 20
326.03146853146853
 10
89.40983606557377
 20
326.3286713286713
 10
103.27868852459017
 20
326.3286713286713
 10
103.57377049180327
 20
326.62587412587413
 10
125.40983606557377
 20
326.62587412587413
 10
125.70491803278689
 20
326.9230769230769
 10
137.21311475409837
 20
326.9230769230769
 10
137.50819672131146
 20
327.22027972027973
 10
149.9016393442623
 20
327.22027972027973
 10
150.19672131147541
 20
327.5174825174825
 10
171.14754098360655
 20
327.5174825174825
 10
171.44262295081967
 20
327.81468531468533
 10
188.85245901639345
 20
327.81468531468533
 10
189.14754098360655
 20
328.1118881118881
 10
205.9672131147541
 20
328.1118881118881
 10
206.2622950819672
 20
328.4090909090909
 10
216.59016393442624
 20
328.4090909090909
 10
216.88524590163934
 20
328.1118881118881
 10
217.7704918032787
 20
328.1118881118881
 10
218.0655737704918
 20
327.81468531468533
 10
218.36065573770492
 20
327.81468531468533
 10
218.95081967213116
 20
327.22027972027973
 10
219.24590163934425
 20
327.22027972027973
 10
219.54098360655738
 20
326.9230769230769
 10
219.8360655737705
 20
326.9230769230769
 10
220.4262295081967
 20
326.3286713286713
 10
220.4262295081967
 20
326.03146853146853
 10
220.72131147540983
 20
325.7342657342657
 10
220.72131147540983
 20
325.13986013986016
 10
221.01639344262296
 20
324.84265734265733
 10
221.01639344262296
 20
324.24825174825173
 10
221.31147540983608
 20
323.95104895104896
 10
221.31147540983608
 20
322.16783216783216
 10
221.60655737704917
 20
321.8706293706294
 10
221.60655737704917
 20
318.6013986013986
 10
221.9016393442623
 20
318.3041958041958
 10
221.9016393442623
 20
313.84615384615387
 10
222.19672131147541
 20
313.54895104895104
 10
222.19672131147541
 20
305.5244755244755
 10
222.49180327868854
 20
305.22727272727275
 10
222.49180327868854
 20
294.8251748251748
 10
222.78688524590163
 20
294.527972027972
 10
222.78688524590163
 20
288.2867132867133
 10
222.49180327868854
 20
287.9895104895105
 10
222.49180327868854
 20
285.0174825174825
 10
222.78688524590163
 20
284.72027972027973
 10
222.78688524590163
 20
282.93706293706293
 10
222.49180327868854
 20
282.63986013986016
 10
222.49180327868854
 20
279.965034965035
 10
222.19672131147541
 20
279.66783216783216
 10
222.19672131147541
 20
278.7762237762238
 10
221.9016393442623
 20
278.47902097902096
 10
221.9016393442623
 20
277.88461538461536
 10
221.31147540983608
 20
277.2902097902098
 10
221.31147540983608
 20
276.993006993007
 10
221.01639344262296
 20
276.993006993007
 10
220.4262295081967
 20
276.3986013986014
 10
219.54098360655738
 20
276.3986013986014
 10
219.24590163934425
 20
276.1013986013986
 10
208.91803278688525
 20
276.1013986013986
 10
208.62295081967213
 20
275.8041958041958
 10
185.9016393442623
 20
275.8041958041958
 10
185.60655737704917
 20
275.506993006993
 10
162.59016393442624
 20
275.506993006993
 10
162.29508196721312
 20
275.2097902097902
 10
142.52459016393442
 20
275.2097902097902
 10
142.22950819672133
 20
274.9125874125874
 10
124.52459016393443
 20
274.9125874125874
 10
124.22950819672131
 20
274.6153846153846
 10
103.8688524590164
 20
274.6153846153846
 10
103.57377049180327
 20
274.3181818181818
  0
LWPOLYLINE
  5
33
330
17
100
AcDbEntity
  8
CONTOURS
100
AcDbPolyline
 90
114
 70
1
 10
421.672131147541
 20
147.1153846153846
 10
421.3770491803279
 20
147.4125874125874
 10
421.3770491803279
 20
148.60139860139859
 10
421.08196721311475
 20
148.8986013986014
 10
421.08196721311475
 20
150.0874125874126
 10
420.78688524590166
 20
150.3846153846154
 10
420.78688524590166
 20
152.46503496503496
 10
420.1967213114754
 20
153.05944055944056
 10
420.1967213114754
 20
153.65384615384616
 10
419.9016393442623
 20
153.95104895104896
 10
419.9016393442623
 20
154.54545454545453
 10
419.60655737704917
 20
154.84265734265733
 10
419.60655737704917
 20
155.13986013986013
 10
419.3114754098361
 20
155.43706293706293
 10
419.3114754098361
 20
156.03146853146853
 10
419.016393442623
 20
156.32867132867133
 10
419.016393442623
 20
157.5174825174825
 10
418.72131147540983
 20
157.8146853146853
 10
418.72131147540983
 20
159.3006993006993
 10
418.42622950819674
 20
159.5979020979021
 10
418.42622950819674
 20
161.38111888111888
 10
418.1311475409836
 20
161.67832167832168
 10
418.1311475409836
 20
172.97202797202797
 10
417.8360655737705
 20
173.26923076923077
 10
417.8360655737705
 20
192.5874125874126
 10
417.5409836065574
 20
192.8846153846154
 10
417.5409836065574
 20
212.2027972027972
 10
417.24590163934425
 20
212.5
 10
417.24590163934425
 20
229.73776223776224
 10
416.95081967213116
 20
230.03496503496504
 10
416.95081967213116
 20
235.0874125874126
 10
416.65573770491807
 20
235.3846153846154
 10
416.65573770491807
 20
251.13636363636363
 10
416.3606557377049
 20
251.43356643356643
 10
416.3606557377049
 20
259.16083916083915
 10
416.0655737704918
 20
259.458041958042
 10
416.0655737704918
 20
264.2132867132867
 10
416.3606557377049
 20
264.5104895104895
 10
416.3606557377049
 20
268.6713286713287
 10
416.0655737704918
 20
268.96853146853147
 10
416.0655737704918
 20
278.1818181818182
 10
415.7704918032787
 20
278.47902097902096
 10
415.7704918032787
 20
284.72027972027973
 10
415.4754098360656
 20
285.0174825174825
 10
415.4754098360656
 20
286.2062937062937
 10
415.7704918032787
 20
286.5034965034965
 10
415.7704918032787
 20
289.77272727272725
 10
415.4754098360656
 20
290.0699300699301
 10
415.4754098360656
 20
290.6643356643357
 10
415.7704918032787
 20
290.96153846153845
 10
416.0655737704918
 20
290.96153846153845
 10
416.3606557377049
 20
291.2587412587413
 10
416.3606557377049
 20
291.8531468531468
 10
416.95081967213116
 20
292.4475524475524
 10
417.24590163934425
 20
292.4475524475524
 10
417.5409836065574
 20
292.74475524475525
 10
417.8360655737705
 20
292.74475524475525
 10
418.1311475409836
 20
293.041958041958
 10
418.42622950819674
 20
293.041958041958
 10
418.72131147540983
 20
293.33916083916085
 10
419.60655737704917
 20
293.33916083916085
 10
419.9016393442623
 20
293.6363636363636
 10
421.08196721311475
 20
293.6363636363636
 10
421.3770491803279
 20
293.33916083916085
 10
421.672131147541
 20
293.33916083916085
 10
421.9672131147541
 20
293.041958041958
 10
422.55737704918033
 20
293.041958041958
 10
424.0327868852459
 20
291.55594405594405
 10
424.0327868852459
 20
290.96153846153845
 10
424.327868852459
 20
290.6643356643357
 10
424.327868852459
 20
285.6118881118881
 10
424.0327868852459
 20
285.31468531468533
 10
424.0327868852459
 20
281.45104895104896
 10
423.7377049180328
 20
281.15384615384613
 10
423.7377049180328
 20
270.75174825174827
 10
424.0327868852459
 20
270.45454545454544
 10
424.0327868852459
 20
260.34965034965035
 10
424.327868852459
 20
260.0524475524476
 10
424.327868852459
 20
247.56993006993008
 10
424.62295081967216
 20
247.27272727272728
 10
424.62295081967216
 20
231.8181818181818
 10
424.91803278688525
 20
231.520979020979
 10
424.91803278688525
 20
214.28321678321677
 10
425.21311475409834
 20
213.98601398601397
 10
425.21311475409834
 20
193.479020979021
 10
425.5081967213115
 20
193.1818181818182
 10
425.5081967213115
 20
173.26923076923077
 10
425.8032786885246
 20
172.97202797202797
 10
425.5081967213115
 20
172.67482517482517
 10
425.5081967213115
 20
170.0
 10
425.8032786885246
 20
169.7027972027972
 10
425.8032786885246
 20
160.78671328671328
 10
425.5081967213115
 20
160.48951048951048
 10
425.5081967213115
 20
158.7062937062937
 10
425.21311475409834
 20
158.4090909090909
 10
425.21311475409834
 20
156.32867132867133
 10
424.91803278688525
 20
156.03146853146853
 10
424.91803278688525
 20
154.84265734265733
 10
424.62295081967216
 20
154.54545454545453
 10
424.62295081967216
 20
153.65384615384616
 10
424.327868852459
 20
153.35664335664336
 10
424.327868852459
 20
152.76223776223776
 10
424.0327868852459
 20
152.46503496503496
 10
424.0327868852459
 20
152.16783216783216
 10
423.7377049180328
 20
151.87062937062936
 10
423.7377049180328
 20
151.57342657342656
 10
423.44262295081967
 20
151.2762237762238
 10
423.44262295081967
 20
150.6818181818182
 10
423.1475409836066
 20
150.3846153846154
 10
423.1475409836066
 20
149.1958041958042
 10
422.8524590163934
 20
148.8986013986014
 10
422.8524590163934
 20
147.7097902097902
 10
422.55737704918033
 20
147.4125874125874
 10
422.55737704918033
 20
147.1153846153846
  0
LWPOLYLINE
  5
34
330
17
100
AcDbEntity
  8
CONTOURS
100
AcDbPolyline
 90
231
 70
1
 10
369.7377049180328
 20
131.36363636363637
 10
369.44262295081967
 20
131.66083916083915
 10
365.016393442623
 20
131.66083916083915
 10
364.72131147540983
 20
131.95804195804195
 10
361.1803278688525
 20
131.95804195804195
 10
360.88524590163934
 20
132.25524475524475
 10
357.6393442622951
 20
132.25524475524475
 10
357.344262295082
 20
132.55244755244755
 10
355.8688524590164
 20
132.55244755244755
 10
355.57377049180326
 20
132.84965034965035
 10
353.8032786885246
 20
132.84965034965035
 10
353.5081967213115
 20
133.14685314685315
 10
352.0327868852459
 20
133.14685314685315
 10
351.7377049180328
 20
133.44405594405595
 10
349.9672131147541
 20
133.44405594405595
 10
349.672131147541
 20
133.74125874125875
 10
347.9016393442623
 20
133.74125874125875
 10
347.60655737704917
 20
134.03846153846155
 10
346.1311475409836
 20
134.03846153846155
 10
345.8360655737705
 20
134.33566433566435
 10
344.3606557377049
 20
134.33566433566435
 10
344.0655737704918
 20
134.63286713286712
 10
342.88524590163934
 20
134.63286713286712
 10
342.59016393442624
 20
134.93006993006992
 10
342.2950819672131
 20
134.93006993006992
 10
342.0
 20
135.22727272727272
 10
341.7049180327869
 20
135.22727272727272
 10
341.11475409836066
 20
135.82167832167832
 10
341.11475409836066
 20
139.3881118881119
 10
341.40983606557376
 20
139.6853146853147
 10
341.40983606557376
 20
139.9825174825175
 10
343.7704918032787
 20
139.9825174825175
 10
344.0655737704918
 20
140.27972027972027
 10
345.8360655737705
 20
140.27972027972027
 10
346.1311475409836
 20
140.57692307692307
 10
346.42622950819674
 20
140.57692307692307
 10
346.72131147540983
 20
140.27972027972027
 10
347.0163934426229
 20
140.27972027972027
 10
347.9016393442623
 20
139.3881118881119
 10
351.44262295081967
 20
139.3881118881119
 10
351.7377049180328
 20
139.6853146853147
 10
351.7377049180328
 20
142.06293706293707
 10
350.55737704918033
 20
143.25174825174824
 10
350.55737704918033
 20
143.54895104895104
 10
348.4918032786885
 20
145.62937062937064
 10
348.4918032786885
 20
145.9265734265734
 10
347.60655737704917
 20
146.8181818181818
 10
347.60655737704917
 20
147.1153846153846
 10
346.72131147540983
 20
148.006993006993
 10
346.72131147540983
 20
148.3041958041958
 10
345.8360655737705
 20
149.1958041958042
 10
345.8360655737705
 20
149.493006993007
 10
344.95081967213116
 20
150.3846153846154
 10
344.95081967213116
 20
150.6818181818182
 10
344.0655737704918
 20
151.57342657342656
 10
344.0655737704918
 20
151.87062937062936
 10
343.1803278688525
 20
152.76223776223776
 10
343.1803278688525
 20
153.05944055944056
 10
342.59016393442624
 20
153.65384615384616
 10
342.59016393442624
 20
153.95104895104896
 10
341.7049180327869
 20
154.84265734265733
 10
341.7049180327869
 20
155.13986013986013
 10
340.81967213114757
 20
156.03146853146853
 10
340.81967213114757
 20
157.8146853146853
 10
340.5245901639344
 20
158.1118881118881
 10
340.5245901639344
 20
162.86713286713285
 10
340.2295081967213
 20
163.16433566433565
 10
340.2295081967213
 20
163.75874125874125
 10
339.9344262295082
 20
164.05594405594405
 10
339.9344262295082
 20
164.65034965034965
 10
339.6393442622951
 20
164.94755244755245
 10
339.6393442622951
 20
165.83916083916083
 10
339.344262295082
 20
166.13636363636363
 10
339.344262295082
 20
167.91958041958043
 10
339.04918032786884
 20
168.21678321678323
 10
339.04918032786884
 20
169.7027972027972
 10
338.75409836065575
 20
170.0
 10
338.75409836065575
 20
172.67482517482517
 10
339.04918032786884
 20
172.97202797202797
 10
339.04918032786884
 20
175.94405594405595
 10
338.75409836065575
 20
176.24125874125875
 10
338.75409836065575
 20
177.43006993006992
 10
338.45901639344265
 20
177.72727272727272
 10
337.57377049180326
 20
177.72727272727272
 10
337.57377049180326
 20
178.91608391608392
 10
337.27868852459017
 20
179.21328671328672
 10
337.27868852459017
 20
180.9965034965035
 10
336.9836065573771
 20
181.2937062937063
 10
336.9836065573771
 20
182.1853146853147
 10
336.6885245901639
 20
182.4825174825175
 10
336.6885245901639
 20
185.15734265734267
 10
336.39344262295083
 20
185.45454545454544
 10
336.39344262295083
 20
187.83216783216784
 10
336.9836065573771
 20
187.83216783216784
 10
337.27868852459017
 20
188.12937062937064
 10
337.27868852459017
 20
192.2902097902098
 10
336.9836065573771
 20
192.5874125874126
 10
336.9836065573771
 20
193.7762237762238
 10
337.27868852459017
 20
194.07342657342656
 10
337.27868852459017
 20
197.34265734265733
 10
336.9836065573771
 20
197.63986013986013
 10
336.9836065573771
 20
215.17482517482517
 10
336.6885245901639
 20
215.47202797202797
 10
336.6885245901639
 20
224.3881118881119
 10
336.39344262295083
 20
224.6853146853147
 10
336.39344262295083
 20
233.3041958041958
 10
336.09836065573774
 20
233.60139860139859
 10
336.09836065573774
 20
245.48951048951048
 10
335.8032786885246
 20
245.78671328671328
 10
335.8032786885246
 20
247.27272727272728
 10
335.5081967213115
 20
247.56993006993008
 10
334.91803278688525
 20
247.56993006993008
 10
334.91803278688525
 20
254.1083916083916
 10
334.62295081967216
 20
254.4055944055944
 10
334.62295081967216
 20
262.4300699300699
 10
334.327868852459
 20
262.72727272727275
 10
334.327868852459
 20
274.3181818181818
 10
334.0327868852459
 20
274.6153846153846
 10
334.0327868852459
 20
279.965034965035
 10
333.7377049180328
 20
280.26223776223776
 10
333.7377049180328
 20
281.15384615384613
 10
333.44262295081967
 20
281.45104895104896
 10
333.44262295081967
 20
282.63986013986016
 10
333.1475409836066
 20
282.93706293706293
 10
333.1475409836066
 20
283.53146853146853
 10
332.8524590163934
 20
283.8286713286713
 10
332.8524590163934
 20
288.5839160839161
 10
333.1475409836066
 20
288.8811188811189
 10
341.11475409836066
 20
288.8811188811189
 10
341.40983606557376
 20
288.5839160839161
 10
351.1475409836066
 20
288.5839160839161
 10
351.44262295081967
 20
288.2867132867133
 10
360.88524590163934
 20
288.2867132867133
 10
361.1803278688525
 20
287.9895104895105
 10
370.91803278688525
 20
287.9895104895105
 10
371.21311475409834
 20
287.6923076923077
 10
380.0655737704918
 20
287.6923076923077
 10
380.3606557377049
 20
287.3951048951049
 10
392.1639344262295
 20
287.3951048951049
 10
392.45901639344265
 20
287.0979020979021
 10
394.2295081967213
 20
287.0979020979021
 10
394.2295081967213
 20
282.63986013986016
 10
393.9344262295082
 20
282.34265734265733
 10
393.9344262295082
 20
281.15384615384613
 10
393.6393442622951
 20
280.85664335664336
 10
393.6393442622951
 20
280.55944055944053
 10
393.344262295082
 20
280.26223776223776
 10
393.344262295082
 20
276.993006993007
 10
393.04918032786884
 20
276.6958041958042
 10
393.04918032786884
 20
271.9405594405594
 10
392.75409836065575
 20
271.64335664335664
 10
392.75409836065575
 20
266.59090909090907
 10
392.45901639344265
 20
266.2937062937063
 10
392.45901639344265
 20
261.53846153846155
 10
392.1639344262295
 20
261.2412587412587
 10
392.1639344262295
 20
258.8636363636364
 10
392.45901639344265
 20
258.56643356643355
 10
392.45901639344265
 20
256.1888111888112
 10
392.1639344262295
 20
255.8916083916084
 10
392.1639344262295
 20
248.75874125874125
 10
391.8688524590164
 20
248.46153846153845
 10
391.8688524590164
 20
237.46503496503496
 10
391.57377049180326
 20
237.16783216783216
 10
391.57377049180326
 20
228.54895104895104
 10
391.27868852459017
 20
228.25174825174824
 10
391.27868852459017
 20
216.95804195804195
 10
390.9836065573771
 20
216.66083916083915
 10
390.9836065573771
 20
210.41958041958043
 10
390.6885245901639
 20
210.12237762237763
 10
390.6885245901639
 20
206.55594405594405
 10
390.39344262295083
 20
206.25874125874125
 10
390.39344262295083
 20
202.98951048951048
 10
390.09836065573774
 20
202.69230769230768
 10
390.09836065573774
 20
199.7202797202797
 10
389.8032786885246
 20
199.42307692307693
 10
389.8032786885246
 20
197.34265734265733
 10
389.5081967213115
 20
197.04545454545453
 10
389.5081967213115
 20
194.37062937062936
 10
389.21311475409834
 20
194.07342657342656
 10
389.21311475409834
 20
191.993006993007
 10
388.91803278688525
 20
191.6958041958042
 10
388.91803278688525
 20
189.6153846153846
 10
388.62295081967216
 20
189.3181818181818
 10
388.62295081967216
 20
186.94055944055944
 10
388.327868852459
 20
186.64335664335664
 10
388.327868852459
 20
184.56293706293707
 10
388.0327868852459
 20
184.26573426573427
 10
388.0327868852459
 20
180.9965034965035
 10
387.7377049180328
 20
180.6993006993007
 10
387.7377049180328
 20
178.32167832167832
 10
387.44262295081967
 20
178.02447552447552
 10
387.44262295081967
 20
175.94405594405595
 10
387.1475409836066
 20
175.64685314685315
 10
387.1475409836066
 20
173.86363636363637
 10
386.8524590163934
 20
173.56643356643357
 10
386.8524590163934
 20
172.08041958041957
 10
386.55737704918033
 20
171.78321678321677
 10
386.55737704918033
 20
169.7027972027972
 10
386.26229508196724
 20
169.4055944055944
 10
386.26229508196724
 20
166.73076923076923
 10
385.9672131147541
 20
166.43356643356643
 10
385.9672131147541
 20
164.05594405594405
 10
385.672131147541
 20
163.75874125874125
 10
385.672131147541
 20
161.97552447552448
 10
385.3770491803279
 20
161.67832167832168
 10
385.3770491803279
 20
160.19230769230768
 10
385.08196721311475
 20
159.8951048951049
 10
385.08196721311475
 20
159.0034965034965
 10
384.78688524590166
 20
158.7062937062937
 10
384.78688524590166
 20
152.76223776223776
 10
384.4918032786885
 20
152.46503496503496
 10
384.4918032786885
 20
150.6818181818182
 10
384.1967213114754
 20
150.3846153846154
 10
384.1967213114754
 20
148.60139860139859
 10
383.9016393442623
 20
148.3041958041958
 10
383.9016393442623
 20
146.520979020979
 10
383.60655737704917
 20
146.2237762237762
 10
383.60655737704917
 20
144.44055944055944
 10
383.3114754098361
 20
144.14335664335664
 10
383.3114754098361
 20
141.76573426573427
 10
383.016393442623
 20
141.46853146853147
 10
383.016393442623
 20
137.9020979020979
 10
383.3114754098361
 20
137.6048951048951
 10
383.3114754098361
 20
136.41608391608392
 10
383.016393442623
 20
136.11888111888112
 10
382.72131147540983
 20
136.11888111888112
 10
378.59016393442624
 20
131.95804195804195
 10
378.0
 20
131.95804195804195
 10
377.7049180327869
 20
131.66083916083915
 10
376.2295081967213
 20
131.66083916083915
 10
375.9344262295082
 20
131.36363636363637
  0
LWPOLYLINE
  5
35
330
17
100
AcDbEntity
  8
CONTOURS
100
AcDbPolyline
 90
125
 70
1
 10
34.81967213114754
 20
98.67132867132867
 10
34.52459016393443
 20
98.96853146853147
 10
32.75409836065574
 20
98.96853146853147
 10
32.459016393442624
 20
99.26573426573427
 10
31.868852459016395
 20
99.26573426573427
 10
31.57377049180328
 20
99.56293706293707
 10
30.98360655737705
 20
99.56293706293707
 10
30.688524590163937
 20
99.86013986013985
 10
30.098360655737704
 20
99.86013986013985
 10
29.80327868852459
 20
100.15734265734265
 10
29.508196721311474
 20
100.15734265734265
 10
29.21311475409836
 20
100.45454545454545
 10
28.918032786885245
 20
100.45454545454545
 10
28.327868852459016
 20
101.04895104895105
 10
28.0327868852459
 20
101.04895104895105
 10
27.442622950819672
 20
101.64335664335664
 10
27.147540983606557
 20
101.64335664335664
 10
24.78688524590164
 20
104.02097902097901
 10
24.491803278688526
 20
104.02097902097901
 10
23.901639344262296
 20
104.61538461538461
 10
23.901639344262296
 20
106.1013986013986
 10
23.60655737704918
 20
106.3986013986014
 10
23.60655737704918
 20
106.99300699300699
 10
23.311475409836067
 20
107.29020979020979
 10
23.311475409836067
 20
108.18181818181819
 10
23.016393442622952
 20
108.47902097902097
 10
23.016393442622952
 20
109.66783216783217
 10
22.721311475409838
 20
109.96503496503496
 10
22.721311475409838
 20
112.93706293706293
 10
23.016393442622952
 20
113.23426573426573
 10
23.016393442622952
 20
114.42307692307692
 10
23.311475409836067
 20
114.72027972027972
 10
23.311475409836067
 20
115.31468531468532
 10
23.60655737704918
 20
115.6118881118881
 10
23.60655737704918
 20
115.9090909090909
 10
23.901639344262296
 20
116.2062937062937
 10
23.901639344262296
 20
116.80069930069929
 10
24.19672131147541
 20
117.0979020979021
 10
24.19672131147541
 20
117.3951048951049
 10
24.491803278688526
 20
117.6923076923077
 10
24.491803278688526
 20
117.9895104895105
 10
25.081967213114755
 20
118.58391608391608
 10
25.081967213114755
 20
118.88111888111888
 10
28.0327868852459
 20
121.85314685314685
 10
28.327868852459016
 20
121.85314685314685
 10
28.918032786885245
 20
122.44755244755244
 10
29.21311475409836
 20
122.44755244755244
 10
29.508196721311474
 20
122.74475524475524
 10
29.80327868852459
 20
122.74475524475524
 10
30.098360655737704
 20
123.04195804195804
 10
30.393442622950822
 20
123.04195804195804
 10
30.688524590163937
 20
123.33916083916084
 10
30.98360655737705
 20
123.33916083916084
 10
31.278688524590166
 20
123.63636363636364
 10
31.57377049180328
 20
123.63636363636364
 10
31.868852459016395
 20
123.93356643356643
 10
32.459016393442624
 20
123.93356643356643
 10
32.75409836065574
 20
124.23076923076923
 10
33.63934426229508
 20
124.23076923076923
 10
33.9344262295082
 20
124.52797202797203
 10
35.40983606557377
 20
124.52797202797203
 10
35.704918032786885
 20
124.82517482517483
 10
38.950819672131146
 20
124.82517482517483
 10
39.24590163934426
 20
124.52797202797203
 10
40.42622950819672
 20
124.52797202797203
 10
40.721311475409834
 20
124.23076923076923
 10
41.60655737704918
 20
124.23076923076923
 10
41.90163934426229
 20
123.93356643356643
 10
42.19672131147541
 20
123.93356643356643
 10
42.49180327868852
 20
123.63636363636364
 10
42.78688524590164
 20
123.63636363636364
 10
43.08196721311475
 20
123.33916083916084
 10
43.377049180327866
 20
123.33916083916084
 10
43.67213114754099
 20
123.04195804195804
 10
43.9672131147541
 20
123.04195804195804
 10
44.26229508196722
 20
122.74475524475524
 10
44.55737704918033
 20
122.74475524475524
 10
44.852459016393446
 20
122.44755244755244
 10
45.14754098360656
 20
122.44755244755244
 10
48.39344262295082
 20
119.17832167832168
 10
48.39344262295082
 20
118.58391608391608
 10
48.68852459016394
 20
118.28671328671328
 10
48.68852459016394
 20
117.6923076923077
 10
48.98360655737705
 20
117.3951048951049
 10
48.98360655737705
 20
116.80069930069929
 10
49.278688524590166
 20
116.5034965034965
 10
49.278688524590166
 20
115.6118881118881
 10
49.57377049180328
 20
115.31468531468532
 10
49.57377049180328
 20
113.82867132867133
 10
49.868852459016395
 20
113.53146853146853
 10
49.868852459016395
 20
110.26223776223776
 10
49.57377049180328
 20
109.96503496503496
 10
49.57377049180328
 20
109.07342657342657
 10
49.278688524590166
 20
108.77622377622377
 10
49.278688524590166
 20
108.18181818181819
 10
48.98360655737705
 20
107.88461538461539
 10
48.98360655737705
 20
107.29020979020979
 10
48.68852459016394
 20
106.99300699300699
 10
48.68852459016394
 20
106.6958041958042
 10
48.39344262295082
 20
106.3986013986014
 10
48.39344262295082
 20
106.1013986013986
 10
47.80327868852459
 20
105.506993006993
 10
47.80327868852459
 20
105.20979020979021
 10
47.21311475409836
 20
104.61538461538461
 10
47.21311475409836
 20
104.31818181818181
 10
46.32786885245902
 20
103.42657342657343
 10
46.32786885245902
 20
103.12937062937063
 10
46.032786885245905
 20
103.12937062937063
 10
44.26229508196722
 20
101.34615384615384
 10
43.9672131147541
 20
101.34615384615384
 10
43.377049180327866
 20
100.75174825174825
 10
43.08196721311475
 20
100.75174825174825
 10
42.78688524590164
 20
100.45454545454545
 10
42.49180327868852
 20
100.45454545454545
 10
42.19672131147541
 20
100.15734265734265
 10
41.90163934426229
 20
100.15734265734265
 10
41.60655737704918
 20
99.86013986013985
 10
41.01639344262295
 20
99.86013986013985
 10
40.721311475409834
 20
99.56293706293707
 10
40.42622950819672
 20
99.56293706293707
 10
40.131147540983605
 20
99.26573426573427
 10
39.24590163934426
 20
99.26573426573427
 10
38.950819672131146
 20
98.96853146853147
 10
37.47540983606557
 20
98.96853146853147
 10
37.18032786885246
 20
98.67132867132867
  0
LWPOLYLINE
  5
36
330
17
100
AcDbEntity
  8
CONTOURS
100
AcDbPolyline
 90
646
 70
1
 10
175.5737704918033
 20
47.84965034965035
 10
175.27868852459017
 20
48.14685314685315
 10
172.327868852459
 20
48.14685314685315
 10
172.0327868852459
 20
48.44405594405595
 10
170.2622950819672
 20
48.44405594405595
 10
169.9672131147541
 20
48.74125874125874
 10
167.60655737704917
 20
48.74125874125874
 10
167.31147540983608
 20
49.03846153846154
 10
165.24590163934425
 20
49.03846153846154
 10
164.95081967213116
 20
49.33566433566433
 10
163.18032786885246
 20
49.33566433566433
 10
162.88524590163934
 20
49.63286713286713
 10
160.52459016393442
 20
49.63286713286713
 10
160.22950819672133
 20
49.930069930069926
 10
158.45901639344262
 20
49.930069930069926
 10
158.1639344262295
 20
50.22727272727273
 10
156.39344262295083
 20
50.22727272727273
 10
156.0983606557377
 20
50.52447552447553
 10
154.327868852459
 20
50.52447552447553
 10
154.0327868852459
 20
50.82167832167832
 10
152.55737704918033
 20
50.82167832167832
 10
152.2622950819672
 20
51.11888111888112
 10
150.19672131147541
 20
51.11888111888112
 10
149.9016393442623
 20
51.41608391608391
 10
149.01639344262296
 20
51.41608391608391
 10
148.72131147540983
 20
51.71328671328671
 10
148.13114754098362
 20
51.71328671328671
 10
148.13114754098362
 20
52.30769230769231
 10
147.8360655737705
 20
52.60489510489511
 10
147.8360655737705
 20
53.49650349650349
 10
148.13114754098362
 20
53.79370629370629
 10
148.13114754098362
 20
54.09090909090909
 10
148.72131147540983
 20
54.68531468531469
 10
150.19672131147541
 20
54.68531468531469
 10
150.49180327868854
 20
54.98251748251748
 10
153.14754098360655
 20
54.98251748251748
 10
153.44262295081967
 20
55.27972027972028
 10
156.39344262295083
 20
55.27972027972028
 10
156.68852459016395
 20
55.57692307692307
 10
159.34426229508196
 20
55.57692307692307
 10
159.63934426229508
 20
55.87412587412587
 10
162.88524590163934
 20
55.87412587412587
 10
163.18032786885246
 20
56.17132867132867
 10
164.95081967213116
 20
56.17132867132867
 10
165.24590163934425
 20
56.46853146853147
 10
165.24590163934425
 20
58.84615384615385
 10
164.95081967213116
 20
59.14335664335664
 10
159.9344262295082
 20
59.14335664335664
 10
159.63934426229508
 20
59.44055944055944
 10
155.50819672131146
 20
59.44055944055944
 10
155.21311475409837
 20
59.73776223776224
 10
151.08196721311475
 20
59.73776223776224
 10
150.78688524590163
 20
60.03496503496503
 10
148.72131147540983
 20
60.03496503496503
 10
148.4262295081967
 20
60.33216783216783
 10
148.4262295081967
 20
61.81818181818182
 10
149.01639344262296
 20
62.41258741258741
 10
149.9016393442623
 20
62.41258741258741
 10
150.19672131147541
 20
62.70979020979021
 10
153.44262295081967
 20
62.70979020979021
 10
153.7377049180328
 20
63.00699300699301
 10
156.68852459016395
 20
63.00699300699301
 10
156.98360655737704
 20
63.30419580419581
 10
160.52459016393442
 20
63.30419580419581
 10
160.81967213114754
 20
63.6013986013986
 10
164.65573770491804
 20
63.6013986013986
 10
164.95081967213116
 20
63.8986013986014
 10
164.95081967213116
 20
66.27622377622377
 10
164.65573770491804
 20
66.57342657342657
 10
162.59016393442624
 20
66.57342657342657
 10
162.29508196721312
 20
66.87062937062937
 10
158.45901639344262
 20
66.87062937062937
 10
158.1639344262295
 20
67.16783216783217
 10
153.44262295081967
 20
67.16783216783217
 10
153.14754098360655
 20
67.46503496503496
 10
150.19672131147541
 20
67.46503496503496
 10
149.9016393442623
 20
67.76223776223776
 10
149.31147540983608
 20
67.76223776223776
 10
149.01639344262296
 20
68.05944055944056
 10
149.01639344262296
 20
69.54545454545455
 10
149.60655737704917
 20
70.13986013986013
 10
152.85245901639345
 20
70.13986013986013
 10
153.14754098360655
 20
70.43706293706293
 10
156.0983606557377
 20
70.43706293706293
 10
156.39344262295083
 20
70.73426573426573
 10
160.22950819672133
 20
70.73426573426573
 10
160.52459016393442
 20
71.03146853146853
 10
164.95081967213116
 20
71.03146853146853
 10
165.24590163934425
 20
71.32867132867133
 10
165.24590163934425
 20
73.7062937062937
 10
164.65573770491804
 20
74.30069930069929
 10
159.9344262295082
 20
74.30069930069929
 10
159.63934426229508
 20
74.5979020979021
 10
156.0983606557377
 20
74.5979020979021
 10
155.80327868852459
 20
74.8951048951049
 10
151.9672131147541
 20
74.8951048951049
 10
151.672131147541
 20
75.1923076923077
 10
149.9016393442623
 20
75.1923076923077
 10
149.60655737704917
 20
75.4895104895105
 10
149.60655737704917
 20
75.78671328671328
 10
149.31147540983608
 20
76.08391608391608
 10
149.31147540983608
 20
76.38111888111888
 10
149.60655737704917
 20
76.67832167832168
 10
149.60655737704917
 20
77.27272727272727
 10
149.9016393442623
 20
77.27272727272727
 10
150.19672131147541
 20
77.56993006993007
 10
151.672131147541
 20
77.56993006993007
 10
151.9672131147541
 20
77.86713286713287
 10
155.80327868852459
 20
77.86713286713287
 10
156.0983606557377
 20
78.16433566433567
 10
160.22950819672133
 20
78.16433566433567
 10
160.52459016393442
 20
78.46153846153847
 10
166.13114754098362
 20
78.46153846153847
 10
166.4262295081967
 20
78.75874125874125
 10
166.4262295081967
 20
81.43356643356643
 10
166.13114754098362
 20
81.73076923076923
 10
161.70491803278688
 20
81.73076923076923
 10
161.40983606557378
 20
82.02797202797203
 10
157.5737704918033
 20
82.02797202797203
 10
157.27868852459017
 20
82.32517482517483
 10
153.44262295081967
 20
82.32517482517483
 10
153.14754098360655
 20
82.62237762237763
 10
150.78688524590163
 20
82.62237762237763
 10
150.49180327868854
 20
82.91958041958041
 10
149.9016393442623
 20
82.91958041958041
 10
149.9016393442623
 20
83.51398601398601
 10
149.60655737704917
 20
83.81118881118881
 10
149.9016393442623
 20
84.10839160839161
 10
149.9016393442623
 20
84.4055944055944
 10
150.49180327868854
 20
85.0
 10
151.37704918032787
 20
85.0
 10
151.672131147541
 20
85.2972027972028
 10
155.80327868852459
 20
85.2972027972028
 10
156.0983606557377
 20
85.5944055944056
 10
160.81967213114754
 20
85.5944055944056
 10
161.11475409836066
 20
85.89160839160839
 10
166.4262295081967
 20
85.89160839160839
 10
166.72131147540983
 20
86.18881118881119
 10
167.01639344262296
 20
86.18881118881119
 10
167.31147540983608
 20
86.48601398601399
 10
167.31147540983608
 20
88.86363636363636
 10
167.01639344262296
 20
89.16083916083916
 10
162.59016393442624
 20
89.16083916083916
 10
162.29508196721312
 20
89.45804195804196
 10
158.1639344262295
 20
89.45804195804196
 10
157.8688524590164
 20
89.75524475524476
 10
154.327868852459
 20
89.75524475524476
 10
154.0327868852459
 20
90.05244755244755
 10
151.08196721311475
 20
90.05244755244755
 10
150.78688524590163
 20
90.34965034965035
 10
150.19672131147541
 20
90.34965034965035
 10
150.19672131147541
 20
90.94405594405595
 10
149.9016393442623
 20
91.24125874125875
 10
150.19672131147541
 20
91.53846153846153
 10
150.19672131147541
 20
92.13286713286713
 10
150.49180327868854
 20
92.43006993006993
 10
151.37704918032787
 20
92.43006993006993
 10
151.672131147541
 20
92.72727272727272
 10
156.0983606557377
 20
92.72727272727272
 10
156.39344262295083
 20
93.02447552447552
 10
160.81967213114754
 20
93.02447552447552
 10
161.11475409836066
 20
93.32167832167832
 10
166.13114754098362
 20
93.32167832167832
 10
166.4262295081967
 20
93.61888111888112
 10
168.19672131147541
 20
93.61888111888112
 10
168.49180327868854
 20
93.91608391608392
 10
168.49180327868854
 20
96.2937062937063
 10
168.19672131147541
 20
96.5909090909091
 10
163.47540983606558
 20
96.5909090909091
 10
163.18032786885246
 20
96.8881118881119
 10
158.75409836065575
 20
96.8881118881119
 10
158.45901639344262
 20
97.18531468531468
 10
154.91803278688525
 20
97.18531468531468
 10
154.62295081967213
 20
97.48251748251748
 10
151.37704918032787
 20
97.48251748251748
 10
151.08196721311475
 20
97.77972027972028
 10
150.49180327868854
 20
97.77972027972028
 10
150.19672131147541
 20
98.07692307692308
 10
150.19672131147541
 20
99.26573426573427
 10
150.78688524590163
 20
99.86013986013985
 10
151.37704918032787
 20
99.86013986013985
 10
151.672131147541
 20
100.15734265734265
 10
156.0983606557377
 20
100.15734265734265
 10
156.39344262295083
 20
100.45454545454545
 10
161.40983606557378
 20
100.45454545454545
 10
161.70491803278688
 20
100.75174825174825
 10
166.4262295081967
 20
100.75174825174825
 10
166.72131147540983
 20
101.04895104895105
 10
168.19672131147541
 20
101.04895104895105
 10
168.49180327868854
 20
101.34615384615384
 10
168.49180327868854
 20
103.72377622377623
 10
168.19672131147541
 20
104.02097902097901
 10
163.47540983606558
 20
104.02097902097901
 10
163.18032786885246
 20
104.31818181818181
 10
159.04918032786887
 20
104.31818181818181
 10
158.75409836065575
 20
104.61538461538461
 10
155.21311475409837
 20
104.61538461538461
 10
154.91803278688525
 20
104.91258741258741
 10
151.672131147541
 20
104.91258741258741
 10
151.37704918032787
 20
105.20979020979021
 10
150.49180327868854
 20
105.20979020979021
 10
150.19672131147541
 20
105.506993006993
 10
150.19672131147541
 20
106.6958041958042
 10
150.78688524590163
 20
107.29020979020979
 10
151.37704918032787
 20
107.29020979020979
 10
151.672131147541
 20
107.58741258741259
 10
156.0983606557377
 20
107.58741258741259
 10
156.39344262295083
 20
107.88461538461539
 10
161.70491803278688
 20
107.88461538461539
 10
162.0
 20
108.18181818181819
 10
167.60655737704917
 20
108.18181818181819
 10
167.9016393442623
 20
108.47902097902097
 10
168.19672131147541
 20
108.47902097902097
 10
168.49180327868854
 20
108.77622377622377
 10
168.49180327868854
 20
111.15384615384615
 10
168.19672131147541
 20
111.45104895104895
 10
163.47540983606558
 20
111.45104895104895
 10
163.18032786885246
 20
111.74825174825175
 10
159.34426229508196
 20
111.74825174825175
 10
159.04918032786887
 20
112.04545454545455
 10
155.21311475409837
 20
112.04545454545455
 10
154.91803278688525
 20
112.34265734265735
 10
151.672131147541
 20
112.34265734265735
 10
151.37704918032787
 20
112.63986013986013
 10
150.49180327868854
 20
112.63986013986013
 10
150.19672131147541
 20
112.93706293706293
 10
150.19672131147541
 20
113.23426573426573
 10
149.9016393442623
 20
113.53146853146853
 10
150.19672131147541
 20
113.82867132867133
 10
150.19672131147541
 20
114.42307692307692
 10
150.49180327868854
 20
114.72027972027972
 10
151.37704918032787
 20
114.72027972027972
 10
151.672131147541
 20
115.01748251748252
 10
156.0983606557377
 20
115.01748251748252
 10
156.39344262295083
 20
115.31468531468532
 10
162.0
 20
115.31468531468532
 10
162.29508196721312
 20
115.6118881118881
 10
168.19672131147541
 20
115.6118881118881
 10
168.49180327868854
 20
115.9090909090909
 10
168.49180327868854
 20
118.28671328671328
 10
168.19672131147541
 20
118.58391608391608
 10
167.9016393442623
 20
118.58391608391608
 10
167.60655737704917
 20
118.88111888111888
 10
163.47540983606558
 20
118.88111888111888
 10
163.18032786885246
 20
119.17832167832168
 10
159.04918032786887
 20
119.17832167832168
 10
158.75409836065575
 20
119.47552447552448
 10
155.21311475409837
 20
119.47552447552448
 10
154.91803278688525
 20
119.77272727272727
 10
151.672131147541
 20
119.77272727272727
 10
151.37704918032787
 20
120.06993006993007
 10
150.19672131147541
 20
120.06993006993007
 10
149.9016393442623
 20
120.36713286713287
 10
149.9016393442623
 20
121.85314685314685
 10
150.19672131147541
 20
122.15034965034965
 10
151.08196721311475
 20
122.15034965034965
 10
151.37704918032787
 20
122.44755244755244
 10
156.39344262295083
 20
122.44755244755244
 10
156.68852459016395
 20
122.74475524475524
 10
162.88524590163934
 20
122.74475524475524
 10
163.18032786885246
 20
123.04195804195804
 10
168.78688524590163
 20
123.04195804195804
 10
169.08196721311475
 20
123.33916083916084
 10
169.08196721311475
 20
125.71678321678321
 10
168.78688524590163
 20
126.01398601398601
 10
167.01639344262296
 20
126.01398601398601
 10
166.72131147540983
 20
126.31118881118881
 10
163.18032786885246
 20
126.31118881118881
 10
162.88524590163934
 20
126.60839160839161
 10
158.75409836065575
 20
126.60839160839161
 10
158.45901639344262
 20
126.9055944055944
 10
154.91803278688525
 20
126.9055944055944
 10
154.62295081967213
 20
127.2027972027972
 10
151.37704918032787
 20
127.2027972027972
 10
151.08196721311475
 20
127.5
 10
149.9016393442623
 20
127.5
 10
149.60655737704917
 20
127.7972027972028
 10
149.60655737704917
 20
129.28321678321677
 10
149.9016393442623
 20
129.58041958041957
 10
150.78688524590163
 20
129.58041958041957
 10
151.08196721311475
 20
129.87762237762237
 10
156.98360655737704
 20
129.87762237762237
 10
157.27868852459017
 20
130.17482517482517
 10
163.47540983606558
 20
130.17482517482517
 10
163.7704918032787
 20
130.47202797202797
 10
169.9672131147541
 20
130.47202797202797
 10
170.2622950819672
 20
130.76923076923077
 10
170.2622950819672
 20
133.14685314685315
 10
169.9672131147541
 20
133.44405594405595
 10
166.4262295081967
 20
133.44405594405595
 10
166.13114754098362
 20
133.74125874125875
 10
162.29508196721312
 20
133.74125874125875
 10
162.0
 20
134.03846153846155
 10
158.1639344262295
 20
134.03846153846155
 10
157.8688524590164
 20
134.33566433566435
 10
154.0327868852459
 20
134.33566433566435
 10
153.7377049180328
 20
134.63286713286712
 10
151.08196721311475
 20
134.63286713286712
 10
150.78688524590163
 20
134.93006993006992
 10
149.60655737704917
 20
134.93006993006992
 10
149.01639344262296
 20
135.52447552447552
 10
149.01639344262296
 20
136.41608391608392
 10
149.60655737704917
 20
137.01048951048952
 10
151.08196721311475
 20
137.01048951048952
 10
151.37704918032787
 20
137.3076923076923
 10
157.27868852459017
 20
137.3076923076923
 10
157.5737704918033
 20
137.6048951048951
 10
163.7704918032787
 20
137.6048951048951
 10
164.0655737704918
 20
137.9020979020979
 10
167.60655737704917
 20
137.9020979020979
 10
167.9016393442623
 20
138.1993006993007
 10
167.9016393442623
 20
140.57692307692307
 10
167.60655737704917
 20
140.87412587412587
 10
162.29508196721312
 20
140.87412587412587
 10
162.0
 20
141.17132867132867
 10
157.5737704918033
 20
141.17132867132867
 10
157.27868852459017
 20
141.46853146853147
 10
152.85245901639345
 20
141.46853146853147
 10
152.55737704918033
 20
141.76573426573427
 10
149.9016393442623
 20
141.76573426573427
 10
149.60655737704917
 20
142.06293706293707
 10
149.01639344262296
 20
142.06293706293707
 10
149.01639344262296
 20
142.36013986013987
 10
148.72131147540983
 20
142.65734265734267
 10
148.72131147540983
 20
144.14335664335664
 10
149.31147540983608
 20
144.73776223776224
 10
150.19672131147541
 20
144.73776223776224
 10
150.49180327868854
 20
145.03496503496504
 10
151.672131147541
 20
145.03496503496504
 10
151.9672131147541
 20
145.33216783216784
 10
152.85245901639345
 20
145.33216783216784
 10
153.14754098360655
 20
145.62937062937064
 10
154.0327868852459
 20
145.62937062937064
 10
154.327868852459
 20
145.9265734265734
 10
154.91803278688525
 20
145.9265734265734
 10
155.21311475409837
 20
146.2237762237762
 10
156.0983606557377
 20
146.2237762237762
 10
156.39344262295083
 20
146.520979020979
 10
156.68852459016395
 20
146.520979020979
 10
156.98360655737704
 20
146.8181818181818
 10
157.5737704918033
 20
146.8181818181818
 10
157.8688524590164
 20
147.1153846153846
 10
158.1639344262295
 20
147.1153846153846
 10
158.45901639344262
 20
147.4125874125874
 10
158.75409836065575
 20
147.4125874125874
 10
159.04918032786887
 20
147.7097902097902
 10
159.34426229508196
 20
147.7097902097902
 10
159.9344262295082
 20
148.3041958041958
 10
160.22950819672133
 20
148.3041958041958
 10
160.52459016393442
 20
148.60139860139859
 10
160.81967213114754
 20
148.60139860139859
 10
161.11475409836066
 20
148.8986013986014
 10
161.40983606557378
 20
148.8986013986014
 10
162.0
 20
149.493006993007
 10
162.29508196721312
 20
149.493006993007
 10
166.13114754098362
 20
153.35664335664336
 10
166.13114754098362
 20
153.65384615384616
 10
166.72131147540983
 20
154.24825174825176
 10
166.72131147540983
 20
154.54545454545453
 10
167.31147540983608
 20
155.13986013986013
 10
167.31147540983608
 20
155.43706293706293
 10
167.60655737704917
 20
155.73426573426573
 10
167.60655737704917
 20
156.03146853146853
 10
167.9016393442623
 20
156.32867132867133
 10
167.9016393442623
 20
156.62587412587413
 10
168.19672131147541
 20
156.92307692307693
 10
168.19672131147541
 20
157.5174825174825
 10
168.49180327868854
 20
157.8146853146853
 10
168.49180327868854
 20
158.7062937062937
 10
168.78688524590163
 20
159.0034965034965
 10
168.78688524590163
 20
159.8951048951049
 10
169.08196721311475
 20
160.19230769230768
 10
169.08196721311475
 20
161.67832167832168
 10
169.37704918032787
 20
161.97552447552448
 10
169.37704918032787
 20
164.35314685314685
 10
169.672131147541
 20
164.65034965034965
 10
169.672131147541
 20
168.8111888111888
 10
169.37704918032787
 20
169.1083916083916
 10
169.37704918032787
 20
172.67482517482517
 10
169.08196721311475
 20
172.97202797202797
 10
169.08196721311475
 20
175.64685314685315
 10
168.78688524590163
 20
175.94405594405595
 10
168.78688524590163
 20
178.02447552447552
 10
168.49180327868854
 20
178.32167832167832
 10
168.49180327868854
 20
180.1048951048951
 10
168.19672131147541
 20
180.4020979020979
 10
168.19672131147541
 20
182.1853146853147
 10
167.9016393442623
 20
182.4825174825175
 10
167.9016393442623
 20
183.96853146853147
 10
167.60655737704917
 20
184.26573426573427
 10
167.60655737704917
 20
185.45454545454544
 10
167.31147540983608
 20
185.75174825174824
 10
167.31147540983608
 20
187.23776223776224
 10
167.01639344262296
 20
187.53496503496504
 10
167.01639344262296
 20
188.4265734265734
 10
166.72131147540983
 20
188.7237762237762
 10
166.72131147540983
 20
189.9125874125874
 10
166.4262295081967
 20
190.2097902097902
 10
166.4262295081967
 20
191.3986013986014
 10
166.13114754098362
 20
191.6958041958042
 10
166.13114754098362
 20
192.5874125874126
 10
165.8360655737705
 20
192.8846153846154
 10
165.8360655737705
 20
193.7762237762238
 10
165.54098360655738
 20
194.07342657342656
 10
165.54098360655738
 20
194.96503496503496
 10
165.24590163934425
 20
195.26223776223776
 10
165.24590163934425
 20
196.15384615384616
 10
164.95081967213116
 20
196.45104895104896
 10
164.95081967213116
 20
197.34265734265733
 10
164.65573770491804
 20
197.63986013986013
 10
164.65573770491804
 20
198.53146853146853
 10
164.36065573770492
 20
198.82867132867133
 10
164.36065573770492
 20
199.42307692307693
 10
164.0655737704918
 20
199.7202797202797
 10
164.0655737704918
 20
200.6118881118881
 10
163.7704918032787
 20
200.9090909090909
 10
163.7704918032787
 20
201.5034965034965
 10
163.47540983606558
 20
201.8006993006993
 10
163.47540983606558
 20
202.39510489510488
 10
163.18032786885246
 20
202.69230769230768
 10
163.18032786885246
 20
203.58391608391608
 10
162.88524590163934
 20
203.88111888111888
 10
162.88524590163934
 20
204.47552447552448
 10
162.59016393442624
 20
204.77272727272728
 10
162.59016393442624
 20
205.36713286713285
 10
162.29508196721312
 20
205.66433566433565
 10
162.29508196721312
 20
206.25874125874125
 10
162.0
 20
206.55594405594405
 10
162.0
 20
207.15034965034965
 10
161.70491803278688
 20
207.44755244755245
 10
161.70491803278688
 20
208.04195804195803
 10
161.40983606557378
 20
208.33916083916083
 10
161.40983606557378
 20
208.93356643356643
 10
161.11475409836066
 20
209.23076923076923
 10
161.11475409836066
 20
209.82517482517483
 10
160.81967213114754
 20
210.12237762237763
 10
160.81967213114754
 20
210.41958041958043
 10
160.52459016393442
 20
210.71678321678323
 10
160.52459016393442
 20
211.3111888111888
 10
160.22950819672133
 20
211.6083916083916
 10
160.22950819672133
 20
212.2027972027972
 10
159.9344262295082
 20
212.5
 10
159.9344262295082
 20
212.7972027972028
 10
159.63934426229508
 20
213.0944055944056
 10
159.63934426229508
 20
213.68881118881117
 10
159.34426229508196
 20
213.98601398601397
 10
159.34426229508196
 20
214.28321678321677
 10
159.04918032786887
 20
214.58041958041957
 10
159.04918032786887
 20
215.17482517482517
 10
158.75409836065575
 20
215.47202797202797
 10
158.75409836065575
 20
215.76923076923077
 10
158.45901639344262
 20
216.06643356643357
 10
158.45901639344262
 20
216.66083916083915
 10
157.8688524590164
 20
217.25524475524475
 10
157.8688524590164
 20
217.84965034965035
 10
157.5737704918033
 20
218.14685314685315
 10
157.5737704918033
 20
218.44405594405595
 10
157.27868852459017
 20
218.74125874125875
 10
157.27868852459017
 20
219.03846153846155
 10
156.98360655737704
 20
219.33566433566435
 10
156.98360655737704
 20
219.63286713286712
 10
156.68852459016395
 20
219.93006993006992
 10
156.68852459016395
 20
220.22727272727272
 10
156.39344262295083
 20
220.52447552447552
 10
156.39344262295083
 20
220.82167832167832
 10
156.0983606557377
 20
221.11888111888112
 10
156.0983606557377
 20
223.1993006993007
 10
157.27868852459017
 20
224.3881118881119
 10
157.5737704918033
 20
224.3881118881119
 10
159.04918032786887
 20
225.87412587412587
 10
159.34426229508196
 20
225.87412587412587
 10
159.9344262295082
 20
226.46853146853147
 10
160.22950819672133
 20
226.46853146853147
 10
161.11475409836066
 20
227.36013986013987
 10
161.40983606557378
 20
227.36013986013987
 10
161.70491803278688
 20
227.65734265734267
 10
162.0
 20
227.65734265734267
 10
162.59016393442624
 20
228.25174825174824
 10
162.88524590163934
 20
228.25174825174824
 10
163.18032786885246
 20
228.54895104895104
 10
163.47540983606558
 20
228.54895104895104
 10
163.7704918032787
 20
228.84615384615384
 10
164.36065573770492
 20
228.84615384615384
 10
164.65573770491804
 20
229.14335664335664
 10
164.95081967213116
 20
229.14335664335664
 10
165.24590163934425
 20
229.44055944055944
 10
165.8360655737705
 20
229.44055944055944
 10
166.13114754098362
 20
229.73776223776224
 10
166.72131147540983
 20
229.73776223776224
 10
167.01639344262296
 20
230.03496503496504
 10
167.60655737704917
 20
230.03496503496504
 10
167.9016393442623
 20
230.33216783216784
 10
169.08196721311475
 20
230.33216783216784
 10
169.37704918032787
 20
230.62937062937064
 10
172.91803278688525
 20
230.62937062937064
 10
173.21311475409837
 20
230.33216783216784
 10
174.39344262295083
 20
230.33216783216784
 10
174.68852459016395
 20
230.03496503496504
 10
175.5737704918033
 20
230.03496503496504
 10
175.8688524590164
 20
229.73776223776224
 10
176.1639344262295
 20
229.73776223776224
 10
176.45901639344262
 20
229.44055944055944
 10
177.04918032786887
 20
229.44055944055944
 10
177.34426229508196
 20
229.14335664335664
 10
177.63934426229508
 20
229.14335664335664
 10
177.9344262295082
 20
228.84615384615384
 10
178.22950819672133
 20
228.84615384615384
 10
178.52459016393442
 20
228.54895104895104
 10
178.81967213114754
 20
228.54895104895104
 10
179.40983606557378
 20
227.95454545454544
 10
179.70491803278688
 20
227.95454545454544
 10
180.88524590163934
 20
226.76573426573427
 10
181.18032786885246
 20
226.76573426573427
 10
182.36065573770492
 20
225.57692307692307
 10
182.36065573770492
 20
225.27972027972027
 10
183.54098360655738
 20
224.0909090909091
 10
183.54098360655738
 20
223.7937062937063
 10
184.13114754098362
 20
223.1993006993007
 10
184.13114754098362
 20
222.9020979020979
 10
184.4262295081967
 20
222.6048951048951
 10
184.4262295081967
 20
222.3076923076923
 10
185.01639344262296
 20
221.71328671328672
 10
185.01639344262296
 20
221.41608391608392
 10
185.31147540983608
 20
221.11888111888112
 10
185.31147540983608
 20
220.52447552447552
 10
185.60655737704917
 20
220.22727272727272
 10
185.60655737704917
 20
219.63286713286712
 10
185.9016393442623
 20
219.33566433566435
 10
185.9016393442623
 20
218.74125874125875
 10
186.19672131147541
 20
218.44405594405595
 10
186.19672131147541
 20
217.84965034965035
 10
186.49180327868854
 20
217.55244755244755
 10
186.49180327868854
 20
216.66083916083915
 10
186.78688524590163
 20
216.36363636363637
 10
186.78688524590163
 20
215.17482517482517
 10
187.08196721311475
 20
214.87762237762237
 10
187.08196721311475
 20
213.3916083916084
 10
187.37704918032787
 20
213.0944055944056
 10
187.37704918032787
 20
210.12237762237763
 10
187.672131147541
 20
209.82517482517483
 10
187.672131147541
 20
198.53146853146853
 10
187.37704918032787
 20
198.23426573426573
 10
187.37704918032787
 20
190.506993006993
 10
187.08196721311475
 20
190.2097902097902
 10
187.08196721311475
 20
175.34965034965035
 10
186.78688524590163
 20
175.05244755244755
 10
186.78688524590163
 20
171.48601398601397
 10
187.08196721311475
 20
171.1888111888112
 10
187.08196721311475
 20
160.78671328671328
 10
187.37704918032787
 20
160.48951048951048
 10
187.37704918032787
 20
155.13986013986013
 10
187.672131147541
 20
154.84265734265733
 10
187.672131147541
 20
151.57342657342656
 10
187.9672131147541
 20
151.2762237762238
 10
187.9672131147541
 20
148.3041958041958
 10
188.2622950819672
 20
148.006993006993
 10
188.2622950819672
 20
145.62937062937064
 10
188.55737704918033
 20
145.33216783216784
 10
188.55737704918033
 20
143.25174825174824
 10
188.85245901639345
 20
142.95454545454544
 10
188.85245901639345
 20
140.87412587412587
 10
189.14754098360655
 20
140.57692307692307
 10
189.14754098360655
 20
138.4965034965035
 10
189.44262295081967
 20
138.1993006993007
 10
189.44262295081967
 20
136.11888111888112
 10
189.7377049180328
 20
135.82167832167832
 10
189.7377049180328
 20
133.74125874125875
 10
190.0327868852459
 20
133.44405594405595
 10
190.0327868852459
 20
131.66083916083915
 10
190.327868852459
 20
131.36363636363637
 10
190.327868852459
 20
128.98601398601397
 10
190.62295081967213
 20
128.6888111888112
 10
190.62295081967213
 20
126.60839160839161
 10
190.91803278688525
 20
126.31118881118881
 10
190.91803278688525
 20
123.93356643356643
 10
191.21311475409837
 20
123.63636363636364
 10
191.21311475409837
 20
121.25874125874125
 10
191.5081967213115
 20
120.96153846153847
 10
191.5081967213115
 20
117.6923076923077
 10
191.80327868852459
 20
117.3951048951049
 10
191.80327868852459
 20
114.12587412587412
 10
192.0983606557377
 20
113.82867132867133
 10
192.0983606557377
 20
109.37062937062937
 10
192.39344262295083
 20
109.07342657342657
 10
192.39344262295083
 20
103.42657342657343
 10
192.68852459016395
 20
103.12937062937063
 10
192.68852459016395
 20
81.43356643356643
 10
192.39344262295083
 20
81.13636363636364
 10
192.39344262295083
 20
77.56993006993007
 10
192.0983606557377
 20
77.27272727272727
 10
192.0983606557377
 20
74.8951048951049
 10
191.80327868852459
 20
74.5979020979021
 10
191.80327868852459
 20
72.51748251748252
 10
191.5081967213115
 20
72.22027972027972
 10
191.5081967213115
 20
70.43706293706293
 10
191.21311475409837
 20
70.13986013986013
 10
191.21311475409837
 20
68.65384615384615
 10
190.91803278688525
 20
68.35664335664336
 10
190.91803278688525
 20
67.16783216783217
 10
190.62295081967213
 20
66.87062937062937
 10
190.62295081967213
 20
65.68181818181819
 10
190.327868852459
 20
65.38461538461539
 10
190.327868852459
 20
64.49300699300699
 10
190.0327868852459
 20
64.1958041958042
 10
190.0327868852459
 20
63.30419580419581
 10
189.7377049180328
 20
63.00699300699301
 10
189.7377049180328
 20
62.11538461538461
 10
189.44262295081967
 20
61.81818181818182
 10
189.44262295081967
 20
61.22377622377622
 10
189.14754098360655
 20
60.92657342657343
 10
189.14754098360655
 20
60.03496503496503
 10
188.85245901639345
 20
59.73776223776224
 10
188.85245901639345
 20
58.84615384615385
 10
188.55737704918033
 20
58.54895104895105
 10
188.55737704918033
 20
57.95454545454545
 10
188.2622950819672
 20
57.65734265734266
 10
188.2622950819672
 20
57.06293706293706
 10
187.9672131147541
 20
56.76573426573427
 10
187.9672131147541
 20
56.17132867132867
 10
187.672131147541
 20
55.87412587412587
 10
187.672131147541
 20
55.27972027972028
 10
187.37704918032787
 20
54.98251748251748
 10
187.37704918032787
 20
54.68531468531469
 10
187.08196721311475
 20
54.38811188811189
 10
187.08196721311475
 20
54.09090909090909
 10
186.78688524590163
 20
53.79370629370629
 10
186.78688524590163
 20
53.49650349650349
 10
186.49180327868854
 20
53.1993006993007
 10
186.49180327868854
 20
52.9020979020979
 10
185.31147540983608
 20
51.71328671328671
 10
185.31147540983608
 20
51.41608391608391
 10
184.4262295081967
 20
50.52447552447553
 10
184.13114754098362
 20
50.52447552447553
 10
183.24590163934425
 20
49.63286713286713
 10
182.95081967213116
 20
49.63286713286713
 10
182.65573770491804
 20
49.33566433566433
 10
182.36065573770492
 20
49.33566433566433
 10
182.0655737704918
 20
49.03846153846154
 10
181.7704918032787
 20
49.03846153846154
 10
181.47540983606558
 20
48.74125874125874
 10
180.88524590163934
 20
48.74125874125874
 10
180.59016393442624
 20
48.44405594405595
 10
180.0
 20
48.44405594405595
 10
179.70491803278688
 20
48.14685314685315
 10
178.22950819672133
 20
48.14685314685315
 10
177.9344262295082
 20
47.84965034965035
  0
LWPOLYLINE
  5
37
330
17
100
AcDbEntity
  8
CONTOURS
100
AcDbPolyline
 90
130
 70
1
 10
66.68852459016394
 20
46.36363636363636
 10
66.39344262295081
 20
46.66083916083916
 10
64.0327868852459
 20
46.66083916083916
 10
63.73770491803279
 20
46.95804195804196
 10
62.852459016393446
 20
46.95804195804196
 10
62.55737704918033
 20
47.25524475524475
 10
61.9672131147541
 20
47.25524475524475
 10
61.67213114754099
 20
47.55244755244755
 10
61.37704918032787
 20
47.55244755244755
 10
61.08196721311476
 20
47.84965034965035
 10
60.786885245901644
 20
47.84965034965035
 10
60.49180327868852
 20
48.14685314685315
 10
60.19672131147541
 20
48.14685314685315
 10
59.60655737704918
 20
48.74125874125874
 10
59.31147540983606
 20
48.74125874125874
 10
56.950819672131146
 20
51.11888111888112
 10
56.950819672131146
 20
51.41608391608391
 10
56.65573770491803
 20
51.71328671328671
 10
56.65573770491803
 20
52.010489510489506
 10
56.0655737704918
 20
52.60489510489511
 10
56.0655737704918
 20
53.1993006993007
 10
55.77049180327869
 20
53.49650349650349
 10
55.77049180327869
 20
54.09090909090909
 10
55.47540983606557
 20
54.38811188811189
 10
55.47540983606557
 20
54.98251748251748
 10
55.18032786885246
 20
55.27972027972028
 10
55.18032786885246
 20
56.46853146853147
 10
54.885245901639344
 20
56.76573426573427
 10
54.885245901639344
 20
59.44055944055944
 10
55.18032786885246
 20
59.73776223776224
 10
55.18032786885246
 20
61.22377622377622
 10
55.47540983606557
 20
61.52097902097902
 10
55.47540983606557
 20
62.11538461538461
 10
55.77049180327869
 20
62.41258741258741
 10
55.77049180327869
 20
63.00699300699301
 10
56.0655737704918
 20
63.30419580419581
 10
56.0655737704918
 20
63.6013986013986
 10
56.36065573770492
 20
63.8986013986014
 10
56.36065573770492
 20
64.1958041958042
 10
56.65573770491803
 20
64.49300699300699
 10
56.65573770491803
 20
64.79020979020979
 10
57.24590163934426
 20
65.38461538461539
 10
57.24590163934426
 20
65.68181818181819
 10
59.90163934426229
 20
68.35664335664336
 10
60.19672131147541
 20
68.35664335664336
 10
60.786885245901644
 20
68.95104895104895
 10
61.08196721311476
 20
68.95104895104895
 10
61.37704918032787
 20
69.24825174825175
 10
61.67213114754099
 20
69.24825174825175
 10
61.9672131147541
 20
69.54545454545455
 10
62.26229508196722
 20
69.54545454545455
 10
62.55737704918033
 20
69.84265734265735
 10
62.852459016393446
 20
69.84265734265735
 10
63.14754098360656
 20
70.13986013986013
 10
63.442622950819676
 20
70.13986013986013
 10
63.73770491803279
 20
70.43706293706293
 10
64.32786885245902
 20
70.43706293706293
 10
64.62295081967213
 20
70.73426573426573
 10
65.21311475409836
 20
70.73426573426573
 10
65.50819672131148
 20
71.03146853146853
 10
66.68852459016394
 20
71.03146853146853
 10
66.98360655737704
 20
71.32867132867133
 10
69.34426229508196
 20
71.32867132867133
 10
69.63934426229508
 20
71.03146853146853
 10
71.11475409836066
 20
71.03146853146853
 10
71.40983606557377
 20
70.73426573426573
 10
72.0
 20
70.73426573426573
 10
72.29508196721312
 20
70.43706293706293
 10
72.88524590163935
 20
70.43706293706293
 10
73.18032786885246
 20
70.13986013986013
 10
73.47540983606558
 20
70.13986013986013
 10
73.77049180327869
 20
69.84265734265735
 10
74.06557377049181
 20
69.84265734265735
 10
74.36065573770492
 20
69.54545454545455
 10
74.65573770491804
 20
69.54545454545455
 10
74.95081967213115
 20
69.24825174825175
 10
75.24590163934427
 20
69.24825174825175
 10
76.1311475409836
 20
68.35664335664336
 10
76.42622950819673
 20
68.35664335664336
 10
77.31147540983606
 20
67.46503496503496
 10
77.31147540983606
 20
67.16783216783217
 10
77.60655737704919
 20
66.87062937062937
 10
77.60655737704919
 20
66.57342657342657
 10
77.90163934426229
 20
66.27622377622377
 10
77.90163934426229
 20
65.97902097902097
 10
78.49180327868852
 20
65.38461538461539
 10
78.49180327868852
 20
64.79020979020979
 10
78.78688524590164
 20
64.49300699300699
 10
78.78688524590164
 20
64.1958041958042
 10
79.08196721311475
 20
63.8986013986014
 10
79.08196721311475
 20
63.6013986013986
 10
79.37704918032787
 20
63.30419580419581
 10
79.37704918032787
 20
62.41258741258741
 10
79.67213114754098
 20
62.11538461538461
 10
79.67213114754098
 20
60.33216783216783
 10
79.9672131147541
 20
60.03496503496503
 10
79.9672131147541
 20
59.73776223776224
 10
79.67213114754098
 20
59.44055944055944
 10
79.67213114754098
 20
57.36013986013986
 10
79.37704918032787
 20
57.06293706293706
 10
79.37704918032787
 20
56.17132867132867
 10
79.08196721311475
 20
55.87412587412587
 10
79.08196721311475
 20
54.98251748251748
 10
78.78688524590164
 20
54.68531468531469
 10
78.78688524590164
 20
54.38811188811189
 10
78.49180327868852
 20
54.09090909090909
 10
78.49180327868852
 20
53.79370629370629
 10
77.90163934426229
 20
53.1993006993007
 10
77.90163934426229
 20
52.9020979020979
 10
77.31147540983606
 20
52.30769230769231
 10
77.31147540983606
 20
52.010489510489506
 10
76.72131147540983
 20
51.41608391608391
 10
76.72131147540983
 20
51.11888111888112
 10
74.95081967213115
 20
49.33566433566433
 10
74.65573770491804
 20
49.33566433566433
 10
73.77049180327869
 20
48.44405594405595
 10
73.47540983606558
 20
48.44405594405595
 10
73.18032786885246
 20
48.14685314685315
 10
72.88524590163935
 20
48.14685314685315
 10
72.59016393442623
 20
47.84965034965035
 10
72.29508196721312
 20
47.84965034965035
 10
72.0
 20
47.55244755244755
 10
71.70491803278689
 20
47.55244755244755
 10
71.40983606557377
 20
47.25524475524475
 10
70.81967213114754
 20
47.25524475524475
 10
70.52459016393443
 20
46.95804195804196
 10
69.9344262295082
 20
46.95804195804196
 10
69.63934426229508
 20
46.66083916083916
 10
68.1639344262295
 20
46.66083916083916
 10
67.8688524590164
 20
46.36363636363636
  0
LWPOLYLINE
  5
38
330
17
100
AcDbEntity
  8
CONTOURS
100
AcDbPolyline
 90
127
 70
1
 10
24.491803278688526
 20
45.47202797202797
 10
24.19672131147541
 20
45.76923076923077
 10
22.721311475409838
 20
45.76923076923077
 10
22.426229508196723
 20
46.06643356643357
 10
21.836065573770494
 20
46.06643356643357
 10
21.540983606557376
 20
46.36363636363636
 10
20.950819672131146
 20
46.36363636363636
 10
20.65573770491803
 20
46.66083916083916
 10
20.065573770491802
 20
46.66083916083916
 10
19.770491803278688
 20
46.95804195804196
 10
19.475409836065573
 20
46.95804195804196
 10
18.885245901639344
 20
47.55244755244755
 10
18.59016393442623
 20
47.55244755244755
 10
18.295081967213115
 20
47.84965034965035
 10
18.0
 20
47.84965034965035
 10
17.114754098360656
 20
48.74125874125874
 10
16.81967213114754
 20
48.74125874125874
 10
16.524590163934427
 20
49.03846153846154
 10
16.229508196721312
 20
49.03846153846154
 10
15.934426229508198
 20
49.33566433566433
 10
15.934426229508198
 20
49.63286713286713
 10
15.639344262295083
 20
49.930069930069926
 10
15.639344262295083
 20
50.22727272727273
 10
15.344262295081968
 20
50.52447552447553
 10
15.344262295081968
 20
50.82167832167832
 10
15.049180327868852
 20
51.11888111888112
 10
15.049180327868852
 20
51.41608391608391
 10
14.754098360655737
 20
51.71328671328671
 10
14.754098360655737
 20
52.010489510489506
 10
14.459016393442623
 20
52.30769230769231
 10
14.459016393442623
 20
52.9020979020979
 10
14.163934426229508
 20
53.1993006993007
 10
14.163934426229508
 20
53.79370629370629
 10
13.868852459016393
 20
54.09090909090909
 10
13.868852459016393
 20
54.68531468531469
 10
13.573770491803279
 20
54.98251748251748
 10
13.573770491803279
 20
59.44055944055944
 10
13.868852459016393
 20
59.73776223776224
 10
13.868852459016393
 20
60.62937062937063
 10
14.163934426229508
 20
60.92657342657343
 10
14.163934426229508
 20
61.52097902097902
 10
14.459016393442623
 20
61.81818181818182
 10
14.459016393442623
 20
62.41258741258741
 10
14.754098360655737
 20
62.70979020979021
 10
14.754098360655737
 20
63.00699300699301
 10
15.344262295081968
 20
63.6013986013986
 10
15.344262295081968
 20
63.8986013986014
 10
15.934426229508198
 20
64.49300699300699
 10
15.934426229508198
 20
64.79020979020979
 10
18.59016393442623
 20
67.46503496503496
 10
18.885245901639344
 20
67.46503496503496
 10
19.475409836065573
 20
68.05944055944056
 10
19.770491803278688
 20
68.05944055944056
 10
20.360655737704917
 20
68.65384615384615
 10
20.65573770491803
 20
68.65384615384615
 10
20.950819672131146
 20
68.95104895104895
 10
21.24590163934426
 20
68.95104895104895
 10
21.540983606557376
 20
69.24825174825175
 10
21.836065573770494
 20
69.24825174825175
 10
22.13114754098361
 20
69.54545454545455
 10
22.721311475409838
 20
69.54545454545455
 10
23.016393442622952
 20
69.84265734265735
 10
23.60655737704918
 20
69.84265734265735
 10
23.901639344262296
 20
70.13986013986013
 10
24.491803278688526
 20
70.13986013986013
 10
24.78688524590164
 20
70.43706293706293
 10
28.918032786885245
 20
70.43706293706293
 10
29.21311475409836
 20
70.13986013986013
 10
30.393442622950822
 20
70.13986013986013
 10
30.688524590163937
 20
69.84265734265735
 10
31.278688524590166
 20
69.84265734265735
 10
31.57377049180328
 20
69.54545454545455
 10
32.16393442622951
 20
69.54545454545455
 10
32.459016393442624
 20
69.24825174825175
 10
32.75409836065574
 20
69.24825174825175
 10
33.049180327868854
 20
68.95104895104895
 10
33.34426229508197
 20
68.95104895104895
 10
33.63934426229508
 20
68.65384615384615
 10
33.9344262295082
 20
68.65384615384615
 10
34.81967213114754
 20
67.76223776223776
 10
35.114754098360656
 20
67.76223776223776
 10
37.18032786885246
 20
65.68181818181819
 10
37.18032786885246
 20
65.38461538461539
 10
37.47540983606557
 20
65.08741258741259
 10
37.47540983606557
 20
64.79020979020979
 10
37.77049180327869
 20
64.49300699300699
 10
37.77049180327869
 20
63.8986013986014
 10
38.0655737704918
 20
63.6013986013986
 10
38.0655737704918
 20
63.30419580419581
 10
38.36065573770492
 20
63.00699300699301
 10
38.36065573770492
 20
62.41258741258741
 10
38.65573770491803
 20
62.11538461538461
 10
38.65573770491803
 20
61.22377622377622
 10
38.950819672131146
 20
60.92657342657343
 10
38.950819672131146
 20
56.17132867132867
 10
38.65573770491803
 20
55.87412587412587
 10
38.65573770491803
 20
55.27972027972028
 10
38.36065573770492
 20
54.98251748251748
 10
38.36065573770492
 20
54.38811188811189
 10
38.0655737704918
 20
54.09090909090909
 10
38.0655737704918
 20
53.49650349650349
 10
37.77049180327869
 20
53.1993006993007
 10
37.77049180327869
 20
52.9020979020979
 10
37.47540983606557
 20
52.60489510489511
 10
37.47540983606557
 20
52.30769230769231
 10
36.885245901639344
 20
51.71328671328671
 10
36.885245901639344
 20
51.41608391608391
 10
36.0
 20
50.52447552447553
 10
36.0
 20
50.22727272727273
 10
35.704918032786885
 20
50.22727272727273
 10
33.63934426229508
 20
48.14685314685315
 10
33.34426229508197
 20
48.14685314685315
 10
32.75409836065574
 20
47.55244755244755
 10
32.459016393442624
 20
47.55244755244755
 10
32.16393442622951
 20
47.25524475524475
 10
31.868852459016395
 20
47.25524475524475
 10
31.57377049180328
 20
46.95804195804196
 10
31.278688524590166
 20
46.95804195804196
 10
30.98360655737705
 20
46.66083916083916
 10
30.393442622950822
 20
46.66083916083916
 10
30.098360655737704
 20
46.36363636363636
 10
29.508196721311474
 20
46.36363636363636
 10
29.21311475409836
 20
46.06643356643357
 10
28.918032786885245
 20
46.06643356643357
 10
28.62295081967213
 20
45.76923076923077
 10
26.852459016393443
 20
45.76923076923077
 10
26.557377049180328
 20
45.47202797202797
  0
LWPOLYLINE
  5
39
330
17
100
AcDbEntity
  8
CONTOURS
100
AcDbPolyline
 90
865
 70
1
 10
247.5737704918033
 20
39.52797202797203
 10
247.27868852459017
 20
39.82517482517483
 10
246.39344262295083
 20
39.82517482517483
 10
246.0983606557377
 20
40.12237762237762
 10
245.80327868852459
 20
40.12237762237762
 10
245.5081967213115
 20
40.41958041958042
 10
244.91803278688525
 20
40.41958041958042
 10
244.62295081967213
 20
40.71678321678321
 10
244.32786885245903
 20
40.71678321678321
 10
243.7377049180328
 20
41.31118881118881
 10
243.44262295081967
 20
41.31118881118881
 10
241.672131147541
 20
43.09440559440559
 10
241.37704918032787
 20
43.09440559440559
 10
241.08196721311475
 20
43.39160839160839
 10
240.78688524590163
 20
43.39160839160839
 10
239.60655737704917
 20
44.58041958041958
 10
239.60655737704917
 20
44.87762237762238
 10
239.31147540983608
 20
45.17482517482517
 10
239.31147540983608
 20
45.47202797202797
 10
238.72131147540983
 20
46.06643356643357
 10
238.72131147540983
 20
46.66083916083916
 10
238.4262295081967
 20
46.95804195804196
 10
238.4262295081967
 20
47.25524475524475
 10
237.54098360655738
 20
48.14685314685315
 10
237.54098360655738
 20
48.44405594405595
 10
236.95081967213116
 20
49.03846153846154
 10
236.65573770491804
 20
49.03846153846154
 10
236.36065573770492
 20
49.33566433566433
 10
236.36065573770492
 20
50.52447552447553
 10
236.65573770491804
 20
50.82167832167832
 10
236.65573770491804
 20
51.11888111888112
 10
236.95081967213116
 20
51.41608391608391
 10
236.95081967213116
 20
51.71328671328671
 10
237.24590163934425
 20
52.010489510489506
 10
237.24590163934425
 20
52.30769230769231
 10
237.54098360655738
 20
52.60489510489511
 10
237.54098360655738
 20
52.9020979020979
 10
237.8360655737705
 20
53.1993006993007
 10
237.8360655737705
 20
53.49650349650349
 10
238.13114754098362
 20
53.79370629370629
 10
238.13114754098362
 20
54.09090909090909
 10
238.72131147540983
 20
54.68531468531469
 10
238.72131147540983
 20
54.98251748251748
 10
239.60655737704917
 20
55.87412587412587
 10
239.60655737704917
 20
56.17132867132867
 10
240.19672131147541
 20
56.76573426573427
 10
240.19672131147541
 20
57.06293706293706
 10
241.9672131147541
 20
58.84615384615385
 10
241.9672131147541
 20
59.14335664335664
 10
242.2622950819672
 20
59.14335664335664
 10
244.32786885245903
 20
61.22377622377622
 10
244.32786885245903
 20
61.52097902097902
 10
245.21311475409837
 20
62.41258741258741
 10
245.21311475409837
 20
62.70979020979021
 10
245.80327868852459
 20
63.30419580419581
 10
245.80327868852459
 20
63.6013986013986
 10
246.39344262295083
 20
64.1958041958042
 10
246.39344262295083
 20
64.49300699300699
 10
246.98360655737704
 20
65.08741258741259
 10
246.98360655737704
 20
65.38461538461539
 10
247.27868852459017
 20
65.68181818181819
 10
247.27868852459017
 20
65.97902097902097
 10
247.8688524590164
 20
66.57342657342657
 10
247.8688524590164
 20
66.87062937062937
 10
248.1639344262295
 20
67.16783216783217
 10
248.1639344262295
 20
67.46503496503496
 10
248.75409836065575
 20
68.05944055944056
 10
248.75409836065575
 20
68.35664335664336
 10
249.34426229508196
 20
68.95104895104895
 10
249.34426229508196
 20
69.24825174825175
 10
249.63934426229508
 20
69.54545454545455
 10
249.63934426229508
 20
69.84265734265735
 10
250.52459016393442
 20
70.73426573426573
 10
250.52459016393442
 20
71.03146853146853
 10
250.81967213114754
 20
71.32867132867133
 10
250.81967213114754
 20
71.62587412587412
 10
252.0
 20
72.81468531468532
 10
252.0
 20
73.1118881118881
 10
252.59016393442624
 20
73.7062937062937
 10
252.59016393442624
 20
74.0034965034965
 10
254.0655737704918
 20
75.4895104895105
 10
254.0655737704918
 20
75.78671328671328
 10
255.24590163934425
 20
76.97552447552448
 10
255.24590163934425
 20
77.27272727272727
 10
256.42622950819674
 20
78.46153846153847
 10
256.42622950819674
 20
78.75874125874125
 10
258.1967213114754
 20
80.54195804195804
 10
258.1967213114754
 20
80.83916083916084
 10
263.21311475409834
 20
85.89160839160839
 10
263.21311475409834
 20
86.18881118881119
 10
267.04918032786884
 20
90.05244755244755
 10
267.04918032786884
 20
90.34965034965035
 10
268.5245901639344
 20
91.83566433566433
 10
268.5245901639344
 20
92.13286713286713
 10
269.7049180327869
 20
93.32167832167832
 10
269.7049180327869
 20
93.61888111888112
 10
270.59016393442624
 20
94.5104895104895
 10
270.59016393442624
 20
94.8076923076923
 10
271.4754098360656
 20
95.6993006993007
 10
271.4754098360656
 20
95.9965034965035
 10
272.3606557377049
 20
96.8881118881119
 10
272.3606557377049
 20
97.18531468531468
 10
272.95081967213116
 20
97.77972027972028
 10
272.95081967213116
 20
98.07692307692308
 10
273.24590163934425
 20
98.37412587412587
 10
273.24590163934425
 20
98.67132867132867
 10
273.8360655737705
 20
99.26573426573427
 10
273.8360655737705
 20
99.56293706293707
 10
274.42622950819674
 20
100.15734265734265
 10
274.42622950819674
 20
100.45454545454545
 10
275.0163934426229
 20
101.04895104895105
 10
275.0163934426229
 20
101.34615384615384
 10
275.3114754098361
 20
101.64335664335664
 10
275.3114754098361
 20
101.94055944055944
 10
275.9016393442623
 20
102.53496503496504
 10
275.9016393442623
 20
102.83216783216783
 10
276.78688524590166
 20
103.72377622377623
 10
276.78688524590166
 20
104.02097902097901
 10
277.08196721311475
 20
104.31818181818181
 10
277.08196721311475
 20
104.91258741258741
 10
277.37704918032784
 20
105.20979020979021
 10
277.37704918032784
 20
105.8041958041958
 10
277.672131147541
 20
106.1013986013986
 10
277.672131147541
 20
106.3986013986014
 10
277.9672131147541
 20
106.6958041958042
 10
277.9672131147541
 20
106.99300699300699
 10
278.26229508196724
 20
107.29020979020979
 10
278.26229508196724
 20
107.88461538461539
 10
278.8524590163934
 20
108.47902097902097
 10
278.8524590163934
 20
108.77622377622377
 10
279.1475409836066
 20
109.07342657342657
 10
279.1475409836066
 20
109.66783216783217
 10
279.7377049180328
 20
110.26223776223776
 10
279.7377049180328
 20
110.85664335664336
 10
280.0327868852459
 20
111.15384615384615
 10
280.0327868852459
 20
111.74825174825175
 10
280.327868852459
 20
112.04545454545455
 10
280.327868852459
 20
112.63986013986013
 10
280.62295081967216
 20
112.93706293706293
 10
280.62295081967216
 20
113.23426573426573
 10
280.91803278688525
 20
113.53146853146853
 10
280.91803278688525
 20
114.12587412587412
 10
281.21311475409834
 20
114.42307692307692
 10
281.21311475409834
 20
114.72027972027972
 10
281.5081967213115
 20
115.01748251748252
 10
281.5081967213115
 20
115.9090909090909
 10
281.8032786885246
 20
116.2062937062937
 10
281.8032786885246
 20
116.80069930069929
 10
282.09836065573774
 20
117.0979020979021
 10
282.09836065573774
 20
117.9895104895105
 10
282.39344262295083
 20
118.28671328671328
 10
282.39344262295083
 20
119.17832167832168
 10
282.6885245901639
 20
119.47552447552448
 10
282.6885245901639
 20
120.36713286713287
 10
282.9836065573771
 20
120.66433566433567
 10
282.9836065573771
 20
122.15034965034965
 10
283.27868852459017
 20
122.44755244755244
 10
283.27868852459017
 20
123.93356643356643
 10
283.57377049180326
 20
124.23076923076923
 10
283.57377049180326
 20
126.31118881118881
 10
283.8688524590164
 20
126.60839160839161
 10
283.8688524590164
 20
128.98601398601397
 10
284.1639344262295
 20
129.28321678321677
 10
284.1639344262295
 20
140.87412587412587
 10
283.8688524590164
 20
141.17132867132867
 10
283.8688524590164
 20
143.25174825174824
 10
283.57377049180326
 20
143.54895104895104
 10
283.57377049180326
 20
145.62937062937064
 10
283.27868852459017
 20
145.9265734265734
 10
283.27868852459017
 20
147.1153846153846
 10
282.9836065573771
 20
147.4125874125874
 10
282.9836065573771
 20
148.60139860139859
 10
282.6885245901639
 20
148.8986013986014
 10
282.6885245901639
 20
150.3846153846154
 10
282.39344262295083
 20
150.6818181818182
 10
282.39344262295083
 20
151.57342657342656
 10
282.09836065573774
 20
151.87062937062936
 10
282.09836065573774
 20
153.05944055944056
 10
281.8032786885246
 20
153.35664335664336
 10
281.8032786885246
 20
154.24825174825176
 10
281.5081967213115
 20
154.54545454545453
 10
281.5081967213115
 20
155.43706293706293
 10
281.21311475409834
 20
155.73426573426573
 10
281.21311475409834
 20
156.32867132867133
 10
280.91803278688525
 20
156.62587412587413
 10
280.91803278688525
 20
157.5174825174825
 10
280.62295081967216
 20
157.8146853146853
 10
280.62295081967216
 20
158.7062937062937
 10
280.327868852459
 20
159.0034965034965
 10
280.327868852459
 20
159.5979020979021
 10
280.0327868852459
 20
159.8951048951049
 10
280.0327868852459
 20
160.78671328671328
 10
279.7377049180328
 20
161.08391608391608
 10
279.7377049180328
 20
161.67832167832168
 10
279.44262295081967
 20
161.97552447552448
 10
279.44262295081967
 20
162.27272727272728
 10
279.1475409836066
 20
162.56993006993008
 10
279.1475409836066
 20
163.16433566433565
 10
278.8524590163934
 20
163.46153846153845
 10
278.8524590163934
 20
164.05594405594405
 10
278.55737704918033
 20
164.35314685314685
 10
278.55737704918033
 20
164.65034965034965
 10
278.26229508196724
 20
164.94755244755245
 10
278.26229508196724
 20
165.24475524475525
 10
277.9672131147541
 20
165.54195804195805
 10
277.9672131147541
 20
165.83916083916083
 10
277.672131147541
 20
166.13636363636363
 10
277.672131147541
 20
167.02797202797203
 10
277.08196721311475
 20
167.62237762237763
 10
277.08196721311475
 20
167.91958041958043
 10
276.78688524590166
 20
168.21678321678323
 10
276.78688524590166
 20
168.513986013986
 10
276.4918032786885
 20
168.8111888111888
 10
276.4918032786885
 20
169.4055944055944
 10
276.1967213114754
 20
169.7027972027972
 10
276.1967213114754
 20
170.0
 10
275.60655737704917
 20
170.5944055944056
 10
275.60655737704917
 20
170.8916083916084
 10
275.3114754098361
 20
171.1888111888112
 10
275.3114754098361
 20
171.48601398601397
 10
274.72131147540983
 20
172.08041958041957
 10
274.72131147540983
 20
172.67482517482517
 10
274.42622950819674
 20
172.97202797202797
 10
274.42622950819674
 20
173.26923076923077
 10
274.1311475409836
 20
173.56643356643357
 10
274.1311475409836
 20
173.86363636363637
 10
273.5409836065574
 20
174.45804195804195
 10
273.5409836065574
 20
174.75524475524475
 10
273.24590163934425
 20
175.05244755244755
 10
273.24590163934425
 20
175.34965034965035
 10
272.655737704918
 20
175.94405594405595
 10
272.655737704918
 20
176.24125874125875
 10
272.0655737704918
 20
176.83566433566435
 10
272.0655737704918
 20
177.13286713286712
 10
271.4754098360656
 20
177.72727272727272
 10
271.4754098360656
 20
178.02447552447552
 10
270.88524590163934
 20
178.61888111888112
 10
270.88524590163934
 20
178.91608391608392
 10
270.0
 20
179.8076923076923
 10
270.0
 20
180.1048951048951
 10
268.81967213114757
 20
181.2937062937063
 10
268.81967213114757
 20
181.5909090909091
 10
267.9344262295082
 20
182.4825174825175
 10
267.9344262295082
 20
182.77972027972027
 10
266.45901639344265
 20
184.26573426573427
 10
266.45901639344265
 20
184.56293706293707
 10
264.9836065573771
 20
186.04895104895104
 10
264.9836065573771
 20
186.34615384615384
 10
261.44262295081967
 20
189.9125874125874
 10
261.44262295081967
 20
190.2097902097902
 10
259.672131147541
 20
191.993006993007
 10
259.672131147541
 20
192.2902097902098
 10
254.95081967213116
 20
197.04545454545453
 10
254.95081967213116
 20
197.34265734265733
 10
252.59016393442624
 20
199.7202797202797
 10
252.59016393442624
 20
200.0174825174825
 10
249.63934426229508
 20
202.98951048951048
 10
249.63934426229508
 20
203.28671328671328
 10
247.8688524590164
 20
205.06993006993008
 10
247.8688524590164
 20
205.36713286713285
 10
246.39344262295083
 20
206.85314685314685
 10
246.39344262295083
 20
207.15034965034965
 10
245.80327868852459
 20
207.74475524475525
 10
245.80327868852459
 20
208.04195804195803
 10
245.21311475409837
 20
208.63636363636363
 10
245.21311475409837
 20
208.93356643356643
 10
244.62295081967213
 20
209.52797202797203
 10
244.62295081967213
 20
209.82517482517483
 10
244.0327868852459
 20
210.41958041958043
 10
244.0327868852459
 20
210.71678321678323
 10
243.7377049180328
 20
211.013986013986
 10
243.7377049180328
 20
211.3111888111888
 10
243.44262295081967
 20
211.6083916083916
 10
243.44262295081967
 20
211.9055944055944
 10
242.85245901639345
 20
212.5
 10
242.85245901639345
 20
212.7972027972028
 10
242.55737704918033
 20
213.0944055944056
 10
242.55737704918033
 20
213.3916083916084
 10
242.2622950819672
 20
213.68881118881117
 10
242.2622950819672
 20
213.98601398601397
 10
241.9672131147541
 20
214.28321678321677
 10
241.9672131147541
 20
214.58041958041957
 10
241.672131147541
 20
214.87762237762237
 10
241.672131147541
 20
215.17482517482517
 10
241.08196721311475
 20
215.76923076923077
 10
241.08196721311475
 20
216.06643356643357
 10
240.49180327868854
 20
216.66083916083915
 10
240.19672131147541
 20
216.66083916083915
 10
239.60655737704917
 20
217.25524475524475
 10
239.31147540983608
 20
217.25524475524475
 10
238.13114754098362
 20
218.44405594405595
 10
237.8360655737705
 20
218.44405594405595
 10
237.24590163934425
 20
219.03846153846155
 10
236.95081967213116
 20
219.03846153846155
 10
236.36065573770492
 20
219.63286713286712
 10
236.0655737704918
 20
219.63286713286712
 10
235.7704918032787
 20
219.93006993006992
 10
235.47540983606558
 20
219.93006993006992
 10
235.18032786885246
 20
220.22727272727272
 10
234.88524590163934
 20
220.22727272727272
 10
234.29508196721312
 20
220.82167832167832
 10
234.0
 20
220.82167832167832
 10
233.40983606557378
 20
221.41608391608392
 10
233.11475409836066
 20
221.41608391608392
 10
232.52459016393442
 20
222.01048951048952
 10
232.22950819672133
 20
222.01048951048952
 10
231.63934426229508
 20
222.6048951048951
 10
231.34426229508196
 20
222.6048951048951
 10
230.75409836065575
 20
223.1993006993007
 10
230.45901639344262
 20
223.1993006993007
 10
229.8688524590164
 20
223.7937062937063
 10
229.5737704918033
 20
223.7937062937063
 10
229.27868852459017
 20
224.0909090909091
 10
228.98360655737704
 20
224.0909090909091
 10
228.68852459016395
 20
224.3881118881119
 10
228.39344262295083
 20
224.3881118881119
 10
228.0983606557377
 20
224.6853146853147
 10
227.80327868852459
 20
224.6853146853147
 10
227.5081967213115
 20
224.9825174825175
 10
227.21311475409837
 20
224.9825174825175
 10
226.91803278688525
 20
225.27972027972027
 10
226.62295081967213
 20
225.27972027972027
 10
226.32786885245903
 20
225.57692307692307
 10
226.0327868852459
 20
225.57692307692307
 10
225.44262295081967
 20
226.17132867132867
 10
225.14754098360655
 20
226.17132867132867
 10
224.85245901639345
 20
226.46853146853147
 10
224.55737704918033
 20
226.46853146853147
 10
224.2622950819672
 20
226.76573426573427
 10
223.9672131147541
 20
226.76573426573427
 10
223.672131147541
 20
227.06293706293707
 10
223.37704918032787
 20
227.06293706293707
 10
222.78688524590163
 20
227.65734265734267
 10
222.49180327868854
 20
227.65734265734267
 10
222.19672131147541
 20
227.95454545454544
 10
221.9016393442623
 20
227.95454545454544
 10
221.60655737704917
 20
228.25174825174824
 10
221.31147540983608
 20
228.25174825174824
 10
220.72131147540983
 20
228.84615384615384
 10
220.4262295081967
 20
228.84615384615384
 10
220.13114754098362
 20
229.14335664335664
 10
219.8360655737705
 20
229.14335664335664
 10
219.54098360655738
 20
229.44055944055944
 10
219.24590163934425
 20
229.44055944055944
 10
218.95081967213116
 20
229.73776223776224
 10
218.65573770491804
 20
229.73776223776224
 10
218.36065573770492
 20
230.03496503496504
 10
218.0655737704918
 20
230.03496503496504
 10
217.47540983606558
 20
230.62937062937064
 10
217.18032786885246
 20
230.62937062937064
 10
216.88524590163934
 20
230.9265734265734
 10
216.59016393442624
 20
230.9265734265734
 10
216.29508196721312
 20
231.2237762237762
 10
216.0
 20
231.2237762237762
 10
215.70491803278688
 20
231.520979020979
 10
215.40983606557378
 20
231.520979020979
 10
215.11475409836066
 20
231.8181818181818
 10
214.81967213114754
 20
231.8181818181818
 10
214.52459016393442
 20
232.1153846153846
 10
214.22950819672133
 20
232.1153846153846
 10
213.9344262295082
 20
232.4125874125874
 10
213.63934426229508
 20
232.4125874125874
 10
213.34426229508196
 20
232.7097902097902
 10
213.04918032786887
 20
232.7097902097902
 10
212.75409836065575
 20
233.006993006993
 10
212.45901639344262
 20
233.006993006993
 10
212.1639344262295
 20
233.3041958041958
 10
211.8688524590164
 20
233.3041958041958
 10
211.5737704918033
 20
233.60139860139859
 10
211.27868852459017
 20
233.60139860139859
 10
210.98360655737704
 20
233.8986013986014
 10
210.68852459016395
 20
233.8986013986014
 10
210.39344262295083
 20
234.1958041958042
 10
210.0983606557377
 20
234.1958041958042
 10
209.21311475409837
 20
235.0874125874126
 10
209.21311475409837
 20
235.3846153846154
 10
208.91803278688525
 20
235.6818181818182
 10
208.91803278688525
 20
236.2762237762238
 10
208.62295081967213
 20
236.57342657342656
 10
208.62295081967213
 20
240.73426573426573
 10
207.44262295081967
 20
241.92307692307693
 10
207.14754098360655
 20
241.92307692307693
 10
206.85245901639345
 20
242.2202797202797
 10
206.55737704918033
 20
242.2202797202797
 10
206.55737704918033
 20
242.5174825174825
 10
206.2622950819672
 20
242.8146853146853
 10
206.2622950819672
 20
243.4090909090909
 10
205.37704918032787
 20
244.3006993006993
 10
205.37704918032787
 20
244.89510489510488
 10
205.08196721311475
 20
245.19230769230768
 10
205.08196721311475
 20
247.27272727272728
 10
205.672131147541
 20
247.86713286713285
 10
205.672131147541
 20
248.16433566433565
 10
206.2622950819672
 20
248.75874125874125
 10
206.2622950819672
 20
249.35314685314685
 10
206.55737704918033
 20
249.35314685314685
 10
207.44262295081967
 20
250.24475524475525
 10
207.7377049180328
 20
250.24475524475525
 10
208.0327868852459
 20
250.54195804195803
 10
208.32786885245903
 20
250.54195804195803
 10
208.91803278688525
 20
251.13636363636363
 10
209.5081967213115
 20
251.13636363636363
 10
209.80327868852459
 20
251.43356643356643
 10
212.45901639344262
 20
251.43356643356643
 10
212.75409836065575
 20
251.13636363636363
 10
213.34426229508196
 20
251.13636363636363
 10
213.63934426229508
 20
250.83916083916083
 10
213.9344262295082
 20
250.83916083916083
 10
214.22950819672133
 20
250.54195804195803
 10
214.52459016393442
 20
250.54195804195803
 10
216.29508196721312
 20
248.75874125874125
 10
217.7704918032787
 20
248.75874125874125
 10
218.0655737704918
 20
248.46153846153845
 10
218.36065573770492
 20
248.46153846153845
 10
218.65573770491804
 20
248.16433566433565
 10
218.95081967213116
 20
248.16433566433565
 10
220.13114754098362
 20
246.97552447552448
 10
220.13114754098362
 20
246.67832167832168
 10
220.4262295081967
 20
246.38111888111888
 10
220.4262295081967
 20
245.78671328671328
 10
220.72131147540983
 20
245.48951048951048
 10
220.72131147540983
 20
244.3006993006993
 10
223.37704918032787
 20
241.62587412587413
 10
223.672131147541
 20
241.62587412587413
 10
224.55737704918033
 20
240.73426573426573
 10
224.85245901639345
 20
240.73426573426573
 10
225.7377049180328
 20
239.84265734265733
 10
226.0327868852459
 20
239.84265734265733
 10
226.62295081967213
 20
239.24825174825173
 10
226.91803278688525
 20
239.24825174825173
 10
227.21311475409837
 20
238.95104895104896
 10
227.5081967213115
 20
238.95104895104896
 10
228.0983606557377
 20
238.35664335664336
 10
228.39344262295083
 20
238.35664335664336
 10
228.68852459016395
 20
238.05944055944056
 10
228.98360655737704
 20
238.05944055944056
 10
229.5737704918033
 20
237.46503496503496
 10
229.8688524590164
 20
237.46503496503496
 10
230.45901639344262
 20
236.87062937062936
 10
230.75409836065575
 20
236.87062937062936
 10
231.34426229508196
 20
236.2762237762238
 10
231.63934426229508
 20
236.2762237762238
 10
232.52459016393442
 20
235.3846153846154
 10
232.81967213114754
 20
235.3846153846154
 10
234.0
 20
234.1958041958042
 10
234.59016393442624
 20
234.1958041958042
 10
234.88524590163934
 20
233.8986013986014
 10
236.65573770491804
 20
233.8986013986014
 10
236.95081967213116
 20
233.60139860139859
 10
238.13114754098362
 20
233.60139860139859
 10
238.4262295081967
 20
233.3041958041958
 10
239.01639344262296
 20
233.3041958041958
 10
239.31147540983608
 20
233.006993006993
 10
239.9016393442623
 20
233.006993006993
 10
240.19672131147541
 20
232.7097902097902
 10
240.78688524590163
 20
232.7097902097902
 10
241.08196721311475
 20
232.4125874125874
 10
241.9672131147541
 20
232.4125874125874
 10
242.2622950819672
 20
232.1153846153846
 10
243.14754098360658
 20
232.1153846153846
 10
243.44262295081967
 20
231.8181818181818
 10
244.91803278688525
 20
231.8181818181818
 10
245.21311475409837
 20
231.520979020979
 10
249.04918032786887
 20
231.520979020979
 10
249.34426229508196
 20
231.8181818181818
 10
250.81967213114754
 20
231.8181818181818
 10
251.11475409836066
 20
232.1153846153846
 10
252.59016393442624
 20
232.1153846153846
 10
252.88524590163934
 20
232.4125874125874
 10
254.0655737704918
 20
232.4125874125874
 10
254.36065573770492
 20
232.7097902097902
 10
256.1311475409836
 20
232.7097902097902
 10
256.42622950819674
 20
233.006993006993
 10
263.5081967213115
 20
233.006993006993
 10
263.8032786885246
 20
232.7097902097902
 10
265.27868852459017
 20
232.7097902097902
 10
265.57377049180326
 20
232.4125874125874
 10
266.45901639344265
 20
232.4125874125874
 10
266.75409836065575
 20
232.1153846153846
 10
267.6393442622951
 20
232.1153846153846
 10
267.9344262295082
 20
231.8181818181818
 10
268.81967213114757
 20
231.8181818181818
 10
269.11475409836066
 20
231.520979020979
 10
269.7049180327869
 20
231.520979020979
 10
270.0
 20
231.2237762237762
 10
270.59016393442624
 20
231.2237762237762
 10
270.88524590163934
 20
230.9265734265734
 10
271.4754098360656
 20
230.9265734265734
 10
271.7704918032787
 20
230.62937062937064
 10
272.3606557377049
 20
230.62937062937064
 10
272.655737704918
 20
230.33216783216784
 10
273.24590163934425
 20
230.33216783216784
 10
273.5409836065574
 20
230.03496503496504
 10
274.42622950819674
 20
230.03496503496504
 10
274.72131147540983
 20
229.73776223776224
 10
275.0163934426229
 20
229.73776223776224
 10
275.3114754098361
 20
229.44055944055944
 10
275.60655737704917
 20
229.44055944055944
 10
275.9016393442623
 20
229.14335664335664
 10
276.1967213114754
 20
229.14335664335664
 10
276.4918032786885
 20
228.84615384615384
 10
277.08196721311475
 20
228.84615384615384
 10
277.37704918032784
 20
228.54895104895104
 10
277.672131147541
 20
228.54895104895104
 10
278.26229508196724
 20
227.95454545454544
 10
278.8524590163934
 20
227.95454545454544
 10
279.1475409836066
 20
227.65734265734267
 10
279.44262295081967
 20
227.65734265734267
 10
279.7377049180328
 20
227.36013986013987
 10
280.0327868852459
 20
227.36013986013987
 10
280.62295081967216
 20
226.76573426573427
 10
280.91803278688525
 20
226.76573426573427
 10
281.21311475409834
 20
226.46853146853147
 10
281.5081967213115
 20
226.46853146853147
 10
281.8032786885246
 20
226.17132867132867
 10
282.09836065573774
 20
226.17132867132867
 10
282.39344262295083
 20
225.87412587412587
 10
282.6885245901639
 20
225.87412587412587
 10
283.27868852459017
 20
225.27972027972027
 10
283.57377049180326
 20
225.27972027972027
 10
283.8688524590164
 20
224.9825174825175
 10
284.1639344262295
 20
224.9825174825175
 10
284.75409836065575
 20
224.3881118881119
 10
285.04918032786884
 20
224.3881118881119
 10
285.6393442622951
 20
223.7937062937063
 10
285.9344262295082
 20
223.7937062937063
 10
286.81967213114757
 20
222.9020979020979
 10
287.11475409836066
 20
222.9020979020979
 10
287.7049180327869
 20
222.3076923076923
 10
288.0
 20
222.3076923076923
 10
288.88524590163934
 20
221.41608391608392
 10
289.1803278688525
 20
221.41608391608392
 10
290.655737704918
 20
219.93006993006992
 10
290.95081967213116
 20
219.93006993006992
 10
293.0163934426229
 20
217.84965034965035
 10
293.3114754098361
 20
217.84965034965035
 10
296.55737704918033
 20
214.58041958041957
 10
296.55737704918033
 20
214.28321678321677
 10
299.5081967213115
 20
211.3111888111888
 10
299.5081967213115
 20
211.013986013986
 10
301.57377049180326
 20
208.93356643356643
 10
301.57377049180326
 20
208.63636363636363
 10
303.04918032786884
 20
207.15034965034965
 10
303.04918032786884
 20
206.85314685314685
 10
303.9344262295082
 20
205.96153846153845
 10
303.9344262295082
 20
205.66433566433565
 10
305.7049180327869
 20
203.88111888111888
 10
305.7049180327869
 20
203.58391608391608
 10
306.59016393442624
 20
202.69230769230768
 10
306.59016393442624
 20
202.39510489510488
 10
307.4754098360656
 20
201.5034965034965
 10
307.4754098360656
 20
201.2062937062937
 10
308.3606557377049
 20
200.3146853146853
 10
308.3606557377049
 20
200.0174825174825
 10
308.95081967213116
 20
199.42307692307693
 10
308.95081967213116
 20
199.12587412587413
 10
309.5409836065574
 20
198.53146853146853
 10
309.5409836065574
 20
198.23426573426573
 10
310.42622950819674
 20
197.34265734265733
 10
310.42622950819674
 20
197.04545454545453
 10
310.72131147540983
 20
196.74825174825173
 10
310.72131147540983
 20
196.45104895104896
 10
311.60655737704917
 20
195.55944055944056
 10
311.60655737704917
 20
195.26223776223776
 10
311.9016393442623
 20
194.96503496503496
 10
311.9016393442623
 20
194.66783216783216
 10
312.4918032786885
 20
194.07342657342656
 10
312.4918032786885
 20
193.7762237762238
 10
313.08196721311475
 20
193.1818181818182
 10
313.08196721311475
 20
192.8846153846154
 10
313.3770491803279
 20
192.5874125874126
 10
313.3770491803279
 20
192.2902097902098
 10
313.9672131147541
 20
191.6958041958042
 10
313.9672131147541
 20
191.3986013986014
 10
314.26229508196724
 20
191.10139860139859
 10
314.26229508196724
 20
190.8041958041958
 10
314.8524590163934
 20
190.2097902097902
 10
314.8524590163934
 20
189.9125874125874
 10
315.1475409836066
 20
189.6153846153846
 10
315.1475409836066
 20
189.3181818181818
 10
315.44262295081967
 20
189.020979020979
 10
315.44262295081967
 20
188.7237762237762
 10
316.0327868852459
 20
188.12937062937064
 10
316.0327868852459
 20
187.83216783216784
 10
316.327868852459
 20
187.53496503496504
 10
316.327868852459
 20
187.23776223776224
 10
316.62295081967216
 20
186.94055944055944
 10
316.62295081967216
 20
186.64335664335664
 10
316.91803278688525
 20
186.34615384615384
 10
316.91803278688525
 20
186.04895104895104
 10
317.21311475409834
 20
185.75174825174824
 10
317.21311475409834
 20
185.45454545454544
 10
317.5081967213115
 20
185.15734265734267
 10
317.5081967213115
 20
184.86013986013987
 10
317.8032786885246
 20
184.56293706293707
 10
317.8032786885246
 20
184.26573426573427
 10
318.09836065573774
 20
183.96853146853147
 10
318.09836065573774
 20
183.67132867132867
 10
318.39344262295083
 20
183.37412587412587
 10
318.39344262295083
 20
183.07692307692307
 10
318.6885245901639
 20
182.77972027972027
 10
318.6885245901639
 20
182.4825174825175
 10
318.9836065573771
 20
182.1853146853147
 10
318.9836065573771
 20
181.5909090909091
 10
319.27868852459017
 20
181.2937062937063
 10
319.27868852459017
 20
180.9965034965035
 10
319.57377049180326
 20
180.6993006993007
 10
319.57377049180326
 20
180.4020979020979
 10
319.8688524590164
 20
180.1048951048951
 10
319.8688524590164
 20
179.8076923076923
 10
320.1639344262295
 20
179.51048951048952
 10
320.1639344262295
 20
178.91608391608392
 10
320.45901639344265
 20
178.61888111888112
 10
320.45901639344265
 20
178.32167832167832
 10
320.75409836065575
 20
178.02447552447552
 10
320.75409836065575
 20
177.43006993006992
 10
321.04918032786884
 20
177.13286713286712
 10
321.04918032786884
 20
176.83566433566435
 10
321.344262295082
 20
176.53846153846155
 10
321.344262295082
 20
176.24125874125875
 10
321.6393442622951
 20
175.94405594405595
 10
321.6393442622951
 20
175.34965034965035
 10
321.9344262295082
 20
175.05244755244755
 10
321.9344262295082
 20
174.45804195804195
 10
322.2295081967213
 20
174.16083916083915
 10
322.2295081967213
 20
173.56643356643357
 10
322.5245901639344
 20
173.26923076923077
 10
322.5245901639344
 20
172.67482517482517
 10
322.81967213114757
 20
172.37762237762237
 10
322.81967213114757
 20
171.78321678321677
 10
323.11475409836066
 20
171.48601398601397
 10
323.11475409836066
 20
170.8916083916084
 10
323.40983606557376
 20
170.5944055944056
 10
323.40983606557376
 20
169.7027972027972
 10
323.7049180327869
 20
169.4055944055944
 10
323.7049180327869
 20
168.513986013986
 10
324.0
 20
168.21678321678323
 10
324.0
 20
167.32517482517483
 10
324.2950819672131
 20
167.02797202797203
 10
324.2950819672131
 20
166.43356643356643
 10
324.59016393442624
 20
166.13636363636363
 10
324.59016393442624
 20
165.24475524475525
 10
324.88524590163934
 20
164.94755244755245
 10
324.88524590163934
 20
164.05594405594405
 10
325.1803278688525
 20
163.75874125874125
 10
325.1803278688525
 20
162.86713286713285
 10
325.4754098360656
 20
162.56993006993008
 10
325.4754098360656
 20
161.67832167832168
 10
325.7704918032787
 20
161.38111888111888
 10
325.7704918032787
 20
160.48951048951048
 10
326.0655737704918
 20
160.19230769230768
 10
326.0655737704918
 20
159.3006993006993
 10
326.3606557377049
 20
159.0034965034965
 10
326.3606557377049
 20
157.8146853146853
 10
326.655737704918
 20
157.5174825174825
 10
326.655737704918
 20
156.32867132867133
 10
326.95081967213116
 20
156.03146853146853
 10
326.95081967213116
 20
154.54545454545453
 10
327.24590163934425
 20
154.24825174825176
 10
327.24590163934425
 20
152.76223776223776
 10
327.5409836065574
 20
152.46503496503496
 10
327.5409836065574
 20
150.6818181818182
 10
327.8360655737705
 20
150.3846153846154
 10
327.8360655737705
 20
148.60139860139859
 10
328.1311475409836
 20
148.3041958041958
 10
328.1311475409836
 20
145.03496503496504
 10
328.42622950819674
 20
144.73776223776224
 10
328.42622950819674
 20
139.9825174825175
 10
328.72131147540983
 20
139.6853146853147
 10
328.72131147540983
 20
134.03846153846155
 10
328.42622950819674
 20
133.74125874125875
 10
328.42622950819674
 20
129.28321678321677
 10
328.1311475409836
 20
128.98601398601397
 10
328.1311475409836
 20
126.60839160839161
 10
327.8360655737705
 20
126.31118881118881
 10
327.8360655737705
 20
124.23076923076923
 10
327.5409836065574
 20
123.93356643356643
 10
327.5409836065574
 20
122.15034965034965
 10
327.24590163934425
 20
121.85314685314685
 10
327.24590163934425
 20
120.36713286713287
 10
326.95081967213116
 20
120.06993006993007
 10
326.95081967213116
 20
118.28671328671328
 10
326.655737704918
 20
117.9895104895105
 10
326.655737704918
 20
116.2062937062937
 10
326.3606557377049
 20
115.9090909090909
 10
326.3606557377049
 20
114.72027972027972
 10
326.0655737704918
 20
114.42307692307692
 10
326.0655737704918
 20
113.23426573426573
 10
325.7704918032787
 20
112.93706293706293
 10
325.7704918032787
 20
111.74825174825175
 10
325.4754098360656
 20
111.45104895104895
 10
325.4754098360656
 20
110.55944055944056
 10
325.1803278688525
 20
110.26223776223776
 10
325.1803278688525
 20
109.37062937062937
 10
324.88524590163934
 20
109.07342657342657
 10
324.88524590163934
 20
108.18181818181819
 10
324.59016393442624
 20
107.88461538461539
 10
324.59016393442624
 20
106.99300699300699
 10
324.2950819672131
 20
106.6958041958042
 10
324.2950819672131
 20
105.8041958041958
 10
324.0
 20
105.506993006993
 10
324.0
 20
104.91258741258741
 10
323.7049180327869
 20
104.61538461538461
 10
323.7049180327869
 20
104.02097902097901
 10
323.40983606557376
 20
103.72377622377623
 10
323.40983606557376
 20
102.83216783216783
 10
323.11475409836066
 20
102.53496503496504
 10
323.11475409836066
 20
101.94055944055944
 10
322.81967213114757
 20
101.64335664335664
 10
322.81967213114757
 20
101.04895104895105
 10
322.5245901639344
 20
100.75174825174825
 10
322.5245901639344
 20
100.15734265734265
 10
322.2295081967213
 20
99.86013986013985
 10
322.2295081967213
 20
99.26573426573427
 10
321.9344262295082
 20
98.96853146853147
 10
321.9344262295082
 20
98.67132867132867
 10
321.6393442622951
 20
98.37412587412587
 10
321.6393442622951
 20
97.77972027972028
 10
321.344262295082
 20
97.48251748251748
 10
321.344262295082
 20
97.18531468531468
 10
321.04918032786884
 20
96.8881118881119
 10
321.04918032786884
 20
96.2937062937063
 10
320.75409836065575
 20
95.9965034965035
 10
320.75409836065575
 20
95.6993006993007
 10
320.45901639344265
 20
95.4020979020979
 10
320.45901639344265
 20
94.8076923076923
 10
320.1639344262295
 20
94.5104895104895
 10
320.1639344262295
 20
93.91608391608392
 10
319.8688524590164
 20
93.61888111888112
 10
319.8688524590164
 20
93.32167832167832
 10
319.57377049180326
 20
93.02447552447552
 10
319.57377049180326
 20
92.72727272727272
 10
319.27868852459017
 20
92.43006993006993
 10
319.27868852459017
 20
92.13286713286713
 10
318.9836065573771
 20
91.83566433566433
 10
318.9836065573771
 20
91.53846153846153
 10
318.6885245901639
 20
91.24125874125875
 10
318.6885245901639
 20
90.94405594405595
 10
318.39344262295083
 20
90.64685314685315
 10
318.39344262295083
 20
90.34965034965035
 10
318.09836065573774
 20
90.05244755244755
 10
318.09836065573774
 20
89.45804195804196
 10
317.5081967213115
 20
88.86363636363636
 10
317.5081967213115
 20
88.56643356643356
 10
317.21311475409834
 20
88.26923076923077
 10
317.21311475409834
 20
87.97202797202797
 10
316.91803278688525
 20
87.67482517482517
 10
316.91803278688525
 20
87.37762237762237
 10
316.62295081967216
 20
87.08041958041957
 10
316.62295081967216
 20
86.78321678321679
 10
316.327868852459
 20
86.48601398601399
 10
316.327868852459
 20
86.18881118881119
 10
316.0327868852459
 20
85.89160839160839
 10
316.0327868852459
 20
85.5944055944056
 10
315.44262295081967
 20
85.0
 10
315.44262295081967
 20
84.7027972027972
 10
315.1475409836066
 20
84.4055944055944
 10
315.1475409836066
 20
84.10839160839161
 10
314.8524590163934
 20
83.81118881118881
 10
314.8524590163934
 20
83.51398601398601
 10
314.26229508196724
 20
82.91958041958041
 10
314.26229508196724
 20
82.62237762237763
 10
313.9672131147541
 20
82.32517482517483
 10
313.9672131147541
 20
82.02797202797203
 10
313.3770491803279
 20
81.43356643356643
 10
313.3770491803279
 20
81.13636363636364
 10
312.78688524590166
 20
80.54195804195804
 10
312.78688524590166
 20
80.24475524475524
 10
312.1967213114754
 20
79.65034965034965
 10
312.1967213114754
 20
79.35314685314685
 10
311.60655737704917
 20
78.75874125874125
 10
311.60655737704917
 20
78.46153846153847
 10
311.3114754098361
 20
78.16433566433567
 10
311.3114754098361
 20
77.86713286713287
 10
310.42622950819674
 20
76.97552447552448
 10
310.42622950819674
 20
76.67832167832168
 10
309.8360655737705
 20
76.08391608391608
 10
309.8360655737705
 20
75.78671328671328
 10
309.24590163934425
 20
75.1923076923077
 10
309.24590163934425
 20
74.8951048951049
 10
308.3606557377049
 20
74.0034965034965
 10
308.3606557377049
 20
73.7062937062937
 10
307.7704918032787
 20
73.1118881118881
 10
307.7704918032787
 20
72.81468531468532
 10
306.59016393442624
 20
71.62587412587412
 10
306.59016393442624
 20
71.32867132867133
 10
305.40983606557376
 20
70.13986013986013
 10
305.40983606557376
 20
69.84265734265735
 10
304.2295081967213
 20
68.65384615384615
 10
304.2295081967213
 20
68.35664335664336
 10
302.1639344262295
 20
66.27622377622377
 10
302.1639344262295
 20
65.97902097902097
 10
299.8032786885246
 20
63.6013986013986
 10
299.8032786885246
 20
63.30419580419581
 10
294.78688524590166
 20
58.25174825174825
 10
294.4918032786885
 20
58.25174825174825
 10
292.42622950819674
 20
56.17132867132867
 10
292.1311475409836
 20
56.17132867132867
 10
290.655737704918
 20
54.68531468531469
 10
290.3606557377049
 20
54.68531468531469
 10
288.59016393442624
 20
52.9020979020979
 10
288.2950819672131
 20
52.9020979020979
 10
287.11475409836066
 20
51.71328671328671
 10
286.81967213114757
 20
51.71328671328671
 10
285.6393442622951
 20
50.52447552447553
 10
285.344262295082
 20
50.52447552447553
 10
284.75409836065575
 20
49.930069930069926
 10
284.45901639344265
 20
49.930069930069926
 10
283.57377049180326
 20
49.03846153846154
 10
283.27868852459017
 20
49.03846153846154
 10
282.6885245901639
 20
48.44405594405595
 10
282.39344262295083
 20
48.44405594405595
 10
281.8032786885246
 20
47.84965034965035
 10
281.5081967213115
 20
47.84965034965035
 10
280.91803278688525
 20
47.25524475524475
 10
280.62295081967216
 20
47.25524475524475
 10
280.327868852459
 20
46.95804195804196
 10
280.0327868852459
 20
46.95804195804196
 10
279.44262295081967
 20
46.36363636363636
 10
279.1475409836066
 20
46.36363636363636
 10
278.8524590163934
 20
46.06643356643357
 10
278.55737704918033
 20
46.06643356643357
 10
278.26229508196724
 20
45.76923076923077
 10
277.9672131147541
 20
45.76923076923077
 10
277.672131147541
 20
45.47202797202797
 10
277.37704918032784
 20
45.47202797202797
 10
277.08196721311475
 20
45.17482517482517
 10
276.78688524590166
 20
45.17482517482517
 10
276.4918032786885
 20
44.87762237762238
 10
276.1967213114754
 20
44.87762237762238
 10
275.9016393442623
 20
44.58041958041958
 10
275.60655737704917
 20
44.58041958041958
 10
275.3114754098361
 20
44.28321678321678
 10
275.0163934426229
 20
44.28321678321678
 10
274.72131147540983
 20
43.98601398601399
 10
274.42622950819674
 20
43.98601398601399
 10
274.1311475409836
 20
43.68881118881119
 10
273.5409836065574
 20
43.68881118881119
 10
273.24590163934425
 20
43.39160839160839
 10
272.655737704918
 20
43.39160839160839
 10
272.3606557377049
 20
43.09440559440559
 10
272.0655737704918
 20
43.09440559440559
 10
271.7704918032787
 20
42.7972027972028
 10
271.1803278688525
 20
42.7972027972028
 10
270.88524590163934
 20
42.5
 10
270.0
 20
42.5
 10
269.7049180327869
 20
42.2027972027972
 10
268.81967213114757
 20
42.2027972027972
 10
268.5245901639344
 20
41.90559440559441
 10
267.6393442622951
 20
41.90559440559441
 10
267.344262295082
 20
41.60839160839161
 10
266.1639344262295
 20
41.60839160839161
 10
265.8688524590164
 20
41.31118881118881
 10
264.39344262295083
 20
41.31118881118881
 10
264.09836065573774
 20
41.01398601398601
 10
262.327868852459
 20
41.01398601398601
 10
262.0327868852459
 20
40.71678321678321
 10
258.1967213114754
 20
40.71678321678321
 10
257.9016393442623
 20
40.41958041958042
 10
253.7704918032787
 20
40.41958041958042
 10
253.47540983606558
 20
40.12237762237762
 10
252.29508196721312
 20
40.12237762237762
 10
252.0
 20
39.82517482517483
 10
251.11475409836066
 20
39.82517482517483
 10
250.81967213114754
 20
39.52797202797203
  0
TEXT
  5
3A
330
17
100
AcDbEntity
  8
TEXT
100
AcDbText
 10
283.8688524590164
 20
141.76573426573427
 30
0.0
 40
5.0
  1
Contour 8
100
AcDbText
  0
ENDSEC
  0
SECTION
  2
OBJECTS
  0
DICTIONARY
  5
A
330
0
100
AcDbDictionary
280
0
281
1
  3
ACAD_COLOR
350
B
  3
ACAD_GROUP
350
C
  3
ACAD_LAYOUT
350
D
  3
ACAD_MATERIAL
350
E
  3
ACAD_MLEADERSTYLE
350
F
  3
ACAD_MLINESTYLE
350
10
  3
ACAD_PLOTSETTINGS
350
11
  3
ACAD_PLOTSTYLENAME
350
12
  3
ACAD_SCALELIST
350
14
  3
ACAD_TABLESTYLE
350
15
  3
ACAD_VISUALSTYLE
350
16
  3
EZDXF_META
350
2D
  0
DICTIONARY
  5
B
330
A
100
AcDbDictionary
280
0
281
1
  0
DICTIONARY
  5
C
330
A
100
AcDbDictionary
280
0
281
1
  0
DICTIONARY
  5
D
330
A
100
AcDbDictionary
280
0
281
1
  3
Model
350
1A
  3
Layout1
350
1E
  0
DICTIONARY
  5
E
330
A
100
AcDbDictionary
280
0
281
1
  3
ByBlock
350
1F
  3
ByLayer
350
20
  3
Global
350
21
  0
DICTIONARY
  5
F
330
A
100
AcDbDictionary
280
0
281
1
  3
Standard
350
2C
  0
DICTIONARY
  5
10
330
A
100
AcDbDictionary
280
0
281
1
  3
Standard
350
22
  0
DICTIONARY
  5
11
330
A
100
AcDbDictionary
280
0
281
1
  0
ACDBDICTIONARYWDFLT
  5
12
330
A
100
AcDbDictionary
280
0
281
1
  3
Normal
350
13
100
AcDbDictionaryWithDefault
340
13
  0
ACDBPLACEHOLDER
  5
13
330
12
  0
DICTIONARY
  5
14
330
A
100
AcDbDictionary
280
0
281
1
  0
DICTIONARY
  5
15
330
A
100
AcDbDictionary
280
0
281
1
  0
DICTIONARY
  5
16
330
A
100
AcDbDictionary
280
0
281
1
  0
LAYOUT
  5
1A
330
D
100
AcDbPlotSettings
  1

  4
A3
  6

 40
7.5
 41
20.0
 42
7.5
 43
20.0
 44
420.0
 45
297.0
 46
0.0
 47
0.0
 48
0.0
 49
0.0
140
0.0
141
0.0
142
1.0
143
1.0
 70
1024
 72
1
 73
0
 74
5
  7

 75
16
 76
0
 77
2
 78
300
147
1.0
148
0.0
149
0.0
100
AcDbLayout
  1
Model
 70
1
 71
0
 10
0.0
 20
0.0
 11
420.0
 21
297.0
 12
0.0
 22
0.0
 32
0.0
 14
1e+20
 24
1e+20
 34
1e+20
 15
-1e+20
 25
-1e+20
 35
-1e+20
146
0.0
 13
0.0
 23
0.0
 33
0.0
 16
1.0
 26
0.0
 36
0.0
 17
0.0
 27
1.0
 37
0.0
 76
1
330
17
  0
LAYOUT
  5
1E
330
D
100
AcDbPlotSettings
  1

  4
A3
  6

 40
7.5
 41
20.0
 42
7.5
 43
20.0
 44
420.0
 45
297.0
 46
0.0
 47
0.0
 48
0.0
 49
0.0
140
0.0
141
0.0
142
1.0
143
1.0
 70
0
 72
1
 73
0
 74
5
  7

 75
16
 76
0
 77
2
 78
300
147
1.0
148
0.0
149
0.0
100
AcDbLayout
  1
Layout1
 70
1
 71
1
 10
0.0
 20
0.0
 11
420.0
 21
297.0
 12
0.0
 22
0.0
 32
0.0
 14
1e+20
 24
1e+20
 34
1e+20
 15
-1e+20
 25
-1e+20
 35
-1e+20
146
0.0
 13
0.0
 23
0.0
 33
0.0
 16
1.0
 26
0.0
 36
0.0
 17
0.0
 27
1.0
 37
0.0
 76
1
330
1B
  0
MATERIAL
  5
1F
102
{ACAD_REACTORS
330
E
102
}
330
E
100
AcDbMaterial
  1
ByBlock
  2

 70
0
 40
1.0
 71
1
 41
1.0
 91
-1023410177
 42
1.0
 72
1
  3

 73
1
 74
1
 75
1
 44
0.5
 73
0
 45
1.0
 46
1.0
 77
1
  4

 78
1
 79
1
170
1
 48
1.0
171
1
  6

172
1
173
1
174
1
140
1.0
141
1.0
175
1
  7

176
1
177
1
178
1
143
1.0
179
1
  8

270
1
271
1
272
1
145
1.0
146
1.0
273
1
  9

274
1
275
1
276
1
 42
1.0
 72
1
  3

 73
1
 74
1
 75
1
 94
63
  0
MATERIAL
  5
20
102
{ACAD_REACTORS
330
E
102
}
330
E
100
AcDbMaterial
  1
ByLayer
  2

 70
0
 40
1.0
 71
1
 41
1.0
 91
-1023410177
 42
1.0
 72
1
  3

 73
1
 74
1
 75
1
 44
0.5
 73
0
 45
1.0
 46
1.0
 77
1
  4

 78
1
 79
1
170
1
 48
1.0
171
1
  6

172
1
173
1
174
1
140
1.0
141
1.0
175
1
  7

176
1
177
1
178
1
143
1.0
179
1
  8

270
1
271
1
272
1
145
1.0
146
1.0
273
1
  9

274
1
275
1
276
1
 42
1.0
 72
1
  3

 73
1
 74
1
 75
1
 94
63
  0
MATERIAL
  5
21
102
{ACAD_REACTORS
330
E
102
}
330
E
100
AcDbMaterial
  1
Global
  2

 70
0
 40
1.0
 71
1
 41
1.0
 91
-1023410177
 42
1.0
 72
1
  3

 73
1
 74
1
 75
1
 44
0.5
 73
0
 45
1.0
 46
1.0
 77
1
  4

 78
1
 79
1
170
1
 48
1.0
171
1
  6

172
1
173
1
174
1
140
1.0
141
1.0
175
1
  7

176
1
177
1
178
1
143
1.0
179
1
  8

270
1
271
1
272
1
145
1.0
146
1.0
273
1
  9

274
1
275
1
276
1
 42
1.0
 72
1
  3

 73
1
 74
1
 75
1
 94
63
  0
MLINESTYLE
  5
22
102
{ACAD_REACTORS
330
10
102
}
330
10
100
AcDbMlineStyle
  2
Standard
 70
0
  3

 62
256
 51
90.0
 52
90.0
 71
2
 49
0.5
 62
256
  6
BYLAYER
 49
-0.5
 62
256
  6
BYLAYER
  0
MLEADERSTYLE
  5
2C
102
{ACAD_REACTORS
330
F
102
}
330
F
100
AcDbMLeaderStyle
179
2
170
2
171
1
172
0
 90
2
 40
0.0
 41
0.0
173
1
 91
-1056964608
 92
-2
290
1
 42
2.0
291
1
 43
8.0
  3
Standard
 44
4.0
300

342
29
174
1
175
1
176
0
178
1
 93
-1056964608
 45
4.0
292
0
297
0
 46
4.0
 94
-1056964608
 47
1.0
 49
1.0
140
1.0
294
1
141
0.0
177
0
142
1.0
295
0
296
0
143
3.75
271
0
272
9
273
9
  0
DICTIONARY
  5
2D
330
A
100
AcDbDictionary
280
1
281
1
  3
CREATED_BY_EZDXF
350
2E
  3
WRITTEN_BY_EZDXF
350
3D
  0
DICTIONARYVAR
  5
2E
330
2D
100
DictionaryVariables
280
0
  1
1.4.0 @ 2025-03-10T11:44:17.151719+00:00
  0
DICTIONARYVAR
  5
3D
330
2D
100
DictionaryVariables
280
0
  1
1.4.0 @ 2025-03-10T11:44:17.175942+00:00
  0
ENDSEC
  0
EOF
