  0
SECTION
  2
HEADER
  9
$ACADVER
  1
AC1024
  9
$ACADMAINTVER
 70
6
  9
$DWGCODEPAGE
  3
ANSI_1252
  9
$LASTSAVEDBY
  1
ezdxf
  9
$INSBASE
 10
0.0
 20
0.0
 30
0.0
  9
$EXTMIN
 10
1e+20
 20
1e+20
 30
1e+20
  9
$EXTMAX
 10
-1e+20
 20
-1e+20
 30
-1e+20
  9
$LIMMIN
 10
0.0
 20
0.0
  9
$LIMMAX
 10
420.0
 20
297.0
  9
$ORTHOMODE
 70
0
  9
$REGENMODE
 70
1
  9
$FILLMODE
 70
1
  9
$QTEXTMODE
 70
0
  9
$MIRRTEXT
 70
1
  9
$LTSCALE
 40
1.0
  9
$ATTMODE
 70
1
  9
$TEXTSIZE
 40
2.5
  9
$TRACEWID
 40
1.0
  9
$TEXTSTYLE
  7
Standard
  9
$CLAYER
  8
0
  9
$CELTYPE
  6
ByLayer
  9
$CECOLOR
 62
256
  9
$CELTSCALE
 40
1.0
  9
$DISPSILH
 70
0
  9
$DIMSCALE
 40
1.0
  9
$DIMASZ
 40
2.5
  9
$DIMEXO
 40
0.625
  9
$DIMDLI
 40
3.75
  9
$DIMRND
 40
0.0
  9
$DIMDLE
 40
0.0
  9
$DIMEXE
 40
1.25
  9
$DIMTP
 40
0.0
  9
$DIMTM
 40
0.0
  9
$DIMTXT
 40
2.5
  9
$DIMCEN
 40
2.5
  9
$DIMTSZ
 40
0.0
  9
$DIMTOL
 70
0
  9
$DIMLIM
 70
0
  9
$DIMTIH
 70
0
  9
$DIMTOH
 70
0
  9
$DIMSE1
 70
0
  9
$DIMSE2
 70
0
  9
$DIMTAD
 70
1
  9
$DIMZIN
 70
8
  9
$DIMBLK
  1

  9
$DIMASO
 70
1
  9
$DIMSHO
 70
1
  9
$DIMPOST
  1

  9
$DIMAPOST
  1

  9
$DIMALT
 70
0
  9
$DIMALTD
 70
3
  9
$DIMALTF
 40
0.03937007874
  9
$DIMLFAC
 40
1.0
  9
$DIMTOFL
 70
1
  9
$DIMTVP
 40
0.0
  9
$DIMTIX
 70
0
  9
$DIMSOXD
 70
0
  9
$DIMSAH
 70
0
  9
$DIMBLK1
  1

  9
$DIMBLK2
  1

  9
$DIMSTYLE
  2
ISO-25
  9
$DIMCLRD
 70
0
  9
$DIMCLRE
 70
0
  9
$DIMCLRT
 70
0
  9
$DIMTFAC
 40
1.0
  9
$DIMGAP
 40
0.625
  9
$DIMJUST
 70
0
  9
$DIMSD1
 70
0
  9
$DIMSD2
 70
0
  9
$DIMTOLJ
 70
0
  9
$DIMTZIN
 70
8
  9
$DIMALTZ
 70
0
  9
$DIMALTTZ
 70
0
  9
$DIMUPT
 70
0
  9
$DIMDEC
 70
2
  9
$DIMTDEC
 70
2
  9
$DIMALTU
 70
2
  9
$DIMALTTD
 70
3
  9
$DIMTXSTY
  7
Standard
  9
$DIMAUNIT
 70
0
  9
$DIMADEC
 70
0
  9
$DIMALTRND
 40
0.0
  9
$DIMAZIN
 70
0
  9
$DIMDSEP
 70
44
  9
$DIMATFIT
 70
3
  9
$DIMFRAC
 70
0
  9
$DIMLDRBLK
  1

  9
$DIMLUNIT
 70
2
  9
$DIMLWD
 70
-2
  9
$DIMLWE
 70
-2
  9
$DIMTMOVE
 70
0
  9
$DIMFXL
 40
1.0
  9
$DIMFXLON
 70
0
  9
$DIMJOGANG
 40
0.785398163397
  9
$DIMTFILL
 70
0
  9
$DIMTFILLCLR
 70
0
  9
$DIMARCSYM
 70
0
  9
$DIMLTYPE
  6

  9
$DIMLTEX1
  6

  9
$DIMLTEX2
  6

  9
$DIMTXTDIRECTION
 70
0
  9
$LUNITS
 70
2
  9
$LUPREC
 70
4
  9
$SKETCHINC
 40
1.0
  9
$FILLETRAD
 40
10.0
  9
$AUNITS
 70
0
  9
$AUPREC
 70
2
  9
$MENU
  1
.
  9
$ELEVATION
 40
0.0
  9
$PELEVATION
 40
0.0
  9
$THICKNESS
 40
0.0
  9
$LIMCHECK
 70
0
  9
$CHAMFERA
 40
0.0
  9
$CHAMFERB
 40
0.0
  9
$CHAMFERC
 40
0.0
  9
$CHAMFERD
 40
0.0
  9
$SKPOLY
 70
0
  9
$TDCREATE
 40
2460762.517303241
  9
$TDUCREATE
 40
2458532.153996898
  9
$TDUPDATE
 40
2460762.517303241
  9
$TDUUPDATE
 40
2458532.1544311
  9
$TDINDWG
 40
0.0
  9
$TDUSRTIMER
 40
0.0
  9
$USRTIMER
 70
1
  9
$ANGBASE
 50
0.0
  9
$ANGDIR
 70
0
  9
$PDMODE
 70
0
  9
$PDSIZE
 40
0.0
  9
$PLINEWID
 40
0.0
  9
$SPLFRAME
 70
0
  9
$SPLINETYPE
 70
6
  9
$SPLINESEGS
 70
8
  9
$HANDSEED
  5
42
  9
$SURFTAB1
 70
6
  9
$SURFTAB2
 70
6
  9
$SURFTYPE
 70
6
  9
$SURFU
 70
6
  9
$SURFV
 70
6
  9
$UCSBASE
  2

  9
$UCSNAME
  2

  9
$UCSORG
 10
0.0
 20
0.0
 30
0.0
  9
$UCSXDIR
 10
1.0
 20
0.0
 30
0.0
  9
$UCSYDIR
 10
0.0
 20
1.0
 30
0.0
  9
$UCSORTHOREF
  2

  9
$UCSORTHOVIEW
 70
0
  9
$UCSORGTOP
 10
0.0
 20
0.0
 30
0.0
  9
$UCSORGBOTTOM
 10
0.0
 20
0.0
 30
0.0
  9
$UCSORGLEFT
 10
0.0
 20
0.0
 30
0.0
  9
$UCSORGRIGHT
 10
0.0
 20
0.0
 30
0.0
  9
$UCSORGFRONT
 10
0.0
 20
0.0
 30
0.0
  9
$UCSORGBACK
 10
0.0
 20
0.0
 30
0.0
  9
$PUCSBASE
  2

  9
$PUCSNAME
  2

  9
$PUCSORG
 10
0.0
 20
0.0
 30
0.0
  9
$PUCSXDIR
 10
1.0
 20
0.0
 30
0.0
  9
$PUCSYDIR
 10
0.0
 20
1.0
 30
0.0
  9
$PUCSORTHOREF
  2

  9
$PUCSORTHOVIEW
 70
0
  9
$PUCSORGTOP
 10
0.0
 20
0.0
 30
0.0
  9
$PUCSORGBOTTOM
 10
0.0
 20
0.0
 30
0.0
  9
$PUCSORGLEFT
 10
0.0
 20
0.0
 30
0.0
  9
$PUCSORGRIGHT
 10
0.0
 20
0.0
 30
0.0
  9
$PUCSORGFRONT
 10
0.0
 20
0.0
 30
0.0
  9
$PUCSORGBACK
 10
0.0
 20
0.0
 30
0.0
  9
$USERI1
 70
0
  9
$USERI2
 70
0
  9
$USERI3
 70
0
  9
$USERI4
 70
0
  9
$USERI5
 70
0
  9
$USERR1
 40
0.0
  9
$USERR2
 40
0.0
  9
$USERR3
 40
0.0
  9
$USERR4
 40
0.0
  9
$USERR5
 40
0.0
  9
$WORLDVIEW
 70
1
  9
$SHADEDGE
 70
3
  9
$SHADEDIF
 70
70
  9
$TILEMODE
 70
1
  9
$MAXACTVP
 70
64
  9
$PINSBASE
 10
0.0
 20
0.0
 30
0.0
  9
$PLIMCHECK
 70
0
  9
$PEXTMIN
 10
1e+20
 20
1e+20
 30
1e+20
  9
$PEXTMAX
 10
-1e+20
 20
-1e+20
 30
-1e+20
  9
$PLIMMIN
 10
0.0
 20
0.0
  9
$PLIMMAX
 10
420.0
 20
297.0
  9
$UNITMODE
 70
0
  9
$VISRETAIN
 70
1
  9
$PLINEGEN
 70
0
  9
$PSLTSCALE
 70
1
  9
$TREEDEPTH
 70
3020
  9
$CMLSTYLE
  2
Standard
  9
$CMLJUST
 70
0
  9
$CMLSCALE
 40
20.0
  9
$PROXYGRAPHICS
 70
1
  9
$MEASUREMENT
 70
1
  9
$CELWEIGHT
370
-1
  9
$ENDCAPS
280
0
  9
$JOINSTYLE
280
0
  9
$LWDISPLAY
290
0
  9
$INSUNITS
 70
6
  9
$HYPERLINKBASE
  1

  9
$STYLESHEET
  1

  9
$XEDIT
290
1
  9
$CEPSNTYPE
380
0
  9
$PSTYLEMODE
290
1
  9
$FINGERPRINTGUID
  2
{236DE616-C57C-4CEF-AF3B-2D758A5467EB}
  9
$VERSIONGUID
  2
{78A7754A-56A7-493C-A574-AF227AF514C1}
  9
$EXTNAMES
290
1
  9
$PSVPSCALE
 40
0.0
  9
$OLESTARTUP
290
0
  9
$SORTENTS
280
127
  9
$INDEXCTL
280
0
  9
$HIDETEXT
280
1
  9
$XCLIPFRAME
280
1
  9
$HALOGAP
280
0
  9
$OBSCOLOR
 70
257
  9
$OBSLTYPE
280
0
  9
$INTERSECTIONDISPLAY
280
0
  9
$INTERSECTIONCOLOR
 70
257
  9
$DIMASSOC
280
2
  9
$PROJECTNAME
  1

  9
$CAMERADISPLAY
290
0
  9
$LENSLENGTH
 40
50.0
  9
$CAMERAHEIGHT
 40
0.0
  9
$STEPSPERSEC
 40
24.0
  9
$STEPSIZE
 40
100.0
  9
$3DDWFPREC
 40
2.0
  9
$PSOLWIDTH
 40
0.005
  9
$PSOLHEIGHT
 40
0.08
  9
$LOFTANG1
 40
1.570796326795
  9
$LOFTANG2
 40
1.570796326795
  9
$LOFTMAG1
 40
0.0
  9
$LOFTMAG2
 40
0.0
  9
$LOFTPARAM
 70
7
  9
$LOFTNORMALS
280
1
  9
$LATITUDE
 40
37.795
  9
$LONGITUDE
 40
-122.394
  9
$NORTHDIRECTION
 40
0.0
  9
$TIMEZONE
 70
-8000
  9
$LIGHTGLYPHDISPLAY
280
1
  9
$TILEMODELIGHTSYNCH
280
1
  9
$CMATERIAL
347
20
  9
$SOLIDHIST
280
0
  9
$SHOWHIST
280
1
  9
$DWFFRAME
280
2
  9
$DGNFRAME
280
2
  9
$REALWORLDSCALE
290
1
  9
$INTERFERECOLOR
 62
256
  9
$CSHADOW
280
0
  9
$SHADOWPLANELOCATION
 40
0.0
  0
ENDSEC
  0
SECTION
  2
CLASSES
  0
CLASS
  1
ACDBDICTIONARYWDFLT
  2
AcDbDictionaryWithDefault
  3
ObjectDBX Classes
 90
0
 91
0
280
0
281
0
  0
CLASS
  1
SUN
  2
AcDbSun
  3
SCENEOE
 90
1153
 91
0
280
0
281
0
  0
CLASS
  1
VISUALSTYLE
  2
AcDbVisualStyle
  3
ObjectDBX Classes
 90
4095
 91
0
280
0
281
0
  0
CLASS
  1
MATERIAL
  2
AcDbMaterial
  3
ObjectDBX Classes
 90
1153
 91
0
280
0
281
0
  0
CLASS
  1
SCALE
  2
AcDbScale
  3
ObjectDBX Classes
 90
1153
 91
0
280
0
281
0
  0
CLASS
  1
TABLESTYLE
  2
AcDbTableStyle
  3
ObjectDBX Classes
 90
4095
 91
0
280
0
281
0
  0
CLASS
  1
MLEADERSTYLE
  2
AcDbMLeaderStyle
  3
ACDB_MLEADERSTYLE_CLASS
 90
4095
 91
0
280
0
281
0
  0
CLASS
  1
DICTIONARYVAR
  2
AcDbDictionaryVar
  3
ObjectDBX Classes
 90
0
 91
0
280
0
281
0
  0
CLASS
  1
CELLSTYLEMAP
  2
AcDbCellStyleMap
  3
ObjectDBX Classes
 90
1152
 91
0
280
0
281
0
  0
CLASS
  1
MENTALRAYRENDERSETTINGS
  2
AcDbMentalRayRenderSettings
  3
SCENEOE
 90
1024
 91
0
280
0
281
0
  0
CLASS
  1
ACDBDETAILVIEWSTYLE
  2
AcDbDetailViewStyle
  3
ObjectDBX Classes
 90
1025
 91
0
280
0
281
0
  0
CLASS
  1
ACDBSECTIONVIEWSTYLE
  2
AcDbSectionViewStyle
  3
ObjectDBX Classes
 90
1025
 91
0
280
0
281
0
  0
CLASS
  1
RASTERVARIABLES
  2
AcDbRasterVariables
  3
ISM
 90
0
 91
0
280
0
281
0
  0
CLASS
  1
ACDBPLACEHOLDER
  2
AcDbPlaceHolder
  3
ObjectDBX Classes
 90
0
 91
0
280
0
281
0
  0
CLASS
  1
LAYOUT
  2
AcDbLayout
  3
ObjectDBX Classes
 90
0
 91
0
280
0
281
0
  0
ENDSEC
  0
SECTION
  2
TABLES
  0
TABLE
  2
VPORT
  5
8
330
0
100
AcDbSymbolTable
 70
1
  0
VPORT
  5
23
330
8
100
AcDbSymbolTableRecord
100
AcDbViewportTableRecord
  2
*Active
 70
0
 10
0.0
 20
0.0
 11
1.0
 21
1.0
 12
0.0
 22
0.0
 13
0.0
 23
0.0
 14
0.5
 24
0.5
 15
0.5
 25
0.5
 16
0.0
 26
0.0
 36
1.0
 17
0.0
 27
0.0
 37
0.0
 40
1000.0
 41
1.34
 42
50.0
 43
0.0
 44
0.0
 50
0.0
 51
0.0
 71
0
 72
1000
 73
1
 74
3
 75
0
 76
0
 77
0
 78
0
281
0
 65
0
146
0.0
  0
ENDTAB
  0
TABLE
  2
LTYPE
  5
2
330
0
100
AcDbSymbolTable
 70
3
  0
LTYPE
  5
24
330
2
100
AcDbSymbolTableRecord
100
AcDbLinetypeTableRecord
  2
ByBlock
 70
0
  3

 72
65
 73
0
 40
0.0
  0
LTYPE
  5
25
330
2
100
AcDbSymbolTableRecord
100
AcDbLinetypeTableRecord
  2
ByLayer
 70
0
  3

 72
65
 73
0
 40
0.0
  0
LTYPE
  5
26
330
2
100
AcDbSymbolTableRecord
100
AcDbLinetypeTableRecord
  2
Continuous
 70
0
  3

 72
65
 73
0
 40
0.0
  0
ENDTAB
  0
TABLE
  2
LAYER
  5
1
330
0
100
AcDbSymbolTable
 70
5
  0
LAYER
  5
27
330
1
100
AcDbSymbolTableRecord
100
AcDbLayerTableRecord
  2
0
 70
0
 62
7
  6
Continuous
370
-3
390
13
347
21
  0
LAYER
  5
28
330
1
100
AcDbSymbolTableRecord
100
AcDbLayerTableRecord
  2
Defpoints
 70
0
 62
7
  6
Continuous
290
0
370
-3
390
13
347
21
  0
LAYER
  5
2F
330
1
100
AcDbSymbolTableRecord
100
AcDbLayerTableRecord
  2
CONTOURS
 70
0
 62
7
  6
Continuous
370
-3
390
13
347
21
  0
LAYER
  5
30
330
1
100
AcDbSymbolTableRecord
100
AcDbLayerTableRecord
  2
DIMENSIONS
 70
0
 62
7
  6
Continuous
370
-3
390
13
347
21
  0
LAYER
  5
31
330
1
100
AcDbSymbolTableRecord
100
AcDbLayerTableRecord
  2
TEXT
 70
0
 62
7
  6
Continuous
370
-3
390
13
347
21
  0
ENDTAB
  0
TABLE
  2
STYLE
  5
5
330
0
100
AcDbSymbolTable
 70
1
  0
STYLE
  5
29
330
5
100
AcDbSymbolTableRecord
100
AcDbTextStyleTableRecord
  2
Standard
 70
0
 40
0.0
 41
1.0
 50
0.0
 71
0
 42
2.5
  3
txt
  4

  0
ENDTAB
  0
TABLE
  2
VIEW
  5
7
330
0
100
AcDbSymbolTable
 70
0
  0
ENDTAB
  0
TABLE
  2
UCS
  5
6
330
0
100
AcDbSymbolTable
 70
0
  0
ENDTAB
  0
TABLE
  2
APPID
  5
3
330
0
100
AcDbSymbolTable
 70
3
  0
APPID
  5
2A
330
3
100
AcDbSymbolTableRecord
100
AcDbRegAppTableRecord
  2
ACAD
 70
0
  0
APPID
  5
3F
330
3
100
AcDbSymbolTableRecord
100
AcDbRegAppTableRecord
  2
HATCHBACKGROUNDCOLOR
 70
0
  0
APPID
  5
40
330
3
100
AcDbSymbolTableRecord
100
AcDbRegAppTableRecord
  2
EZDXF
 70
0
  0
ENDTAB
  0
TABLE
  2
DIMSTYLE
  5
4
330
0
100
AcDbSymbolTable
 70
1
100
AcDbDimStyleTable
  0
DIMSTYLE
105
2B
330
4
100
AcDbSymbolTableRecord
100
AcDbDimStyleTableRecord
  2
Standard
 70
0
 40
1.0
 41
2.5
 42
0.625
 43
3.75
 44
1.25
 45
0.0
 46
0.0
 47
0.0
 48
0.0
 49
2.5
140
2.5
141
2.5
142
0.0
143
0.03937007874
144
1.0
145
0.0
146
1.0
147
0.625
148
0.0
 69
0
 70
0
 71
0
 72
0
 73
0
 74
0
 75
0
 76
0
 77
1
 78
8
 79
3
170
0
171
3
172
1
173
0
174
0
175
0
176
0
177
0
178
0
179
2
271
2
272
2
273
2
274
3
275
0
276
0
277
2
278
44
279
0
280
0
281
0
282
0
283
0
284
8
285
0
286
0
288
0
289
3
290
0
371
-2
372
-2
  0
ENDTAB
  0
TABLE
  2
BLOCK_RECORD
  5
9
330
0
100
AcDbSymbolTable
 70
2
  0
BLOCK_RECORD
  5
17
330
9
100
AcDbSymbolTableRecord
100
AcDbBlockTableRecord
  2
*Model_Space
340
1A
 70
0
280
1
281
0
  0
BLOCK_RECORD
  5
1B
330
9
100
AcDbSymbolTableRecord
100
AcDbBlockTableRecord
  2
*Paper_Space
340
1E
 70
0
280
1
281
0
  0
ENDTAB
  0
ENDSEC
  0
SECTION
  2
BLOCKS
  0
BLOCK
  5
18
330
17
100
AcDbEntity
  8
0
100
AcDbBlockBegin
  2
*Model_Space
 70
0
 10
0.0
 20
0.0
 30
0.0
  3
*Model_Space
  1

  0
ENDBLK
  5
19
330
17
100
AcDbEntity
  8
0
100
AcDbBlockEnd
  0
BLOCK
  5
1C
330
1B
100
AcDbEntity
  8
0
100
AcDbBlockBegin
  2
*Paper_Space
 70
0
 10
0.0
 20
0.0
 30
0.0
  3
*Paper_Space
  1

  0
ENDBLK
  5
1D
330
1B
100
AcDbEntity
  8
0
100
AcDbBlockEnd
  0
ENDSEC
  0
SECTION
  2
ENTITIES
  0
TEXT
  5
32
330
17
100
AcDbEntity
  8
TEXT
100
AcDbText
 10
0.0
 20
10.0
 30
0.0
 40
5.0
  1
Real-World Dimensions: 297.0 mm (width) x 210.0 mm (length)
100
AcDbText
  0
LWPOLYLINE
  5
33
330
17
100
AcDbEntity
  8
CONTOURS
100
AcDbPolyline
 90
294
 70
1
 10
41.674955595026645
 20
-75.30303030303031
 10
41.41119005328597
 20
-75.43560606060606
 10
39.0373001776199
 20
-75.43560606060606
 10
38.77353463587922
 20
-75.56818181818181
 10
37.718472468916524
 20
-75.56818181818181
 10
37.45470692717585
 20
-75.70075757575758
 10
36.66341030195382
 20
-75.70075757575758
 10
36.39964476021314
 20
-75.83333333333333
 10
35.60834813499112
 20
-75.83333333333333
 10
35.08081705150977
 20
-76.09848484848484
 10
34.55328596802842
 20
-76.09848484848484
 10
34.289520426287744
 20
-76.23106060606061
 10
34.02575488454707
 20
-76.23106060606061
 10
33.761989342806395
 20
-76.36363636363636
 10
33.49822380106572
 20
-76.36363636363636
 10
33.234458259325045
 20
-76.49621212121212
 10
32.97069271758437
 20
-76.49621212121212
 10
32.706927175843695
 20
-76.62878787878788
 10
32.44316163410302
 20
-76.62878787878788
 10
31.91563055062167
 20
-76.89393939393939
 10
31.651865008880996
 20
-76.89393939393939
 10
30.596802841918297
 20
-77.42424242424242
 10
30.333037300177622
 20
-77.42424242424242
 10
29.014209591474245
 20
-78.08712121212122
 10
29.014209591474245
 20
-78.21969696969697
 10
28.22291296625222
 20
-78.61742424242425
 10
28.22291296625222
 20
-78.75
 10
27.69538188277087
 20
-79.01515151515152
 10
27.69538188277087
 20
-79.14772727272728
 10
27.16785079928952
 20
-79.4128787878788
 10
27.16785079928952
 20
-79.54545454545455
 10
26.904085257548846
 20
-79.67803030303031
 10
26.904085257548846
 20
-79.81060606060606
 10
26.64031971580817
 20
-79.94318181818181
 10
26.64031971580817
 20
-80.07575757575758
 10
26.376554174067497
 20
-80.20833333333333
 10
26.376554174067497
 20
-80.47348484848484
 10
26.112788632326822
 20
-80.60606060606061
 10
26.112788632326822
 20
-80.87121212121212
 10
25.849023090586147
 20
-81.00378787878788
 10
25.849023090586147
 20
-81.40151515151516
 10
25.585257548845473
 20
-81.5340909090909
 10
25.585257548845473
 20
-81.93181818181819
 10
25.321492007104798
 20
-82.06439393939394
 10
25.321492007104798
 20
-82.72727272727273
 10
25.057726465364123
 20
-82.85984848484848
 10
25.057726465364123
 20
-83.65530303030303
 10
24.793960923623448
 20
-83.7878787878788
 10
24.793960923623448
 20
-89.62121212121212
 10
24.530195381882773
 20
-89.75378787878788
 10
24.530195381882773
 20
-96.78030303030303
 10
24.2664298401421
 20
-96.9128787878788
 10
24.2664298401421
 20
-97.17803030303031
 10
24.00266429840142
 20
-97.31060606060606
 10
24.00266429840142
 20
-99.82954545454545
 10
23.738898756660745
 20
-99.96212121212122
 10
23.738898756660745
 20
-104.33712121212122
 10
24.00266429840142
 20
-104.46969696969697
 10
24.00266429840142
 20
-104.86742424242425
 10
24.2664298401421
 20
-105.0
 10
24.2664298401421
 20
-107.51893939393939
 10
24.00266429840142
 20
-107.65151515151516
 10
24.00266429840142
 20
-114.4128787878788
 10
23.738898756660745
 20
-114.54545454545455
 10
23.738898756660745
 20
-121.30681818181819
 10
23.47513321492007
 20
-121.43939393939394
 10
23.47513321492007
 20
-129.12878787878788
 10
23.211367673179396
 20
-129.26136363636363
 10
23.211367673179396
 20
-137.61363636363637
 10
22.94760213143872
 20
-137.74621212121212
 10
22.94760213143872
 20
-145.17045454545456
 10
22.683836589698046
 20
-145.3030303030303
 10
22.683836589698046
 20
-152.06439393939394
 10
22.42007104795737
 20
-152.1969696969697
 10
22.42007104795737
 20
-159.35606060606062
 10
22.156305506216697
 20
-159.48863636363637
 10
22.156305506216697
 20
-164.79166666666666
 10
21.892539964476022
 20
-164.92424242424244
 10
21.892539964476022
 20
-168.90151515151516
 10
22.156305506216697
 20
-169.0340909090909
 10
22.156305506216697
 20
-170.09469696969697
 10
22.42007104795737
 20
-170.22727272727272
 10
22.42007104795737
 20
-170.625
 10
22.683836589698046
 20
-170.75757575757575
 10
22.683836589698046
 20
-171.15530303030303
 10
22.94760213143872
 20
-171.28787878787878
 10
22.94760213143872
 20
-171.5530303030303
 10
23.211367673179396
 20
-171.68560606060606
 10
23.211367673179396
 20
-171.9507575757576
 10
23.47513321492007
 20
-172.08333333333334
 10
23.47513321492007
 20
-172.2159090909091
 10
23.738898756660745
 20
-172.34848484848484
 10
23.738898756660745
 20
-172.61363636363637
 10
24.2664298401421
 20
-172.87878787878788
 10
24.2664298401421
 20
-173.01136363636363
 10
24.793960923623448
 20
-173.27651515151516
 10
24.793960923623448
 20
-173.4090909090909
 10
25.585257548845473
 20
-173.8068181818182
 10
25.585257548845473
 20
-173.93939393939394
 10
28.22291296625222
 20
-175.26515151515153
 10
28.486678507992895
 20
-175.26515151515153
 10
29.014209591474245
 20
-175.53030303030303
 10
29.27797513321492
 20
-175.53030303030303
 10
29.805506216696273
 20
-175.79545454545456
 10
30.069271758436948
 20
-175.79545454545456
 10
30.333037300177622
 20
-175.9280303030303
 10
30.596802841918297
 20
-175.9280303030303
 10
30.860568383658972
 20
-176.06060606060606
 10
31.124333925399647
 20
-176.06060606060606
 10
31.38809946714032
 20
-176.1931818181818
 10
31.91563055062167
 20
-176.1931818181818
 10
32.179396092362346
 20
-176.3257575757576
 10
32.44316163410302
 20
-176.3257575757576
 10
32.706927175843695
 20
-176.45833333333334
 10
33.49822380106572
 20
-176.45833333333334
 10
33.761989342806395
 20
-176.5909090909091
 10
34.55328596802842
 20
-176.5909090909091
 10
34.817051509769094
 20
-176.72348484848484
 10
35.60834813499112
 20
-176.72348484848484
 10
35.87211367673179
 20
-176.85606060606062
 10
39.56483126110125
 20
-176.85606060606062
 10
39.82859680284192
 20
-176.98863636363637
 10
55.39076376554174
 20
-176.98863636363637
 10
55.65452930728242
 20
-177.12121212121212
 10
66.73268206039077
 20
-177.12121212121212
 10
66.99644760213144
 20
-176.98863636363637
 10
77.28330373001776
 20
-176.98863636363637
 10
77.54706927175845
 20
-177.12121212121212
 10
79.65719360568384
 20
-177.12121212121212
 10
79.92095914742451
 20
-177.25378787878788
 10
96.53818827708704
 20
-177.25378787878788
 10
96.80195381882771
 20
-177.38636363636363
 10
106.297513321492
 20
-177.38636363636363
 10
106.56127886323269
 20
-177.25378787878788
 10
108.14387211367674
 20
-177.25378787878788
 10
108.40763765541742
 20
-177.12121212121212
 10
109.46269982238012
 20
-177.12121212121212
 10
109.72646536412078
 20
-176.98863636363637
 10
110.51776198934282
 20
-176.98863636363637
 10
110.78152753108348
 20
-176.85606060606062
 10
111.30905861456483
 20
-176.85606060606062
 10
111.57282415630551
 20
-176.72348484848484
 10
112.10035523978686
 20
-176.72348484848484
 10
112.36412078152753
 20
-176.5909090909091
 10
112.62788632326821
 20
-176.5909090909091
 10
112.89165186500888
 20
-176.45833333333334
 10
113.15541740674956
 20
-176.45833333333334
 10
113.41918294849023
 20
-176.3257575757576
 10
113.68294849023091
 20
-176.3257575757576
 10
113.94671403197158
 20
-176.1931818181818
 10
114.21047957371226
 20
-176.1931818181818
 10
115.00177619893428
 20
-175.79545454545456
 10
115.26554174067496
 20
-175.79545454545456
 10
115.79307282415631
 20
-175.53030303030303
 10
116.05683836589698
 20
-175.53030303030303
 10
117.90319715808171
 20
-174.60227272727272
 10
117.90319715808171
 20
-174.46969696969697
 10
118.69449378330374
 20
-174.0719696969697
 10
118.69449378330374
 20
-173.93939393939394
 10
119.22202486678509
 20
-173.67424242424244
 10
119.22202486678509
 20
-173.54166666666666
 10
119.74955595026644
 20
-173.27651515151516
 10
119.74955595026644
 20
-173.1439393939394
 10
120.01332149200711
 20
-173.01136363636363
 10
120.01332149200711
 20
-172.87878787878788
 10
120.27708703374779
 20
-172.74621212121212
 10
120.27708703374779
 20
-172.61363636363637
 10
120.54085257548846
 20
-172.48106060606062
 10
120.54085257548846
 20
-172.2159090909091
 10
120.80461811722914
 20
-172.08333333333334
 10
120.80461811722914
 20
-171.9507575757576
 10
121.06838365896981
 20
-171.8181818181818
 10
121.06838365896981
 20
-171.42045454545456
 10
121.33214920071049
 20
-171.28787878787878
 10
121.33214920071049
 20
-171.02272727272728
 10
121.59591474245116
 20
-170.89015151515153
 10
121.59591474245116
 20
-170.49242424242425
 10
121.85968028419184
 20
-170.3598484848485
 10
121.85968028419184
 20
-169.56439393939394
 10
122.1234458259325
 20
-169.4318181818182
 10
122.1234458259325
 20
-168.23863636363637
 10
122.38721136767319
 20
-168.10606060606062
 10
122.38721136767319
 20
-161.74242424242425
 10
122.65097690941386
 20
-161.6098484848485
 10
122.65097690941386
 20
-161.07954545454547
 10
122.91474245115454
 20
-160.9469696969697
 10
122.91474245115454
 20
-155.77651515151516
 10
123.1785079928952
 20
-155.6439393939394
 10
123.1785079928952
 20
-155.51136363636363
 10
122.91474245115454
 20
-155.37878787878788
 10
122.91474245115454
 20
-154.84848484848484
 10
122.65097690941386
 20
-154.7159090909091
 10
122.65097690941386
 20
-153.52272727272728
 10
122.91474245115454
 20
-153.39015151515153
 10
122.91474245115454
 20
-145.9659090909091
 10
123.1785079928952
 20
-145.83333333333334
 10
123.1785079928952
 20
-139.20454545454547
 10
123.44227353463589
 20
-139.0719696969697
 10
123.44227353463589
 20
-132.1780303030303
 10
123.70603907637656
 20
-132.04545454545456
 10
123.70603907637656
 20
-125.54924242424242
 10
123.96980461811724
 20
-125.41666666666667
 10
123.96980461811724
 20
-118.65530303030303
 10
124.2335701598579
 20
-118.52272727272728
 10
124.2335701598579
 20
-114.4128787878788
 10
124.49733570159859
 20
-114.28030303030303
 10
124.49733570159859
 20
-111.89393939393939
 10
124.76110124333925
 20
-111.76136363636364
 10
124.76110124333925
 20
-111.49621212121212
 10
124.49733570159859
 20
-111.36363636363636
 10
124.49733570159859
 20
-109.375
 10
124.76110124333925
 20
-109.24242424242425
 10
124.76110124333925
 20
-107.65151515151516
 10
124.49733570159859
 20
-107.51893939393939
 10
124.49733570159859
 20
-106.85606060606061
 10
124.2335701598579
 20
-106.72348484848484
 10
124.2335701598579
 20
-105.6628787878788
 10
124.49733570159859
 20
-105.53030303030303
 10
124.49733570159859
 20
-105.39772727272728
 10
124.76110124333925
 20
-105.26515151515152
 10
124.76110124333925
 20
-101.42045454545455
 10
125.02486678507994
 20
-101.2878787878788
 10
125.02486678507994
 20
-98.23863636363636
 10
124.76110124333925
 20
-98.10606060606061
 10
124.76110124333925
 20
-95.05681818181819
 10
124.49733570159859
 20
-94.92424242424242
 10
124.49733570159859
 20
-94.26136363636364
 10
124.2335701598579
 20
-94.12878787878788
 10
124.2335701598579
 20
-90.01893939393939
 10
124.49733570159859
 20
-89.88636363636364
 10
124.49733570159859
 20
-88.82575757575758
 10
124.76110124333925
 20
-88.69318181818181
 10
124.76110124333925
 20
-88.29545454545455
 10
125.02486678507994
 20
-88.1628787878788
 10
125.02486678507994
 20
-83.39015151515152
 10
124.76110124333925
 20
-83.25757575757576
 10
124.76110124333925
 20
-82.72727272727273
 10
124.49733570159859
 20
-82.59469696969697
 10
124.49733570159859
 20
-82.1969696969697
 10
124.2335701598579
 20
-82.06439393939394
 10
124.2335701598579
 20
-81.79924242424242
 10
123.96980461811724
 20
-81.66666666666667
 10
123.96980461811724
 20
-81.5340909090909
 10
123.70603907637656
 20
-81.40151515151516
 10
123.70603907637656
 20
-81.13636363636364
 10
123.44227353463589
 20
-81.00378787878788
 10
123.44227353463589
 20
-80.87121212121212
 10
123.1785079928952
 20
-80.73863636363636
 10
123.1785079928952
 20
-80.60606060606061
 10
122.91474245115454
 20
-80.47348484848484
 10
122.91474245115454
 20
-80.3409090909091
 10
122.65097690941386
 20
-80.20833333333333
 10
122.65097690941386
 20
-80.07575757575758
 10
122.38721136767319
 20
-79.94318181818181
 10
122.38721136767319
 20
-79.81060606060606
 10
121.85968028419184
 20
-79.54545454545455
 10
121.85968028419184
 20
-79.4128787878788
 10
120.80461811722914
 20
-78.88257575757576
 10
120.80461811722914
 20
-78.75
 10
119.48579040852576
 20
-78.08712121212122
 10
119.22202486678509
 20
-78.08712121212122
 10
118.43072824156306
 20
-77.68939393939394
 10
118.16696269982239
 20
-77.68939393939394
 10
117.63943161634103
 20
-77.42424242424242
 10
117.37566607460036
 20
-77.42424242424242
 10
116.84813499111901
 20
-77.1590909090909
 10
116.58436944937833
 20
-77.1590909090909
 10
116.32060390763766
 20
-77.02651515151516
 10
116.05683836589698
 20
-77.02651515151516
 10
115.79307282415631
 20
-76.89393939393939
 10
115.26554174067496
 20
-76.89393939393939
 10
115.00177619893428
 20
-76.76136363636364
 10
114.47424511545293
 20
-76.76136363636364
 10
114.21047957371226
 20
-76.62878787878788
 10
113.94671403197158
 20
-76.62878787878788
 10
113.68294849023091
 20
-76.49621212121212
 10
112.89165186500888
 20
-76.49621212121212
 10
112.62788632326821
 20
-76.36363636363636
 10
111.83658969804618
 20
-76.36363636363636
 10
111.57282415630551
 20
-76.23106060606061
 10
110.51776198934282
 20
-76.23106060606061
 10
110.25399644760213
 20
-76.09848484848484
 10
107.88010657193607
 20
-76.09848484848484
 10
107.61634103019539
 20
-75.9659090909091
 10
92.58170515097692
 20
-75.9659090909091
 10
92.31793960923623
 20
-75.83333333333333
 10
78.60213143872114
 20
-75.83333333333333
 10
78.33836589698046
 20
-75.70075757575758
 10
67.52397868561279
 20
-75.70075757575758
 10
67.26021314387212
 20
-75.56818181818181
 10
57.50088809946714
 20
-75.56818181818181
 10
57.237122557726465
 20
-75.43560606060606
 10
48.00532859680284
 20
-75.43560606060606
 10
47.741563055062166
 20
-75.30303030303031
  0
TEXT
  5
34
330
17
100
AcDbEntity
  8
TEXT
100
AcDbText
 10
73.32682060390763
 20
-126.34469696969697
 30
0.0
 40
5.0
  1
Contour 1
100
AcDbText
  0
LWPOLYLINE
  5
35
330
17
100
AcDbEntity
  8
CONTOURS
100
AcDbPolyline
 90
1013
 70
1
 10
296.47246891651866
 20
-71.32575757575758
 10
296.47246891651866
 20
-89.62121212121212
 10
296.208703374778
 20
-89.75378787878788
 10
296.208703374778
 20
-123.1628787878788
 10
295.94493783303733
 20
-123.29545454545455
 10
293.83481349911193
 20
-123.29545454545455
 10
293.57104795737126
 20
-123.1628787878788
 10
293.57104795737126
 20
-123.03030303030303
 10
293.30728241563054
 20
-122.89772727272728
 10
293.30728241563054
 20
-122.76515151515152
 10
293.04351687388987
 20
-122.63257575757576
 10
293.04351687388987
 20
-122.5
 10
292.7797513321492
 20
-122.36742424242425
 10
292.7797513321492
 20
-122.23484848484848
 10
292.25222024866787
 20
-121.96969696969697
 10
292.25222024866787
 20
-121.83712121212122
 10
291.72468916518653
 20
-121.5719696969697
 10
291.72468916518653
 20
-121.43939393939394
 10
291.46092362344586
 20
-121.30681818181819
 10
291.46092362344586
 20
-121.17424242424242
 10
290.9333925399645
 20
-120.9090909090909
 10
290.9333925399645
 20
-120.77651515151516
 10
290.14209591474247
 20
-120.37878787878788
 10
290.14209591474247
 20
-120.24621212121212
 10
289.35079928952047
 20
-119.84848484848484
 10
289.35079928952047
 20
-119.7159090909091
 10
287.7682060390764
 20
-118.92045454545455
 10
287.7682060390764
 20
-118.7878787878788
 10
286.449378330373
 20
-118.125
 10
286.18561278863234
 20
-118.125
 10
284.86678507992895
 20
-117.46212121212122
 10
284.6030195381883
 20
-117.46212121212122
 10
284.07548845470694
 20
-117.1969696969697
 10
283.8117229129663
 20
-117.1969696969697
 10
283.28419182948494
 20
-116.93181818181819
 10
283.0204262877442
 20
-116.93181818181819
 10
282.75666074600355
 20
-116.79924242424242
 10
282.4928952042629
 20
-116.79924242424242
 10
281.96536412078154
 20
-116.5340909090909
 10
281.7015985790409
 20
-116.5340909090909
 10
281.4378330373002
 20
-116.40151515151516
 10
281.17406749555954
 20
-116.40151515151516
 10
280.9103019538188
 20
-116.26893939393939
 10
280.3827708703375
 20
-116.26893939393939
 10
279.85523978685615
 20
-116.00378787878788
 10
279.85523978685615
 20
-114.81060606060606
 10
280.1190053285968
 20
-114.67803030303031
 10
280.1190053285968
 20
-114.28030303030303
 10
280.3827708703375
 20
-114.14772727272728
 10
280.3827708703375
 20
-112.55681818181819
 10
280.64653641207815
 20
-112.42424242424242
 10
280.9103019538188
 20
-112.42424242424242
 10
281.4378330373002
 20
-112.1590909090909
 10
281.17406749555954
 20
-112.1590909090909
 10
280.9103019538188
 20
-112.02651515151516
 10
280.1190053285968
 20
-112.02651515151516
 10
279.5914742451155
 20
-111.76136363636364
 10
279.5914742451155
 20
-111.23106060606061
 10
279.3277087033748
 20
-111.23106060606061
 10
279.06394316163414
 20
-111.09848484848484
 10
278.53641207815275
 20
-111.09848484848484
 10
278.2726465364121
 20
-110.9659090909091
 10
275.898756660746
 20
-110.9659090909091
 10
275.63499111900535
 20
-111.09848484848484
 10
274.8436944937833
 20
-111.09848484848484
 10
274.31616341030195
 20
-111.36363636363636
 10
274.31616341030195
 20
-111.49621212121212
 10
274.0523978685613
 20
-111.62878787878788
 10
274.0523978685613
 20
-112.42424242424242
 10
273.7886323268206
 20
-112.55681818181819
 10
273.7886323268206
 20
-112.8219696969697
 10
273.52486678507995
 20
-112.95454545454545
 10
273.52486678507995
 20
-113.48484848484848
 10
273.2611012433393
 20
-113.61742424242425
 10
273.2611012433393
 20
-114.54545454545455
 10
272.9973357015986
 20
-114.67803030303031
 10
270.3596802841918
 20
-114.67803030303031
 10
270.09591474245116
 20
-114.54545454545455
 10
269.30461811722915
 20
-114.54545454545455
 10
269.0408525754885
 20
-114.4128787878788
 10
267.7220248667851
 20
-114.4128787878788
 10
267.4582593250444
 20
-114.28030303030303
 10
265.87566607460036
 20
-114.28030303030303
 10
265.6119005328597
 20
-114.14772727272728
 10
262.97424511545296
 20
-114.14772727272728
 10
262.7104795737123
 20
-114.01515151515152
 10
256.38010657193604
 20
-114.01515151515152
 10
256.1163410301954
 20
-114.14772727272728
 10
253.21492007104797
 20
-114.14772727272728
 10
252.9511545293073
 20
-114.28030303030303
 10
251.10479573712257
 20
-114.28030303030303
 10
250.8410301953819
 20
-114.4128787878788
 10
249.5222024866785
 20
-114.4128787878788
 10
249.25843694493784
 20
-114.54545454545455
 10
248.4671403197158
 20
-114.54545454545455
 10
248.20337477797514
 20
-114.67803030303031
 10
247.14831261101244
 20
-114.67803030303031
 10
246.88454706927178
 20
-114.81060606060606
 10
246.3570159857904
 20
-114.81060606060606
 10
246.09325044404974
 20
-114.94318181818183
 10
245.3019538188277
 20
-114.94318181818183
 10
245.03818827708704
 20
-115.07575757575758
 10
244.51065719360568
 20
-115.07575757575758
 10
244.246891651865
 20
-115.20833333333333
 10
243.71936056838368
 20
-115.20833333333333
 10
243.45559502664298
 20
-115.3409090909091
 10
242.92806394316165
 20
-115.3409090909091
 10
242.66429840142098
 20
-115.47348484848484
 10
242.40053285968028
 20
-115.47348484848484
 10
242.13676731793961
 20
-115.60606060606061
 10
241.87300177619895
 20
-115.60606060606061
 10
241.60923623445828
 20
-115.73863636363636
 10
241.08170515097692
 20
-115.73863636363636
 10
240.81793960923625
 20
-115.87121212121212
 10
240.29040852575488
 20
-115.87121212121212
 10
240.02664298401422
 20
-116.00378787878788
 10
239.76287744227355
 20
-116.00378787878788
 10
239.49911190053288
 20
-116.13636363636364
 10
239.23534635879219
 20
-116.13636363636364
 10
238.97158081705152
 20
-116.26893939393939
 10
238.70781527531085
 20
-116.26893939393939
 10
238.44404973357018
 20
-116.40151515151516
 10
238.1802841918295
 20
-116.40151515151516
 10
237.65275310834815
 20
-116.66666666666667
 10
235.0150976909414
 20
-116.66666666666667
 10
234.22380106571936
 20
-116.26893939393939
 10
234.22380106571936
 20
-116.13636363636364
 10
233.9600355239787
 20
-116.00378787878788
 10
233.9600355239787
 20
-115.87121212121212
 10
233.43250444049735
 20
-115.60606060606061
 10
233.43250444049735
 20
-115.47348484848484
 10
232.904973357016
 20
-115.20833333333333
 10
232.904973357016
 20
-115.07575757575758
 10
232.37744227353465
 20
-114.81060606060606
 10
232.37744227353465
 20
-114.67803030303031
 10
231.8499111900533
 20
-114.4128787878788
 10
231.8499111900533
 20
-114.28030303030303
 10
231.32238010657196
 20
-114.01515151515152
 10
231.32238010657196
 20
-113.88257575757576
 10
231.05861456483126
 20
-113.75
 10
231.05861456483126
 20
-113.61742424242425
 10
230.53108348134992
 20
-113.35227272727273
 10
230.53108348134992
 20
-113.21969696969697
 10
230.00355239786856
 20
-112.95454545454545
 10
230.00355239786856
 20
-112.8219696969697
 10
229.47602131438722
 20
-112.55681818181819
 10
229.47602131438722
 20
-112.42424242424242
 10
229.21225577264656
 20
-112.29166666666667
 10
229.21225577264656
 20
-112.1590909090909
 10
228.6847246891652
 20
-111.89393939393939
 10
228.6847246891652
 20
-111.76136363636364
 10
228.15719360568386
 20
-111.49621212121212
 10
228.15719360568386
 20
-111.36363636363636
 10
227.89342806394316
 20
-111.23106060606061
 10
227.89342806394316
 20
-111.09848484848484
 10
227.36589698046183
 20
-110.83333333333333
 10
227.36589698046183
 20
-110.70075757575758
 10
227.10213143872116
 20
-110.56818181818183
 10
227.10213143872116
 20
-110.43560606060606
 10
226.5746003552398
 20
-110.17045454545455
 10
226.5746003552398
 20
-110.0378787878788
 10
226.31083481349913
 20
-109.90530303030303
 10
226.31083481349913
 20
-109.77272727272728
 10
225.78330373001776
 20
-109.50757575757576
 10
225.78330373001776
 20
-109.375
 10
225.5195381882771
 20
-109.24242424242425
 10
225.5195381882771
 20
-109.10984848484848
 10
225.25577264653643
 20
-108.97727272727273
 10
225.25577264653643
 20
-108.84469696969697
 10
224.99200710479576
 20
-108.71212121212122
 10
224.99200710479576
 20
-108.57954545454545
 10
224.4644760213144
 20
-108.31439393939394
 10
224.4644760213144
 20
-108.18181818181819
 10
224.20071047957373
 20
-108.04924242424242
 10
224.20071047957373
 20
-107.91666666666667
 10
223.67317939609237
 20
-107.65151515151516
 10
223.67317939609237
 20
-107.51893939393939
 10
223.4094138543517
 20
-107.38636363636364
 10
222.88188277087033
 20
-107.38636363636364
 10
222.61811722912967
 20
-107.25378787878788
 10
222.354351687389
 20
-107.25378787878788
 10
222.09058614564833
 20
-107.38636363636364
 10
221.56305506216697
 20
-107.38636363636364
 10
221.2992895204263
 20
-107.51893939393939
 10
221.03552397868563
 20
-107.51893939393939
 10
219.1891651865009
 20
-108.4469696969697
 10
219.1891651865009
 20
-108.57954545454545
 10
218.66163410301954
 20
-108.84469696969697
 10
218.66163410301954
 20
-109.10984848484848
 10
218.39786856127887
 20
-109.24242424242425
 10
218.39786856127887
 20
-109.50757575757576
 10
218.1341030195382
 20
-109.64015151515152
 10
218.1341030195382
 20
-110.0378787878788
 10
217.87033747779753
 20
-110.17045454545455
 10
217.87033747779753
 20
-110.83333333333333
 10
217.60657193605684
 20
-110.9659090909091
 10
217.60657193605684
 20
-111.89393939393939
 10
217.87033747779753
 20
-112.02651515151516
 10
217.87033747779753
 20
-112.68939393939394
 10
218.1341030195382
 20
-112.8219696969697
 10
218.1341030195382
 20
-113.21969696969697
 10
218.39786856127887
 20
-113.35227272727273
 10
218.39786856127887
 20
-113.61742424242425
 10
218.66163410301954
 20
-113.75
 10
218.66163410301954
 20
-113.88257575757576
 10
218.92539964476023
 20
-114.01515151515152
 10
218.92539964476023
 20
-114.28030303030303
 10
219.45293072824157
 20
-114.54545454545455
 10
219.45293072824157
 20
-114.67803030303031
 10
219.71669626998224
 20
-114.81060606060606
 10
219.71669626998224
 20
-114.94318181818183
 10
220.50799289520427
 20
-115.3409090909091
 10
220.50799289520427
 20
-115.47348484848484
 10
224.20071047957373
 20
-117.32954545454545
 10
224.4644760213144
 20
-117.32954545454545
 10
228.15719360568386
 20
-119.18560606060606
 10
228.15719360568386
 20
-120.37878787878788
 10
226.5746003552398
 20
-121.17424242424242
 10
226.5746003552398
 20
-121.30681818181819
 10
226.04706927175846
 20
-121.5719696969697
 10
226.04706927175846
 20
-121.70454545454545
 10
225.25577264653643
 20
-122.10227272727273
 10
225.25577264653643
 20
-122.23484848484848
 10
224.72824156305506
 20
-122.5
 10
224.72824156305506
 20
-122.63257575757576
 10
224.4644760213144
 20
-122.76515151515152
 10
224.4644760213144
 20
-122.89772727272728
 10
224.20071047957373
 20
-123.03030303030303
 10
224.20071047957373
 20
-123.1628787878788
 10
223.67317939609237
 20
-123.42803030303031
 10
223.67317939609237
 20
-123.56060606060606
 10
223.4094138543517
 20
-123.69318181818183
 10
223.4094138543517
 20
-123.82575757575758
 10
223.14564831261103
 20
-123.95833333333334
 10
223.14564831261103
 20
-124.0909090909091
 10
222.88188277087033
 20
-124.22348484848484
 10
222.88188277087033
 20
-124.35606060606061
 10
222.61811722912967
 20
-124.48863636363636
 10
222.61811722912967
 20
-124.62121212121212
 10
222.354351687389
 20
-124.75378787878788
 10
222.354351687389
 20
-125.01893939393939
 10
222.09058614564833
 20
-125.15151515151516
 10
222.09058614564833
 20
-125.2840909090909
 10
221.82682060390763
 20
-125.41666666666667
 10
221.82682060390763
 20
-125.54924242424242
 10
221.56305506216697
 20
-125.68181818181819
 10
221.56305506216697
 20
-125.9469696969697
 10
221.2992895204263
 20
-126.07954545454545
 10
221.2992895204263
 20
-126.34469696969697
 10
221.03552397868563
 20
-126.47727272727273
 10
221.03552397868563
 20
-126.74242424242425
 10
220.77175843694494
 20
-126.875
 10
220.77175843694494
 20
-127.14015151515152
 10
220.50799289520427
 20
-127.27272727272728
 10
220.50799289520427
 20
-127.67045454545455
 10
220.2442273534636
 20
-127.80303030303031
 10
220.2442273534636
 20
-128.2007575757576
 10
219.98046181172293
 20
-128.33333333333334
 10
219.98046181172293
 20
-128.7310606060606
 10
219.71669626998224
 20
-128.86363636363637
 10
219.71669626998224
 20
-129.3939393939394
 10
219.45293072824157
 20
-129.52651515151516
 10
219.45293072824157
 20
-130.3219696969697
 10
219.1891651865009
 20
-130.45454545454547
 10
219.1891651865009
 20
-131.64772727272728
 10
218.92539964476023
 20
-131.78030303030303
 10
218.92539964476023
 20
-134.96212121212122
 10
219.1891651865009
 20
-135.09469696969697
 10
219.1891651865009
 20
-136.15530303030303
 10
219.45293072824157
 20
-136.28787878787878
 10
219.45293072824157
 20
-136.9507575757576
 10
219.71669626998224
 20
-137.08333333333334
 10
219.71669626998224
 20
-137.61363636363637
 10
219.98046181172293
 20
-137.74621212121212
 10
219.98046181172293
 20
-138.1439393939394
 10
220.2442273534636
 20
-138.27651515151516
 10
220.2442273534636
 20
-138.67424242424244
 10
220.50799289520427
 20
-138.8068181818182
 10
220.50799289520427
 20
-139.0719696969697
 10
220.77175843694494
 20
-139.20454545454547
 10
220.77175843694494
 20
-139.46969696969697
 10
221.03552397868563
 20
-139.60227272727272
 10
221.03552397868563
 20
-139.86742424242425
 10
221.2992895204263
 20
-140.0
 10
221.2992895204263
 20
-140.26515151515153
 10
221.56305506216697
 20
-140.39772727272728
 10
221.56305506216697
 20
-140.53030303030303
 10
221.82682060390763
 20
-140.66287878787878
 10
221.82682060390763
 20
-140.9280303030303
 10
222.09058614564833
 20
-141.06060606060606
 10
222.09058614564833
 20
-141.1931818181818
 10
222.354351687389
 20
-141.3257575757576
 10
222.354351687389
 20
-141.45833333333334
 10
222.61811722912967
 20
-141.5909090909091
 10
222.61811722912967
 20
-141.72348484848484
 10
222.88188277087033
 20
-141.8560606060606
 10
222.88188277087033
 20
-141.98863636363637
 10
223.14564831261103
 20
-142.12121212121212
 10
223.14564831261103
 20
-142.25378787878788
 10
223.67317939609237
 20
-142.5189393939394
 10
223.67317939609237
 20
-142.65151515151516
 10
223.93694493783303
 20
-142.7840909090909
 10
223.93694493783303
 20
-142.91666666666666
 10
224.4644760213144
 20
-143.1818181818182
 10
224.4644760213144
 20
-143.31439393939394
 10
225.25577264653643
 20
-143.71212121212122
 10
225.25577264653643
 20
-144.1098484848485
 10
225.5195381882771
 20
-144.24242424242425
 10
225.5195381882771
 20
-144.375
 10
226.31083481349913
 20
-144.77272727272728
 10
226.31083481349913
 20
-144.90530303030303
 10
227.6296625222025
 20
-145.5681818181818
 10
227.6296625222025
 20
-146.76136363636363
 10
227.36589698046183
 20
-146.8939393939394
 10
227.36589698046183
 20
-147.29166666666666
 10
227.10213143872116
 20
-147.42424242424244
 10
227.10213143872116
 20
-147.8219696969697
 10
227.36589698046183
 20
-147.95454545454547
 10
227.36589698046183
 20
-148.35227272727272
 10
228.15719360568386
 20
-148.75
 10
228.15719360568386
 20
-148.88257575757575
 10
228.42095914742453
 20
-148.88257575757575
 10
230.7948490230906
 20
-150.0757575757576
 10
231.05861456483126
 20
-150.0757575757576
 10
231.8499111900533
 20
-150.47348484848484
 10
232.11367673179396
 20
-150.47348484848484
 10
233.43250444049735
 20
-151.13636363636363
 10
233.69626998223802
 20
-151.13636363636363
 10
234.48756660746005
 20
-151.5340909090909
 10
234.75133214920072
 20
-151.5340909090909
 10
235.27886323268206
 20
-151.79924242424244
 10
235.54262877442275
 20
-151.79924242424244
 10
236.0701598579041
 20
-152.06439393939394
 10
236.33392539964478
 20
-152.06439393939394
 10
236.86145648312612
 20
-152.32954545454547
 10
237.1252220248668
 20
-152.32954545454547
 10
237.65275310834815
 20
-152.59469696969697
 10
237.91651865008882
 20
-152.59469696969697
 10
238.44404973357018
 20
-152.8598484848485
 10
238.70781527531085
 20
-152.8598484848485
 10
238.97158081705152
 20
-152.99242424242425
 10
239.23534635879219
 20
-152.99242424242425
 10
239.76287744227355
 20
-153.25757575757575
 10
240.02664298401422
 20
-153.25757575757575
 10
240.29040852575488
 20
-153.39015151515153
 10
240.55417406749558
 20
-153.39015151515153
 10
240.81793960923625
 20
-153.52272727272728
 10
241.08170515097692
 20
-153.52272727272728
 10
241.34547069271758
 20
-153.65530303030303
 10
241.87300177619895
 20
-153.65530303030303
 10
242.13676731793961
 20
-153.78787878787878
 10
243.98312611012435
 20
-153.78787878787878
 10
244.246891651865
 20
-153.65530303030303
 10
244.51065719360568
 20
-153.65530303030303
 10
245.3019538188277
 20
-153.25757575757575
 10
245.3019538188277
 20
-152.99242424242425
 10
245.82948490230908
 20
-152.72727272727272
 10
247.93960923623447
 20
-152.72727272727272
 10
248.20337477797514
 20
-152.8598484848485
 10
248.7309058614565
 20
-152.8598484848485
 10
249.25843694493784
 20
-153.125
 10
249.25843694493784
 20
-154.4507575757576
 10
248.99467140319717
 20
-154.58333333333334
 10
248.99467140319717
 20
-155.11363636363637
 10
248.7309058614565
 20
-155.24621212121212
 10
248.7309058614565
 20
-155.77651515151516
 10
248.4671403197158
 20
-155.9090909090909
 10
248.4671403197158
 20
-156.43939393939394
 10
248.20337477797514
 20
-156.5719696969697
 10
248.20337477797514
 20
-157.10227272727272
 10
247.93960923623447
 20
-157.2348484848485
 10
247.93960923623447
 20
-157.76515151515153
 10
247.6758436944938
 20
-157.89772727272728
 10
247.6758436944938
 20
-158.4280303030303
 10
247.4120781527531
 20
-158.56060606060606
 10
247.4120781527531
 20
-159.0909090909091
 10
247.14831261101244
 20
-159.22348484848484
 10
247.14831261101244
 20
-159.75378787878788
 10
246.88454706927178
 20
-159.88636363636363
 10
246.88454706927178
 20
-160.15151515151516
 10
246.6207815275311
 20
-160.2840909090909
 10
246.6207815275311
 20
-161.34469696969697
 10
246.3570159857904
 20
-161.47727272727272
 10
246.3570159857904
 20
-162.00757575757575
 10
246.09325044404974
 20
-162.14015151515153
 10
246.09325044404974
 20
-162.53787878787878
 10
245.82948490230908
 20
-162.67045454545456
 10
245.82948490230908
 20
-162.93560606060606
 10
245.56571936056838
 20
-163.0681818181818
 10
245.56571936056838
 20
-163.4659090909091
 10
245.3019538188277
 20
-163.59848484848484
 10
245.3019538188277
 20
-163.99621212121212
 10
245.03818827708704
 20
-164.12878787878788
 10
245.03818827708704
 20
-164.52651515151516
 10
244.77442273534638
 20
-164.6590909090909
 10
244.77442273534638
 20
-165.45454545454547
 10
244.51065719360568
 20
-165.58712121212122
 10
241.87300177619895
 20
-165.58712121212122
 10
241.60923623445828
 20
-165.45454545454547
 10
241.60923623445828
 20
-163.73106060606062
 10
241.34547069271758
 20
-163.59848484848484
 10
241.34547069271758
 20
-163.33333333333334
 10
240.55417406749558
 20
-162.93560606060606
 10
239.76287744227355
 20
-162.93560606060606
 10
239.49911190053288
 20
-162.8030303030303
 10
238.97158081705152
 20
-162.8030303030303
 10
238.70781527531085
 20
-162.67045454545456
 10
237.65275310834815
 20
-162.67045454545456
 10
237.38898756660748
 20
-162.53787878787878
 10
236.59769094138545
 20
-162.53787878787878
 10
236.33392539964478
 20
-162.40530303030303
 10
223.14564831261103
 20
-162.40530303030303
 10
222.88188277087033
 20
-162.53787878787878
 10
222.09058614564833
 20
-162.53787878787878
 10
221.82682060390763
 20
-162.67045454545456
 10
221.56305506216697
 20
-162.67045454545456
 10
221.2992895204263
 20
-162.8030303030303
 10
221.2992895204263
 20
-162.93560606060606
 10
221.03552397868563
 20
-163.0681818181818
 10
221.03552397868563
 20
-164.3939393939394
 10
220.77175843694494
 20
-164.52651515151516
 10
219.1891651865009
 20
-164.52651515151516
 10
218.92539964476023
 20
-164.6590909090909
 10
217.87033747779753
 20
-164.6590909090909
 10
217.60657193605684
 20
-164.79166666666666
 10
216.55150976909414
 20
-164.79166666666666
 10
216.28774422735347
 20
-164.92424242424244
 10
215.49644760213144
 20
-164.92424242424244
 10
215.23268206039077
 20
-165.0568181818182
 10
214.44138543516874
 20
-165.0568181818182
 10
214.17761989342807
 20
-165.18939393939394
 10
213.6500888099467
 20
-165.18939393939394
 10
213.38632326820604
 20
-165.3219696969697
 10
212.8587921847247
 20
-165.3219696969697
 10
212.595026642984
 20
-165.45454545454547
 10
212.33126110124334
 20
-165.45454545454547
 10
212.06749555950267
 20
-165.58712121212122
 10
211.5399644760213
 20
-165.58712121212122
 10
211.27619893428064
 20
-165.71969696969697
 10
210.7486678507993
 20
-165.71969696969697
 10
210.4849023090586
 20
-165.85227272727272
 10
210.22113676731794
 20
-165.85227272727272
 10
209.95737122557728
 20
-165.9848484848485
 10
209.6936056838366
 20
-165.9848484848485
 10
209.4298401420959
 20
-166.11742424242425
 10
209.16607460035524
 20
-166.11742424242425
 10
208.90230905861458
 20
-166.25
 10
208.6385435168739
 20
-166.25
 10
208.11101243339255
 20
-166.51515151515153
 10
207.84724689165188
 20
-166.51515151515153
 10
207.5834813499112
 20
-166.64772727272728
 10
207.3197158081705
 20
-166.64772727272728
 10
206.5284191829485
 20
-167.04545454545456
 10
206.26465364120781
 20
-167.04545454545456
 10
205.4733570159858
 20
-167.4431818181818
 10
205.20959147424512
 20
-167.4431818181818
 10
202.04440497335702
 20
-169.0340909090909
 10
202.04440497335702
 20
-169.16666666666666
 10
200.98934280639432
 20
-169.6969696969697
 10
200.98934280639432
 20
-169.82954545454547
 10
200.1980461811723
 20
-170.22727272727272
 10
200.1980461811723
 20
-170.3598484848485
 10
199.67051509769095
 20
-170.625
 10
199.67051509769095
 20
-170.75757575757575
 10
199.1429840142096
 20
-171.02272727272728
 10
199.1429840142096
 20
-171.15530303030303
 10
198.87921847246892
 20
-171.28787878787878
 10
198.87921847246892
 20
-171.42045454545456
 10
198.35168738898759
 20
-171.68560606060606
 10
198.35168738898759
 20
-171.8181818181818
 10
198.0879218472469
 20
-171.9507575757576
 10
198.0879218472469
 20
-172.08333333333334
 10
197.82415630550622
 20
-172.2159090909091
 10
197.82415630550622
 20
-172.34848484848484
 10
197.56039076376555
 20
-172.48106060606062
 10
197.56039076376555
 20
-172.61363636363637
 10
197.2966252220249
 20
-172.74621212121212
 10
197.2966252220249
 20
-172.87878787878788
 10
197.0328596802842
 20
-173.01136363636363
 10
197.0328596802842
 20
-173.1439393939394
 10
196.76909413854352
 20
-173.27651515151516
 10
196.76909413854352
 20
-173.4090909090909
 10
196.50532859680285
 20
-173.54166666666666
 10
196.50532859680285
 20
-173.67424242424244
 10
196.2415630550622
 20
-173.8068181818182
 10
196.2415630550622
 20
-173.93939393939394
 10
195.9777975133215
 20
-174.0719696969697
 10
195.9777975133215
 20
-174.33712121212122
 10
195.71403197158082
 20
-174.46969696969697
 10
195.71403197158082
 20
-174.7348484848485
 10
195.45026642984016
 20
-174.86742424242425
 10
195.45026642984016
 20
-175.13257575757575
 10
195.1865008880995
 20
-175.26515151515153
 10
195.1865008880995
 20
-175.39772727272728
 10
194.9227353463588
 20
-175.53030303030303
 10
194.9227353463588
 20
-175.9280303030303
 10
194.65896980461812
 20
-176.06060606060606
 10
194.65896980461812
 20
-176.3257575757576
 10
194.39520426287746
 20
-176.45833333333334
 10
194.39520426287746
 20
-176.85606060606062
 10
194.1314387211368
 20
-176.98863636363637
 10
194.1314387211368
 20
-177.38636363636363
 10
193.8676731793961
 20
-177.5189393939394
 10
193.8676731793961
 20
-178.04924242424244
 10
193.60390763765542
 20
-178.1818181818182
 10
193.60390763765542
 20
-178.97727272727272
 10
193.34014209591476
 20
-179.1098484848485
 10
193.34014209591476
 20
-180.5681818181818
 10
193.0763765541741
 20
-180.7007575757576
 10
193.0763765541741
 20
-181.8939393939394
 10
193.34014209591476
 20
-182.02651515151516
 10
193.34014209591476
 20
-183.4848484848485
 10
193.60390763765542
 20
-183.61742424242425
 10
193.60390763765542
 20
-184.28030303030303
 10
193.8676731793961
 20
-184.41287878787878
 10
193.8676731793961
 20
-185.0757575757576
 10
194.1314387211368
 20
-185.20833333333334
 10
194.1314387211368
 20
-185.60606060606062
 10
194.39520426287746
 20
-185.73863636363637
 10
194.39520426287746
 20
-186.13636363636363
 10
194.65896980461812
 20
-186.2689393939394
 10
194.65896980461812
 20
-186.66666666666666
 10
194.9227353463588
 20
-186.79924242424244
 10
194.9227353463588
 20
-187.06439393939394
 10
195.1865008880995
 20
-187.1969696969697
 10
195.1865008880995
 20
-187.46212121212122
 10
195.45026642984016
 20
-187.59469696969697
 10
195.45026642984016
 20
-187.8598484848485
 10
195.71403197158082
 20
-187.99242424242425
 10
195.71403197158082
 20
-188.25757575757575
 10
195.9777975133215
 20
-188.39015151515153
 10
195.9777975133215
 20
-189.4507575757576
 10
195.71403197158082
 20
-189.58333333333334
 10
194.65896980461812
 20
-189.58333333333334
 10
194.39520426287746
 20
-189.7159090909091
 10
193.8676731793961
 20
-189.7159090909091
 10
193.60390763765542
 20
-189.84848484848484
 10
192.8126110124334
 20
-189.84848484848484
 10
192.54884547069273
 20
-189.98106060606062
 10
192.28507992895206
 20
-189.98106060606062
 10
192.02131438721136
 20
-190.11363636363637
 10
191.49378330373003
 20
-190.11363636363637
 10
191.23001776198936
 20
-190.24621212121212
 10
190.96625222024866
 20
-190.24621212121212
 10
190.702486678508
 20
-190.37878787878788
 10
190.43872113676733
 20
-190.37878787878788
 10
190.17495559502666
 20
-190.51136363636363
 10
189.91119005328596
 20
-190.51136363636363
 10
189.11989342806396
 20
-190.9090909090909
 10
188.85612788632326
 20
-190.9090909090909
 10
187.00976909413856
 20
-191.83712121212122
 10
187.00976909413856
 20
-191.96969696969697
 10
186.4822380106572
 20
-192.2348484848485
 10
186.4822380106572
 20
-192.36742424242425
 10
185.95470692717586
 20
-192.63257575757575
 10
185.95470692717586
 20
-192.76515151515153
 10
185.69094138543517
 20
-192.89772727272728
 10
185.69094138543517
 20
-193.03030303030303
 10
185.4271758436945
 20
-193.16287878787878
 10
185.4271758436945
 20
-193.4280303030303
 10
185.16341030195383
 20
-193.56060606060606
 10
185.16341030195383
 20
-193.95833333333334
 10
184.89964476021316
 20
-194.0909090909091
 10
184.89964476021316
 20
-194.62121212121212
 10
184.63587921847247
 20
-194.75378787878788
 10
184.63587921847247
 20
-196.47727272727272
 10
184.89964476021316
 20
-196.6098484848485
 10
184.89964476021316
 20
-197.00757575757575
 10
185.16341030195383
 20
-197.14015151515153
 10
185.16341030195383
 20
-197.40530303030303
 10
185.4271758436945
 20
-197.53787878787878
 10
185.4271758436945
 20
-197.8030303030303
 10
185.95470692717586
 20
-198.0681818181818
 10
185.95470692717586
 20
-198.2007575757576
 10
186.74600355239787
 20
-198.2007575757576
 10
187.00976909413856
 20
-198.33333333333334
 10
187.27353463587923
 20
-198.2007575757576
 10
187.80106571936057
 20
-198.2007575757576
 10
188.06483126110126
 20
-198.0681818181818
 10
188.32859680284193
 20
-198.0681818181818
 10
188.85612788632326
 20
-197.8030303030303
 10
189.11989342806396
 20
-197.8030303030303
 10
189.6474245115453
 20
-197.53787878787878
 10
189.91119005328596
 20
-197.53787878787878
 10
190.17495559502666
 20
-197.40530303030303
 10
190.43872113676733
 20
-197.40530303030303
 10
190.96625222024866
 20
-197.14015151515153
 10
191.23001776198936
 20
-197.14015151515153
 10
191.7575488454707
 20
-196.875
 10
192.02131438721136
 20
-196.875
 10
192.28507992895206
 20
-196.74242424242425
 10
192.54884547069273
 20
-196.74242424242425
 10
192.8126110124334
 20
-196.6098484848485
 10
193.0763765541741
 20
-196.6098484848485
 10
193.60390763765542
 20
-196.34469696969697
 10
193.8676731793961
 20
-196.34469696969697
 10
194.1314387211368
 20
-196.21212121212122
 10
194.39520426287746
 20
-196.21212121212122
 10
194.9227353463588
 20
-195.9469696969697
 10
195.1865008880995
 20
-195.9469696969697
 10
195.45026642984016
 20
-195.81439393939394
 10
195.71403197158082
 20
-195.81439393939394
 10
195.9777975133215
 20
-195.6818181818182
 10
196.2415630550622
 20
-195.6818181818182
 10
196.76909413854352
 20
-195.41666666666666
 10
197.0328596802842
 20
-195.41666666666666
 10
197.2966252220249
 20
-195.2840909090909
 10
197.56039076376555
 20
-195.2840909090909
 10
197.82415630550622
 20
-195.15151515151516
 10
198.0879218472469
 20
-195.15151515151516
 10
198.61545293072825
 20
-194.88636363636365
 10
198.87921847246892
 20
-194.88636363636365
 10
199.1429840142096
 20
-194.75378787878788
 10
199.40674955595028
 20
-194.75378787878788
 10
199.67051509769095
 20
-194.62121212121212
 10
199.93428063943162
 20
-194.62121212121212
 10
200.1980461811723
 20
-194.48863636363637
 10
202.83570159857905
 20
-194.48863636363637
 10
203.89076376554175
 20
-195.0189393939394
 10
203.89076376554175
 20
-195.15151515151516
 10
205.20959147424512
 20
-195.81439393939394
 10
205.20959147424512
 20
-195.9469696969697
 10
208.6385435168739
 20
-197.67045454545456
 10
208.90230905861458
 20
-197.67045454545456
 10
210.7486678507993
 20
-198.59848484848484
 10
211.01243339253998
 20
-198.59848484848484
 10
212.06749555950267
 20
-199.12878787878788
 10
212.33126110124334
 20
-199.12878787878788
 10
213.12255772646537
 20
-199.52651515151516
 10
213.38632326820604
 20
-199.52651515151516
 10
214.9689165186501
 20
-200.3219696969697
 10
215.23268206039077
 20
-200.3219696969697
 10
216.0239786856128
 20
-200.71969696969697
 10
216.28774422735347
 20
-200.71969696969697
 10
216.55150976909414
 20
-200.85227272727272
 10
216.81527531083483
 20
-200.85227272727272
 10
217.34280639431617
 20
-201.11742424242425
 10
217.60657193605684
 20
-201.11742424242425
 10
218.1341030195382
 20
-201.38257575757575
 10
218.39786856127887
 20
-201.38257575757575
 10
218.92539964476023
 20
-201.64772727272728
 10
219.1891651865009
 20
-201.64772727272728
 10
219.45293072824157
 20
-201.78030303030303
 10
219.71669626998224
 20
-201.78030303030303
 10
219.98046181172293
 20
-201.91287878787878
 10
220.2442273534636
 20
-201.91287878787878
 10
220.77175843694494
 20
-202.1780303030303
 10
221.03552397868563
 20
-202.1780303030303
 10
221.2992895204263
 20
-202.31060606060606
 10
221.56305506216697
 20
-202.31060606060606
 10
221.82682060390763
 20
-202.4431818181818
 10
222.09058614564833
 20
-202.4431818181818
 10
222.354351687389
 20
-202.5757575757576
 10
222.61811722912967
 20
-202.5757575757576
 10
222.88188277087033
 20
-202.70833333333334
 10
223.14564831261103
 20
-202.70833333333334
 10
223.4094138543517
 20
-202.8409090909091
 10
223.67317939609237
 20
-202.8409090909091
 10
223.93694493783303
 20
-202.97348484848484
 10
224.4644760213144
 20
-202.97348484848484
 10
224.72824156305506
 20
-203.10606060606062
 10
224.99200710479576
 20
-203.10606060606062
 10
225.5195381882771
 20
-203.37121212121212
 10
225.5195381882771
 20
-204.4318181818182
 10
225.25577264653643
 20
-204.56439393939394
 10
225.25577264653643
 20
-204.96212121212122
 10
224.99200710479576
 20
-205.09469696969697
 10
224.99200710479576
 20
-205.49242424242425
 10
224.72824156305506
 20
-205.625
 10
224.72824156305506
 20
-207.2159090909091
 10
224.99200710479576
 20
-207.34848484848484
 10
224.99200710479576
 20
-207.61363636363637
 10
226.04706927175846
 20
-208.1439393939394
 10
226.31083481349913
 20
-208.1439393939394
 10
226.5746003552398
 20
-208.27651515151516
 10
226.83836589698046
 20
-208.27651515151516
 10
227.10213143872116
 20
-208.4090909090909
 10
227.6296625222025
 20
-208.4090909090909
 10
227.89342806394316
 20
-208.54166666666666
 10
230.26731793960926
 20
-208.54166666666666
 10
232.11367673179396
 20
-207.61363636363637
 10
232.11367673179396
 20
-207.48106060606062
 10
232.904973357016
 20
-207.08333333333334
 10
232.904973357016
 20
-206.28787878787878
 10
232.64120781527532
 20
-206.15530303030303
 10
232.64120781527532
 20
-205.09469696969697
 10
232.904973357016
 20
-204.96212121212122
 10
235.27886323268206
 20
-204.96212121212122
 10
235.54262877442275
 20
-205.09469696969697
 10
241.87300177619895
 20
-205.09469696969697
 10
242.13676731793961
 20
-204.96212121212122
 10
243.1918294849023
 20
-204.96212121212122
 10
243.45559502664298
 20
-204.82954545454547
 10
244.51065719360568
 20
-204.82954545454547
 10
244.77442273534638
 20
-204.6969696969697
 10
245.3019538188277
 20
-204.6969696969697
 10
245.56571936056838
 20
-204.56439393939394
 10
246.09325044404974
 20
-204.56439393939394
 10
246.3570159857904
 20
-204.4318181818182
 10
246.88454706927178
 20
-204.4318181818182
 10
247.14831261101244
 20
-204.29924242424244
 10
247.6758436944938
 20
-204.29924242424244
 10
247.93960923623447
 20
-204.16666666666666
 10
248.20337477797514
 20
-204.16666666666666
 10
248.4671403197158
 20
-204.0340909090909
 10
248.99467140319717
 20
-204.0340909090909
 10
249.25843694493784
 20
-203.90151515151516
 10
249.5222024866785
 20
-203.90151515151516
 10
249.7859680284192
 20
-203.7689393939394
 10
250.31349911190054
 20
-203.7689393939394
 10
250.5772646536412
 20
-203.63636363636365
 10
250.8410301953819
 20
-203.63636363636365
 10
251.36856127886324
 20
-203.37121212121212
 10
251.8960923623446
 20
-203.37121212121212
 10
252.42362344582594
 20
-203.10606060606062
 10
252.6873889875666
 20
-203.10606060606062
 10
252.9511545293073
 20
-202.97348484848484
 10
253.21492007104797
 20
-202.97348484848484
 10
254.00621669627
 20
-202.5757575757576
 10
254.26998223801067
 20
-202.5757575757576
 10
255.0612788632327
 20
-202.1780303030303
 10
255.32504440497337
 20
-202.1780303030303
 10
257.69893428063943
 20
-200.9848484848485
 10
257.69893428063943
 20
-200.85227272727272
 10
258.4902309058615
 20
-200.45454545454547
 10
258.4902309058615
 20
-200.3219696969697
 10
259.01776198934283
 20
-200.0568181818182
 10
259.01776198934283
 20
-199.92424242424244
 10
259.54529307282417
 20
-199.6590909090909
 10
259.54529307282417
 20
-199.52651515151516
 10
260.0728241563055
 20
-199.26136363636365
 10
260.0728241563055
 20
-199.12878787878788
 10
260.33658969804617
 20
-198.99621212121212
 10
260.33658969804617
 20
-198.86363636363637
 10
260.6003552397869
 20
-198.73106060606062
 10
260.6003552397869
 20
-198.59848484848484
 10
260.86412078152756
 20
-198.4659090909091
 10
260.86412078152756
 20
-198.33333333333334
 10
261.1278863232682
 20
-198.2007575757576
 10
261.1278863232682
 20
-198.0681818181818
 10
261.3916518650089
 20
-197.93560606060606
 10
261.3916518650089
 20
-197.8030303030303
 10
261.65541740674956
 20
-197.67045454545456
 10
261.65541740674956
 20
-197.53787878787878
 10
261.91918294849023
 20
-197.40530303030303
 10
261.91918294849023
 20
-197.27272727272728
 10
262.1829484902309
 20
-197.14015151515153
 10
262.1829484902309
 20
-196.875
 10
262.44671403197157
 20
-196.74242424242425
 10
262.44671403197157
 20
-196.6098484848485
 10
262.7104795737123
 20
-196.47727272727272
 10
262.7104795737123
 20
-196.34469696969697
 10
262.97424511545296
 20
-196.21212121212122
 10
262.97424511545296
 20
-195.9469696969697
 10
263.2380106571936
 20
-195.81439393939394
 10
263.2380106571936
 20
-195.6818181818182
 10
263.5017761989343
 20
-195.54924242424244
 10
263.5017761989343
 20
-195.2840909090909
 10
263.76554174067496
 20
-195.15151515151516
 10
263.76554174067496
 20
-194.88636363636365
 10
264.02930728241563
 20
-194.75378787878788
 10
264.02930728241563
 20
-194.62121212121212
 10
264.2930728241563
 20
-194.48863636363637
 10
264.2930728241563
 20
-194.22348484848484
 10
264.55683836589697
 20
-194.0909090909091
 10
264.55683836589697
 20
-193.6931818181818
 10
264.8206039076377
 20
-193.56060606060606
 10
264.8206039076377
 20
-193.29545454545456
 10
265.08436944937836
 20
-193.16287878787878
 10
265.08436944937836
 20
-192.89772727272728
 10
265.348134991119
 20
-192.76515151515153
 10
265.348134991119
 20
-192.5
 10
265.6119005328597
 20
-192.36742424242425
 10
265.6119005328597
 20
-191.96969696969697
 10
265.87566607460036
 20
-191.83712121212122
 10
265.87566607460036
 20
-191.43939393939394
 10
266.139431616341
 20
-191.3068181818182
 10
266.139431616341
 20
-190.9090909090909
 10
266.4031971580817
 20
-190.77651515151516
 10
266.4031971580817
 20
-190.37878787878788
 10
266.66696269982236
 20
-190.24621212121212
 10
266.66696269982236
 20
-189.7159090909091
 10
266.9307282415631
 20
-189.58333333333334
 10
266.9307282415631
 20
-189.0530303030303
 10
267.19449378330376
 20
-188.92045454545456
 10
267.19449378330376
 20
-188.25757575757575
 10
267.4582593250444
 20
-188.125
 10
267.4582593250444
 20
-187.46212121212122
 10
267.7220248667851
 20
-187.32954545454547
 10
267.7220248667851
 20
-186.2689393939394
 10
267.98579040852576
 20
-186.13636363636363
 10
267.98579040852576
 20
-184.9431818181818
 10
268.2495559502664
 20
-184.81060606060606
 10
268.2495559502664
 20
-181.23106060606062
 10
267.98579040852576
 20
-181.09848484848484
 10
267.98579040852576
 20
-180.03787878787878
 10
267.7220248667851
 20
-179.90530303030303
 10
267.7220248667851
 20
-179.24242424242425
 10
267.4582593250444
 20
-179.1098484848485
 10
267.4582593250444
 20
-178.57954545454547
 10
267.19449378330376
 20
-178.4469696969697
 10
267.19449378330376
 20
-178.04924242424244
 10
266.9307282415631
 20
-177.91666666666666
 10
266.9307282415631
 20
-177.5189393939394
 10
266.66696269982236
 20
-177.38636363636363
 10
266.66696269982236
 20
-177.12121212121212
 10
266.4031971580817
 20
-176.98863636363637
 10
266.4031971580817
 20
-176.72348484848484
 10
266.139431616341
 20
-176.5909090909091
 10
266.139431616341
 20
-176.3257575757576
 10
265.87566607460036
 20
-176.1931818181818
 10
265.87566607460036
 20
-176.06060606060606
 10
265.6119005328597
 20
-175.9280303030303
 10
265.6119005328597
 20
-175.66287878787878
 10
265.348134991119
 20
-175.53030303030303
 10
265.348134991119
 20
-175.39772727272728
 10
265.08436944937836
 20
-175.26515151515153
 10
265.08436944937836
 20
-175.13257575757575
 10
264.8206039076377
 20
-175.0
 10
264.8206039076377
 20
-174.86742424242425
 10
264.55683836589697
 20
-174.7348484848485
 10
264.55683836589697
 20
-174.60227272727272
 10
264.2930728241563
 20
-174.46969696969697
 10
264.2930728241563
 20
-174.33712121212122
 10
264.02930728241563
 20
-174.20454545454547
 10
264.02930728241563
 20
-174.0719696969697
 10
263.5017761989343
 20
-173.8068181818182
 10
263.5017761989343
 20
-173.67424242424244
 10
263.2380106571936
 20
-173.54166666666666
 10
263.2380106571936
 20
-173.4090909090909
 10
262.7104795737123
 20
-173.1439393939394
 10
262.7104795737123
 20
-173.01136363636363
 10
262.1829484902309
 20
-172.74621212121212
 10
262.1829484902309
 20
-172.61363636363637
 10
261.1278863232682
 20
-172.08333333333334
 10
261.1278863232682
 20
-171.9507575757576
 10
259.54529307282417
 20
-171.15530303030303
 10
259.54529307282417
 20
-171.02272727272728
 10
257.1714031971581
 20
-169.82954545454547
 10
256.90763765541743
 20
-169.82954545454547
 10
254.26998223801067
 20
-168.50378787878788
 10
254.00621669627
 20
-168.50378787878788
 10
253.21492007104797
 20
-168.10606060606062
 10
253.21492007104797
 20
-166.91287878787878
 10
253.47868561278864
 20
-166.78030303030303
 10
253.47868561278864
 20
-166.64772727272728
 10
253.7424511545293
 20
-166.51515151515153
 10
253.7424511545293
 20
-166.38257575757575
 10
254.00621669627
 20
-166.25
 10
254.00621669627
 20
-165.9848484848485
 10
254.26998223801067
 20
-165.85227272727272
 10
254.26998223801067
 20
-165.71969696969697
 10
254.53374777975134
 20
-165.58712121212122
 10
254.53374777975134
 20
-165.3219696969697
 10
254.797513321492
 20
-165.18939393939394
 10
254.797513321492
 20
-164.92424242424244
 10
255.0612788632327
 20
-164.79166666666666
 10
255.0612788632327
 20
-164.52651515151516
 10
255.32504440497337
 20
-164.3939393939394
 10
255.32504440497337
 20
-164.26136363636363
 10
255.58880994671404
 20
-164.12878787878788
 10
255.58880994671404
 20
-163.86363636363637
 10
255.8525754884547
 20
-163.73106060606062
 10
255.8525754884547
 20
-163.4659090909091
 10
256.1163410301954
 20
-163.33333333333334
 10
256.1163410301954
 20
-163.0681818181818
 10
256.38010657193604
 20
-162.93560606060606
 10
256.38010657193604
 20
-162.53787878787878
 10
256.64387211367676
 20
-162.40530303030303
 10
256.64387211367676
 20
-162.14015151515153
 10
256.90763765541743
 20
-162.00757575757575
 10
256.90763765541743
 20
-161.6098484848485
 10
257.1714031971581
 20
-161.47727272727272
 10
257.1714031971581
 20
-161.07954545454547
 10
257.43516873889877
 20
-160.9469696969697
 10
257.43516873889877
 20
-160.54924242424244
 10
257.69893428063943
 20
-160.41666666666666
 10
257.69893428063943
 20
-160.0189393939394
 10
257.9626998223801
 20
-159.88636363636363
 10
257.9626998223801
 20
-159.35606060606062
 10
258.22646536412077
 20
-159.22348484848484
 10
258.22646536412077
 20
-158.56060606060606
 10
258.4902309058615
 20
-158.4280303030303
 10
258.4902309058615
 20
-157.63257575757575
 10
258.75399644760216
 20
-157.5
 10
258.75399644760216
 20
-156.83712121212122
 10
259.01776198934283
 20
-156.70454545454547
 10
259.01776198934283
 20
-155.24621212121212
 10
259.2815275310835
 20
-155.11363636363637
 10
259.2815275310835
 20
-154.84848484848484
 10
259.54529307282417
 20
-154.7159090909091
 10
259.54529307282417
 20
-154.58333333333334
 10
260.0728241563055
 20
-154.3181818181818
 10
264.55683836589697
 20
-154.3181818181818
 10
264.8206039076377
 20
-154.18560606060606
 10
266.66696269982236
 20
-154.18560606060606
 10
266.9307282415631
 20
-154.0530303030303
 10
268.2495559502664
 20
-154.0530303030303
 10
268.5133214920071
 20
-153.92045454545456
 10
269.30461811722915
 20
-153.92045454545456
 10
269.5683836589698
 20
-153.78787878787878
 10
270.3596802841918
 20
-153.78787878787878
 10
270.6234458259325
 20
-153.65530303030303
 10
271.1509769094139
 20
-153.65530303030303
 10
271.41474245115455
 20
-153.52272727272728
 10
271.9422735346359
 20
-153.52272727272728
 10
272.20603907637656
 20
-153.39015151515153
 10
272.7335701598579
 20
-153.39015151515153
 10
272.9973357015986
 20
-153.25757575757575
 10
273.2611012433393
 20
-153.25757575757575
 10
273.52486678507995
 20
-153.125
 10
274.0523978685613
 20
-153.125
 10
274.31616341030195
 20
-152.99242424242425
 10
274.5799289520426
 20
-152.99242424242425
 10
274.8436944937833
 20
-152.8598484848485
 10
275.107460035524
 20
-152.8598484848485
 10
275.3712255772647
 20
-152.72727272727272
 10
275.63499111900535
 20
-152.72727272727272
 10
275.898756660746
 20
-152.59469696969697
 10
276.1625222024867
 20
-152.59469696969697
 10
276.42628774422735
 20
-152.46212121212122
 10
276.690053285968
 20
-152.46212121212122
 10
276.9538188277087
 20
-152.32954545454547
 10
277.2175843694494
 20
-152.32954545454547
 10
277.74511545293075
 20
-152.06439393939394
 10
278.0088809946714
 20
-152.06439393939394
 10
278.53641207815275
 20
-151.79924242424244
 10
278.8001776198934
 20
-151.79924242424244
 10
279.5914742451155
 20
-151.40151515151516
 10
279.85523978685615
 20
-151.40151515151516
 10
281.4378330373002
 20
-150.60606060606062
 10
281.7015985790409
 20
-150.60606060606062
 10
282.4928952042629
 20
-150.20833333333334
 10
282.4928952042629
 20
-150.0757575757576
 10
284.3392539964476
 20
-149.14772727272728
 10
284.3392539964476
 20
-149.01515151515153
 10
285.1305506216696
 20
-148.61742424242425
 10
285.1305506216696
 20
-148.4848484848485
 10
285.658081705151
 20
-148.21969696969697
 10
285.658081705151
 20
-148.08712121212122
 10
286.18561278863234
 20
-147.8219696969697
 10
286.18561278863234
 20
-147.68939393939394
 10
286.449378330373
 20
-147.5568181818182
 10
286.449378330373
 20
-147.42424242424244
 10
286.97690941385434
 20
-147.1590909090909
 10
286.97690941385434
 20
-147.02651515151516
 10
287.240674955595
 20
-146.8939393939394
 10
287.240674955595
 20
-146.76136363636363
 10
287.50444049733574
 20
-146.62878787878788
 10
287.50444049733574
 20
-146.49621212121212
 10
287.7682060390764
 20
-146.36363636363637
 10
287.7682060390764
 20
-146.2310606060606
 10
288.03197158081707
 20
-146.09848484848484
 10
288.03197158081707
 20
-145.9659090909091
 10
288.29573712255774
 20
-145.83333333333334
 10
288.29573712255774
 20
-145.7007575757576
 10
288.5595026642984
 20
-145.5681818181818
 10
288.5595026642984
 20
-145.43560606060606
 10
288.8232682060391
 20
-145.3030303030303
 10
288.8232682060391
 20
-145.17045454545456
 10
289.08703374777974
 20
-145.03787878787878
 10
289.08703374777974
 20
-144.90530303030303
 10
289.35079928952047
 20
-144.77272727272728
 10
289.35079928952047
 20
-144.50757575757575
 10
289.61456483126113
 20
-144.375
 10
289.61456483126113
 20
-144.24242424242425
 10
289.8783303730018
 20
-144.1098484848485
 10
289.8783303730018
 20
-143.84469696969697
 10
290.14209591474247
 20
-143.71212121212122
 10
290.14209591474247
 20
-143.57954545454547
 10
290.40586145648314
 20
-143.4469696969697
 10
290.40586145648314
 20
-143.1818181818182
 10
290.6696269982238
 20
-143.04924242424244
 10
290.6696269982238
 20
-142.91666666666666
 10
290.9333925399645
 20
-142.7840909090909
 10
290.9333925399645
 20
-142.65151515151516
 10
291.19715808170514
 20
-142.5189393939394
 10
291.19715808170514
 20
-142.25378787878788
 10
291.46092362344586
 20
-142.12121212121212
 10
291.46092362344586
 20
-141.8560606060606
 10
291.72468916518653
 20
-141.72348484848484
 10
291.72468916518653
 20
-141.45833333333334
 10
291.9884547069272
 20
-141.3257575757576
 10
291.9884547069272
 20
-141.06060606060606
 10
292.25222024866787
 20
-140.9280303030303
 10
292.25222024866787
 20
-140.66287878787878
 10
292.51598579040854
 20
-140.53030303030303
 10
292.51598579040854
 20
-140.26515151515153
 10
292.7797513321492
 20
-140.13257575757575
 10
292.7797513321492
 20
-139.86742424242425
 10
293.04351687388987
 20
-139.7348484848485
 10
293.04351687388987
 20
-139.46969696969697
 10
293.30728241563054
 20
-139.33712121212122
 10
293.30728241563054
 20
-138.93939393939394
 10
293.57104795737126
 20
-138.8068181818182
 10
293.57104795737126
 20
-138.4090909090909
 10
293.83481349911193
 20
-138.27651515151516
 10
293.83481349911193
 20
-138.01136363636363
 10
294.0985790408526
 20
-137.87878787878788
 10
294.0985790408526
 20
-137.4810606060606
 10
294.36234458259327
 20
-137.34848484848484
 10
294.36234458259327
 20
-136.8181818181818
 10
294.62611012433393
 20
-136.68560606060606
 10
294.62611012433393
 20
-136.28787878787878
 10
294.8898756660746
 20
-136.15530303030303
 10
294.8898756660746
 20
-135.49242424242425
 10
295.15364120781527
 20
-135.3598484848485
 10
295.15364120781527
 20
-134.82954545454547
 10
295.41740674955594
 20
-134.6969696969697
 10
295.41740674955594
 20
-134.16666666666666
 10
295.68117229129666
 20
-134.0340909090909
 10
296.73623445825933
 20
-134.0340909090909
 10
296.73623445825933
 20
-71.32575757575758
  0
TEXT
  5
36
330
17
100
AcDbEntity
  8
TEXT
100
AcDbText
 10
243.98312611012435
 20
-157.76515151515153
 30
0.0
 40
5.0
  1
Contour 2
100
AcDbText
  0
LWPOLYLINE
  5
37
330
17
100
AcDbEntity
  8
CONTOURS
100
AcDbPolyline
 90
215
 70
1
 10
101.54973357015986
 20
-31.022727272727273
 10
101.28596802841919
 20
-31.15530303030303
 10
100.75843694493784
 20
-31.15530303030303
 10
100.49467140319716
 20
-31.28787878787879
 10
100.23090586145649
 20
-31.28787878787879
 10
99.96714031971581
 20
-31.420454545454547
 10
99.70337477797514
 20
-31.420454545454547
 10
99.43960923623446
 20
-31.553030303030305
 10
99.17584369449379
 20
-31.553030303030305
 10
98.91207815275311
 20
-31.685606060606062
 10
98.64831261101244
 20
-31.685606060606062
 10
98.38454706927176
 20
-31.81818181818182
 10
97.85701598579041
 20
-31.81818181818182
 10
97.59325044404974
 20
-31.950757575757578
 10
97.32948490230906
 20
-31.950757575757578
 10
97.0657193605684
 20
-32.083333333333336
 10
96.53818827708704
 20
-32.083333333333336
 10
96.27442273534636
 20
-32.21590909090909
 10
95.74689165186501
 20
-32.21590909090909
 10
95.48312611012433
 20
-32.34848484848485
 10
95.21936056838366
 20
-32.34848484848485
 10
94.16429840142096
 20
-32.87878787878788
 10
94.16429840142096
 20
-33.01136363636364
 10
93.37300177619893
 20
-33.40909090909091
 10
93.37300177619893
 20
-33.541666666666664
 10
92.58170515097692
 20
-33.93939393939394
 10
92.58170515097692
 20
-34.071969696969695
 10
92.05417406749557
 20
-34.33712121212121
 10
92.05417406749557
 20
-34.46969696969697
 10
91.79040852575488
 20
-34.60227272727273
 10
91.79040852575488
 20
-34.734848484848484
 10
91.52664298401422
 20
-34.86742424242424
 10
91.52664298401422
 20
-35.13257575757576
 10
91.26287744227353
 20
-35.265151515151516
 10
91.26287744227353
 20
-36.458333333333336
 10
91.52664298401422
 20
-36.59090909090909
 10
91.52664298401422
 20
-36.85606060606061
 10
91.79040852575488
 20
-36.98863636363637
 10
91.79040852575488
 20
-37.121212121212125
 10
92.05417406749557
 20
-37.25378787878788
 10
92.05417406749557
 20
-37.5189393939394
 10
92.31793960923623
 20
-37.651515151515156
 10
92.31793960923623
 20
-37.916666666666664
 10
92.58170515097692
 20
-38.04924242424242
 10
92.58170515097692
 20
-38.31439393939394
 10
92.84547069271758
 20
-38.446969696969695
 10
92.84547069271758
 20
-38.71212121212121
 10
93.10923623445827
 20
-38.84469696969697
 10
93.10923623445827
 20
-39.109848484848484
 10
93.37300177619893
 20
-39.24242424242424
 10
93.37300177619893
 20
-39.50757575757576
 10
93.63676731793961
 20
-39.640151515151516
 10
93.63676731793961
 20
-39.90530303030303
 10
93.90053285968028
 20
-40.03787878787879
 10
93.90053285968028
 20
-40.43560606060606
 10
94.16429840142096
 20
-40.56818181818182
 10
94.16429840142096
 20
-40.96590909090909
 10
94.42806394316163
 20
-41.09848484848485
 10
94.42806394316163
 20
-41.496212121212125
 10
94.69182948490231
 20
-41.62878787878788
 10
94.69182948490231
 20
-42.15909090909091
 10
94.95559502664298
 20
-42.291666666666664
 10
94.95559502664298
 20
-42.95454545454545
 10
95.21936056838366
 20
-43.08712121212121
 10
95.21936056838366
 20
-43.75
 10
95.48312611012433
 20
-43.88257575757576
 10
95.48312611012433
 20
-44.41287878787879
 10
95.74689165186501
 20
-44.54545454545455
 10
95.74689165186501
 20
-44.94318181818182
 10
96.01065719360568
 20
-45.07575757575758
 10
96.01065719360568
 20
-45.47348484848485
 10
96.27442273534636
 20
-45.60606060606061
 10
96.27442273534636
 20
-46.13636363636364
 10
96.53818827708704
 20
-46.2689393939394
 10
96.53818827708704
 20
-46.53409090909091
 10
96.80195381882771
 20
-46.666666666666664
 10
96.80195381882771
 20
-46.93181818181818
 10
97.0657193605684
 20
-47.06439393939394
 10
97.0657193605684
 20
-47.59469696969697
 10
97.32948490230906
 20
-47.72727272727273
 10
97.32948490230906
 20
-47.99242424242424
 10
97.59325044404974
 20
-48.125
 10
97.59325044404974
 20
-48.25757575757576
 10
97.85701598579041
 20
-48.390151515151516
 10
97.85701598579041
 20
-48.52272727272727
 10
98.1207815275311
 20
-48.65530303030303
 10
98.38454706927176
 20
-48.65530303030303
 10
98.64831261101244
 20
-48.78787878787879
 10
98.91207815275311
 20
-48.78787878787879
 10
99.17584369449379
 20
-48.92045454545455
 10
99.70337477797514
 20
-48.92045454545455
 10
99.96714031971581
 20
-49.053030303030305
 10
102.86856127886324
 20
-49.053030303030305
 10
103.13232682060391
 20
-48.92045454545455
 10
103.92362344582594
 20
-48.92045454545455
 10
104.1873889875666
 20
-48.78787878787879
 10
104.97868561278864
 20
-48.78787878787879
 10
105.2424511545293
 20
-48.65530303030303
 10
105.76998223801066
 20
-48.65530303030303
 10
106.03374777975134
 20
-48.52272727272727
 10
106.56127886323269
 20
-48.52272727272727
 10
106.82504440497335
 20
-48.390151515151516
 10
107.35257548845472
 20
-48.390151515151516
 10
107.61634103019539
 20
-48.25757575757576
 10
107.88010657193607
 20
-48.25757575757576
 10
108.14387211367674
 20
-48.125
 10
108.93516873889877
 20
-48.125
 10
109.46269982238012
 20
-47.859848484848484
 10
109.99023090586147
 20
-47.859848484848484
 10
110.25399644760213
 20
-47.72727272727273
 10
110.51776198934282
 20
-47.72727272727273
 10
110.78152753108348
 20
-47.59469696969697
 10
111.04529307282417
 20
-47.59469696969697
 10
111.30905861456483
 20
-47.46212121212121
 10
111.57282415630551
 20
-47.46212121212121
 10
111.83658969804618
 20
-47.32954545454545
 10
112.10035523978686
 20
-47.32954545454545
 10
112.36412078152753
 20
-47.196969696969695
 10
112.62788632326821
 20
-47.196969696969695
 10
112.89165186500888
 20
-47.06439393939394
 10
113.15541740674956
 20
-47.06439393939394
 10
113.41918294849023
 20
-46.93181818181818
 10
113.68294849023091
 20
-46.93181818181818
 10
114.21047957371226
 20
-46.666666666666664
 10
114.47424511545293
 20
-46.666666666666664
 10
115.00177619893428
 20
-46.401515151515156
 10
115.26554174067496
 20
-46.401515151515156
 10
115.79307282415631
 20
-46.13636363636364
 10
116.05683836589698
 20
-46.13636363636364
 10
117.37566607460036
 20
-45.47348484848485
 10
117.37566607460036
 20
-45.34090909090909
 10
117.63943161634103
 20
-45.208333333333336
 10
117.63943161634103
 20
-45.07575757575758
 10
117.90319715808171
 20
-44.94318181818182
 10
117.90319715808171
 20
-44.678030303030305
 10
118.16696269982239
 20
-44.54545454545455
 10
118.16696269982239
 20
-43.75
 10
117.90319715808171
 20
-43.75
 10
117.63943161634103
 20
-43.61742424242424
 10
117.63943161634103
 20
-43.08712121212121
 10
117.37566607460036
 20
-42.95454545454545
 10
117.37566607460036
 20
-42.68939393939394
 10
117.11190053285968
 20
-42.55681818181818
 10
117.11190053285968
 20
-42.15909090909091
 10
116.84813499111901
 20
-42.026515151515156
 10
116.84813499111901
 20
-41.8939393939394
 10
116.58436944937833
 20
-41.76136363636364
 10
116.58436944937833
 20
-41.62878787878788
 10
116.32060390763766
 20
-41.496212121212125
 10
116.32060390763766
 20
-41.36363636363637
 10
116.05683836589698
 20
-41.23106060606061
 10
116.05683836589698
 20
-41.09848484848485
 10
115.79307282415631
 20
-40.96590909090909
 10
115.79307282415631
 20
-40.70075757575758
 10
115.52930728241563
 20
-40.56818181818182
 10
115.52930728241563
 20
-40.43560606060606
 10
115.26554174067496
 20
-40.303030303030305
 10
115.26554174067496
 20
-40.03787878787879
 10
115.00177619893428
 20
-39.90530303030303
 10
115.00177619893428
 20
-39.77272727272727
 10
114.73801065719361
 20
-39.640151515151516
 10
114.73801065719361
 20
-39.50757575757576
 10
114.47424511545293
 20
-39.375
 10
114.47424511545293
 20
-39.24242424242424
 10
114.21047957371226
 20
-39.109848484848484
 10
114.21047957371226
 20
-38.97727272727273
 10
113.68294849023091
 20
-38.71212121212121
 10
113.68294849023091
 20
-38.57954545454545
 10
113.41918294849023
 20
-38.446969696969695
 10
113.41918294849023
 20
-38.31439393939394
 10
113.15541740674956
 20
-38.18181818181818
 10
113.15541740674956
 20
-38.04924242424242
 10
112.89165186500888
 20
-37.916666666666664
 10
112.89165186500888
 20
-37.78409090909091
 10
112.62788632326821
 20
-37.651515151515156
 10
112.62788632326821
 20
-37.5189393939394
 10
112.36412078152753
 20
-37.38636363636364
 10
112.36412078152753
 20
-37.25378787878788
 10
112.10035523978686
 20
-37.121212121212125
 10
112.10035523978686
 20
-36.98863636363637
 10
111.83658969804618
 20
-36.85606060606061
 10
111.83658969804618
 20
-36.59090909090909
 10
111.57282415630551
 20
-36.458333333333336
 10
111.57282415630551
 20
-36.19318181818182
 10
111.30905861456483
 20
-36.06060606060606
 10
111.30905861456483
 20
-35.79545454545455
 10
111.04529307282417
 20
-35.66287878787879
 10
111.04529307282417
 20
-35.39772727272727
 10
110.78152753108348
 20
-35.265151515151516
 10
110.78152753108348
 20
-35.0
 10
110.51776198934282
 20
-34.86742424242424
 10
110.51776198934282
 20
-34.60227272727273
 10
110.25399644760213
 20
-34.46969696969697
 10
110.25399644760213
 20
-34.20454545454545
 10
109.99023090586147
 20
-34.071969696969695
 10
109.99023090586147
 20
-33.80681818181818
 10
109.72646536412078
 20
-33.67424242424242
 10
109.72646536412078
 20
-33.40909090909091
 10
109.46269982238012
 20
-33.27651515151515
 10
109.46269982238012
 20
-33.01136363636364
 10
109.19893428063943
 20
-32.87878787878788
 10
109.19893428063943
 20
-32.61363636363637
 10
108.93516873889877
 20
-32.48106060606061
 10
108.93516873889877
 20
-32.34848484848485
 10
108.67140319715809
 20
-32.21590909090909
 10
108.67140319715809
 20
-32.083333333333336
 10
107.61634103019539
 20
-31.553030303030305
 10
107.35257548845472
 20
-31.553030303030305
 10
107.08880994671404
 20
-31.420454545454547
 10
106.297513321492
 20
-31.420454545454547
 10
106.03374777975134
 20
-31.28787878787879
 10
105.2424511545293
 20
-31.28787878787879
 10
104.97868561278864
 20
-31.15530303030303
 10
103.39609236234459
 20
-31.15530303030303
 10
103.13232682060391
 20
-31.022727272727273
  0
TEXT
  5
38
330
17
100
AcDbEntity
  8
TEXT
100
AcDbText
 10
103.92362344582594
 20
-40.17045454545455
 30
0.0
 40
5.0
  1
Contour 3
100
AcDbText
  0
LWPOLYLINE
  5
39
330
17
100
AcDbEntity
  8
CONTOURS
100
AcDbPolyline
 90
38
 70
1
 10
0.0
 20
-22.272727272727273
 10
0.0
 20
-161.74242424242425
 10
1.0550621669626998
 20
-161.74242424242425
 10
1.3188277087033748
 20
-161.875
 10
1.3188277087033748
 20
-168.50378787878788
 10
1.0550621669626998
 20
-168.63636363636363
 10
0.0
 20
-168.63636363636363
 10
0.0
 20
-209.86742424242425
 10
0.26376554174067496
 20
-209.86742424242425
 10
0.26376554174067496
 20
-201.64772727272728
 10
0.5275310834813499
 20
-201.51515151515153
 10
0.5275310834813499
 20
-185.20833333333334
 10
0.7912966252220249
 20
-185.0757575757576
 10
0.7912966252220249
 20
-177.91666666666666
 10
1.0550621669626998
 20
-177.7840909090909
 10
1.0550621669626998
 20
-169.16666666666666
 10
1.3188277087033748
 20
-169.0340909090909
 10
1.3188277087033748
 20
-158.29545454545456
 10
1.0550621669626998
 20
-158.16287878787878
 10
1.0550621669626998
 20
-106.06060606060606
 10
0.7912966252220249
 20
-105.92803030303031
 10
0.7912966252220249
 20
-104.86742424242425
 10
1.0550621669626998
 20
-104.73484848484848
 10
1.0550621669626998
 20
-103.01136363636364
 10
0.7912966252220249
 20
-102.87878787878788
 10
0.7912966252220249
 20
-101.42045454545455
 10
1.0550621669626998
 20
-101.2878787878788
 10
1.0550621669626998
 20
-100.35984848484848
 10
0.7912966252220249
 20
-100.22727272727273
 10
0.7912966252220249
 20
-49.053030303030305
 10
0.5275310834813499
 20
-48.92045454545455
 10
0.5275310834813499
 20
-47.46212121212121
 10
0.7912966252220249
 20
-47.32954545454545
 10
0.7912966252220249
 20
-46.93181818181818
 10
0.5275310834813499
 20
-46.79924242424242
 10
0.5275310834813499
 20
-32.87878787878788
 10
0.26376554174067496
 20
-32.746212121212125
 10
0.26376554174067496
 20
-22.272727272727273
  0
TEXT
  5
3A
330
17
100
AcDbEntity
  8
TEXT
100
AcDbText
 10
0.26376554174067496
 20
-117.72727272727273
 30
0.0
 40
5.0
  1
Contour 4
100
AcDbText
  0
LWPOLYLINE
  5
3B
330
17
100
AcDbEntity
  8
CONTOURS
100
AcDbPolyline
 90
1079
 70
1
 10
225.25577264653643
 20
-9.545454545454545
 10
225.25577264653643
 20
-9.678030303030303
 10
224.99200710479576
 20
-9.81060606060606
 10
224.99200710479576
 20
-9.943181818181818
 10
224.72824156305506
 20
-10.075757575757576
 10
224.72824156305506
 20
-10.208333333333334
 10
224.4644760213144
 20
-10.340909090909092
 10
224.4644760213144
 20
-10.47348484848485
 10
224.20071047957373
 20
-10.606060606060606
 10
224.20071047957373
 20
-10.738636363636363
 10
223.93694493783303
 20
-10.871212121212121
 10
223.93694493783303
 20
-11.003787878787879
 10
223.4094138543517
 20
-11.268939393939394
 10
223.4094138543517
 20
-11.401515151515152
 10
223.14564831261103
 20
-11.53409090909091
 10
223.14564831261103
 20
-11.666666666666666
 10
222.88188277087033
 20
-11.799242424242424
 10
222.88188277087033
 20
-11.931818181818182
 10
222.61811722912967
 20
-12.06439393939394
 10
222.61811722912967
 20
-12.196969696969697
 10
222.09058614564833
 20
-12.462121212121213
 10
222.09058614564833
 20
-12.59469696969697
 10
221.82682060390763
 20
-12.727272727272728
 10
221.82682060390763
 20
-12.859848484848484
 10
221.56305506216697
 20
-12.992424242424242
 10
221.56305506216697
 20
-13.125
 10
221.2992895204263
 20
-13.257575757575758
 10
221.2992895204263
 20
-13.390151515151516
 10
221.03552397868563
 20
-13.522727272727273
 10
221.03552397868563
 20
-13.655303030303031
 10
220.50799289520427
 20
-13.920454545454545
 10
220.50799289520427
 20
-14.053030303030303
 10
220.2442273534636
 20
-14.18560606060606
 10
220.2442273534636
 20
-14.318181818181818
 10
219.98046181172293
 20
-14.450757575757576
 10
219.98046181172293
 20
-14.583333333333334
 10
219.71669626998224
 20
-14.715909090909092
 10
219.71669626998224
 20
-14.84848484848485
 10
219.45293072824157
 20
-14.981060606060606
 10
219.45293072824157
 20
-15.113636363636363
 10
219.1891651865009
 20
-15.246212121212121
 10
219.1891651865009
 20
-15.378787878787879
 10
218.66163410301954
 20
-15.643939393939394
 10
218.66163410301954
 20
-15.776515151515152
 10
218.39786856127887
 20
-15.90909090909091
 10
218.39786856127887
 20
-16.041666666666668
 10
218.1341030195382
 20
-16.174242424242426
 10
218.1341030195382
 20
-16.306818181818183
 10
217.87033747779753
 20
-16.43939393939394
 10
217.87033747779753
 20
-16.704545454545453
 10
217.60657193605684
 20
-16.83712121212121
 10
217.60657193605684
 20
-17.5
 10
217.34280639431617
 20
-17.632575757575758
 10
216.81527531083483
 20
-17.632575757575758
 10
216.28774422735347
 20
-17.897727272727273
 10
216.28774422735347
 20
-18.03030303030303
 10
216.0239786856128
 20
-18.16287878787879
 10
216.0239786856128
 20
-18.295454545454547
 10
215.76021314387214
 20
-18.428030303030305
 10
215.76021314387214
 20
-18.560606060606062
 10
215.49644760213144
 20
-18.69318181818182
 10
215.49644760213144
 20
-18.825757575757578
 10
215.23268206039077
 20
-18.958333333333332
 10
215.23268206039077
 20
-19.09090909090909
 10
214.70515097690944
 20
-19.356060606060606
 10
214.70515097690944
 20
-20.018939393939394
 10
214.44138543516874
 20
-20.151515151515152
 10
214.17761989342807
 20
-20.151515151515152
 10
213.6500888099467
 20
-20.416666666666668
 10
213.6500888099467
 20
-20.549242424242426
 10
213.12255772646537
 20
-20.81439393939394
 10
213.12255772646537
 20
-20.9469696969697
 10
212.8587921847247
 20
-21.079545454545453
 10
212.8587921847247
 20
-21.34469696969697
 10
212.33126110124334
 20
-21.609848484848484
 10
212.33126110124334
 20
-21.742424242424242
 10
212.06749555950267
 20
-21.875
 10
212.06749555950267
 20
-22.140151515151516
 10
211.5399644760213
 20
-22.40530303030303
 10
211.5399644760213
 20
-22.670454545454547
 10
211.27619893428064
 20
-22.803030303030305
 10
211.27619893428064
 20
-22.935606060606062
 10
210.7486678507993
 20
-23.200757575757578
 10
210.7486678507993
 20
-23.46590909090909
 10
210.22113676731794
 20
-23.731060606060606
 10
210.22113676731794
 20
-24.393939393939394
 10
209.6936056838366
 20
-24.65909090909091
 10
209.4298401420959
 20
-24.65909090909091
 10
209.4298401420959
 20
-24.791666666666668
 10
209.16607460035524
 20
-24.924242424242426
 10
209.16607460035524
 20
-25.18939393939394
 10
208.3747779751332
 20
-25.58712121212121
 10
208.3747779751332
 20
-25.71969696969697
 10
208.11101243339255
 20
-25.852272727272727
 10
208.11101243339255
 20
-25.984848484848484
 10
207.84724689165188
 20
-26.117424242424242
 10
207.84724689165188
 20
-26.25
 10
207.5834813499112
 20
-26.382575757575758
 10
207.5834813499112
 20
-26.515151515151516
 10
207.3197158081705
 20
-26.647727272727273
 10
207.3197158081705
 20
-26.91287878787879
 10
207.05595026642985
 20
-27.045454545454547
 10
207.05595026642985
 20
-27.178030303030305
 10
206.79218472468918
 20
-27.310606060606062
 10
206.79218472468918
 20
-27.44318181818182
 10
206.5284191829485
 20
-27.575757575757578
 10
206.5284191829485
 20
-27.708333333333332
 10
206.26465364120781
 20
-27.84090909090909
 10
206.26465364120781
 20
-27.973484848484848
 10
206.00088809946715
 20
-28.106060606060606
 10
206.00088809946715
 20
-28.238636363636363
 10
205.73712255772648
 20
-28.37121212121212
 10
205.73712255772648
 20
-28.50378787878788
 10
205.4733570159858
 20
-28.636363636363637
 10
205.4733570159858
 20
-29.299242424242426
 10
205.20959147424512
 20
-29.431818181818183
 10
204.68206039076378
 20
-29.431818181818183
 10
204.68206039076378
 20
-29.56439393939394
 10
204.4182948490231
 20
-29.6969696969697
 10
204.4182948490231
 20
-29.829545454545457
 10
204.15452930728242
 20
-29.96212121212121
 10
204.15452930728242
 20
-30.09469696969697
 10
203.89076376554175
 20
-30.227272727272727
 10
203.89076376554175
 20
-30.359848484848484
 10
203.62699822380108
 20
-30.492424242424242
 10
203.62699822380108
 20
-30.625
 10
203.3632326820604
 20
-30.757575757575758
 10
203.3632326820604
 20
-30.890151515151516
 10
203.09946714031972
 20
-31.022727272727273
 10
203.09946714031972
 20
-31.28787878787879
 10
202.83570159857905
 20
-31.420454545454547
 10
202.83570159857905
 20
-31.553030303030305
 10
202.57193605683838
 20
-31.685606060606062
 10
202.57193605683838
 20
-31.81818181818182
 10
202.3081705150977
 20
-31.950757575757578
 10
202.3081705150977
 20
-32.21590909090909
 10
202.04440497335702
 20
-32.34848484848485
 10
202.04440497335702
 20
-32.48106060606061
 10
201.78063943161635
 20
-32.61363636363637
 10
201.78063943161635
 20
-32.746212121212125
 10
201.51687388987568
 20
-32.87878787878788
 10
201.51687388987568
 20
-33.1439393939394
 10
201.253108348135
 20
-33.27651515151515
 10
201.253108348135
 20
-33.93939393939394
 10
200.98934280639432
 20
-34.071969696969695
 10
200.46181172291298
 20
-34.071969696969695
 10
200.46181172291298
 20
-34.734848484848484
 10
200.1980461811723
 20
-34.86742424242424
 10
199.93428063943162
 20
-34.86742424242424
 10
199.67051509769095
 20
-35.0
 10
199.67051509769095
 20
-35.13257575757576
 10
199.40674955595028
 20
-35.265151515151516
 10
199.40674955595028
 20
-35.39772727272727
 10
199.1429840142096
 20
-35.53030303030303
 10
199.1429840142096
 20
-35.79545454545455
 10
198.87921847246892
 20
-35.928030303030305
 10
198.87921847246892
 20
-36.06060606060606
 10
198.61545293072825
 20
-36.19318181818182
 10
198.61545293072825
 20
-36.32575757575758
 10
198.35168738898759
 20
-36.458333333333336
 10
198.35168738898759
 20
-36.72348484848485
 10
198.0879218472469
 20
-36.85606060606061
 10
198.0879218472469
 20
-36.98863636363637
 10
197.82415630550622
 20
-37.121212121212125
 10
197.82415630550622
 20
-37.38636363636364
 10
197.56039076376555
 20
-37.5189393939394
 10
197.56039076376555
 20
-37.651515151515156
 10
197.2966252220249
 20
-37.78409090909091
 10
197.2966252220249
 20
-38.04924242424242
 10
197.0328596802842
 20
-38.18181818181818
 10
197.0328596802842
 20
-38.84469696969697
 10
196.76909413854352
 20
-38.97727272727273
 10
196.50532859680285
 20
-38.97727272727273
 10
196.2415630550622
 20
-39.109848484848484
 10
196.2415630550622
 20
-39.375
 10
195.71403197158082
 20
-39.640151515151516
 10
195.71403197158082
 20
-39.77272727272727
 10
195.45026642984016
 20
-39.90530303030303
 10
195.45026642984016
 20
-40.17045454545455
 10
195.1865008880995
 20
-40.303030303030305
 10
195.1865008880995
 20
-40.43560606060606
 10
194.9227353463588
 20
-40.56818181818182
 10
194.9227353463588
 20
-40.833333333333336
 10
194.65896980461812
 20
-40.96590909090909
 10
194.65896980461812
 20
-41.23106060606061
 10
194.39520426287746
 20
-41.36363636363637
 10
194.39520426287746
 20
-41.496212121212125
 10
194.1314387211368
 20
-41.62878787878788
 10
194.1314387211368
 20
-41.8939393939394
 10
193.8676731793961
 20
-42.026515151515156
 10
193.8676731793961
 20
-42.15909090909091
 10
193.60390763765542
 20
-42.291666666666664
 10
193.60390763765542
 20
-42.55681818181818
 10
193.34014209591476
 20
-42.68939393939394
 10
193.34014209591476
 20
-42.821969696969695
 10
193.0763765541741
 20
-42.95454545454545
 10
193.0763765541741
 20
-43.61742424242424
 10
192.8126110124334
 20
-43.75
 10
192.54884547069273
 20
-43.75
 10
192.54884547069273
 20
-43.88257575757576
 10
192.28507992895206
 20
-44.015151515151516
 10
192.28507992895206
 20
-44.41287878787879
 10
192.02131438721136
 20
-44.54545454545455
 10
192.02131438721136
 20
-44.81060606060606
 10
191.7575488454707
 20
-44.94318181818182
 10
191.7575488454707
 20
-45.07575757575758
 10
191.49378330373003
 20
-45.208333333333336
 10
191.49378330373003
 20
-45.47348484848485
 10
191.23001776198936
 20
-45.60606060606061
 10
191.23001776198936
 20
-45.871212121212125
 10
190.96625222024866
 20
-46.00378787878788
 10
190.96625222024866
 20
-46.13636363636364
 10
190.702486678508
 20
-46.2689393939394
 10
190.702486678508
 20
-46.401515151515156
 10
190.43872113676733
 20
-46.53409090909091
 10
190.43872113676733
 20
-46.79924242424242
 10
190.17495559502666
 20
-46.93181818181818
 10
190.17495559502666
 20
-47.06439393939394
 10
189.91119005328596
 20
-47.196969696969695
 10
189.91119005328596
 20
-47.46212121212121
 10
189.6474245115453
 20
-47.59469696969697
 10
189.6474245115453
 20
-47.72727272727273
 10
189.38365896980463
 20
-47.859848484848484
 10
189.38365896980463
 20
-48.52272727272727
 10
189.11989342806396
 20
-48.65530303030303
 10
188.85612788632326
 20
-48.65530303030303
 10
188.5923623445826
 20
-48.78787878787879
 10
188.5923623445826
 20
-49.18560606060606
 10
188.32859680284193
 20
-49.31818181818182
 10
188.32859680284193
 20
-49.45075757575758
 10
188.06483126110126
 20
-49.583333333333336
 10
188.06483126110126
 20
-49.84848484848485
 10
187.80106571936057
 20
-49.98106060606061
 10
187.80106571936057
 20
-50.11363636363637
 10
187.5373001776199
 20
-50.246212121212125
 10
187.5373001776199
 20
-50.37878787878788
 10
187.27353463587923
 20
-50.51136363636364
 10
187.27353463587923
 20
-50.776515151515156
 10
187.00976909413856
 20
-50.909090909090914
 10
187.00976909413856
 20
-51.041666666666664
 10
186.74600355239787
 20
-51.17424242424242
 10
186.74600355239787
 20
-51.30681818181818
 10
186.4822380106572
 20
-51.43939393939394
 10
186.4822380106572
 20
-51.70454545454545
 10
186.21847246891653
 20
-51.83712121212121
 10
186.21847246891653
 20
-51.96969696969697
 10
185.95470692717586
 20
-52.10227272727273
 10
185.95470692717586
 20
-52.36742424242424
 10
185.69094138543517
 20
-52.5
 10
185.69094138543517
 20
-52.63257575757576
 10
185.4271758436945
 20
-52.765151515151516
 10
185.4271758436945
 20
-53.29545454545455
 10
185.16341030195383
 20
-53.428030303030305
 10
184.89964476021316
 20
-53.428030303030305
 10
184.89964476021316
 20
-54.09090909090909
 10
184.63587921847247
 20
-54.22348484848485
 10
184.3721136767318
 20
-54.22348484848485
 10
184.3721136767318
 20
-54.35606060606061
 10
184.10834813499113
 20
-54.48863636363637
 10
184.10834813499113
 20
-54.75378787878788
 10
183.84458259325046
 20
-54.88636363636364
 10
183.84458259325046
 20
-55.0189393939394
 10
183.58081705150977
 20
-55.151515151515156
 10
183.58081705150977
 20
-55.416666666666664
 10
183.05328596802843
 20
-55.68181818181818
 10
183.05328596802843
 20
-55.946969696969695
 10
182.78952042628777
 20
-56.07954545454545
 10
182.78952042628777
 20
-56.21212121212121
 10
182.52575488454707
 20
-56.34469696969697
 10
182.52575488454707
 20
-56.609848484848484
 10
182.2619893428064
 20
-56.74242424242424
 10
182.2619893428064
 20
-56.875
 10
181.99822380106573
 20
-57.00757575757576
 10
181.99822380106573
 20
-57.140151515151516
 10
181.73445825932504
 20
-57.27272727272727
 10
181.73445825932504
 20
-58.06818181818182
 10
181.47069271758437
 20
-58.20075757575758
 10
180.94316163410303
 20
-58.20075757575758
 10
180.94316163410303
 20
-58.59848484848485
 10
180.67939609236234
 20
-58.73106060606061
 10
180.67939609236234
 20
-58.86363636363637
 10
180.41563055062167
 20
-58.996212121212125
 10
180.41563055062167
 20
-59.12878787878788
 10
180.151865008881
 20
-59.26136363636364
 10
180.151865008881
 20
-59.3939393939394
 10
179.88809946714034
 20
-59.526515151515156
 10
179.88809946714034
 20
-59.659090909090914
 10
179.62433392539964
 20
-59.79166666666667
 10
179.62433392539964
 20
-59.92424242424242
 10
179.36056838365897
 20
-60.05681818181818
 10
179.36056838365897
 20
-60.321969696969695
 10
179.0968028419183
 20
-60.45454545454545
 10
179.0968028419183
 20
-60.58712121212121
 10
178.83303730017764
 20
-60.71969696969697
 10
178.83303730017764
 20
-60.85227272727273
 10
178.56927175843694
 20
-60.984848484848484
 10
178.56927175843694
 20
-61.25
 10
178.30550621669627
 20
-61.38257575757576
 10
178.30550621669627
 20
-61.515151515151516
 10
178.0417406749556
 20
-61.64772727272727
 10
178.0417406749556
 20
-61.78030303030303
 10
177.77797513321494
 20
-61.91287878787879
 10
177.77797513321494
 20
-62.44318181818182
 10
177.51420959147424
 20
-62.57575757575758
 10
177.51420959147424
 20
-63.10606060606061
 10
177.25044404973357
 20
-63.23863636363637
 10
176.72291296625224
 20
-63.23863636363637
 10
176.19538188277087
 20
-63.50378787878788
 10
176.19538188277087
 20
-63.63636363636364
 10
175.9316163410302
 20
-63.7689393939394
 10
175.9316163410302
 20
-63.901515151515156
 10
175.66785079928954
 20
-64.0340909090909
 10
175.66785079928954
 20
-64.16666666666667
 10
175.40408525754884
 20
-64.29924242424242
 10
175.40408525754884
 20
-64.43181818181819
 10
175.14031971580818
 20
-64.56439393939394
 10
175.14031971580818
 20
-64.82954545454545
 10
174.61278863232684
 20
-65.09469696969697
 10
174.61278863232684
 20
-65.22727272727273
 10
174.34902309058614
 20
-65.35984848484848
 10
174.34902309058614
 20
-65.49242424242425
 10
173.29396092362344
 20
-66.02272727272728
 10
172.50266429840144
 20
-66.02272727272728
 10
167.22735346358792
 20
-68.67424242424242
 10
167.22735346358792
 20
-68.80681818181819
 10
166.17229129662522
 20
-69.33712121212122
 10
166.17229129662522
 20
-69.46969696969697
 10
165.90852575488455
 20
-69.60227272727273
 10
165.90852575488455
 20
-69.73484848484848
 10
165.64476021314388
 20
-69.86742424242425
 10
165.64476021314388
 20
-70.0
 10
165.38099467140322
 20
-70.13257575757576
 10
165.38099467140322
 20
-70.39772727272728
 10
165.11722912966252
 20
-70.53030303030303
 10
165.11722912966252
 20
-70.6628787878788
 10
164.58969804618118
 20
-70.9280303030303
 10
163.27087033747782
 20
-70.9280303030303
 10
163.00710479573712
 20
-71.06060606060606
 10
163.00710479573712
 20
-71.45833333333333
 10
162.74333925399645
 20
-71.5909090909091
 10
162.47957371225579
 20
-71.5909090909091
 10
162.47957371225579
 20
-72.51893939393939
 10
162.74333925399645
 20
-72.65151515151516
 10
163.53463587921848
 20
-72.65151515151516
 10
163.79840142095915
 20
-72.7840909090909
 10
163.79840142095915
 20
-72.91666666666667
 10
164.06216696269982
 20
-73.04924242424242
 10
164.06216696269982
 20
-74.10984848484848
 10
163.79840142095915
 20
-74.24242424242425
 10
163.79840142095915
 20
-74.77272727272728
 10
163.53463587921848
 20
-74.90530303030303
 10
163.53463587921848
 20
-75.30303030303031
 10
163.27087033747782
 20
-75.43560606060606
 10
163.27087033747782
 20
-75.70075757575758
 10
163.00710479573712
 20
-75.83333333333333
 10
163.00710479573712
 20
-75.9659090909091
 10
162.21580817051512
 20
-76.36363636363636
 10
162.21580817051512
 20
-76.49621212121212
 10
161.95204262877442
 20
-76.62878787878788
 10
161.95204262877442
 20
-76.76136363636364
 10
161.68827708703375
 20
-76.89393939393939
 10
160.3694493783304
 20
-76.89393939393939
 10
160.1056838365897
 20
-77.02651515151516
 10
160.1056838365897
 20
-77.42424242424242
 10
159.84191829484902
 20
-77.55681818181819
 10
159.57815275310836
 20
-77.55681818181819
 10
159.57815275310836
 20
-78.61742424242425
 10
159.84191829484902
 20
-78.75
 10
161.16074600355242
 20
-78.75
 10
161.4245115452931
 20
-78.88257575757576
 10
161.4245115452931
 20
-79.94318181818181
 10
161.68827708703375
 20
-80.07575757575758
 10
161.68827708703375
 20
-80.3409090909091
 10
161.95204262877442
 20
-80.47348484848484
 10
161.95204262877442
 20
-80.87121212121212
 10
162.21580817051512
 20
-81.00378787878788
 10
162.21580817051512
 20
-81.26893939393939
 10
162.47957371225579
 20
-81.40151515151516
 10
162.47957371225579
 20
-81.66666666666667
 10
162.74333925399645
 20
-81.79924242424242
 10
162.74333925399645
 20
-82.06439393939394
 10
163.00710479573712
 20
-82.1969696969697
 10
163.00710479573712
 20
-82.59469696969697
 10
163.27087033747782
 20
-82.72727272727273
 10
163.27087033747782
 20
-82.99242424242425
 10
163.53463587921848
 20
-83.125
 10
163.53463587921848
 20
-83.39015151515152
 10
163.79840142095915
 20
-83.52272727272728
 10
163.79840142095915
 20
-83.7878787878788
 10
164.06216696269982
 20
-83.92045454545455
 10
164.06216696269982
 20
-84.31818181818181
 10
164.32593250444052
 20
-84.45075757575758
 10
164.32593250444052
 20
-84.58333333333333
 10
164.58969804618118
 20
-84.7159090909091
 10
164.58969804618118
 20
-84.84848484848484
 10
164.85346358792185
 20
-84.98106060606061
 10
164.85346358792185
 20
-85.24621212121212
 10
165.11722912966252
 20
-85.37878787878788
 10
165.11722912966252
 20
-87.23484848484848
 10
164.85346358792185
 20
-87.36742424242425
 10
164.85346358792185
 20
-88.56060606060606
 10
165.11722912966252
 20
-88.69318181818181
 10
165.11722912966252
 20
-92.27272727272728
 10
164.85346358792185
 20
-92.40530303030303
 10
164.85346358792185
 20
-94.12878787878788
 10
164.58969804618118
 20
-94.26136363636364
 10
164.58969804618118
 20
-95.71969696969697
 10
164.32593250444052
 20
-95.85227272727273
 10
164.32593250444052
 20
-96.11742424242425
 10
164.06216696269982
 20
-96.25
 10
164.06216696269982
 20
-96.38257575757576
 10
164.32593250444052
 20
-96.51515151515152
 10
164.32593250444052
 20
-97.70833333333333
 10
164.06216696269982
 20
-97.8409090909091
 10
164.06216696269982
 20
-99.29924242424242
 10
163.79840142095915
 20
-99.43181818181819
 10
163.79840142095915
 20
-101.2878787878788
 10
163.53463587921848
 20
-101.42045454545455
 10
163.53463587921848
 20
-103.27651515151516
 10
163.27087033747782
 20
-103.4090909090909
 10
163.27087033747782
 20
-104.33712121212122
 10
163.00710479573712
 20
-104.46969696969697
 10
163.00710479573712
 20
-106.06060606060606
 10
162.74333925399645
 20
-106.19318181818183
 10
162.74333925399645
 20
-106.5909090909091
 10
162.47957371225579
 20
-106.72348484848484
 10
162.47957371225579
 20
-108.84469696969697
 10
162.21580817051512
 20
-108.97727272727273
 10
162.21580817051512
 20
-109.375
 10
161.95204262877442
 20
-109.50757575757576
 10
161.95204262877442
 20
-111.09848484848484
 10
161.68827708703375
 20
-111.23106060606061
 10
161.68827708703375
 20
-111.36363636363636
 10
161.4245115452931
 20
-111.49621212121212
 10
161.4245115452931
 20
-113.35227272727273
 10
161.16074600355242
 20
-113.48484848484848
 10
161.16074600355242
 20
-115.3409090909091
 10
160.89698046181172
 20
-115.47348484848484
 10
160.89698046181172
 20
-116.5340909090909
 10
160.63321492007105
 20
-116.66666666666667
 10
160.63321492007105
 20
-117.85984848484848
 10
160.3694493783304
 20
-117.99242424242425
 10
160.3694493783304
 20
-120.77651515151516
 10
160.1056838365897
 20
-120.9090909090909
 10
160.1056838365897
 20
-121.43939393939394
 10
159.84191829484902
 20
-121.5719696969697
 10
159.84191829484902
 20
-123.29545454545455
 10
159.57815275310836
 20
-123.42803030303031
 10
159.57815275310836
 20
-124.62121212121212
 10
159.84191829484902
 20
-124.75378787878788
 10
159.84191829484902
 20
-126.60984848484848
 10
159.57815275310836
 20
-126.74242424242425
 10
159.57815275310836
 20
-127.00757575757576
 10
159.3143872113677
 20
-127.14015151515152
 10
159.3143872113677
 20
-131.64772727272728
 10
159.050621669627
 20
-131.78030303030303
 10
159.050621669627
 20
-133.23863636363637
 10
158.78685612788632
 20
-133.37121212121212
 10
158.78685612788632
 20
-135.22727272727272
 10
157.9955595026643
 20
-135.625
 10
157.9955595026643
 20
-136.8181818181818
 10
157.73179396092362
 20
-136.9507575757576
 10
157.73179396092362
 20
-137.34848484848484
 10
157.46802841918296
 20
-137.4810606060606
 10
157.46802841918296
 20
-137.61363636363637
 10
157.2042628774423
 20
-137.74621212121212
 10
157.2042628774423
 20
-139.0719696969697
 10
157.73179396092362
 20
-139.33712121212122
 10
157.73179396092362
 20
-141.5909090909091
 10
157.46802841918296
 20
-141.72348484848484
 10
157.46802841918296
 20
-142.38636363636363
 10
157.2042628774423
 20
-142.5189393939394
 10
157.2042628774423
 20
-143.04924242424244
 10
156.9404973357016
 20
-143.1818181818182
 10
156.9404973357016
 20
-145.3030303030303
 10
156.67673179396093
 20
-145.43560606060606
 10
156.67673179396093
 20
-149.14772727272728
 10
156.41296625222026
 20
-149.28030303030303
 10
156.41296625222026
 20
-150.47348484848484
 10
156.1492007104796
 20
-150.60606060606062
 10
156.1492007104796
 20
-150.87121212121212
 10
155.8854351687389
 20
-151.00378787878788
 10
155.8854351687389
 20
-151.9318181818182
 10
155.62166962699823
 20
-152.06439393939394
 10
155.62166962699823
 20
-152.72727272727272
 10
155.35790408525756
 20
-152.8598484848485
 10
155.35790408525756
 20
-155.6439393939394
 10
155.0941385435169
 20
-155.77651515151516
 10
155.0941385435169
 20
-155.9090909090909
 10
154.8303730017762
 20
-156.04166666666666
 10
154.8303730017762
 20
-156.83712121212122
 10
154.56660746003553
 20
-156.96969696969697
 10
154.56660746003553
 20
-157.76515151515153
 10
154.30284191829486
 20
-157.89772727272728
 10
154.30284191829486
 20
-159.0909090909091
 10
154.0390763765542
 20
-159.22348484848484
 10
154.0390763765542
 20
-160.15151515151516
 10
153.7753108348135
 20
-160.2840909090909
 10
153.7753108348135
 20
-160.41666666666666
 10
153.51154529307283
 20
-160.54924242424244
 10
153.51154529307283
 20
-161.21212121212122
 10
153.24777975133216
 20
-161.34469696969697
 10
153.24777975133216
 20
-162.00757575757575
 10
152.9840142095915
 20
-162.14015151515153
 10
152.9840142095915
 20
-163.0681818181818
 10
152.7202486678508
 20
-163.2007575757576
 10
152.7202486678508
 20
-163.99621212121212
 10
152.9840142095915
 20
-164.12878787878788
 10
154.0390763765542
 20
-164.12878787878788
 10
154.30284191829486
 20
-164.26136363636363
 10
155.8854351687389
 20
-164.26136363636363
 10
156.1492007104796
 20
-164.3939393939394
 10
157.2042628774423
 20
-164.3939393939394
 10
157.46802841918296
 20
-164.52651515151516
 10
159.050621669627
 20
-164.52651515151516
 10
159.3143872113677
 20
-164.6590909090909
 10
160.63321492007105
 20
-164.6590909090909
 10
160.89698046181172
 20
-164.79166666666666
 10
162.21580817051512
 20
-164.79166666666666
 10
162.47957371225579
 20
-164.92424242424244
 10
164.06216696269982
 20
-164.92424242424244
 10
164.32593250444052
 20
-165.0568181818182
 10
166.17229129662522
 20
-165.0568181818182
 10
166.43605683836591
 20
-165.18939393939394
 10
168.01865008880995
 20
-165.18939393939394
 10
168.28241563055062
 20
-165.3219696969697
 10
170.6563055062167
 20
-165.3219696969697
 10
170.92007104795738
 20
-165.45454545454547
 10
171.97513321492008
 20
-165.45454545454547
 10
172.23889875666075
 20
-165.58712121212122
 10
173.03019538188278
 20
-165.58712121212122
 10
173.03019538188278
 20
-165.3219696969697
 10
173.29396092362344
 20
-165.18939393939394
 10
173.29396092362344
 20
-164.52651515151516
 10
173.55772646536414
 20
-164.3939393939394
 10
173.55772646536414
 20
-163.59848484848484
 10
173.8214920071048
 20
-163.4659090909091
 10
173.8214920071048
 20
-162.53787878787878
 10
174.08525754884548
 20
-162.40530303030303
 10
174.08525754884548
 20
-160.81439393939394
 10
174.34902309058614
 20
-160.6818181818182
 10
174.34902309058614
 20
-160.54924242424244
 10
174.61278863232684
 20
-160.41666666666666
 10
174.61278863232684
 20
-160.15151515151516
 10
174.8765541740675
 20
-160.0189393939394
 10
174.8765541740675
 20
-159.22348484848484
 10
175.14031971580818
 20
-159.0909090909091
 10
175.14031971580818
 20
-158.03030303030303
 10
175.40408525754884
 20
-157.89772727272728
 10
175.40408525754884
 20
-156.04166666666666
 10
175.66785079928954
 20
-155.9090909090909
 10
175.66785079928954
 20
-155.24621212121212
 10
175.9316163410302
 20
-155.11363636363637
 10
175.9316163410302
 20
-154.3181818181818
 10
176.19538188277087
 20
-154.18560606060606
 10
176.19538188277087
 20
-152.99242424242425
 10
176.45914742451154
 20
-152.8598484848485
 10
176.45914742451154
 20
-151.2689393939394
 10
176.72291296625224
 20
-151.13636363636363
 10
176.72291296625224
 20
-150.73863636363637
 10
176.9866785079929
 20
-150.60606060606062
 10
176.9866785079929
 20
-150.20833333333334
 10
177.25044404973357
 20
-150.0757575757576
 10
177.25044404973357
 20
-149.41287878787878
 10
177.51420959147424
 20
-149.28030303030303
 10
177.51420959147424
 20
-148.21969696969697
 10
177.77797513321494
 20
-148.08712121212122
 10
177.77797513321494
 20
-147.68939393939394
 10
178.0417406749556
 20
-147.5568181818182
 10
179.62433392539964
 20
-147.5568181818182
 10
179.62433392539964
 20
-147.42424242424244
 10
179.88809946714034
 20
-147.29166666666666
 10
179.88809946714034
 20
-144.77272727272728
 10
180.151865008881
 20
-144.64015151515153
 10
180.151865008881
 20
-143.04924242424244
 10
180.41563055062167
 20
-142.91666666666666
 10
180.41563055062167
 20
-140.79545454545456
 10
180.67939609236234
 20
-140.66287878787878
 10
180.67939609236234
 20
-139.60227272727272
 10
180.94316163410303
 20
-139.46969696969697
 10
180.94316163410303
 20
-138.8068181818182
 10
180.67939609236234
 20
-138.67424242424244
 10
180.67939609236234
 20
-136.5530303030303
 10
180.41563055062167
 20
-136.42045454545456
 10
180.41563055062167
 20
-136.28787878787878
 10
179.62433392539964
 20
-135.89015151515153
 10
179.62433392539964
 20
-133.1060606060606
 10
179.88809946714034
 20
-132.97348484848484
 10
179.88809946714034
 20
-128.86363636363637
 10
180.151865008881
 20
-128.7310606060606
 10
180.151865008881
 20
-124.35606060606061
 10
180.41563055062167
 20
-124.22348484848484
 10
180.41563055062167
 20
-121.30681818181819
 10
180.67939609236234
 20
-121.17424242424242
 10
180.67939609236234
 20
-119.7159090909091
 10
180.94316163410303
 20
-119.58333333333334
 10
180.94316163410303
 20
-118.7878787878788
 10
181.2069271758437
 20
-118.65530303030303
 10
181.2069271758437
 20
-116.93181818181819
 10
181.47069271758437
 20
-116.79924242424242
 10
181.47069271758437
 20
-115.3409090909091
 10
181.73445825932504
 20
-115.20833333333333
 10
181.73445825932504
 20
-114.67803030303031
 10
181.99822380106573
 20
-114.54545454545455
 10
181.99822380106573
 20
-113.88257575757576
 10
182.2619893428064
 20
-113.75
 10
182.2619893428064
 20
-112.42424242424242
 10
182.52575488454707
 20
-112.29166666666667
 10
182.52575488454707
 20
-112.02651515151516
 10
182.78952042628777
 20
-111.89393939393939
 10
182.78952042628777
 20
-110.9659090909091
 10
183.05328596802843
 20
-110.83333333333333
 10
183.05328596802843
 20
-110.30303030303031
 10
183.3170515097691
 20
-110.17045454545455
 10
183.3170515097691
 20
-109.90530303030303
 10
183.58081705150977
 20
-109.77272727272728
 10
183.58081705150977
 20
-109.375
 10
183.84458259325046
 20
-109.24242424242425
 10
183.84458259325046
 20
-108.97727272727273
 10
184.10834813499113
 20
-108.84469696969697
 10
184.10834813499113
 20
-107.51893939393939
 10
184.3721136767318
 20
-107.38636363636364
 10
184.3721136767318
 20
-107.25378787878788
 10
184.63587921847247
 20
-107.12121212121212
 10
184.63587921847247
 20
-106.72348484848484
 10
184.89964476021316
 20
-106.5909090909091
 10
184.89964476021316
 20
-105.79545454545455
 10
185.16341030195383
 20
-105.6628787878788
 10
185.16341030195383
 20
-105.53030303030303
 10
185.4271758436945
 20
-105.39772727272728
 10
185.4271758436945
 20
-105.26515151515152
 10
185.69094138543517
 20
-105.13257575757576
 10
185.69094138543517
 20
-104.73484848484848
 10
185.95470692717586
 20
-104.60227272727273
 10
185.95470692717586
 20
-103.93939393939394
 10
186.21847246891653
 20
-103.80681818181819
 10
186.21847246891653
 20
-103.67424242424242
 10
186.4822380106572
 20
-103.54166666666667
 10
186.4822380106572
 20
-103.27651515151516
 10
186.74600355239787
 20
-103.14393939393939
 10
186.74600355239787
 20
-102.74621212121212
 10
187.00976909413856
 20
-102.61363636363636
 10
187.00976909413856
 20
-102.2159090909091
 10
187.27353463587923
 20
-102.08333333333333
 10
187.27353463587923
 20
-101.68560606060606
 10
187.5373001776199
 20
-101.55303030303031
 10
187.5373001776199
 20
-101.15530303030303
 10
187.80106571936057
 20
-101.02272727272728
 10
187.80106571936057
 20
-100.75757575757576
 10
188.06483126110126
 20
-100.625
 10
188.06483126110126
 20
-100.49242424242425
 10
188.32859680284193
 20
-100.35984848484848
 10
188.32859680284193
 20
-100.22727272727273
 10
188.5923623445826
 20
-100.09469696969697
 10
188.5923623445826
 20
-99.82954545454545
 10
188.85612788632326
 20
-99.6969696969697
 10
188.85612788632326
 20
-99.43181818181819
 10
189.11989342806396
 20
-99.29924242424242
 10
189.11989342806396
 20
-99.16666666666667
 10
189.38365896980463
 20
-99.0340909090909
 10
189.38365896980463
 20
-97.8409090909091
 10
189.6474245115453
 20
-97.70833333333333
 10
189.91119005328596
 20
-97.70833333333333
 10
190.17495559502666
 20
-97.57575757575758
 10
190.17495559502666
 20
-97.44318181818183
 10
190.43872113676733
 20
-97.31060606060606
 10
190.43872113676733
 20
-97.04545454545455
 10
190.702486678508
 20
-96.9128787878788
 10
190.702486678508
 20
-96.78030303030303
 10
190.96625222024866
 20
-96.64772727272728
 10
190.96625222024866
 20
-96.51515151515152
 10
191.23001776198936
 20
-96.38257575757576
 10
191.23001776198936
 20
-96.25
 10
191.49378330373003
 20
-96.11742424242425
 10
191.49378330373003
 20
-95.98484848484848
 10
191.7575488454707
 20
-95.85227272727273
 10
191.7575488454707
 20
-95.71969696969697
 10
192.02131438721136
 20
-95.58712121212122
 10
192.02131438721136
 20
-95.45454545454545
 10
192.28507992895206
 20
-95.3219696969697
 10
192.28507992895206
 20
-95.18939393939394
 10
192.54884547069273
 20
-95.05681818181819
 10
192.54884547069273
 20
-94.92424242424242
 10
192.8126110124334
 20
-94.79166666666667
 10
192.8126110124334
 20
-94.6590909090909
 10
193.0763765541741
 20
-94.52651515151516
 10
193.0763765541741
 20
-94.39393939393939
 10
193.34014209591476
 20
-94.26136363636364
 10
193.34014209591476
 20
-94.12878787878788
 10
193.60390763765542
 20
-93.99621212121212
 10
193.60390763765542
 20
-93.86363636363636
 10
193.8676731793961
 20
-93.73106060606061
 10
193.8676731793961
 20
-93.59848484848484
 10
194.1314387211368
 20
-93.4659090909091
 10
194.1314387211368
 20
-93.20075757575758
 10
194.39520426287746
 20
-93.06818181818181
 10
194.39520426287746
 20
-92.80303030303031
 10
194.65896980461812
 20
-92.67045454545455
 10
194.65896980461812
 20
-92.27272727272728
 10
195.71403197158082
 20
-91.74242424242425
 10
195.71403197158082
 20
-91.60984848484848
 10
196.2415630550622
 20
-91.34469696969697
 10
196.2415630550622
 20
-91.21212121212122
 10
196.50532859680285
 20
-91.07954545454545
 10
196.50532859680285
 20
-90.9469696969697
 10
197.0328596802842
 20
-90.68181818181819
 10
197.0328596802842
 20
-90.54924242424242
 10
197.56039076376555
 20
-90.2840909090909
 10
197.56039076376555
 20
-90.15151515151516
 10
198.35168738898759
 20
-89.75378787878788
 10
198.35168738898759
 20
-89.62121212121212
 10
200.98934280639432
 20
-88.29545454545455
 10
200.98934280639432
 20
-88.1628787878788
 10
202.3081705150977
 20
-87.5
 10
202.3081705150977
 20
-87.36742424242425
 10
203.3632326820604
 20
-86.83712121212122
 10
203.3632326820604
 20
-86.70454545454545
 10
205.20959147424512
 20
-85.77651515151516
 10
205.20959147424512
 20
-85.64393939393939
 10
206.79218472468918
 20
-84.84848484848484
 10
206.79218472468918
 20
-84.7159090909091
 10
207.3197158081705
 20
-84.45075757575758
 10
207.3197158081705
 20
-84.31818181818181
 10
207.5834813499112
 20
-84.18560606060606
 10
208.90230905861458
 20
-84.18560606060606
 10
209.4298401420959
 20
-83.92045454545455
 10
209.4298401420959
 20
-83.52272727272728
 10
209.6936056838366
 20
-83.39015151515152
 10
209.6936056838366
 20
-82.72727272727273
 10
209.4298401420959
 20
-82.59469696969697
 10
209.4298401420959
 20
-82.46212121212122
 10
208.90230905861458
 20
-82.1969696969697
 10
208.90230905861458
 20
-81.66666666666667
 10
208.6385435168739
 20
-81.5340909090909
 10
208.6385435168739
 20
-80.47348484848484
 10
208.90230905861458
 20
-80.3409090909091
 10
208.90230905861458
 20
-79.94318181818181
 10
209.16607460035524
 20
-79.81060606060606
 10
209.16607460035524
 20
-79.4128787878788
 10
209.4298401420959
 20
-79.28030303030303
 10
209.4298401420959
 20
-79.01515151515152
 10
209.95737122557728
 20
-78.75
 10
210.22113676731794
 20
-78.75
 10
210.22113676731794
 20
-78.35227272727273
 10
210.4849023090586
 20
-78.21969696969697
 10
210.4849023090586
 20
-77.95454545454545
 10
210.7486678507993
 20
-77.8219696969697
 10
210.7486678507993
 20
-77.29166666666667
 10
211.01243339253998
 20
-77.1590909090909
 10
211.01243339253998
 20
-76.36363636363636
 10
211.27619893428064
 20
-76.23106060606061
 10
211.27619893428064
 20
-74.50757575757576
 10
211.01243339253998
 20
-74.375
 10
211.01243339253998
 20
-73.97727272727273
 10
210.7486678507993
 20
-73.84469696969697
 10
210.7486678507993
 20
-73.57954545454545
 10
210.4849023090586
 20
-73.4469696969697
 10
210.4849023090586
 20
-73.04924242424242
 10
210.22113676731794
 20
-72.91666666666667
 10
210.22113676731794
 20
-72.65151515151516
 10
209.95737122557728
 20
-72.51893939393939
 10
209.95737122557728
 20
-72.25378787878788
 10
209.6936056838366
 20
-72.12121212121212
 10
209.6936056838366
 20
-71.85606060606061
 10
208.90230905861458
 20
-71.85606060606061
 10
208.6385435168739
 20
-71.72348484848484
 10
208.6385435168739
 20
-71.32575757575758
 10
208.3747779751332
 20
-71.19318181818181
 10
208.3747779751332
 20
-70.6628787878788
 10
208.11101243339255
 20
-70.53030303030303
 10
208.11101243339255
 20
-70.13257575757576
 10
207.84724689165188
 20
-70.0
 10
207.84724689165188
 20
-69.46969696969697
 10
207.5834813499112
 20
-69.33712121212122
 10
207.5834813499112
 20
-69.20454545454545
 10
207.3197158081705
 20
-69.0719696969697
 10
207.3197158081705
 20
-68.67424242424242
 10
207.05595026642985
 20
-68.54166666666667
 10
207.05595026642985
 20
-67.74621212121212
 10
206.79218472468918
 20
-67.61363636363636
 10
206.79218472468918
 20
-65.89015151515152
 10
207.05595026642985
 20
-65.75757575757576
 10
207.05595026642985
 20
-60.71969696969697
 10
207.3197158081705
 20
-60.58712121212121
 10
207.3197158081705
 20
-59.3939393939394
 10
207.5834813499112
 20
-59.26136363636364
 10
207.5834813499112
 20
-57.93560606060606
 10
207.84724689165188
 20
-57.803030303030305
 10
207.84724689165188
 20
-56.47727272727273
 10
208.3747779751332
 20
-56.21212121212121
 10
208.3747779751332
 20
-55.81439393939394
 10
208.6385435168739
 20
-55.68181818181818
 10
208.6385435168739
 20
-55.284090909090914
 10
208.90230905861458
 20
-55.151515151515156
 10
208.90230905861458
 20
-54.48863636363637
 10
209.16607460035524
 20
-54.35606060606061
 10
209.16607460035524
 20
-53.82575757575758
 10
209.4298401420959
 20
-53.69318181818182
 10
209.4298401420959
 20
-53.16287878787879
 10
209.6936056838366
 20
-53.03030303030303
 10
209.6936056838366
 20
-52.5
 10
209.95737122557728
 20
-52.36742424242424
 10
209.95737122557728
 20
-51.70454545454545
 10
210.22113676731794
 20
-51.571969696969695
 10
210.4849023090586
 20
-51.571969696969695
 10
210.4849023090586
 20
-51.30681818181818
 10
210.7486678507993
 20
-51.17424242424242
 10
210.7486678507993
 20
-50.776515151515156
 10
211.01243339253998
 20
-50.6439393939394
 10
211.01243339253998
 20
-50.246212121212125
 10
211.27619893428064
 20
-50.11363636363637
 10
211.27619893428064
 20
-49.71590909090909
 10
211.5399644760213
 20
-49.583333333333336
 10
211.5399644760213
 20
-49.18560606060606
 10
211.803730017762
 20
-49.053030303030305
 10
211.803730017762
 20
-48.65530303030303
 10
212.06749555950267
 20
-48.52272727272727
 10
212.06749555950267
 20
-48.125
 10
212.33126110124334
 20
-47.99242424242424
 10
212.33126110124334
 20
-46.93181818181818
 10
212.595026642984
 20
-46.79924242424242
 10
212.8587921847247
 20
-46.79924242424242
 10
213.12255772646537
 20
-46.666666666666664
 10
213.12255772646537
 20
-46.401515151515156
 10
213.38632326820604
 20
-46.2689393939394
 10
213.38632326820604
 20
-46.00378787878788
 10
213.6500888099467
 20
-45.871212121212125
 10
213.6500888099467
 20
-45.60606060606061
 10
213.9138543516874
 20
-45.47348484848485
 10
213.9138543516874
 20
-45.208333333333336
 10
214.17761989342807
 20
-45.07575757575758
 10
214.17761989342807
 20
-44.81060606060606
 10
214.44138543516874
 20
-44.678030303030305
 10
214.44138543516874
 20
-44.41287878787879
 10
214.70515097690944
 20
-44.28030303030303
 10
214.70515097690944
 20
-44.015151515151516
 10
214.9689165186501
 20
-43.88257575757576
 10
214.9689165186501
 20
-43.484848484848484
 10
215.23268206039077
 20
-43.35227272727273
 10
215.23268206039077
 20
-43.08712121212121
 10
215.49644760213144
 20
-42.95454545454545
 10
215.49644760213144
 20
-42.42424242424242
 10
215.76021314387214
 20
-42.291666666666664
 10
216.0239786856128
 20
-42.291666666666664
 10
216.28774422735347
 20
-42.15909090909091
 10
216.28774422735347
 20
-42.026515151515156
 10
216.55150976909414
 20
-41.8939393939394
 10
216.55150976909414
 20
-41.76136363636364
 10
216.81527531083483
 20
-41.62878787878788
 10
216.81527531083483
 20
-41.36363636363637
 10
217.0790408525755
 20
-41.23106060606061
 10
217.0790408525755
 20
-40.96590909090909
 10
217.34280639431617
 20
-40.833333333333336
 10
217.34280639431617
 20
-40.70075757575758
 10
217.60657193605684
 20
-40.56818181818182
 10
217.60657193605684
 20
-40.303030303030305
 10
217.87033747779753
 20
-40.17045454545455
 10
217.87033747779753
 20
-40.03787878787879
 10
218.1341030195382
 20
-39.90530303030303
 10
218.1341030195382
 20
-39.640151515151516
 10
218.39786856127887
 20
-39.50757575757576
 10
218.39786856127887
 20
-39.375
 10
218.66163410301954
 20
-39.24242424242424
 10
218.66163410301954
 20
-38.97727272727273
 10
218.92539964476023
 20
-38.84469696969697
 10
218.92539964476023
 20
-37.916666666666664
 10
219.1891651865009
 20
-37.78409090909091
 10
219.98046181172293
 20
-37.78409090909091
 10
219.98046181172293
 20
-37.651515151515156
 10
220.2442273534636
 20
-37.5189393939394
 10
220.2442273534636
 20
-37.38636363636364
 10
220.50799289520427
 20
-37.25378787878788
 10
220.50799289520427
 20
-37.121212121212125
 10
220.77175843694494
 20
-36.98863636363637
 10
220.77175843694494
 20
-36.85606060606061
 10
221.03552397868563
 20
-36.72348484848485
 10
221.03552397868563
 20
-36.59090909090909
 10
221.2992895204263
 20
-36.458333333333336
 10
221.2992895204263
 20
-36.32575757575758
 10
221.56305506216697
 20
-36.19318181818182
 10
221.56305506216697
 20
-35.928030303030305
 10
221.82682060390763
 20
-35.79545454545455
 10
221.82682060390763
 20
-35.66287878787879
 10
222.09058614564833
 20
-35.53030303030303
 10
222.09058614564833
 20
-35.39772727272727
 10
222.354351687389
 20
-35.265151515151516
 10
222.354351687389
 20
-35.13257575757576
 10
222.61811722912967
 20
-35.0
 10
222.61811722912967
 20
-34.734848484848484
 10
222.88188277087033
 20
-34.60227272727273
 10
222.88188277087033
 20
-33.67424242424242
 10
223.14564831261103
 20
-33.541666666666664
 10
223.93694493783303
 20
-33.541666666666664
 10
223.93694493783303
 20
-33.40909090909091
 10
224.20071047957373
 20
-33.27651515151515
 10
224.20071047957373
 20
-33.1439393939394
 10
224.4644760213144
 20
-33.01136363636364
 10
224.4644760213144
 20
-32.87878787878788
 10
224.72824156305506
 20
-32.746212121212125
 10
224.72824156305506
 20
-32.61363636363637
 10
224.99200710479576
 20
-32.48106060606061
 10
224.99200710479576
 20
-32.34848484848485
 10
225.25577264653643
 20
-32.21590909090909
 10
225.25577264653643
 20
-32.083333333333336
 10
225.5195381882771
 20
-31.950757575757578
 10
225.5195381882771
 20
-31.81818181818182
 10
225.78330373001776
 20
-31.685606060606062
 10
225.78330373001776
 20
-31.553030303030305
 10
226.04706927175846
 20
-31.420454545454547
 10
226.04706927175846
 20
-31.28787878787879
 10
226.31083481349913
 20
-31.15530303030303
 10
226.31083481349913
 20
-31.022727272727273
 10
226.5746003552398
 20
-30.890151515151516
 10
226.5746003552398
 20
-30.757575757575758
 10
226.83836589698046
 20
-30.625
 10
226.83836589698046
 20
-30.359848484848484
 10
227.10213143872116
 20
-30.227272727272727
 10
227.10213143872116
 20
-29.96212121212121
 10
227.36589698046183
 20
-29.829545454545457
 10
227.36589698046183
 20
-29.6969696969697
 10
227.6296625222025
 20
-29.56439393939394
 10
227.6296625222025
 20
-29.03409090909091
 10
227.89342806394316
 20
-28.901515151515152
 10
228.42095914742453
 20
-28.901515151515152
 10
228.6847246891652
 20
-28.768939393939394
 10
228.6847246891652
 20
-28.636363636363637
 10
228.94849023090586
 20
-28.50378787878788
 10
228.94849023090586
 20
-28.238636363636363
 10
229.47602131438722
 20
-27.973484848484848
 10
229.47602131438722
 20
-27.84090909090909
 10
229.7397868561279
 20
-27.708333333333332
 10
229.7397868561279
 20
-27.575757575757578
 10
230.26731793960926
 20
-27.310606060606062
 10
230.26731793960926
 20
-27.178030303030305
 10
230.53108348134992
 20
-27.045454545454547
 10
230.53108348134992
 20
-26.91287878787879
 10
230.7948490230906
 20
-26.78030303030303
 10
230.7948490230906
 20
-26.647727272727273
 10
231.05861456483126
 20
-26.515151515151516
 10
231.05861456483126
 20
-26.382575757575758
 10
231.32238010657196
 20
-26.25
 10
231.32238010657196
 20
-26.117424242424242
 10
231.58614564831262
 20
-25.984848484848484
 10
231.58614564831262
 20
-25.852272727272727
 10
231.8499111900533
 20
-25.71969696969697
 10
231.8499111900533
 20
-25.58712121212121
 10
232.37744227353465
 20
-25.3219696969697
 10
232.37744227353465
 20
-25.18939393939394
 10
232.64120781527532
 20
-25.056818181818183
 10
232.64120781527532
 20
-24.526515151515152
 10
232.904973357016
 20
-24.393939393939394
 10
233.43250444049735
 20
-24.393939393939394
 10
233.43250444049735
 20
-24.261363636363637
 10
233.69626998223802
 20
-24.12878787878788
 10
233.69626998223802
 20
-23.99621212121212
 10
233.9600355239787
 20
-23.863636363636363
 10
233.9600355239787
 20
-23.598484848484848
 10
234.48756660746005
 20
-23.333333333333332
 10
234.48756660746005
 20
-23.200757575757578
 10
234.75133214920072
 20
-23.06818181818182
 10
234.75133214920072
 20
-22.935606060606062
 10
235.0150976909414
 20
-22.803030303030305
 10
235.0150976909414
 20
-22.53787878787879
 10
235.27886323268206
 20
-22.40530303030303
 10
235.27886323268206
 20
-22.272727272727273
 10
235.54262877442275
 20
-22.140151515151516
 10
235.80639431616342
 20
-22.140151515151516
 10
235.80639431616342
 20
-22.007575757575758
 10
236.0701598579041
 20
-21.875
 10
236.0701598579041
 20
-21.742424242424242
 10
236.59769094138545
 20
-21.477272727272727
 10
236.59769094138545
 20
-21.34469696969697
 10
236.86145648312612
 20
-21.21212121212121
 10
236.86145648312612
 20
-21.079545454545453
 10
237.1252220248668
 20
-20.9469696969697
 10
237.1252220248668
 20
-20.81439393939394
 10
237.38898756660748
 20
-20.681818181818183
 10
237.38898756660748
 20
-20.549242424242426
 10
237.65275310834815
 20
-20.416666666666668
 10
237.65275310834815
 20
-20.28409090909091
 10
237.91651865008882
 20
-20.151515151515152
 10
237.91651865008882
 20
-20.018939393939394
 10
238.1802841918295
 20
-19.886363636363637
 10
238.1802841918295
 20
-19.75378787878788
 10
238.70781527531085
 20
-19.488636363636363
 10
238.70781527531085
 20
-19.356060606060606
 10
238.97158081705152
 20
-19.223484848484848
 10
238.97158081705152
 20
-19.09090909090909
 10
239.23534635879219
 20
-18.958333333333332
 10
239.23534635879219
 20
-18.825757575757578
 10
239.49911190053288
 20
-18.69318181818182
 10
239.49911190053288
 20
-18.560606060606062
 10
239.76287744227355
 20
-18.428030303030305
 10
239.76287744227355
 20
-18.295454545454547
 10
240.02664298401422
 20
-18.16287878787879
 10
240.02664298401422
 20
-18.03030303030303
 10
240.55417406749558
 20
-17.765151515151516
 10
240.55417406749558
 20
-17.632575757575758
 10
240.81793960923625
 20
-17.5
 10
240.81793960923625
 20
-17.367424242424242
 10
241.08170515097692
 20
-17.234848484848484
 10
241.08170515097692
 20
-17.102272727272727
 10
241.34547069271758
 20
-16.96969696969697
 10
241.34547069271758
 20
-16.83712121212121
 10
241.60923623445828
 20
-16.704545454545453
 10
241.60923623445828
 20
-16.5719696969697
 10
241.87300177619895
 20
-16.43939393939394
 10
241.87300177619895
 20
-16.306818181818183
 10
242.13676731793961
 20
-16.174242424242426
 10
242.13676731793961
 20
-16.041666666666668
 10
242.40053285968028
 20
-15.90909090909091
 10
242.40053285968028
 20
-15.776515151515152
 10
242.66429840142098
 20
-15.643939393939394
 10
242.66429840142098
 20
-15.511363636363637
 10
242.92806394316165
 20
-15.378787878787879
 10
242.92806394316165
 20
-15.246212121212121
 10
243.1918294849023
 20
-15.113636363636363
 10
243.1918294849023
 20
-14.981060606060606
 10
243.45559502664298
 20
-14.84848484848485
 10
243.45559502664298
 20
-14.318181818181818
 10
243.1918294849023
 20
-14.18560606060606
 10
242.92806394316165
 20
-14.18560606060606
 10
242.66429840142098
 20
-14.053030303030303
 10
242.40053285968028
 20
-14.053030303030303
 10
241.87300177619895
 20
-13.787878787878789
 10
241.60923623445828
 20
-13.787878787878789
 10
241.34547069271758
 20
-13.655303030303031
 10
241.08170515097692
 20
-13.655303030303031
 10
240.81793960923625
 20
-13.522727272727273
 10
240.55417406749558
 20
-13.522727272727273
 10
240.29040852575488
 20
-13.390151515151516
 10
240.02664298401422
 20
-13.390151515151516
 10
239.76287744227355
 20
-13.257575757575758
 10
239.49911190053288
 20
-13.257575757575758
 10
238.97158081705152
 20
-12.992424242424242
 10
238.70781527531085
 20
-12.992424242424242
 10
238.44404973357018
 20
-12.859848484848484
 10
238.1802841918295
 20
-12.859848484848484
 10
237.91651865008882
 20
-12.727272727272728
 10
237.65275310834815
 20
-12.727272727272728
 10
237.38898756660748
 20
-12.59469696969697
 10
237.1252220248668
 20
-12.59469696969697
 10
236.86145648312612
 20
-12.462121212121213
 10
236.59769094138545
 20
-12.462121212121213
 10
236.0701598579041
 20
-12.196969696969697
 10
235.80639431616342
 20
-12.196969696969697
 10
235.54262877442275
 20
-12.06439393939394
 10
235.27886323268206
 20
-12.06439393939394
 10
235.0150976909414
 20
-11.931818181818182
 10
234.75133214920072
 20
-11.931818181818182
 10
234.48756660746005
 20
-11.799242424242424
 10
234.22380106571936
 20
-11.799242424242424
 10
233.69626998223802
 20
-11.53409090909091
 10
233.43250444049735
 20
-11.53409090909091
 10
233.16873889875666
 20
-11.401515151515152
 10
232.904973357016
 20
-11.401515151515152
 10
232.64120781527532
 20
-11.268939393939394
 10
232.37744227353465
 20
-11.268939393939394
 10
232.11367673179396
 20
-11.136363636363637
 10
231.8499111900533
 20
-11.136363636363637
 10
231.58614564831262
 20
-11.003787878787879
 10
231.32238010657196
 20
-11.003787878787879
 10
230.7948490230906
 20
-10.738636363636363
 10
230.53108348134992
 20
-10.738636363636363
 10
230.26731793960926
 20
-10.606060606060606
 10
230.00355239786856
 20
-10.606060606060606
 10
229.7397868561279
 20
-10.47348484848485
 10
229.47602131438722
 20
-10.47348484848485
 10
229.21225577264656
 20
-10.340909090909092
 10
228.94849023090586
 20
-10.340909090909092
 10
228.42095914742453
 20
-10.075757575757576
 10
228.15719360568386
 20
-10.075757575757576
 10
227.89342806394316
 20
-9.943181818181818
 10
227.6296625222025
 20
-9.943181818181818
 10
227.36589698046183
 20
-9.81060606060606
 10
227.10213143872116
 20
-9.81060606060606
 10
226.83836589698046
 20
-9.678030303030303
 10
226.5746003552398
 20
-9.678030303030303
 10
226.31083481349913
 20
-9.545454545454545
  0
TEXT
  5
3C
330
17
100
AcDbEntity
  8
TEXT
100
AcDbText
 10
187.00976909413856
 20
-85.37878787878788
 30
0.0
 40
5.0
  1
Contour 5
100
AcDbText
  0
LWPOLYLINE
  5
3D
330
17
100
AcDbEntity
  8
CONTOURS
100
AcDbPolyline
 90
34
 70
1
 10
0.0
 20
0.0
 10
0.0
 20
-1.4583333333333333
 10
0.26376554174067496
 20
-1.4583333333333333
 10
0.26376554174067496
 20
-0.39772727272727276
 10
0.5275310834813499
 20
-0.26515151515151514
 10
2.373889875666075
 20
-0.26515151515151514
 10
2.6376554174067497
 20
-0.13257575757575757
 10
26.904085257548846
 20
-0.13257575757575757
 10
27.16785079928952
 20
-0.26515151515151514
 10
106.82504440497335
 20
-0.26515151515151514
 10
107.08880994671404
 20
-0.39772727272727276
 10
111.30905861456483
 20
-0.39772727272727276
 10
111.57282415630551
 20
-0.26515151515151514
 10
115.79307282415631
 20
-0.26515151515151514
 10
116.05683836589698
 20
-0.39772727272727276
 10
134.25666074600355
 20
-0.39772727272727276
 10
134.52042628774424
 20
-0.5303030303030303
 10
153.24777975133216
 20
-0.5303030303030303
 10
153.51154529307283
 20
-0.6628787878787878
 10
157.46802841918296
 20
-0.6628787878787878
 10
157.73179396092362
 20
-0.5303030303030303
 10
158.259325044405
 20
-0.5303030303030303
 10
158.259325044405
 20
-0.26515151515151514
 10
158.52309058614566
 20
-0.13257575757575757
 10
165.38099467140322
 20
-0.13257575757575757
 10
165.64476021314388
 20
-0.26515151515151514
 10
237.65275310834815
 20
-0.26515151515151514
 10
237.91651865008882
 20
-0.13257575757575757
 10
240.02664298401422
 20
-0.13257575757575757
 10
240.29040852575488
 20
-0.26515151515151514
 10
256.38010657193604
 20
-0.26515151515151514
 10
256.64387211367676
 20
-0.13257575757575757
 10
269.0408525754885
 20
-0.13257575757575757
 10
269.0408525754885
 20
0.0
  0
TEXT
  5
3E
330
17
100
AcDbEntity
  8
TEXT
100
AcDbText
 10
136.10301953818828
 20
-0.13257575757575757
 30
0.0
 40
5.0
  1
Contour 6
100
AcDbText
  0
ENDSEC
  0
SECTION
  2
OBJECTS
  0
DICTIONARY
  5
A
330
0
100
AcDbDictionary
280
0
281
1
  3
ACAD_COLOR
350
B
  3
ACAD_GROUP
350
C
  3
ACAD_LAYOUT
350
D
  3
ACAD_MATERIAL
350
E
  3
ACAD_MLEADERSTYLE
350
F
  3
ACAD_MLINESTYLE
350
10
  3
ACAD_PLOTSETTINGS
350
11
  3
ACAD_PLOTSTYLENAME
350
12
  3
ACAD_SCALELIST
350
14
  3
ACAD_TABLESTYLE
350
15
  3
ACAD_VISUALSTYLE
350
16
  3
EZDXF_META
350
2D
  0
DICTIONARY
  5
B
330
A
100
AcDbDictionary
280
0
281
1
  0
DICTIONARY
  5
C
330
A
100
AcDbDictionary
280
0
281
1
  0
DICTIONARY
  5
D
330
A
100
AcDbDictionary
280
0
281
1
  3
Model
350
1A
  3
Layout1
350
1E
  0
DICTIONARY
  5
E
330
A
100
AcDbDictionary
280
0
281
1
  3
ByBlock
350
1F
  3
ByLayer
350
20
  3
Global
350
21
  0
DICTIONARY
  5
F
330
A
100
AcDbDictionary
280
0
281
1
  3
Standard
350
2C
  0
DICTIONARY
  5
10
330
A
100
AcDbDictionary
280
0
281
1
  3
Standard
350
22
  0
DICTIONARY
  5
11
330
A
100
AcDbDictionary
280
0
281
1
  0
ACDBDICTIONARYWDFLT
  5
12
330
A
100
AcDbDictionary
280
0
281
1
  3
Normal
350
13
100
AcDbDictionaryWithDefault
340
13
  0
ACDBPLACEHOLDER
  5
13
330
12
  0
DICTIONARY
  5
14
330
A
100
AcDbDictionary
280
0
281
1
  0
DICTIONARY
  5
15
330
A
100
AcDbDictionary
280
0
281
1
  0
DICTIONARY
  5
16
330
A
100
AcDbDictionary
280
0
281
1
  0
LAYOUT
  5
1A
330
D
100
AcDbPlotSettings
  1

  4
A3
  6

 40
7.5
 41
20.0
 42
7.5
 43
20.0
 44
420.0
 45
297.0
 46
0.0
 47
0.0
 48
0.0
 49
0.0
140
0.0
141
0.0
142
1.0
143
1.0
 70
1024
 72
1
 73
0
 74
5
  7

 75
16
 76
0
 77
2
 78
300
147
1.0
148
0.0
149
0.0
100
AcDbLayout
  1
Model
 70
1
 71
0
 10
0.0
 20
0.0
 11
420.0
 21
297.0
 12
0.0
 22
0.0
 32
0.0
 14
1e+20
 24
1e+20
 34
1e+20
 15
-1e+20
 25
-1e+20
 35
-1e+20
146
0.0
 13
0.0
 23
0.0
 33
0.0
 16
1.0
 26
0.0
 36
0.0
 17
0.0
 27
1.0
 37
0.0
 76
1
330
17
  0
LAYOUT
  5
1E
330
D
100
AcDbPlotSettings
  1

  4
A3
  6

 40
7.5
 41
20.0
 42
7.5
 43
20.0
 44
420.0
 45
297.0
 46
0.0
 47
0.0
 48
0.0
 49
0.0
140
0.0
141
0.0
142
1.0
143
1.0
 70
0
 72
1
 73
0
 74
5
  7

 75
16
 76
0
 77
2
 78
300
147
1.0
148
0.0
149
0.0
100
AcDbLayout
  1
Layout1
 70
1
 71
1
 10
0.0
 20
0.0
 11
420.0
 21
297.0
 12
0.0
 22
0.0
 32
0.0
 14
1e+20
 24
1e+20
 34
1e+20
 15
-1e+20
 25
-1e+20
 35
-1e+20
146
0.0
 13
0.0
 23
0.0
 33
0.0
 16
1.0
 26
0.0
 36
0.0
 17
0.0
 27
1.0
 37
0.0
 76
1
330
1B
  0
MATERIAL
  5
1F
102
{ACAD_REACTORS
330
E
102
}
330
E
100
AcDbMaterial
  1
ByBlock
  2

 70
0
 40
1.0
 71
1
 41
1.0
 91
-1023410177
 42
1.0
 72
1
  3

 73
1
 74
1
 75
1
 44
0.5
 73
0
 45
1.0
 46
1.0
 77
1
  4

 78
1
 79
1
170
1
 48
1.0
171
1
  6

172
1
173
1
174
1
140
1.0
141
1.0
175
1
  7

176
1
177
1
178
1
143
1.0
179
1
  8

270
1
271
1
272
1
145
1.0
146
1.0
273
1
  9

274
1
275
1
276
1
 42
1.0
 72
1
  3

 73
1
 74
1
 75
1
 94
63
  0
MATERIAL
  5
20
102
{ACAD_REACTORS
330
E
102
}
330
E
100
AcDbMaterial
  1
ByLayer
  2

 70
0
 40
1.0
 71
1
 41
1.0
 91
-1023410177
 42
1.0
 72
1
  3

 73
1
 74
1
 75
1
 44
0.5
 73
0
 45
1.0
 46
1.0
 77
1
  4

 78
1
 79
1
170
1
 48
1.0
171
1
  6

172
1
173
1
174
1
140
1.0
141
1.0
175
1
  7

176
1
177
1
178
1
143
1.0
179
1
  8

270
1
271
1
272
1
145
1.0
146
1.0
273
1
  9

274
1
275
1
276
1
 42
1.0
 72
1
  3

 73
1
 74
1
 75
1
 94
63
  0
MATERIAL
  5
21
102
{ACAD_REACTORS
330
E
102
}
330
E
100
AcDbMaterial
  1
Global
  2

 70
0
 40
1.0
 71
1
 41
1.0
 91
-1023410177
 42
1.0
 72
1
  3

 73
1
 74
1
 75
1
 44
0.5
 73
0
 45
1.0
 46
1.0
 77
1
  4

 78
1
 79
1
170
1
 48
1.0
171
1
  6

172
1
173
1
174
1
140
1.0
141
1.0
175
1
  7

176
1
177
1
178
1
143
1.0
179
1
  8

270
1
271
1
272
1
145
1.0
146
1.0
273
1
  9

274
1
275
1
276
1
 42
1.0
 72
1
  3

 73
1
 74
1
 75
1
 94
63
  0
MLINESTYLE
  5
22
102
{ACAD_REACTORS
330
10
102
}
330
10
100
AcDbMlineStyle
  2
Standard
 70
0
  3

 62
256
 51
90.0
 52
90.0
 71
2
 49
0.5
 62
256
  6
BYLAYER
 49
-0.5
 62
256
  6
BYLAYER
  0
MLEADERSTYLE
  5
2C
102
{ACAD_REACTORS
330
F
102
}
330
F
100
AcDbMLeaderStyle
179
2
170
2
171
1
172
0
 90
2
 40
0.0
 41
0.0
173
1
 91
-1056964608
 92
-2
290
1
 42
2.0
291
1
 43
8.0
  3
Standard
 44
4.0
300

342
29
174
1
175
1
176
0
178
1
 93
-1056964608
 45
4.0
292
0
297
0
 46
4.0
 94
-1056964608
 47
1.0
 49
1.0
140
1.0
294
1
141
0.0
177
0
142
1.0
295
0
296
0
143
3.75
271
0
272
9
273
9
  0
DICTIONARY
  5
2D
330
A
100
AcDbDictionary
280
1
281
1
  3
CREATED_BY_EZDXF
350
2E
  3
WRITTEN_BY_EZDXF
350
41
  0
DICTIONARYVAR
  5
2E
330
2D
100
DictionaryVariables
280
0
  1
1.4.0 @ 2025-03-27T10:24:55.967278+00:00
  0
DICTIONARYVAR
  5
41
330
2D
100
DictionaryVariables
280
0
  1
1.4.0 @ 2025-03-27T10:24:55.994568+00:00
  0
ENDSEC
  0
EOF
